<?xml version="1.0" encoding="UTF-8" standalone="no"?>
<!-- Created with Inkscape (http://www.inkscape.org/) -->

<svg
   xmlns:dc="http://purl.org/dc/elements/1.1/"
   xmlns:cc="http://creativecommons.org/ns#"
   xmlns:rdf="http://www.w3.org/1999/02/22-rdf-syntax-ns#"
   xmlns:svg="http://www.w3.org/2000/svg"
   xmlns="http://www.w3.org/2000/svg"
   xmlns:sodipodi="http://sodipodi.sourceforge.net/DTD/sodipodi-0.dtd"
   xmlns:inkscape="http://www.inkscape.org/namespaces/inkscape"
   width="744.09448819"
   height="1052.3622047"
   id="svg2"
   version="1.1"
   inkscape:version="0.48.4 r9939"
   sodipodi:docname="Frame.svg">
  <defs
     id="defs4" />
  <sodipodi:namedview
     id="base"
     pagecolor="#ffffff"
     bordercolor="#666666"
     borderopacity="1.0"
     inkscape:pageopacity="0.0"
     inkscape:pageshadow="2"
     inkscape:zoom="0.11313708"
     inkscape:cx="-761.73477"
     inkscape:cy="743.04518"
     inkscape:document-units="px"
     inkscape:current-layer="layer1"
     showgrid="true"
     inkscape:window-width="1366"
     inkscape:window-height="705"
     inkscape:window-x="1358"
     inkscape:window-y="-8"
     inkscape:window-maximized="1">
    <inkscape:grid
       type="xygrid"
       id="grid3757"
       empspacing="2"
       visible="true"
       enabled="true"
       snapvisiblegridlinesonly="true"
       units="cm"
       spacingx="0.5cm"
       spacingy="0.5cm"
       dotted="false" />
  </sodipodi:namedview>
  <metadata
     id="metadata7">
    <rdf:RDF>
      <cc:Work
         rdf:about="">
        <dc:format>image/svg+xml</dc:format>
        <dc:type
           rdf:resource="http://purl.org/dc/dcmitype/StillImage" />
        <dc:title></dc:title>
      </cc:Work>
    </rdf:RDF>
  </metadata>
  <g
     inkscape:label="Layer 1"
     inkscape:groupmode="layer"
     id="layer1">
    <path
       style="fill:#0000ff;fill-opacity:1;stroke:none"
       d="m 0,1158.6717 0,1417.3125 1488.1875,0 0,-1417.3125 -159.4375,0 0,17.7188 -17.7188,0 0,-17.7188 -17.7187,0 0,17.7188 -17.7187,0 0,-17.7188 -17.7188,0 0,17.7188 -17.7188,0 0,-17.7188 -17.7187,0 0,17.7188 -17.7187,0 0,-17.7188 -17.7188,0 0,17.7188 -17.7188,0 0,-17.7188 -17.7187,0 0,17.7188 -17.7187,0 0,-17.7188 -17.7188,0 0,17.7188 -17.6875,0 0,-17.7188 -17.7187,0 0,17.7188 -17.7188,0 0,-17.7188 -17.7188,0 0,17.7188 -17.7187,0 0,-17.7188 -17.7187,0 0,17.7188 -17.7188,0 0,-17.7188 -17.71875,0 0,17.7188 -17.71875,0 0,-17.7188 -17.71875,0 0,17.7188 -17.71875,0 0,-17.7188 -17.71875,0 0,17.7188 -17.71875,0 0,-17.7188 -17.71875,0 0,17.7188 -17.6875,0 0,-17.7188 -17.71875,0 0,17.7188 -17.71875,0 0,-17.7188 -17.71875,0 0,17.7188 -17.71875,0 0,-17.7188 -17.71875,0 0,17.7188 -17.71875,0 0,-17.7188 -17.71875,0 0,17.7188 -17.71875,0 0,-17.7188 -17.71875,0 0,17.7188 -17.71875,0 0,-17.7188 -17.71875,0 0,17.7188 -17.71875,0 0,-17.7188 -17.71875,0 0,17.7188 -17.6875,0 0,-17.7188 -17.71875,0 0,17.7188 -17.71875,0 0,-17.7188 -17.71875,0 0,17.7188 -17.71875,0 0,-17.7188 -17.71875,0 0,17.7188 -17.71875,0 0,-17.7188 -17.71875,0 0,17.7188 -17.71875,0 0,-17.7188 -17.71875,0 0,17.7188 -17.71875,0 0,-17.7188 -17.71875,0 0,17.7188 -17.71875,0 0,-17.7188 -17.71875,0 0,17.7188 -17.6875,0 0,-17.7188 -17.71875,0 0,17.7188 -17.71875,0 0,-17.7188 -17.71875,0 0,17.7188 -17.71875,0 0,-17.7188 -17.71875,0 0,17.7188 -17.71875,0 0,-17.7188 -17.71875,0 0,17.7188 -17.71875,0 0,-17.7188 -17.71875,0 0,17.7188 -17.71875,0 0,-17.7188 -17.71875,0 0,17.7188 -17.71875,0 0,-17.7188 -141.71875,0 z"
       id="rect3934"
       inkscape:connector-curvature="0" />
  </g>
</svg>
