  0
SECTION
  2
HEADER
  9
$ACADVER
  1
AC1014
  9
$HANDSEED
  5
FFFF
  9
$MEASUREMENT
 70
     1
  0
ENDSEC
  0
SECTION
  2
TABLES
  0
TABLE
  2
VPORT
  5
8
330
0
100
AcDbSymbolTable
 70
     4
  0
VPORT
  5
2E
330
8
100
AcDbSymbolTableRecord
100
AcDbViewportTableRecord
  2
*ACTIVE
 70
     0
 10
0.0
 20
0.0
 11
1.0
 21
1.0
 12
210.0
 22
148.5
 13
0.0
 23
0.0
 14
10.0
 24
10.0
 15
10.0
 25
10.0
 16
0.0
 26
0.0
 36
1.0
 17
0.0
 27
0.0
 37
0.0
 40
341.0
 41
1.24
 42
50.0
 43
0.0
 44
0.0
 50
0.0
 51
0.0
 71
     0
 72
   100
 73
     1
 74
     3
 75
     0
 76
     0
 77
     0
 78
     0
  0
ENDTAB
  0
TABLE
  2
LTYPE
  5
5
330
0
100
AcDbSymbolTable
 70
     1
  0
LTYPE
  5
14
330
5
100
AcDbSymbolTableRecord
100
AcDbLinetypeTableRecord
  2
BYBLOCK
 70
     0
  3

 72
    65
 73
     0
 40
0.0
  0
LTYPE
  5
15
330
5
100
AcDbSymbolTableRecord
100
AcDbLinetypeTableRecord
  2
BYLAYER
 70
     0
  3

 72
    65
 73
     0
 40
0.0
  0
LTYPE
  5
16
330
5
100
AcDbSymbolTableRecord
100
AcDbLinetypeTableRecord
  2
CONTINUOUS
 70
     0
  3
Solid line
 72
    65
 73
     0
 40
0.0
  0
ENDTAB
  0
TABLE
  2
LAYER
  5
2
100
AcDbSymbolTable
 70
2
  0
LAYER
  5
50
100
AcDbSymbolTableRecord
100
AcDbLayerTableRecord
  2
0
 70
0
  6
CONTINUOUS
  0
LAYER
  5
51
100
AcDbSymbolTableRecord
100
AcDbLayerTableRecord
  2
Layer_1
 70
0
  6
CONTINUOUS
  0
ENDTAB
  0
TABLE
  2
STYLE
  5
3
330
0
100
AcDbSymbolTable
 70
     1
  0
STYLE
  5
11
330
3
100
AcDbSymbolTableRecord
100
AcDbTextStyleTableRecord
  2
STANDARD
 70
     0
 40
0.0
 41
1.0
 50
0.0
 71
     0
 42
2.5
  3
txt
  4

  0
ENDTAB
  0
TABLE
  2
VIEW
  5
6
330
0
100
AcDbSymbolTable
 70
     0
  0
ENDTAB
  0
TABLE
  2
UCS
  5
7
330
0
100
AcDbSymbolTable
 70
     0
  0
ENDTAB
  0
TABLE
  2
APPID
  5
9
330
0
100
AcDbSymbolTable
 70
     2
  0
APPID
  5
12
330
9
100
AcDbSymbolTableRecord
100
AcDbRegAppTableRecord
  2
ACAD
 70
     0
  0
ENDTAB
  0
TABLE
  2
DIMSTYLE
  5
A
330
0
100
AcDbSymbolTable
 70
     1
  0
DIMSTYLE
105
27
330
A
100
AcDbSymbolTableRecord
100
AcDbDimStyleTableRecord
  2
ISO-25
 70
     0
  3

  4

  5

  6

  7

 40
1.0
 41
2.5
 42
0.625
 43
3.75
 44
1.25
 45
0.0
 46
0.0
 47
0.0
 48
0.0
140
2.5
141
2.5
142
0.0
143
0.03937007874016
144
1.0
145
0.0
146
1.0
147
0.625
 71
     0
 72
     0
 73
     0
 74
     0
 75
     0
 76
     0
 77
     1
 78
     8
170
     0
171
     3
172
     1
173
     0
174
     0
175
     0
176
     0
177
     0
178
     0
270
     2
271
     2
272
     2
273
     2
274
     3
340
11
275
     0
280
     0
281
     0
282
     0
283
     0
284
     8
285
     0
286
     0
287
     3
288
     0
  0
ENDTAB
  0
TABLE
  2
BLOCK_RECORD
  5
1
330
0
100
AcDbSymbolTable
 70
     1
  0
BLOCK_RECORD
  5
1F
330
1
100
AcDbSymbolTableRecord
100
AcDbBlockTableRecord
  2
*MODEL_SPACE
  0
BLOCK_RECORD
  5
1B
330
1
100
AcDbSymbolTableRecord
100
AcDbBlockTableRecord
  2
*PAPER_SPACE
  0
ENDTAB
  0
ENDSEC
  0
SECTION
  2
BLOCKS
  0
BLOCK
  5
20
330
1F
100
AcDbEntity
  8
0
100
AcDbBlockBegin
  2
*MODEL_SPACE
 70
     0
 10
0.0
 20
0.0
 30
0.0
  3
*MODEL_SPACE
  1

  0
ENDBLK
  5
21
330
1F
100
AcDbEntity
  8
0
100
AcDbBlockEnd
  0
BLOCK
  5
1C
330
1B
100
AcDbEntity
 67
     1
  8
0
100
AcDbBlockBegin
  2
*PAPER_SPACE
  1

  0
ENDBLK
  5
1D
330
1B
100
AcDbEntity
 67
     1
  8
0
100
AcDbBlockEnd
  0
ENDSEC
  0
SECTION
  2
ENTITIES
  0
SPLINE
  5
100
100
AcDbEntity
  8
Layer_1
 62
7
100
AcDbSpline
 70
8
 71
3
 72
8
 73
4
 74
0
 40
0
 40
0
 40
0
 40
0
 40
1
 40
1
 40
1
 40
1
 10
2.495903
 20
213.003611
 30
0.0
 10
3.324330
 20
213.003611
 30
0.0
 10
4.004028
 20
212.354836
 30
0.0
 10
4.004028
 20
211.557222
 30
0.0
  0
SPLINE
  5
101
100
AcDbEntity
  8
Layer_1
 62
7
100
AcDbSpline
 70
8
 71
3
 72
8
 73
4
 74
0
 40
0
 40
0
 40
0
 40
0
 40
1
 40
1
 40
1
 40
1
 10
4.004028
 20
211.557222
 30
0.0
 10
4.004028
 20
210.759609
 30
0.0
 10
3.324330
 20
210.110833
 30
0.0
 10
2.495903
 20
210.110833
 30
0.0
  0
SPLINE
  5
102
100
AcDbEntity
  8
Layer_1
 62
7
100
AcDbSpline
 70
8
 71
3
 72
8
 73
4
 74
0
 40
0
 40
0
 40
0
 40
0
 40
1
 40
1
 40
1
 40
1
 10
2.495903
 20
210.110833
 30
0.0
 10
1.667476
 20
210.110833
 30
0.0
 10
0.996597
 20
210.759609
 30
0.0
 10
0.996597
 20
211.557222
 30
0.0
  0
SPLINE
  5
103
100
AcDbEntity
  8
Layer_1
 62
7
100
AcDbSpline
 70
8
 71
3
 72
8
 73
4
 74
0
 40
0
 40
0
 40
0
 40
0
 40
1
 40
1
 40
1
 40
1
 10
0.996597
 20
211.557222
 30
0.0
 10
0.996597
 20
212.354836
 30
0.0
 10
1.667476
 20
213.003611
 30
0.0
 10
2.495903
 20
213.003611
 30
0.0
  0
LWPOLYLINE
  5
104
100
AcDbEntity
  8
Layer_1
 62
7
100
AcDbPolyline
 90
6
 70
0
 10
0.000000
 20
214.000208
 30
0.0
 10
0.000000
 20
-0.003611
 30
0.0
 10
214.003819
 20
-0.003611
 30
0.0
 10
214.003819
 20
214.000208
 30
0.0
 10
0.000000
 20
214.000208
 30
0.0
 10
0.000000
 20
214.000208
 30
0.0
  0
SPLINE
  5
105
100
AcDbEntity
  8
Layer_1
 62
7
100
AcDbSpline
 70
8
 71
3
 72
8
 73
4
 74
0
 40
0
 40
0
 40
0
 40
0
 40
1
 40
1
 40
1
 40
1
 10
211.499097
 20
213.003611
 30
0.0
 10
212.327524
 20
213.003611
 30
0.0
 10
212.998403
 20
212.354836
 30
0.0
 10
212.998403
 20
211.557222
 30
0.0
  0
SPLINE
  5
106
100
AcDbEntity
  8
Layer_1
 62
7
100
AcDbSpline
 70
8
 71
3
 72
8
 73
4
 74
0
 40
0
 40
0
 40
0
 40
0
 40
1
 40
1
 40
1
 40
1
 10
212.998403
 20
211.557222
 30
0.0
 10
212.998403
 20
210.759609
 30
0.0
 10
212.327524
 20
210.110833
 30
0.0
 10
211.499097
 20
210.110833
 30
0.0
  0
SPLINE
  5
107
100
AcDbEntity
  8
Layer_1
 62
7
100
AcDbSpline
 70
8
 71
3
 72
8
 73
4
 74
0
 40
0
 40
0
 40
0
 40
0
 40
1
 40
1
 40
1
 40
1
 10
211.499097
 20
210.110833
 30
0.0
 10
210.670671
 20
210.110833
 30
0.0
 10
209.999792
 20
210.759609
 30
0.0
 10
209.999792
 20
211.557222
 30
0.0
  0
SPLINE
  5
108
100
AcDbEntity
  8
Layer_1
 62
7
100
AcDbSpline
 70
8
 71
3
 72
8
 73
4
 74
0
 40
0
 40
0
 40
0
 40
0
 40
1
 40
1
 40
1
 40
1
 10
209.999792
 20
211.557222
 30
0.0
 10
209.999792
 20
212.354836
 30
0.0
 10
210.670671
 20
213.003611
 30
0.0
 10
211.499097
 20
213.003611
 30
0.0
  0
LWPOLYLINE
  5
109
100
AcDbEntity
  8
Layer_1
 62
7
100
AcDbPolyline
 90
2
 70
0
 10
2.495903
 20
213.003611
 30
0.0
 10
2.495903
 20
213.003611
 30
0.0
  0
SPLINE
  5
10a
100
AcDbEntity
  8
Layer_1
 62
7
100
AcDbSpline
 70
8
 71
3
 72
8
 73
4
 74
0
 40
0
 40
0
 40
0
 40
0
 40
1
 40
1
 40
1
 40
1
 10
16.201319
 20
156.700278
 30
0.0
 10
17.029747
 20
156.700278
 30
0.0
 10
17.700625
 20
156.051503
 30
0.0
 10
17.700625
 20
155.253889
 30
0.0
  0
SPLINE
  5
10b
100
AcDbEntity
  8
Layer_1
 62
7
100
AcDbSpline
 70
8
 71
3
 72
8
 73
4
 74
0
 40
0
 40
0
 40
0
 40
0
 40
1
 40
1
 40
1
 40
1
 10
17.700625
 20
155.253889
 30
0.0
 10
17.700625
 20
154.456275
 30
0.0
 10
17.029747
 20
153.807500
 30
0.0
 10
16.201319
 20
153.807500
 30
0.0
  0
SPLINE
  5
10c
100
AcDbEntity
  8
Layer_1
 62
7
100
AcDbSpline
 70
8
 71
3
 72
8
 73
4
 74
0
 40
0
 40
0
 40
0
 40
0
 40
1
 40
1
 40
1
 40
1
 10
16.201319
 20
153.807500
 30
0.0
 10
15.372892
 20
153.807500
 30
0.0
 10
14.702014
 20
154.456275
 30
0.0
 10
14.702014
 20
155.253889
 30
0.0
  0
SPLINE
  5
10d
100
AcDbEntity
  8
Layer_1
 62
7
100
AcDbSpline
 70
8
 71
3
 72
8
 73
4
 74
0
 40
0
 40
0
 40
0
 40
0
 40
1
 40
1
 40
1
 40
1
 10
14.702014
 20
155.253889
 30
0.0
 10
14.702014
 20
156.051503
 30
0.0
 10
15.372892
 20
156.700278
 30
0.0
 10
16.201319
 20
156.700278
 30
0.0
  0
LWPOLYLINE
  5
10e
100
AcDbEntity
  8
Layer_1
 62
7
100
AcDbPolyline
 90
2
 70
0
 10
211.499097
 20
213.003611
 30
0.0
 10
211.499097
 20
213.003611
 30
0.0
  0
SPLINE
  5
10f
100
AcDbEntity
  8
Layer_1
 62
7
100
AcDbSpline
 70
8
 71
3
 72
8
 73
4
 74
0
 40
0
 40
0
 40
0
 40
0
 40
1
 40
1
 40
1
 40
1
 10
197.802500
 20
156.700278
 30
0.0
 10
198.630927
 20
156.700278
 30
0.0
 10
199.301806
 20
156.051503
 30
0.0
 10
199.301806
 20
155.253889
 30
0.0
  0
SPLINE
  5
110
100
AcDbEntity
  8
Layer_1
 62
7
100
AcDbSpline
 70
8
 71
3
 72
8
 73
4
 74
0
 40
0
 40
0
 40
0
 40
0
 40
1
 40
1
 40
1
 40
1
 10
199.301806
 20
155.253889
 30
0.0
 10
199.301806
 20
154.456275
 30
0.0
 10
198.630927
 20
153.807500
 30
0.0
 10
197.802500
 20
153.807500
 30
0.0
  0
SPLINE
  5
111
100
AcDbEntity
  8
Layer_1
 62
7
100
AcDbSpline
 70
8
 71
3
 72
8
 73
4
 74
0
 40
0
 40
0
 40
0
 40
0
 40
1
 40
1
 40
1
 40
1
 10
197.802500
 20
153.807500
 30
0.0
 10
196.974073
 20
153.807500
 30
0.0
 10
196.303194
 20
154.456275
 30
0.0
 10
196.303194
 20
155.253889
 30
0.0
  0
SPLINE
  5
112
100
AcDbEntity
  8
Layer_1
 62
7
100
AcDbSpline
 70
8
 71
3
 72
8
 73
4
 74
0
 40
0
 40
0
 40
0
 40
0
 40
1
 40
1
 40
1
 40
1
 10
196.303194
 20
155.253889
 30
0.0
 10
196.303194
 20
156.051503
 30
0.0
 10
196.974073
 20
156.700278
 30
0.0
 10
197.802500
 20
156.700278
 30
0.0
  0
LWPOLYLINE
  5
113
100
AcDbEntity
  8
Layer_1
 62
7
100
AcDbPolyline
 90
2
 70
0
 10
16.201319
 20
156.700278
 30
0.0
 10
16.201319
 20
156.700278
 30
0.0
  0
SPLINE
  5
114
100
AcDbEntity
  8
Layer_1
 62
7
100
AcDbSpline
 70
8
 71
3
 72
8
 73
4
 74
0
 40
0
 40
0
 40
0
 40
0
 40
1
 40
1
 40
1
 40
1
 10
93.997639
 20
124.879722
 30
0.0
 10
94.826066
 20
124.879722
 30
0.0
 10
95.496944
 20
124.230947
 30
0.0
 10
95.496944
 20
123.433333
 30
0.0
  0
SPLINE
  5
115
100
AcDbEntity
  8
Layer_1
 62
7
100
AcDbSpline
 70
8
 71
3
 72
8
 73
4
 74
0
 40
0
 40
0
 40
0
 40
0
 40
1
 40
1
 40
1
 40
1
 10
95.496944
 20
123.433333
 30
0.0
 10
95.496944
 20
122.635720
 30
0.0
 10
94.826066
 20
121.986944
 30
0.0
 10
93.997639
 20
121.986944
 30
0.0
  0
SPLINE
  5
116
100
AcDbEntity
  8
Layer_1
 62
7
100
AcDbSpline
 70
8
 71
3
 72
8
 73
4
 74
0
 40
0
 40
0
 40
0
 40
0
 40
1
 40
1
 40
1
 40
1
 10
93.997639
 20
121.986944
 30
0.0
 10
93.169212
 20
121.986944
 30
0.0
 10
92.498333
 20
122.635720
 30
0.0
 10
92.498333
 20
123.433333
 30
0.0
  0
SPLINE
  5
117
100
AcDbEntity
  8
Layer_1
 62
7
100
AcDbSpline
 70
8
 71
3
 72
8
 73
4
 74
0
 40
0
 40
0
 40
0
 40
0
 40
1
 40
1
 40
1
 40
1
 10
92.498333
 20
123.433333
 30
0.0
 10
92.498333
 20
124.230947
 30
0.0
 10
93.169212
 20
124.879722
 30
0.0
 10
93.997639
 20
124.879722
 30
0.0
  0
LWPOLYLINE
  5
118
100
AcDbEntity
  8
Layer_1
 62
7
100
AcDbPolyline
 90
2
 70
0
 10
197.802500
 20
156.700278
 30
0.0
 10
197.802500
 20
156.700278
 30
0.0
  0
SPLINE
  5
119
100
AcDbEntity
  8
Layer_1
 62
7
100
AcDbSpline
 70
8
 71
3
 72
8
 73
4
 74
0
 40
0
 40
0
 40
0
 40
0
 40
1
 40
1
 40
1
 40
1
 10
118.004167
 20
124.879722
 30
0.0
 10
118.832593
 20
124.879722
 30
0.0
 10
119.503472
 20
124.230947
 30
0.0
 10
119.503472
 20
123.433333
 30
0.0
  0
SPLINE
  5
11a
100
AcDbEntity
  8
Layer_1
 62
7
100
AcDbSpline
 70
8
 71
3
 72
8
 73
4
 74
0
 40
0
 40
0
 40
0
 40
0
 40
1
 40
1
 40
1
 40
1
 10
119.503472
 20
123.433333
 30
0.0
 10
119.503472
 20
122.635720
 30
0.0
 10
118.832593
 20
121.986944
 30
0.0
 10
118.004167
 20
121.986944
 30
0.0
  0
SPLINE
  5
11b
100
AcDbEntity
  8
Layer_1
 62
7
100
AcDbSpline
 70
8
 71
3
 72
8
 73
4
 74
0
 40
0
 40
0
 40
0
 40
0
 40
1
 40
1
 40
1
 40
1
 10
118.004167
 20
121.986944
 30
0.0
 10
117.175740
 20
121.986944
 30
0.0
 10
116.496042
 20
122.635720
 30
0.0
 10
116.496042
 20
123.433333
 30
0.0
  0
SPLINE
  5
11c
100
AcDbEntity
  8
Layer_1
 62
7
100
AcDbSpline
 70
8
 71
3
 72
8
 73
4
 74
0
 40
0
 40
0
 40
0
 40
0
 40
1
 40
1
 40
1
 40
1
 10
116.496042
 20
123.433333
 30
0.0
 10
116.496042
 20
124.230947
 30
0.0
 10
117.175740
 20
124.879722
 30
0.0
 10
118.004167
 20
124.879722
 30
0.0
  0
LWPOLYLINE
  5
11d
100
AcDbEntity
  8
Layer_1
 62
7
100
AcDbPolyline
 90
2
 70
0
 10
93.997639
 20
124.879722
 30
0.0
 10
93.997639
 20
124.879722
 30
0.0
  0
SPLINE
  5
11e
100
AcDbEntity
  8
Layer_1
 62
7
100
AcDbSpline
 70
8
 71
3
 72
8
 73
4
 74
0
 40
0
 40
0
 40
0
 40
0
 40
1
 40
1
 40
1
 40
1
 10
93.997639
 20
91.692153
 30
0.0
 10
94.826066
 20
91.692153
 30
0.0
 10
95.496944
 20
91.043378
 30
0.0
 10
95.496944
 20
90.245764
 30
0.0
  0
SPLINE
  5
11f
100
AcDbEntity
  8
Layer_1
 62
7
100
AcDbSpline
 70
8
 71
3
 72
8
 73
4
 74
0
 40
0
 40
0
 40
0
 40
0
 40
1
 40
1
 40
1
 40
1
 10
95.496944
 20
90.245764
 30
0.0
 10
95.496944
 20
89.448150
 30
0.0
 10
94.826066
 20
88.799375
 30
0.0
 10
93.997639
 20
88.799375
 30
0.0
  0
SPLINE
  5
120
100
AcDbEntity
  8
Layer_1
 62
7
100
AcDbSpline
 70
8
 71
3
 72
8
 73
4
 74
0
 40
0
 40
0
 40
0
 40
0
 40
1
 40
1
 40
1
 40
1
 10
93.997639
 20
88.799375
 30
0.0
 10
93.169212
 20
88.799375
 30
0.0
 10
92.498333
 20
89.448150
 30
0.0
 10
92.498333
 20
90.245764
 30
0.0
  0
SPLINE
  5
121
100
AcDbEntity
  8
Layer_1
 62
7
100
AcDbSpline
 70
8
 71
3
 72
8
 73
4
 74
0
 40
0
 40
0
 40
0
 40
0
 40
1
 40
1
 40
1
 40
1
 10
92.498333
 20
90.245764
 30
0.0
 10
92.498333
 20
91.043378
 30
0.0
 10
93.169212
 20
91.692153
 30
0.0
 10
93.997639
 20
91.692153
 30
0.0
  0
LWPOLYLINE
  5
122
100
AcDbEntity
  8
Layer_1
 62
7
100
AcDbPolyline
 90
2
 70
0
 10
118.004167
 20
124.879722
 30
0.0
 10
118.004167
 20
124.879722
 30
0.0
  0
SPLINE
  5
123
100
AcDbEntity
  8
Layer_1
 62
7
100
AcDbSpline
 70
8
 71
3
 72
8
 73
4
 74
0
 40
0
 40
0
 40
0
 40
0
 40
1
 40
1
 40
1
 40
1
 10
118.004167
 20
91.692153
 30
0.0
 10
118.832593
 20
91.692153
 30
0.0
 10
119.503472
 20
91.043378
 30
0.0
 10
119.503472
 20
90.245764
 30
0.0
  0
SPLINE
  5
124
100
AcDbEntity
  8
Layer_1
 62
7
100
AcDbSpline
 70
8
 71
3
 72
8
 73
4
 74
0
 40
0
 40
0
 40
0
 40
0
 40
1
 40
1
 40
1
 40
1
 10
119.503472
 20
90.245764
 30
0.0
 10
119.503472
 20
89.448150
 30
0.0
 10
118.832593
 20
88.799375
 30
0.0
 10
118.004167
 20
88.799375
 30
0.0
  0
SPLINE
  5
125
100
AcDbEntity
  8
Layer_1
 62
7
100
AcDbSpline
 70
8
 71
3
 72
8
 73
4
 74
0
 40
0
 40
0
 40
0
 40
0
 40
1
 40
1
 40
1
 40
1
 10
118.004167
 20
88.799375
 30
0.0
 10
117.175740
 20
88.799375
 30
0.0
 10
116.496042
 20
89.448150
 30
0.0
 10
116.496042
 20
90.245764
 30
0.0
  0
SPLINE
  5
126
100
AcDbEntity
  8
Layer_1
 62
7
100
AcDbSpline
 70
8
 71
3
 72
8
 73
4
 74
0
 40
0
 40
0
 40
0
 40
0
 40
1
 40
1
 40
1
 40
1
 10
116.496042
 20
90.245764
 30
0.0
 10
116.496042
 20
91.043378
 30
0.0
 10
117.175740
 20
91.692153
 30
0.0
 10
118.004167
 20
91.692153
 30
0.0
  0
LWPOLYLINE
  5
127
100
AcDbEntity
  8
Layer_1
 62
7
100
AcDbPolyline
 90
2
 70
0
 10
93.997639
 20
91.692153
 30
0.0
 10
93.997639
 20
91.692153
 30
0.0
  0
SPLINE
  5
128
100
AcDbEntity
  8
Layer_1
 62
7
100
AcDbSpline
 70
8
 71
3
 72
8
 73
4
 74
0
 40
0
 40
0
 40
0
 40
0
 40
1
 40
1
 40
1
 40
1
 10
16.201319
 20
60.189097
 30
0.0
 10
17.029747
 20
60.189097
 30
0.0
 10
17.700625
 20
59.540322
 30
0.0
 10
17.700625
 20
58.742708
 30
0.0
  0
SPLINE
  5
129
100
AcDbEntity
  8
Layer_1
 62
7
100
AcDbSpline
 70
8
 71
3
 72
8
 73
4
 74
0
 40
0
 40
0
 40
0
 40
0
 40
1
 40
1
 40
1
 40
1
 10
17.700625
 20
58.742708
 30
0.0
 10
17.700625
 20
57.945095
 30
0.0
 10
17.029747
 20
57.296319
 30
0.0
 10
16.201319
 20
57.296319
 30
0.0
  0
SPLINE
  5
12a
100
AcDbEntity
  8
Layer_1
 62
7
100
AcDbSpline
 70
8
 71
3
 72
8
 73
4
 74
0
 40
0
 40
0
 40
0
 40
0
 40
1
 40
1
 40
1
 40
1
 10
16.201319
 20
57.296319
 30
0.0
 10
15.372892
 20
57.296319
 30
0.0
 10
14.702014
 20
57.945095
 30
0.0
 10
14.702014
 20
58.742708
 30
0.0
  0
SPLINE
  5
12b
100
AcDbEntity
  8
Layer_1
 62
7
100
AcDbSpline
 70
8
 71
3
 72
8
 73
4
 74
0
 40
0
 40
0
 40
0
 40
0
 40
1
 40
1
 40
1
 40
1
 10
14.702014
 20
58.742708
 30
0.0
 10
14.702014
 20
59.540322
 30
0.0
 10
15.372892
 20
60.189097
 30
0.0
 10
16.201319
 20
60.189097
 30
0.0
  0
LWPOLYLINE
  5
12c
100
AcDbEntity
  8
Layer_1
 62
7
100
AcDbPolyline
 90
2
 70
0
 10
118.004167
 20
91.692153
 30
0.0
 10
118.004167
 20
91.692153
 30
0.0
  0
SPLINE
  5
12d
100
AcDbEntity
  8
Layer_1
 62
7
100
AcDbSpline
 70
8
 71
3
 72
8
 73
4
 74
0
 40
0
 40
0
 40
0
 40
0
 40
1
 40
1
 40
1
 40
1
 10
197.802500
 20
60.189097
 30
0.0
 10
198.630927
 20
60.189097
 30
0.0
 10
199.301806
 20
59.540322
 30
0.0
 10
199.301806
 20
58.742708
 30
0.0
  0
SPLINE
  5
12e
100
AcDbEntity
  8
Layer_1
 62
7
100
AcDbSpline
 70
8
 71
3
 72
8
 73
4
 74
0
 40
0
 40
0
 40
0
 40
0
 40
1
 40
1
 40
1
 40
1
 10
199.301806
 20
58.742708
 30
0.0
 10
199.301806
 20
57.945095
 30
0.0
 10
198.630927
 20
57.296319
 30
0.0
 10
197.802500
 20
57.296319
 30
0.0
  0
SPLINE
  5
12f
100
AcDbEntity
  8
Layer_1
 62
7
100
AcDbSpline
 70
8
 71
3
 72
8
 73
4
 74
0
 40
0
 40
0
 40
0
 40
0
 40
1
 40
1
 40
1
 40
1
 10
197.802500
 20
57.296319
 30
0.0
 10
196.974073
 20
57.296319
 30
0.0
 10
196.303194
 20
57.945095
 30
0.0
 10
196.303194
 20
58.742708
 30
0.0
  0
SPLINE
  5
130
100
AcDbEntity
  8
Layer_1
 62
7
100
AcDbSpline
 70
8
 71
3
 72
8
 73
4
 74
0
 40
0
 40
0
 40
0
 40
0
 40
1
 40
1
 40
1
 40
1
 10
196.303194
 20
58.742708
 30
0.0
 10
196.303194
 20
59.540322
 30
0.0
 10
196.974073
 20
60.189097
 30
0.0
 10
197.802500
 20
60.189097
 30
0.0
  0
LWPOLYLINE
  5
131
100
AcDbEntity
  8
Layer_1
 62
7
100
AcDbPolyline
 90
2
 70
0
 10
16.201319
 20
60.189097
 30
0.0
 10
16.201319
 20
60.189097
 30
0.0
  0
SPLINE
  5
132
100
AcDbEntity
  8
Layer_1
 62
7
100
AcDbSpline
 70
8
 71
3
 72
8
 73
4
 74
0
 40
0
 40
0
 40
0
 40
0
 40
1
 40
1
 40
1
 40
1
 10
2.495903
 20
3.885750
 30
0.0
 10
3.324330
 20
3.885750
 30
0.0
 10
4.004028
 20
3.245811
 30
0.0
 10
4.004028
 20
2.448194
 30
0.0
  0
SPLINE
  5
133
100
AcDbEntity
  8
Layer_1
 62
7
100
AcDbSpline
 70
8
 71
3
 72
8
 73
4
 74
0
 40
0
 40
0
 40
0
 40
0
 40
1
 40
1
 40
1
 40
1
 10
4.004028
 20
2.448194
 30
0.0
 10
4.004028
 20
1.650578
 30
0.0
 10
3.324330
 20
1.001806
 30
0.0
 10
2.495903
 20
1.001806
 30
0.0
  0
SPLINE
  5
134
100
AcDbEntity
  8
Layer_1
 62
7
100
AcDbSpline
 70
8
 71
3
 72
8
 73
4
 74
0
 40
0
 40
0
 40
0
 40
0
 40
1
 40
1
 40
1
 40
1
 10
2.495903
 20
1.001806
 30
0.0
 10
1.667476
 20
1.001806
 30
0.0
 10
0.996597
 20
1.650578
 30
0.0
 10
0.996597
 20
2.448194
 30
0.0
  0
SPLINE
  5
135
100
AcDbEntity
  8
Layer_1
 62
7
100
AcDbSpline
 70
8
 71
3
 72
8
 73
4
 74
0
 40
0
 40
0
 40
0
 40
0
 40
1
 40
1
 40
1
 40
1
 10
0.996597
 20
2.448194
 30
0.0
 10
0.996597
 20
3.245811
 30
0.0
 10
1.667476
 20
3.885750
 30
0.0
 10
2.495903
 20
3.885750
 30
0.0
  0
LWPOLYLINE
  5
136
100
AcDbEntity
  8
Layer_1
 62
7
100
AcDbPolyline
 90
2
 70
0
 10
197.802500
 20
60.189097
 30
0.0
 10
197.802500
 20
60.189097
 30
0.0
  0
SPLINE
  5
137
100
AcDbEntity
  8
Layer_1
 62
7
100
AcDbSpline
 70
8
 71
3
 72
8
 73
4
 74
0
 40
0
 40
0
 40
0
 40
0
 40
1
 40
1
 40
1
 40
1
 10
211.499097
 20
3.885750
 30
0.0
 10
212.327524
 20
3.885750
 30
0.0
 10
212.998403
 20
3.245811
 30
0.0
 10
212.998403
 20
2.448194
 30
0.0
  0
SPLINE
  5
138
100
AcDbEntity
  8
Layer_1
 62
7
100
AcDbSpline
 70
8
 71
3
 72
8
 73
4
 74
0
 40
0
 40
0
 40
0
 40
0
 40
1
 40
1
 40
1
 40
1
 10
212.998403
 20
2.448194
 30
0.0
 10
212.998403
 20
1.650578
 30
0.0
 10
212.327524
 20
1.001806
 30
0.0
 10
211.499097
 20
1.001806
 30
0.0
  0
SPLINE
  5
139
100
AcDbEntity
  8
Layer_1
 62
7
100
AcDbSpline
 70
8
 71
3
 72
8
 73
4
 74
0
 40
0
 40
0
 40
0
 40
0
 40
1
 40
1
 40
1
 40
1
 10
211.499097
 20
1.001806
 30
0.0
 10
210.670671
 20
1.001806
 30
0.0
 10
209.999792
 20
1.650578
 30
0.0
 10
209.999792
 20
2.448194
 30
0.0
  0
SPLINE
  5
13a
100
AcDbEntity
  8
Layer_1
 62
7
100
AcDbSpline
 70
8
 71
3
 72
8
 73
4
 74
0
 40
0
 40
0
 40
0
 40
0
 40
1
 40
1
 40
1
 40
1
 10
209.999792
 20
2.448194
 30
0.0
 10
209.999792
 20
3.245811
 30
0.0
 10
210.670671
 20
3.885750
 30
0.0
 10
211.499097
 20
3.885750
 30
0.0
  0
LWPOLYLINE
  5
13b
100
AcDbEntity
  8
Layer_1
 62
7
100
AcDbPolyline
 90
2
 70
0
 10
2.495903
 20
3.885750
 30
0.0
 10
2.495903
 20
3.885750
 30
0.0
  0
LWPOLYLINE
  5
13c
100
AcDbEntity
  8
Layer_1
 62
7
100
AcDbPolyline
 90
2
 70
0
 10
211.499097
 20
3.885750
 30
0.0
 10
211.499097
 20
3.885750
 30
0.0
  0
ENDSEC
  0
SECTION
  2
OBJECTS
  0
DICTIONARY
  5
C
330
0
100
AcDbDictionary
  3
ACAD_GROUP
350
D
  3
ACAD_MLINESTYLE
350
17
  0
DICTIONARY
  5
D
330
C
100
AcDbDictionary
  0
DICTIONARY
  5
1A
330
C
100
AcDbDictionary
  0
DICTIONARY
  5
17
330
C
100
AcDbDictionary
  3
STANDARD
350
18
  0
DICTIONARY
  5
19
330
C
100
AcDbDictionary
  0
ENDSEC
  0
EOF
