<?xml version="1.0" encoding="UTF-8" standalone="no"?>
<!-- Created with Inkscape (http://www.inkscape.org/) -->

<svg
   xmlns:dc="http://purl.org/dc/elements/1.1/"
   xmlns:cc="http://creativecommons.org/ns#"
   xmlns:rdf="http://www.w3.org/1999/02/22-rdf-syntax-ns#"
   xmlns:svg="http://www.w3.org/2000/svg"
   xmlns="http://www.w3.org/2000/svg"
   xmlns:sodipodi="http://sodipodi.sourceforge.net/DTD/sodipodi-0.dtd"
   xmlns:inkscape="http://www.inkscape.org/namespaces/inkscape"
   width="744.09448819"
   height="1052.3622047"
   id="svg2"
   version="1.1"
   inkscape:version="0.48.4 r9939"
   sodipodi:docname="Whole-Frame.dxf">
  <defs
     id="defs4" />
  <sodipodi:namedview
     id="base"
     pagecolor="#ffffff"
     bordercolor="#666666"
     borderopacity="1.0"
     inkscape:pageopacity="0.0"
     inkscape:pageshadow="2"
     inkscape:zoom="0.11313708"
     inkscape:cx="-761.73477"
     inkscape:cy="-114.89566"
     inkscape:document-units="px"
     inkscape:current-layer="layer1"
     showgrid="true"
     inkscape:window-width="1366"
     inkscape:window-height="705"
     inkscape:window-x="1358"
     inkscape:window-y="-8"
     inkscape:window-maximized="1">
    <inkscape:grid
       type="xygrid"
       id="grid3757"
       empspacing="2"
       visible="true"
       enabled="true"
       snapvisiblegridlinesonly="true"
       units="cm"
       spacingx="0.5cm"
       spacingy="0.5cm"
       dotted="false" />
  </sodipodi:namedview>
  <metadata
     id="metadata7">
    <rdf:RDF>
      <cc:Work
         rdf:about="">
        <dc:format>image/svg+xml</dc:format>
        <dc:type
           rdf:resource="http://purl.org/dc/dcmitype/StillImage" />
        <dc:title></dc:title>
      </cc:Work>
    </rdf:RDF>
  </metadata>
  <g
     inkscape:label="Layer 1"
     inkscape:groupmode="layer"
     id="layer1">
    <path
       style="fill:#0000ff;fill-opacity:1;stroke:none"
       d="M 141.71875 1070.0938 L 141.71875 1140.9375 L 141.71875 1158.6562 L 159.4375 1158.6562 L 159.4375 1140.9375 L 177.15625 1140.9375 L 177.15625 1158.6562 L 194.875 1158.6562 L 194.875 1140.9375 L 212.59375 1140.9375 L 212.59375 1158.6562 L 230.3125 1158.6562 L 230.3125 1140.9375 L 248.03125 1140.9375 L 248.03125 1158.6562 L 265.75 1158.6562 L 265.75 1140.9375 L 283.46875 1140.9375 L 283.46875 1158.6562 L 301.1875 1158.6562 L 301.1875 1140.9375 L 318.90625 1140.9375 L 318.90625 1158.6562 L 336.625 1158.6562 L 336.625 1140.9375 L 354.34375 1140.9375 L 354.34375 1158.6562 L 372.0625 1158.6562 L 372.0625 1140.9375 L 389.75 1140.9375 L 389.75 1158.6562 L 407.46875 1158.6562 L 407.46875 1140.9375 L 425.1875 1140.9375 L 425.1875 1158.6562 L 442.90625 1158.6562 L 442.90625 1140.9375 L 460.625 1140.9375 L 460.625 1158.6562 L 478.34375 1158.6562 L 478.34375 1140.9375 L 496.0625 1140.9375 L 496.0625 1158.6562 L 513.78125 1158.6562 L 513.78125 1140.9375 L 531.5 1140.9375 L 531.5 1158.6562 L 549.21875 1158.6562 L 549.21875 1140.9375 L 566.9375 1140.9375 L 566.9375 1158.6562 L 584.65625 1158.6562 L 584.65625 1140.9375 L 602.375 1140.9375 L 602.375 1158.6562 L 620.09375 1158.6562 L 620.09375 1140.9375 L 637.78125 1140.9375 L 637.78125 1158.6562 L 655.5 1158.6562 L 655.5 1140.9375 L 673.21875 1140.9375 L 673.21875 1158.6562 L 690.9375 1158.6562 L 690.9375 1140.9375 L 708.65625 1140.9375 L 708.65625 1158.6562 L 726.375 1158.6562 L 726.375 1140.9375 L 744.09375 1140.9375 L 744.09375 1158.6562 L 761.8125 1158.6562 L 761.8125 1140.9375 L 779.53125 1140.9375 L 779.53125 1158.6562 L 797.25 1158.6562 L 797.25 1140.9375 L 814.96875 1140.9375 L 814.96875 1158.6562 L 832.6875 1158.6562 L 832.6875 1140.9375 L 850.40625 1140.9375 L 850.40625 1158.6562 L 868.125 1158.6562 L 868.125 1140.9375 L 885.8125 1140.9375 L 885.8125 1158.6562 L 903.53125 1158.6562 L 903.53125 1140.9375 L 921.25 1140.9375 L 921.25 1158.6562 L 938.96875 1158.6562 L 938.96875 1140.9375 L 956.6875 1140.9375 L 956.6875 1158.6562 L 974.40625 1158.6562 L 974.40625 1140.9375 L 992.125 1140.9375 L 992.125 1158.6562 L 1009.8438 1158.6562 L 1009.8438 1140.9375 L 1027.5625 1140.9375 L 1027.5625 1158.6562 L 1045.2812 1158.6562 L 1045.2812 1140.9375 L 1063 1140.9375 L 1063 1158.6562 L 1080.7188 1158.6562 L 1080.7188 1140.9375 L 1098.4375 1140.9375 L 1098.4375 1158.6562 L 1116.1562 1158.6562 L 1116.1562 1140.9375 L 1133.8438 1140.9375 L 1133.8438 1158.6562 L 1151.5625 1158.6562 L 1151.5625 1140.9375 L 1169.2812 1140.9375 L 1169.2812 1158.6562 L 1187 1158.6562 L 1187 1140.9375 L 1204.7188 1140.9375 L 1204.7188 1158.6562 L 1222.4375 1158.6562 L 1222.4375 1140.9375 L 1240.1562 1140.9375 L 1240.1562 1158.6562 L 1257.875 1158.6562 L 1257.875 1140.9375 L 1275.5938 1140.9375 L 1275.5938 1158.6562 L 1293.3125 1158.6562 L 1293.3125 1140.9375 L 1311.0312 1140.9375 L 1311.0312 1158.6562 L 1328.75 1158.6562 L 1328.75 1140.9375 L 1346.4688 1140.9375 L 1346.4688 1070.0938 L 141.71875 1070.0938 z "
       id="rect3860" />
  </g>
</svg>
