<?xml version="1.0" encoding="UTF-8" standalone="no"?>
<!-- Created with Inkscape (http://www.inkscape.org/) -->

<svg
   xmlns:dc="http://purl.org/dc/elements/1.1/"
   xmlns:cc="http://creativecommons.org/ns#"
   xmlns:rdf="http://www.w3.org/1999/02/22-rdf-syntax-ns#"
   xmlns:svg="http://www.w3.org/2000/svg"
   xmlns="http://www.w3.org/2000/svg"
   xmlns:sodipodi="http://sodipodi.sourceforge.net/DTD/sodipodi-0.dtd"
   xmlns:inkscape="http://www.inkscape.org/namespaces/inkscape"
   width="2160"
   height="2160"
   id="svg2"
   version="1.1"
   inkscape:version="0.48.4 r9939"
   sodipodi:docname="D:\Users\Nick\Apps\GitHub\PortaPrusa\Source\PortaPrusa_V3.svg">
  <defs
     id="defs4">
    <symbol
       id="*PAPER_SPACE" />
    <symbol
       id="*MODEL_SPACE" />
    <pattern
       id="Hatch"
       x="0"
       y="0"
       patternUnits="userSpaceOnUse"
       width="8"
       height="8">
      <path
         id="path5708"
         d="M8 4 l-4,4"
         stroke-width="0.25"
         stroke="#000000"
         linecap="square" />
      <path
         id="path5710"
         d="M6 2 l-4,4"
         stroke-width="0.25"
         stroke="#000000"
         linecap="square" />
      <path
         id="path5712"
         d="M4 0 l-4,4"
         stroke-width="0.25"
         stroke="#000000"
         linecap="square" />
    </pattern>
    <marker
       orient="auto"
       id="DistanceX"
       style="overflow:visible"
       refX="0.0"
       refY="0.0">
      <path
         id="path5705"
         d="M 3,-3 L -3,3 M 0,-5 L  0,5"
         style="stroke:#000000; stroke-width:0.5" />
    </marker>
  </defs>
  <sodipodi:namedview
     id="base"
     pagecolor="#ffffff"
     bordercolor="#666666"
     borderopacity="1.0"
     inkscape:pageopacity="0.0"
     inkscape:pageshadow="2"
     inkscape:zoom="0.38251829"
     inkscape:cx="758.47572"
     inkscape:cy="401.40818"
     inkscape:document-units="px"
     inkscape:current-layer="layer1"
     showgrid="true"
     units="ft"
     inkscape:window-width="1280"
     inkscape:window-height="737"
     inkscape:window-x="1358"
     inkscape:window-y="-8"
     inkscape:window-maximized="1"
     showguides="true"
     inkscape:guide-bbox="true">
    <inkscape:grid
       type="xygrid"
       id="grid2985"
       empspacing="2"
       visible="true"
       enabled="true"
       snapvisiblegridlinesonly="true"
       units="mm"
       spacingx="5mm"
       spacingy="5mm" />
  </sodipodi:namedview>
  <metadata
     id="metadata7">
    <rdf:RDF>
      <cc:Work
         rdf:about="">
        <dc:format>image/svg+xml</dc:format>
        <dc:type
           rdf:resource="http://purl.org/dc/dcmitype/StillImage" />
        <dc:title></dc:title>
      </cc:Work>
    </rdf:RDF>
  </metadata>
  <g
     inkscape:label="Layer 1"
     inkscape:groupmode="layer"
     id="layer1"
     transform="translate(0,1107.675)">
    <path
       style="fill:#0000ff;fill-opacity:1;stroke:none"
       d="M 1895.6562 -462.0625 L 1895.6562 -444.34375 L 1877.9375 -444.34375 L 1877.9375 -355.75 L 1984.25 -355.75 L 1984.25 -444.34375 L 1984.25 -462.0625 L 1966.5312 -462.0625 L 1966.5312 -444.34375 L 1948.8125 -444.34375 L 1948.8125 -462.0625 L 1931.0938 -462.0625 L 1931.0938 -444.34375 L 1913.375 -444.34375 L 1913.375 -462.0625 L 1895.6562 -462.0625 z M 1890.5625 -433.4375 C 1893.4254 -433.4375 1895.7188 -431.14416 1895.7188 -428.28125 L 1895.7188 -365.28125 C 1895.7188 -362.41834 1893.4254 -360.125 1890.5625 -360.125 C 1887.6996 -360.125 1885.4062 -362.41834 1885.4062 -365.28125 L 1885.4062 -428.28125 C 1885.4062 -431.14416 1887.6996 -433.4375 1890.5625 -433.4375 z M 1971.625 -433.4375 C 1974.4879 -433.4375 1976.7812 -431.14416 1976.7812 -428.28125 L 1976.7812 -365.28125 C 1976.7812 -362.41834 1974.4879 -360.125 1971.625 -360.125 C 1968.7621 -360.125 1966.4688 -362.41834 1966.4688 -365.28125 L 1966.4688 -428.28125 C 1966.4688 -431.14416 1968.7621 -433.4375 1971.625 -433.4375 z "
       transform="translate(0,-1107.675)"
       id="rect7921" />
    <path
       style="fill:#0000ff;fill-opacity:1;stroke:none"
       d="M 70.875 1557.625 L 70.875 1575.3438 L 88.59375 1575.3438 L 88.59375 1593.0625 L 70.875 1593.0625 L 70.875 1610.7812 L 88.59375 1610.7812 L 88.59375 1628.5 L 70.875 1628.5 L 70.875 1646.2188 L 88.59375 1646.2188 L 88.59375 1663.9375 L 70.875 1663.9375 L 70.875 1681.6562 L 88.59375 1681.6562 L 88.59375 1699.375 L 70.875 1699.375 L 70.875 1717.0938 L 88.59375 1717.0938 L 88.59375 1734.8125 L 70.875 1734.8125 L 70.875 1752.5312 L 88.59375 1752.5312 L 88.59375 1770.25 L 70.875 1770.25 L 70.875 1787.9375 L 88.59375 1787.9375 L 88.59375 1805.6562 L 70.875 1805.6562 L 70.875 1823.375 L 106.3125 1823.375 L 106.3125 1805.6562 L 124.03125 1805.6562 L 124.03125 1823.375 L 141.71875 1823.375 L 141.71875 1805.6562 L 159.4375 1805.6562 L 159.4375 1823.375 L 177.15625 1823.375 L 177.15625 1805.6562 L 194.875 1805.6562 L 194.875 1823.375 L 212.59375 1823.375 L 212.59375 1805.6562 L 230.3125 1805.6562 L 230.3125 1823.375 L 248.03125 1823.375 L 248.03125 1805.6562 L 265.75 1805.6562 L 265.75 1823.375 L 283.46875 1823.375 L 283.46875 1805.6562 L 301.1875 1805.6562 L 318.90625 1805.6562 L 478.34375 1805.6562 L 1098.4375 1805.6562 L 1098.4375 1823.375 L 1116.1562 1823.375 L 1116.1562 1805.6562 L 1133.8438 1805.6562 L 1133.8438 1823.375 L 1151.5625 1823.375 L 1151.5625 1805.6562 L 1169.2812 1805.6562 L 1169.2812 1823.375 L 1187 1823.375 L 1187 1805.6562 L 1204.7188 1805.6562 L 1204.7188 1823.375 L 1222.4375 1823.375 L 1222.4375 1805.6562 L 1240.1562 1805.6562 L 1240.1562 1823.375 L 1257.875 1823.375 L 1257.875 1805.6562 L 1275.5938 1805.6562 L 1275.5938 1823.375 L 1293.3125 1823.375 L 1293.3125 1805.6562 L 1311.0312 1805.6562 L 1311.0312 1823.375 L 1328.75 1823.375 L 1328.75 1805.6562 L 1346.4688 1805.6562 L 1346.4688 1823.375 L 1381.875 1823.375 L 1381.875 1805.6562 L 1364.1875 1805.6562 L 1364.1875 1787.9375 L 1381.875 1787.9375 L 1381.875 1770.25 L 1364.1875 1770.25 L 1364.1875 1752.5312 L 1381.875 1752.5312 L 1381.875 1734.8125 L 1364.1875 1734.8125 L 1364.1875 1717.0938 L 1381.875 1717.0938 L 1381.875 1699.375 L 1364.1875 1699.375 L 1364.1875 1681.6562 L 1381.875 1681.6562 L 1381.875 1663.9375 L 1364.1875 1663.9375 L 1364.1875 1646.2188 L 1381.875 1646.2188 L 1381.875 1628.5 L 1364.1875 1628.5 L 1364.1875 1610.7812 L 1381.875 1610.7812 L 1381.875 1593.0625 L 1364.1875 1593.0625 L 1364.1875 1575.3438 L 1381.875 1575.3438 L 1381.875 1557.625 L 1187 1557.625 L 1187 1575.3438 L 1169.2812 1575.3438 L 1169.2812 1557.625 L 1151.5625 1557.625 L 1133.8438 1557.625 L 1080.7188 1557.625 L 318.90625 1557.625 L 283.46875 1557.625 L 265.75 1557.625 L 230.3125 1557.625 L 70.875 1557.625 z M 1169.2812 1593.0625 L 1187 1593.0625 L 1187 1610.7812 L 1169.2812 1610.7812 L 1169.2812 1593.0625 z M 1169.2812 1628.5 L 1187 1628.5 L 1187 1646.2188 L 1169.2812 1646.2188 L 1169.2812 1628.5 z M 1169.2812 1663.9375 L 1187 1663.9375 L 1187 1681.6562 L 1169.2812 1681.6562 L 1169.2812 1663.9375 z M 1169.2812 1699.375 L 1187 1699.375 L 1187 1717.0938 L 1169.2812 1717.0938 L 1169.2812 1699.375 z M 1169.2812 1734.8125 L 1187 1734.8125 L 1187 1752.5312 L 1169.2812 1752.5312 L 1169.2812 1734.8125 z M 1169.2812 1770.25 L 1187 1770.25 L 1187 1787.9375 L 1169.2812 1787.9375 L 1169.2812 1770.25 z "
       transform="translate(0,-1107.675)"
       id="rect2987" />
    <path
       style="fill:#0000ff;fill-opacity:1;stroke:none"
       d="M -1240.1562 1557.625 L -1240.1562 1575.3438 L -1257.875 1575.3438 L -1257.875 1593.0625 L -1240.1562 1593.0625 L -1240.1562 1610.7812 L -1257.875 1610.7812 L -1257.875 1628.5 L -1240.1562 1628.5 L -1240.1562 1646.2188 L -1257.875 1646.2188 L -1257.875 1663.9375 L -1240.1562 1663.9375 L -1240.1562 1681.6562 L -1257.875 1681.6562 L -1257.875 1699.375 L -1240.1562 1699.375 L -1240.1562 1717.0938 L -1257.875 1717.0938 L -1257.875 1734.8125 L -1240.1562 1734.8125 L -1240.1562 1752.5312 L -1257.875 1752.5312 L -1257.875 1770.25 L -1240.1562 1770.25 L -1240.1562 1787.9375 L -1257.875 1787.9375 L -1257.875 1805.6562 L -1257.875 1823.375 L -1240.1562 1823.375 L -1240.1562 1805.6562 L -1222.4375 1805.6562 L -1222.4375 1823.375 L -1204.7188 1823.375 L -1204.7188 1805.6562 L -1187 1805.6562 L -1187 1823.375 L -1169.2812 1823.375 L -1169.2812 1805.6562 L -1151.5625 1805.6562 L -1151.5625 1823.375 L -1133.875 1823.375 L -1133.875 1805.6562 L -1116.1562 1805.6562 L -1116.1562 1823.375 L -1098.4375 1823.375 L -1098.4375 1805.6562 L -1080.7188 1805.6562 L -1080.7188 1823.375 L -1063 1823.375 L -1063 1805.6562 L -1045.2812 1805.6562 L -1045.2812 1823.375 L -1027.5625 1823.375 L -1027.5625 1805.6562 L -1009.8438 1805.6562 L -1009.8438 1823.375 L -992.125 1823.375 L -992.125 1805.6562 L -974.40625 1805.6562 L -974.40625 1823.375 L -956.6875 1823.375 L -956.6875 1805.6562 L -938.96875 1805.6562 L -938.96875 1823.375 L -921.25 1823.375 L -921.25 1805.6562 L -903.53125 1805.6562 L -903.53125 1823.375 L -885.84375 1823.375 L -885.84375 1805.6562 L -868.125 1805.6562 L -868.125 1823.375 L -850.40625 1823.375 L -850.40625 1805.6562 L -832.6875 1805.6562 L -832.6875 1823.375 L -814.96875 1823.375 L -814.96875 1805.6562 L -797.25 1805.6562 L -797.25 1823.375 L -779.53125 1823.375 L -779.53125 1805.6562 L -761.8125 1805.6562 L -761.8125 1823.375 L -744.09375 1823.375 L -744.09375 1805.6562 L -726.375 1805.6562 L -726.375 1823.375 L -708.65625 1823.375 L -708.65625 1805.6562 L -690.9375 1805.6562 L -690.9375 1823.375 L -673.21875 1823.375 L -673.21875 1805.6562 L -655.5 1805.6562 L -655.5 1823.375 L -637.8125 1823.375 L -637.8125 1805.6562 L -620.09375 1805.6562 L -620.09375 1823.375 L -602.375 1823.375 L -602.375 1805.6562 L -584.65625 1805.6562 L -584.65625 1823.375 L -566.9375 1823.375 L -566.9375 1805.6562 L -549.21875 1805.6562 L -549.21875 1823.375 L -531.5 1823.375 L -531.5 1805.6562 L -513.78125 1805.6562 L -513.78125 1823.375 L -496.0625 1823.375 L -496.0625 1805.6562 L -478.34375 1805.6562 L -478.34375 1823.375 L -460.625 1823.375 L -460.625 1805.6562 L -442.90625 1805.6562 L -442.90625 1823.375 L -425.1875 1823.375 L -425.1875 1805.6562 L -407.46875 1805.6562 L -407.46875 1823.375 L -389.78125 1823.375 L -389.78125 1805.6562 L -372.0625 1805.6562 L -372.0625 1823.375 L -354.34375 1823.375 L -354.34375 1805.6562 L -336.625 1805.6562 L -336.625 1823.375 L -318.90625 1823.375 L -318.90625 1805.6562 L -301.1875 1805.6562 L -301.1875 1823.375 L -283.46875 1823.375 L -283.46875 1805.6562 L -265.75 1805.6562 L -265.75 1823.375 L -248.03125 1823.375 L -248.03125 1805.6562 L -230.3125 1805.6562 L -230.3125 1823.375 L -212.59375 1823.375 L -212.59375 1805.6562 L -194.875 1805.6562 L -194.875 1823.375 L -177.15625 1823.375 L -177.15625 1805.6562 L -159.4375 1805.6562 L -159.4375 1823.375 L -141.75 1823.375 L -141.75 1805.6562 L -124.03125 1805.6562 L -124.03125 1823.375 L -106.3125 1823.375 L -106.3125 1805.6562 L -106.3125 1787.9375 L -88.59375 1787.9375 L -88.59375 1805.6562 L -88.59375 1823.375 L -70.875 1823.375 L -70.875 1805.6562 L -53.15625 1805.6562 L -53.15625 1823.375 L -35.4375 1823.375 L -35.4375 1805.6562 L -17.71875 1805.6562 L -17.71875 1823.375 L 0 1823.375 L 0 1805.6562 L 17.71875 1805.6562 L 17.71875 1823.375 L 35.4375 1823.375 L 35.4375 1805.6562 L 53.15625 1805.6562 L 53.15625 1787.9375 L 35.4375 1787.9375 L 35.4375 1770.25 L 53.15625 1770.25 L 53.15625 1752.5312 L 35.4375 1752.5312 L 35.4375 1734.8125 L 53.15625 1734.8125 L 53.15625 1717.0938 L 35.4375 1717.0938 L 35.4375 1699.375 L 53.15625 1699.375 L 53.15625 1681.6562 L 35.4375 1681.6562 L 35.4375 1663.9375 L 53.15625 1663.9375 L 53.15625 1646.2188 L 35.4375 1646.2188 L 35.4375 1628.5 L 53.15625 1628.5 L 53.15625 1610.7812 L 35.4375 1610.7812 L 35.4375 1593.0625 L 53.15625 1593.0625 L 53.15625 1575.3438 L 35.4375 1575.3438 L 35.4375 1557.625 L 0 1557.625 L -1027.5625 1557.625 L -1027.5625 1575.3438 L -1045.2812 1575.3438 L -1045.2812 1557.625 L -1063 1557.625 L -1063 1575.3438 L -1080.7188 1575.3438 L -1080.7188 1557.625 L -1098.4375 1557.625 L -1098.4375 1575.3438 L -1116.1562 1575.3438 L -1116.1562 1557.625 L -1133.875 1557.625 L -1133.875 1575.3438 L -1151.5625 1575.3438 L -1151.5625 1557.625 L -1169.2812 1557.625 L -1169.2812 1575.3438 L -1187 1575.3438 L -1187 1557.625 L -1204.7188 1557.625 L -1204.7188 1575.3438 L -1222.4375 1575.3438 L -1222.4375 1557.625 L -1240.1562 1557.625 z M -106.3125 1575.3438 L -88.59375 1575.3438 L -88.59375 1593.0625 L -106.3125 1593.0625 L -106.3125 1575.3438 z M -106.3125 1610.7812 L -88.59375 1610.7812 L -88.59375 1628.5 L -106.3125 1628.5 L -106.3125 1610.7812 z M -106.3125 1646.2188 L -88.59375 1646.2188 L -88.59375 1663.9375 L -106.3125 1663.9375 L -106.3125 1646.2188 z M -106.3125 1681.6562 L -88.59375 1681.6562 L -88.59375 1699.375 L -106.3125 1699.375 L -106.3125 1681.6562 z M -106.3125 1717.0938 L -88.59375 1717.0938 L -88.59375 1734.8125 L -106.3125 1734.8125 L -106.3125 1717.0938 z M -106.3125 1752.5312 L -88.59375 1752.5312 L -88.59375 1770.25 L -106.3125 1770.25 L -106.3125 1752.5312 z "
       transform="translate(0,-1107.675)"
       id="rect2989" />
    <path
       style="fill:#0000ff;fill-opacity:1;stroke:none"
       d="M 70.875 1203.3125 L 70.875 1221.0312 L 88.59375 1221.0312 L 88.59375 1238.75 L 70.875 1238.75 L 70.875 1256.4688 L 88.59375 1256.4688 L 88.59375 1274.1875 L 70.875 1274.1875 L 70.875 1291.9062 L 88.59375 1291.9062 L 88.59375 1309.625 L 70.875 1309.625 L 70.875 1327.3438 L 88.59375 1327.3438 L 88.59375 1345.0625 L 70.875 1345.0625 L 70.875 1362.7812 L 88.59375 1362.7812 L 88.59375 1380.5 L 70.875 1380.5 L 70.875 1398.2188 L 88.59375 1398.2188 L 88.59375 1415.9375 L 70.875 1415.9375 L 70.875 1433.625 L 88.59375 1433.625 L 88.59375 1451.3438 L 106.3125 1451.3438 L 106.3125 1469.0625 L 124.03125 1469.0625 L 124.03125 1451.3438 L 141.71875 1451.3438 L 141.71875 1469.0625 L 159.4375 1469.0625 L 159.4375 1451.3438 L 177.15625 1451.3438 L 177.15625 1469.0625 L 194.875 1469.0625 L 194.875 1451.3438 L 212.59375 1451.3438 L 212.59375 1469.0625 L 230.3125 1469.0625 L 230.3125 1451.3438 L 248.03125 1451.3438 L 248.03125 1469.0625 L 265.75 1469.0625 L 265.75 1451.3438 L 283.46875 1451.3438 L 283.46875 1469.0625 L 301.1875 1469.0625 L 301.1875 1451.3438 L 301.1875 1291.875 L 318.90625 1291.875 L 354.34375 1291.875 L 974.40625 1291.875 L 1045.2812 1291.875 L 1080.7188 1291.875 L 1098.4375 1291.875 L 1098.4375 1451.3438 L 1116.1562 1451.3438 L 1116.1562 1469.0625 L 1133.8438 1469.0625 L 1133.8438 1451.3438 L 1151.5625 1451.3438 L 1151.5625 1469.0625 L 1169.2812 1469.0625 L 1169.2812 1451.3438 L 1187 1451.3438 L 1187 1469.0625 L 1204.7188 1469.0625 L 1204.7188 1451.3438 L 1222.4375 1451.3438 L 1222.4375 1469.0625 L 1240.1562 1469.0625 L 1240.1562 1451.3438 L 1257.875 1451.3438 L 1257.875 1469.0625 L 1275.5938 1469.0625 L 1275.5938 1451.3438 L 1293.3125 1451.3438 L 1293.3125 1469.0625 L 1311.0312 1469.0625 L 1311.0312 1451.3438 L 1328.75 1451.3438 L 1328.75 1469.0625 L 1346.4688 1469.0625 L 1346.4688 1451.3438 L 1364.2188 1451.3438 L 1364.2188 1433.625 L 1381.9062 1433.625 L 1381.9062 1415.9375 L 1364.2188 1415.9375 L 1364.2188 1398.2188 L 1381.9062 1398.2188 L 1381.9062 1380.5 L 1364.2188 1380.5 L 1364.2188 1362.7812 L 1381.9062 1362.7812 L 1381.9062 1345.0625 L 1364.2188 1345.0625 L 1364.2188 1327.3438 L 1381.9062 1327.3438 L 1381.9062 1309.625 L 1364.2188 1309.625 L 1364.2188 1291.9062 L 1381.9062 1291.9062 L 1381.9062 1274.1875 L 1364.2188 1274.1875 L 1364.2188 1256.4688 L 1381.9062 1256.4688 L 1381.9062 1238.75 L 1364.2188 1238.75 L 1364.2188 1221.0312 L 1381.9062 1221.0312 L 1381.9062 1203.3125 L 1311.0312 1203.3125 L 1311.0312 1221.0312 L 1293.3125 1221.0312 L 1293.3125 1203.3125 L 1275.5938 1203.3125 L 1275.5938 1221.0312 L 1257.875 1221.0312 L 1257.875 1203.3125 L 1240.1562 1203.3125 L 1240.1562 1221.0312 L 1222.4375 1221.0312 L 1222.4375 1203.3125 L 1204.7188 1203.3125 L 1204.7188 1221.0312 L 1187 1221.0312 L 1187 1203.3125 L 1169.2812 1203.3125 L 1169.2812 1221.0312 L 1151.5625 1221.0312 L 1151.5625 1203.3125 L 1133.8438 1203.3125 L 1133.8438 1221.0312 L 1116.1562 1221.0312 L 1116.1562 1203.3125 L 1098.4375 1203.3125 L 1098.4375 1221.0312 L 1080.7188 1221.0312 L 1080.7188 1203.3125 L 1063 1203.3125 L 1063 1221.0312 L 1045.2812 1221.0312 L 1045.2812 1203.3125 L 1027.5625 1203.3125 L 1027.5625 1221.0312 L 1009.8438 1221.0312 L 1009.8438 1203.3125 L 992.125 1203.3125 L 992.125 1221.0312 L 974.40625 1221.0312 L 974.40625 1203.3125 L 956.6875 1203.3125 L 956.6875 1221.0312 L 938.96875 1221.0312 L 938.96875 1203.3125 L 921.25 1203.3125 L 921.25 1221.0312 L 903.53125 1221.0312 L 903.53125 1203.3125 L 885.8125 1203.3125 L 885.8125 1221.0312 L 868.125 1221.0312 L 868.125 1203.3125 L 850.40625 1203.3125 L 850.40625 1221.0312 L 832.6875 1221.0312 L 832.6875 1203.3125 L 814.96875 1203.3125 L 814.96875 1221.0312 L 797.25 1221.0312 L 797.25 1203.3125 L 779.53125 1203.3125 L 779.53125 1221.0312 L 761.8125 1221.0312 L 761.8125 1203.3125 L 744.09375 1203.3125 L 744.09375 1221.0312 L 726.375 1221.0312 L 726.375 1203.3125 L 708.65625 1203.3125 L 708.65625 1221.0312 L 690.9375 1221.0312 L 690.9375 1203.3125 L 673.21875 1203.3125 L 673.21875 1221.0312 L 655.5 1221.0312 L 655.5 1203.3125 L 637.78125 1203.3125 L 637.78125 1221.0312 L 620.09375 1221.0312 L 620.09375 1203.3125 L 602.375 1203.3125 L 602.375 1221.0312 L 584.65625 1221.0312 L 584.65625 1203.3125 L 566.9375 1203.3125 L 566.9375 1221.0312 L 549.21875 1221.0312 L 549.21875 1203.3125 L 531.5 1203.3125 L 531.5 1221.0312 L 513.78125 1221.0312 L 513.78125 1203.3125 L 496.0625 1203.3125 L 496.0625 1221.0312 L 478.34375 1221.0312 L 478.34375 1203.3125 L 460.625 1203.3125 L 460.625 1221.0312 L 442.90625 1221.0312 L 442.90625 1203.3125 L 425.1875 1203.3125 L 425.1875 1221.0312 L 407.46875 1221.0312 L 407.46875 1203.3125 L 389.75 1203.3125 L 389.75 1221.0312 L 372.0625 1221.0312 L 372.0625 1203.3125 L 354.34375 1203.3125 L 354.34375 1221.0312 L 336.625 1221.0312 L 336.625 1203.3125 L 318.90625 1203.3125 L 318.90625 1221.0312 L 301.1875 1221.0312 L 301.1875 1203.3125 L 283.46875 1203.3125 L 283.46875 1221.0312 L 265.75 1221.0312 L 265.75 1203.3125 L 248.03125 1203.3125 L 248.03125 1221.0312 L 230.3125 1221.0312 L 230.3125 1203.3125 L 212.59375 1203.3125 L 212.59375 1221.0312 L 194.875 1221.0312 L 194.875 1203.3125 L 177.15625 1203.3125 L 177.15625 1221.0312 L 159.4375 1221.0312 L 159.4375 1203.3125 L 141.71875 1203.3125 L 141.71875 1221.0312 L 124.03125 1221.0312 L 124.03125 1203.3125 L 70.875 1203.3125 z M 194.90625 1251.0312 C 197.84162 1251.0312 200.21875 1253.4083 200.21875 1256.3438 C 200.21875 1259.279 197.84162 1261.6562 194.90625 1261.6562 C 191.97088 1261.6562 189.59375 1259.279 189.59375 1256.3438 C 189.59375 1253.4083 191.97088 1251.0312 194.90625 1251.0312 z M 265.78125 1251.0312 C 268.71662 1251.0312 271.09375 1253.4083 271.09375 1256.3438 C 271.09375 1259.279 268.71662 1261.6562 265.78125 1261.6562 C 262.84588 1261.6562 260.46875 1259.279 260.46875 1256.3438 C 260.46875 1253.4083 262.84588 1251.0312 265.78125 1251.0312 z M 1133.875 1251.0312 C 1136.8104 1251.0312 1139.1875 1253.4083 1139.1875 1256.3438 C 1139.1875 1259.279 1136.8104 1261.6562 1133.875 1261.6562 C 1130.9396 1261.6562 1128.5625 1259.279 1128.5625 1256.3438 C 1128.5625 1253.4083 1130.9396 1251.0312 1133.875 1251.0312 z M 1204.75 1251.0312 C 1207.6854 1251.0312 1210.0625 1253.4083 1210.0625 1256.3438 C 1210.0625 1259.279 1207.6854 1261.6562 1204.75 1261.6562 C 1201.8146 1261.6562 1199.4375 1259.279 1199.4375 1256.3438 C 1199.4375 1253.4083 1201.8146 1251.0312 1204.75 1251.0312 z M 132.8125 1262.2812 C 140.00985 1262.2812 145.84375 1268.1152 145.84375 1275.3125 C 145.84375 1282.5098 140.00985 1288.3438 132.8125 1288.3438 C 125.61515 1288.3438 119.78125 1282.5098 119.78125 1275.3125 C 119.78125 1268.1152 125.61515 1262.2812 132.8125 1262.2812 z M 1331.6562 1262.2812 C 1338.8537 1262.2812 1344.6875 1268.1152 1344.6875 1275.3125 C 1344.6875 1282.5098 1338.8537 1288.3438 1331.6562 1288.3438 C 1324.4591 1288.3438 1318.625 1282.5098 1318.625 1275.3125 C 1318.625 1268.1152 1324.4591 1262.2812 1331.6562 1262.2812 z "
       transform="translate(0,-1107.675)"
       id="path3828" />
    <path
       style="fill:#0000ff;fill-opacity:1;stroke:none"
       d="M 88.59375 937.5625 L 88.59375 955.28125 L 70.875 955.28125 L 70.875 973 L 88.59375 973 L 88.59375 990.71875 L 70.875 990.71875 L 70.875 1008.4375 L 88.59375 1008.4375 L 88.59375 1026.1562 L 70.875 1026.1562 L 70.875 1043.8438 L 88.59375 1043.8438 L 88.59375 1061.5625 L 70.875 1061.5625 L 70.875 1079.2812 L 88.59375 1079.2812 L 88.59375 1097 L 70.875 1097 L 70.875 1114.7188 L 88.59375 1114.7188 L 88.59375 1132.4375 L 70.875 1132.4375 L 70.875 1150.1562 L 88.59375 1150.1562 L 88.59375 1167.875 L 124.03125 1167.875 L 124.03125 1185.5938 L 141.71875 1185.5938 L 141.71875 1167.875 L 159.4375 1167.875 L 159.4375 1185.5938 L 177.15625 1185.5938 L 177.15625 1167.875 L 194.875 1167.875 L 194.875 1185.5938 L 212.59375 1185.5938 L 212.59375 1167.875 L 230.3125 1167.875 L 230.3125 1185.5938 L 248.03125 1185.5938 L 248.03125 1167.875 L 265.75 1167.875 L 265.75 1185.5938 L 283.46875 1185.5938 L 283.46875 1167.875 L 301.1875 1167.875 L 301.1875 1185.5938 L 318.90625 1185.5938 L 318.90625 1167.875 L 336.625 1167.875 L 336.625 1185.5938 L 354.34375 1185.5938 L 354.34375 1167.875 L 372.0625 1167.875 L 372.0625 1185.5938 L 389.75 1185.5938 L 389.75 1167.875 L 407.46875 1167.875 L 407.46875 1185.5938 L 425.1875 1185.5938 L 425.1875 1167.875 L 442.90625 1167.875 L 442.90625 1185.5938 L 460.625 1185.5938 L 460.625 1167.875 L 478.34375 1167.875 L 478.34375 1185.5938 L 496.0625 1185.5938 L 496.0625 1167.875 L 513.78125 1167.875 L 513.78125 1185.5938 L 531.5 1185.5938 L 531.5 1167.875 L 549.21875 1167.875 L 549.21875 1185.5938 L 566.9375 1185.5938 L 566.9375 1167.875 L 584.65625 1167.875 L 584.65625 1185.5938 L 602.375 1185.5938 L 602.375 1167.875 L 620.09375 1167.875 L 620.09375 1185.5938 L 637.78125 1185.5938 L 637.78125 1167.875 L 655.5 1167.875 L 655.5 1185.5938 L 673.21875 1185.5938 L 673.21875 1167.875 L 690.9375 1167.875 L 690.9375 1185.5938 L 708.65625 1185.5938 L 708.65625 1167.875 L 726.375 1167.875 L 726.375 1185.5938 L 744.09375 1185.5938 L 744.09375 1167.875 L 761.8125 1167.875 L 761.8125 1185.5938 L 779.53125 1185.5938 L 779.53125 1167.875 L 797.25 1167.875 L 797.25 1185.5938 L 814.96875 1185.5938 L 814.96875 1167.875 L 832.6875 1167.875 L 832.6875 1185.5938 L 850.40625 1185.5938 L 850.40625 1167.875 L 868.125 1167.875 L 868.125 1185.5938 L 885.8125 1185.5938 L 885.8125 1167.875 L 903.53125 1167.875 L 903.53125 1185.5938 L 921.25 1185.5938 L 921.25 1167.875 L 938.96875 1167.875 L 938.96875 1185.5938 L 956.6875 1185.5938 L 956.6875 1167.875 L 974.40625 1167.875 L 974.40625 1185.5938 L 992.125 1185.5938 L 992.125 1167.875 L 1009.8438 1167.875 L 1009.8438 1185.5938 L 1027.5625 1185.5938 L 1027.5625 1167.875 L 1045.2812 1167.875 L 1045.2812 1185.5938 L 1063 1185.5938 L 1063 1167.875 L 1080.7188 1167.875 L 1080.7188 1185.5938 L 1098.4375 1185.5938 L 1098.4375 1167.875 L 1116.1562 1167.875 L 1116.1562 1185.5938 L 1133.8438 1185.5938 L 1133.8438 1167.875 L 1151.5625 1167.875 L 1151.5625 1185.5938 L 1169.2812 1185.5938 L 1169.2812 1167.875 L 1187 1167.875 L 1187 1185.5938 L 1204.7188 1185.5938 L 1204.7188 1167.875 L 1222.4375 1167.875 L 1222.4375 1185.5938 L 1240.1562 1185.5938 L 1240.1562 1167.875 L 1257.875 1167.875 L 1257.875 1185.5938 L 1275.5938 1185.5938 L 1275.5938 1167.875 L 1293.3125 1167.875 L 1293.3125 1185.5938 L 1311.0312 1185.5938 L 1311.0312 1167.875 L 1364.1875 1167.875 L 1364.1875 1150.1562 L 1381.875 1150.1562 L 1381.875 1132.4375 L 1364.1875 1132.4375 L 1364.1875 1114.7188 L 1381.875 1114.7188 L 1381.875 1097 L 1364.1875 1097 L 1364.1875 1079.2812 L 1381.875 1079.2812 L 1381.875 1061.5625 L 1364.1875 1061.5625 L 1364.1875 1043.8438 L 1381.875 1043.8438 L 1381.875 1026.1562 L 1364.1875 1026.1562 L 1364.1875 1008.4375 L 1381.875 1008.4375 L 1381.875 990.71875 L 1364.1875 990.71875 L 1364.1875 973 L 1381.875 973 L 1381.875 955.28125 L 1364.1875 955.28125 L 1364.1875 937.5625 L 88.59375 937.5625 z "
       transform="translate(0,-1107.675)"
       id="rect3833" />
    <path
       style="fill:#0000ff;fill-opacity:1;stroke:none"
       d="M 106.3125 1841.0938 L 106.3125 1858.8125 L 88.59375 1858.8125 L 88.59375 1876.5312 L 70.875 1876.5312 L 70.875 1894.25 L 88.59375 1894.25 L 88.59375 1911.9688 L 70.875 1911.9688 L 70.875 1929.6875 L 88.59375 1929.6875 L 88.59375 1947.4062 L 70.875 1947.4062 L 70.875 1965.125 L 88.59375 1965.125 L 88.59375 1982.8125 L 88.59375 1982.8438 L 70.875 1982.8438 L 70.875 2000.5312 L 88.59375 2000.5312 L 88.59375 2018.25 L 70.875 2018.25 L 70.875 2035.9688 L 88.59375 2035.9688 L 88.59375 2053.6875 L 70.875 2053.6875 L 70.875 2071.4062 L 88.59375 2071.4062 L 88.59375 2089.125 L 70.875 2089.125 L 70.875 2106.8438 L 88.59375 2106.8438 L 88.59375 2124.5625 L 70.875 2124.5625 L 70.875 2142.2812 L 88.59375 2142.2812 L 88.59375 2160 L 70.875 2160 L 70.875 2177.7188 L 88.59375 2177.7188 L 88.59375 2195.4375 L 70.875 2195.4375 L 70.875 2213.1562 L 88.59375 2213.1562 L 88.59375 2230.875 L 70.875 2230.875 L 70.875 2248.5938 L 88.59375 2248.5938 L 88.59375 2266.2812 L 70.875 2266.2812 L 70.875 2284 L 88.59375 2284 L 88.59375 2301.7188 L 70.875 2301.7188 L 70.875 2319.4375 L 88.59375 2319.4375 L 88.59375 2337.1562 L 70.875 2337.1562 L 70.875 2354.875 L 88.59375 2354.875 L 88.59375 2372.5938 L 70.875 2372.5938 L 70.875 2390.3125 L 88.59375 2390.3125 L 88.59375 2408.0312 L 70.875 2408.0312 L 70.875 2425.75 L 88.59375 2425.75 L 88.59375 2443.4688 L 70.875 2443.4688 L 70.875 2461.1875 L 88.59375 2461.1875 L 88.59375 2478.9062 L 70.875 2478.9062 L 70.875 2496.625 L 88.59375 2496.625 L 88.59375 2514.3125 L 70.875 2514.3125 L 70.875 2532.0312 L 88.59375 2532.0312 L 88.59375 2549.75 L 70.875 2549.75 L 70.875 2567.4688 L 88.59375 2567.4688 L 88.59375 2585.1875 L 70.875 2585.1875 L 70.875 2602.9062 L 88.59375 2602.9062 L 88.59375 2620.625 L 70.875 2620.625 L 70.875 2638.3438 L 88.59375 2638.3438 L 88.59375 2656.0625 L 70.875 2656.0625 L 70.875 2673.7812 L 88.59375 2673.7812 L 88.59375 2691.5 L 70.875 2691.5 L 70.875 2709.2188 L 88.59375 2709.2188 L 88.59375 2726.9375 L 70.875 2726.9375 L 70.875 2744.6562 L 88.59375 2744.6562 L 88.59375 2762.3438 L 70.875 2762.3438 L 70.875 2780.0625 L 88.59375 2780.0625 L 88.59375 2797.7812 L 70.875 2797.7812 L 70.875 2815.5 L 88.59375 2815.5 L 88.59375 2833.2188 L 70.875 2833.2188 L 70.875 2850.9375 L 88.59375 2850.9375 L 88.59375 2868.6562 L 70.875 2868.6562 L 70.875 2886.375 L 88.59375 2886.375 L 88.59375 2904.0938 L 70.875 2904.0938 L 70.875 2921.8125 L 88.59375 2921.8125 L 88.59375 2939.5312 L 70.875 2939.5312 L 70.875 2957.25 L 88.59375 2957.25 L 88.59375 2974.9688 L 70.875 2974.9688 L 70.875 2992.6875 L 88.59375 2992.6875 L 88.59375 3010.375 L 70.875 3010.375 L 70.875 3028.0938 L 88.59375 3028.0938 L 88.59375 3045.8125 L 70.875 3045.8125 L 70.875 3063.5312 L 88.59375 3063.5312 L 88.59375 3081.25 L 70.875 3081.25 L 70.875 3098.9688 L 88.59375 3098.9688 L 88.59375 3116.6875 L 70.875 3116.6875 L 70.875 3134.4062 L 88.59375 3134.4062 L 88.59375 3152.125 L 106.3125 3152.125 L 106.3125 3134.4062 L 124.03125 3134.4062 L 124.03125 3152.125 L 141.71875 3152.125 L 141.71875 3134.4062 L 159.4375 3134.4062 L 159.4375 3152.125 L 177.15625 3152.125 L 177.15625 3134.4062 L 194.875 3134.4062 L 194.875 3152.125 L 212.59375 3152.125 L 212.59375 3134.4062 L 230.3125 3134.4062 L 230.3125 3152.125 L 248.03125 3152.125 L 248.03125 3134.4062 L 265.75 3134.4062 L 265.75 3152.125 L 283.46875 3152.125 L 283.46875 3134.4062 L 301.1875 3134.4062 L 301.1875 1858.8125 L 301.1875 1841.0938 L 283.46875 1841.0938 L 283.46875 1858.8125 L 265.75 1858.8125 L 265.75 1841.0938 L 248.03125 1841.0938 L 248.03125 1858.8125 L 230.3125 1858.8125 L 230.3125 1841.0938 L 212.59375 1841.0938 L 212.59375 1858.8125 L 194.875 1858.8125 L 194.875 1841.0938 L 177.15625 1841.0938 L 177.15625 1858.8125 L 159.4375 1858.8125 L 159.4375 1841.0938 L 141.71875 1841.0938 L 141.71875 1858.8125 L 124.03125 1858.8125 L 124.03125 1841.0938 L 106.3125 1841.0938 z M 106.3125 1982.8438 L 124.03125 1982.8438 L 124.03125 2000.5625 L 106.3125 2000.5625 L 106.3125 1982.8438 z M 141.71875 1982.8438 L 159.4375 1982.8438 L 159.4375 2000.5625 L 141.71875 2000.5625 L 141.71875 1982.8438 z M 177.15625 1982.8438 L 194.875 1982.8438 L 194.875 2000.5625 L 177.15625 2000.5625 L 177.15625 1982.8438 z M 212.59375 1982.8438 L 230.3125 1982.8438 L 230.3125 2000.5625 L 212.59375 2000.5625 L 212.59375 1982.8438 z "
       transform="translate(0,-1107.675)"
       id="rect4031" />
    <path
       style="fill:#0000ff;fill-opacity:1;stroke:none"
       d="M 1116.1562 1841.0938 L 1116.1562 1858.8125 L 1098.4375 1858.8125 L 1098.4375 3134.4062 L 1098.4375 3152.125 L 1116.1562 3152.125 L 1116.1562 3134.4062 L 1133.8438 3134.4062 L 1133.8438 3152.125 L 1151.5625 3152.125 L 1151.5625 3134.4062 L 1169.2812 3134.4062 L 1169.2812 3152.125 L 1187 3152.125 L 1187 3134.4062 L 1204.7188 3134.4062 L 1204.7188 3152.125 L 1222.4375 3152.125 L 1222.4375 3134.4062 L 1240.1562 3134.4062 L 1240.1562 3152.125 L 1257.875 3152.125 L 1257.875 3134.4062 L 1275.5938 3134.4062 L 1275.5938 3152.125 L 1293.3125 3152.125 L 1293.3125 3134.4062 L 1311.0312 3134.4062 L 1311.0312 3152.125 L 1328.7188 3152.125 L 1328.7188 3134.4062 L 1346.4375 3134.4062 L 1346.4375 3152.125 L 1364.1562 3152.125 L 1364.1562 3134.4062 L 1381.875 3134.4062 L 1381.875 3116.6875 L 1364.1562 3116.6875 L 1364.1562 3098.9688 L 1381.875 3098.9688 L 1381.875 3081.25 L 1364.1562 3081.25 L 1364.1562 3063.5312 L 1381.875 3063.5312 L 1381.875 3045.8125 L 1364.1562 3045.8125 L 1364.1562 3028.0938 L 1381.875 3028.0938 L 1381.875 3010.375 L 1364.1562 3010.375 L 1364.1562 2992.6875 L 1381.875 2992.6875 L 1381.875 2974.9688 L 1364.1562 2974.9688 L 1364.1562 2957.25 L 1381.875 2957.25 L 1381.875 2939.5312 L 1364.1562 2939.5312 L 1364.1562 2921.8125 L 1381.875 2921.8125 L 1381.875 2904.0938 L 1364.1562 2904.0938 L 1364.1562 2886.375 L 1381.875 2886.375 L 1381.875 2868.6562 L 1364.1562 2868.6562 L 1364.1562 2850.9375 L 1381.875 2850.9375 L 1381.875 2833.2188 L 1364.1562 2833.2188 L 1364.1562 2815.5 L 1381.875 2815.5 L 1381.875 2797.7812 L 1364.1562 2797.7812 L 1364.1562 2780.0625 L 1381.875 2780.0625 L 1381.875 2762.3438 L 1364.1562 2762.3438 L 1364.1562 2744.6562 L 1381.875 2744.6562 L 1381.875 2726.9375 L 1364.1562 2726.9375 L 1364.1562 2709.2188 L 1381.875 2709.2188 L 1381.875 2691.5 L 1364.1562 2691.5 L 1364.1562 2673.7812 L 1381.875 2673.7812 L 1381.875 2656.0625 L 1364.1562 2656.0625 L 1364.1562 2638.3438 L 1381.875 2638.3438 L 1381.875 2620.625 L 1364.1562 2620.625 L 1364.1562 2602.9062 L 1381.875 2602.9062 L 1381.875 2585.1875 L 1364.1562 2585.1875 L 1364.1562 2567.4688 L 1381.875 2567.4688 L 1381.875 2549.75 L 1364.1562 2549.75 L 1364.1562 2532.0312 L 1381.875 2532.0312 L 1381.875 2514.3125 L 1364.1562 2514.3125 L 1364.1562 2496.625 L 1381.875 2496.625 L 1381.875 2478.9062 L 1364.1562 2478.9062 L 1364.1562 2461.1875 L 1381.875 2461.1875 L 1381.875 2443.4688 L 1364.1562 2443.4688 L 1364.1562 2425.75 L 1381.875 2425.75 L 1381.875 2408.0312 L 1364.1562 2408.0312 L 1364.1562 2390.3125 L 1381.875 2390.3125 L 1381.875 2372.5938 L 1364.1562 2372.5938 L 1364.1562 2354.875 L 1381.875 2354.875 L 1381.875 2337.1562 L 1364.1562 2337.1562 L 1364.1562 2319.4375 L 1381.875 2319.4375 L 1381.875 2301.7188 L 1364.1562 2301.7188 L 1364.1562 2284 L 1381.875 2284 L 1381.875 2266.2812 L 1364.1562 2266.2812 L 1364.1562 2248.5938 L 1381.875 2248.5938 L 1381.875 2230.875 L 1364.1562 2230.875 L 1364.1562 2213.1562 L 1381.875 2213.1562 L 1381.875 2195.4375 L 1364.1562 2195.4375 L 1364.1562 2177.7188 L 1381.875 2177.7188 L 1381.875 2160 L 1364.1562 2160 L 1364.1562 2142.2812 L 1381.875 2142.2812 L 1381.875 2124.5625 L 1364.1562 2124.5625 L 1364.1562 2106.8438 L 1381.875 2106.8438 L 1381.875 2089.125 L 1364.1562 2089.125 L 1364.1562 2071.4062 L 1381.875 2071.4062 L 1381.875 2053.6875 L 1364.1562 2053.6875 L 1364.1562 2035.9688 L 1381.875 2035.9688 L 1381.875 2018.25 L 1364.1562 2018.25 L 1364.1562 2000.5312 L 1381.875 2000.5312 L 1381.875 1982.8438 L 1364.1562 1982.8438 L 1364.1562 1982.8125 L 1364.1562 1965.125 L 1381.875 1965.125 L 1381.875 1947.4062 L 1364.1562 1947.4062 L 1364.1562 1929.6875 L 1381.875 1929.6875 L 1381.875 1911.9688 L 1364.1562 1911.9688 L 1364.1562 1894.25 L 1381.875 1894.25 L 1381.875 1876.5312 L 1364.1562 1876.5312 L 1364.1562 1858.8125 L 1346.4375 1858.8125 L 1346.4375 1841.0938 L 1328.7188 1841.0938 L 1328.7188 1858.8125 L 1311.0312 1858.8125 L 1311.0312 1841.0938 L 1293.3125 1841.0938 L 1293.3125 1858.8125 L 1275.5938 1858.8125 L 1275.5938 1841.0938 L 1257.875 1841.0938 L 1257.875 1858.8125 L 1240.1562 1858.8125 L 1240.1562 1841.0938 L 1222.4375 1841.0938 L 1222.4375 1858.8125 L 1204.7188 1858.8125 L 1204.7188 1841.0938 L 1187 1841.0938 L 1187 1858.8125 L 1169.2812 1858.8125 L 1169.2812 1841.0938 L 1151.5625 1841.0938 L 1151.5625 1858.8125 L 1133.8438 1858.8125 L 1133.8438 1841.0938 L 1116.1562 1841.0938 z M 1169.2812 1876.5312 L 1187 1876.5312 L 1187 1894.25 L 1169.2812 1894.25 L 1169.2812 1876.5312 z M 1169.2812 1911.9688 L 1187 1911.9688 L 1187 1929.6875 L 1169.2812 1929.6875 L 1169.2812 1911.9688 z M 1204.7188 1911.9688 L 1346.4688 1911.9688 L 1346.4688 1965.125 L 1204.7188 1965.125 L 1204.7188 1911.9688 z M 1169.2812 1947.4062 L 1187 1947.4062 L 1187 1965.125 L 1169.2812 1965.125 L 1169.2812 1947.4062 z M 1187 1982.8438 L 1204.7188 1982.8438 L 1204.7188 2000.5625 L 1187 2000.5625 L 1187 1982.8438 z M 1222.4375 1982.8438 L 1240.1562 1982.8438 L 1240.1562 2000.5625 L 1222.4375 2000.5625 L 1222.4375 1982.8438 z M 1257.875 1982.8438 L 1275.5938 1982.8438 L 1275.5938 2000.5625 L 1257.875 2000.5625 L 1257.875 1982.8438 z M 1293.3125 1982.8438 L 1311.0312 1982.8438 L 1311.0312 2000.5625 L 1293.3125 2000.5625 L 1293.3125 1982.8438 z M 1328.75 1982.8438 L 1346.4688 1982.8438 L 1346.4688 2000.5625 L 1328.75 2000.5625 L 1328.75 1982.8438 z "
       transform="translate(0,-1107.675)"
       id="path4558" />
    <path
       style="fill:#0000ff;fill-opacity:1;stroke:none"
       d="M 1417.3125 1557.625 L 1417.3125 1575.3438 L 1399.5938 1575.3438 L 1399.5938 1593.0625 L 1417.3125 1593.0625 L 1417.3125 1610.7812 L 1399.5938 1610.7812 L 1399.5938 1628.5 L 1417.3125 1628.5 L 1417.3125 1646.2188 L 1399.5938 1646.2188 L 1399.5938 1663.9375 L 1417.3125 1663.9375 L 1417.3125 1681.6562 L 1399.5938 1681.6562 L 1399.5938 1699.375 L 1417.3125 1699.375 L 1417.3125 1717.0938 L 1399.5938 1717.0938 L 1399.5938 1734.8125 L 1417.3125 1734.8125 L 1417.3125 1752.5312 L 1399.5938 1752.5312 L 1399.5938 1770.25 L 1417.3125 1770.25 L 1417.3125 1787.9375 L 1399.5938 1787.9375 L 1399.5938 1805.6562 L 1417.3125 1805.6562 L 1417.3125 1823.375 L 1435.0312 1823.375 L 1435.0312 1805.6562 L 1452.75 1805.6562 L 1452.75 1823.375 L 1470.4688 1823.375 L 1470.4688 1805.6562 L 1488.1875 1805.6562 L 1488.1875 1823.375 L 1505.9062 1823.375 L 1505.9062 1805.6562 L 1523.625 1805.6562 L 1523.625 1823.375 L 1541.3438 1823.375 L 1541.3438 1805.6562 L 1541.3438 1787.9375 L 1559.0625 1787.9375 L 1559.0625 1805.6562 L 1559.0625 1823.375 L 1576.7812 1823.375 L 1576.7812 1805.6562 L 1594.5 1805.6562 L 1594.5 1823.375 L 1612.1875 1823.375 L 1612.1875 1805.6562 L 1629.9062 1805.6562 L 1629.9062 1823.375 L 1647.625 1823.375 L 1647.625 1805.6562 L 1665.3438 1805.6562 L 1665.3438 1823.375 L 1683.0625 1823.375 L 1683.0625 1805.6562 L 1700.7812 1805.6562 L 1700.7812 1823.375 L 1718.5 1823.375 L 1718.5 1805.6562 L 1736.2188 1805.6562 L 1736.2188 1823.375 L 1753.9375 1823.375 L 1753.9375 1805.6562 L 1771.6562 1805.6562 L 1771.6562 1823.375 L 1789.375 1823.375 L 1789.375 1805.6562 L 1807.0938 1805.6562 L 1807.0938 1823.375 L 1824.8125 1823.375 L 1824.8125 1805.6562 L 1842.5312 1805.6562 L 1842.5312 1823.375 L 1860.2188 1823.375 L 1860.2188 1805.6562 L 1877.9375 1805.6562 L 1877.9375 1823.375 L 1895.6562 1823.375 L 1895.6562 1805.6562 L 1913.375 1805.6562 L 1913.375 1823.375 L 1931.0938 1823.375 L 1931.0938 1805.6562 L 1948.8125 1805.6562 L 1948.8125 1823.375 L 1966.5312 1823.375 L 1966.5312 1805.6562 L 1984.25 1805.6562 L 1984.25 1823.375 L 2001.9688 1823.375 L 2001.9688 1805.6562 L 2019.6875 1805.6562 L 2019.6875 1823.375 L 2037.4062 1823.375 L 2037.4062 1805.6562 L 2055.125 1805.6562 L 2055.125 1823.375 L 2072.8438 1823.375 L 2072.8438 1805.6562 L 2090.5625 1805.6562 L 2090.5625 1823.375 L 2108.25 1823.375 L 2108.25 1805.6562 L 2125.9688 1805.6562 L 2125.9688 1823.375 L 2143.6875 1823.375 L 2143.6875 1805.6562 L 2161.4062 1805.6562 L 2161.4062 1823.375 L 2179.125 1823.375 L 2179.125 1805.6562 L 2196.8438 1805.6562 L 2196.8438 1823.375 L 2214.5625 1823.375 L 2214.5625 1805.6562 L 2232.2812 1805.6562 L 2232.2812 1823.375 L 2250 1823.375 L 2250 1805.6562 L 2267.7188 1805.6562 L 2267.7188 1823.375 L 2285.4375 1823.375 L 2285.4375 1805.6562 L 2303.1562 1805.6562 L 2303.1562 1823.375 L 2320.875 1823.375 L 2320.875 1805.6562 L 2338.5938 1805.6562 L 2338.5938 1823.375 L 2356.2812 1823.375 L 2356.2812 1805.6562 L 2374 1805.6562 L 2374 1823.375 L 2391.7188 1823.375 L 2391.7188 1805.6562 L 2409.4375 1805.6562 L 2409.4375 1823.375 L 2427.1562 1823.375 L 2427.1562 1805.6562 L 2444.875 1805.6562 L 2444.875 1823.375 L 2462.5938 1823.375 L 2462.5938 1805.6562 L 2480.3125 1805.6562 L 2480.3125 1823.375 L 2498.0312 1823.375 L 2498.0312 1805.6562 L 2515.75 1805.6562 L 2515.75 1823.375 L 2533.4688 1823.375 L 2533.4688 1805.6562 L 2551.1875 1805.6562 L 2551.1875 1823.375 L 2568.9062 1823.375 L 2568.9062 1805.6562 L 2586.625 1805.6562 L 2586.625 1823.375 L 2604.3125 1823.375 L 2604.3125 1805.6562 L 2622.0312 1805.6562 L 2622.0312 1823.375 L 2639.75 1823.375 L 2639.75 1805.6562 L 2657.4688 1805.6562 L 2657.4688 1823.375 L 2675.1875 1823.375 L 2675.1875 1805.6562 L 2692.9062 1805.6562 L 2692.9062 1823.375 L 2710.625 1823.375 L 2710.625 1805.6562 L 2710.625 1787.9375 L 2692.9062 1787.9375 L 2692.9062 1770.25 L 2710.625 1770.25 L 2710.625 1752.5312 L 2692.9062 1752.5312 L 2692.9062 1734.8125 L 2710.625 1734.8125 L 2710.625 1717.0938 L 2692.9062 1717.0938 L 2692.9062 1699.375 L 2710.625 1699.375 L 2710.625 1681.6562 L 2692.9062 1681.6562 L 2692.9062 1663.9375 L 2710.625 1663.9375 L 2710.625 1646.2188 L 2692.9062 1646.2188 L 2692.9062 1628.5 L 2710.625 1628.5 L 2710.625 1610.7812 L 2692.9062 1610.7812 L 2692.9062 1593.0625 L 2710.625 1593.0625 L 2710.625 1575.3438 L 2692.9062 1575.3438 L 2692.9062 1557.625 L 2675.1875 1557.625 L 2675.1875 1575.3438 L 2657.4688 1575.3438 L 2657.4688 1557.625 L 2639.75 1557.625 L 2639.75 1575.3438 L 2622.0312 1575.3438 L 2622.0312 1557.625 L 2604.3125 1557.625 L 2604.3125 1575.3438 L 2586.625 1575.3438 L 2586.625 1557.625 L 2568.9062 1557.625 L 2568.9062 1575.3438 L 2551.1875 1575.3438 L 2551.1875 1557.625 L 2533.4688 1557.625 L 2533.4688 1575.3438 L 2515.75 1575.3438 L 2515.75 1557.625 L 2498.0312 1557.625 L 2498.0312 1575.3438 L 2480.3125 1575.3438 L 2480.3125 1557.625 L 1452.75 1557.625 L 1417.3125 1557.625 z M 1541.3438 1575.3438 L 1559.0625 1575.3438 L 1559.0625 1593.0625 L 1541.3438 1593.0625 L 1541.3438 1575.3438 z M 1541.3438 1610.7812 L 1559.0625 1610.7812 L 1559.0625 1628.5 L 1541.3438 1628.5 L 1541.3438 1610.7812 z M 1541.3438 1646.2188 L 1559.0625 1646.2188 L 1559.0625 1663.9375 L 1541.3438 1663.9375 L 1541.3438 1646.2188 z M 1541.3438 1681.6562 L 1559.0625 1681.6562 L 1559.0625 1699.375 L 1541.3438 1699.375 L 1541.3438 1681.6562 z M 1879.5938 1693.7812 L 1942.7188 1693.7812 C 1945.5423 1693.7812 1947.8438 1696.0513 1947.8438 1698.875 C 1947.8438 1701.6987 1945.5423 1703.9688 1942.7188 1703.9688 L 1879.5938 1703.9688 C 1876.77 1703.9688 1874.5 1701.6987 1874.5 1698.875 C 1874.5 1696.0513 1876.77 1693.7812 1879.5938 1693.7812 z M 1541.3438 1717.0938 L 1559.0625 1717.0938 L 1559.0625 1734.8125 L 1541.3438 1734.8125 L 1541.3438 1717.0938 z M 1541.3438 1752.5312 L 1559.0625 1752.5312 L 1559.0625 1770.25 L 1541.3438 1770.25 L 1541.3438 1752.5312 z M 1879.5938 1774.875 L 1942.7188 1774.875 C 1945.5423 1774.875 1947.8438 1777.145 1947.8438 1779.9688 C 1947.8438 1782.7923 1945.5423 1785.0625 1942.7188 1785.0625 L 1879.5938 1785.0625 C 1876.77 1785.0625 1874.5 1782.7923 1874.5 1779.9688 C 1874.5 1777.145 1876.77 1774.875 1879.5938 1774.875 z "
       transform="translate(0,-1107.675)"
       id="path4560" />
    <path
       style="fill:#0000ff;fill-opacity:1;stroke:none"
       d="M -566.96875 1079.2812 L -566.96875 1097 L -584.65625 1097 L -584.65625 1114.7188 L -566.96875 1114.7188 L -566.96875 1132.4375 L -584.65625 1132.4375 L -584.65625 1150.125 L -566.96875 1150.125 L -566.96875 1167.8438 L -584.65625 1167.8438 L -584.65625 1185.5625 L -566.96875 1185.5625 L -566.96875 1203.2812 L -584.65625 1203.2812 L -584.65625 1221 L -566.96875 1221 L -566.96875 1238.7188 L -584.65625 1238.7188 L -584.65625 1256.4375 L -566.96875 1256.4375 L -566.96875 1274.1562 L -584.65625 1274.1562 L -584.65625 1291.875 L -566.96875 1291.875 L -566.96875 1309.5938 L -584.65625 1309.5938 L -584.65625 1327.3125 L -566.96875 1327.3125 L -549.25 1327.3125 L -549.25 1345.0312 L -531.53125 1345.0312 L -531.53125 1327.3125 L -513.8125 1327.3125 L -513.8125 1345.0312 L -496.09375 1345.0312 L -496.09375 1327.3125 L -478.375 1327.3125 L -478.375 1345.0312 L -460.65625 1345.0312 L -460.65625 1327.3125 L -442.9375 1327.3125 L -442.9375 1345.0312 L -425.21875 1345.0312 L -425.21875 1327.3125 L -407.5 1327.3125 L -407.5 1345.0312 L -407.46875 1345.0312 L -407.46875 1079.2812 L -566.96875 1079.2812 z M -533.40625 1094.2812 C -530.60026 1094.2812 -528.34375 1096.569 -528.34375 1099.375 C -528.34375 1102.181 -530.60026 1104.4688 -533.40625 1104.4688 C -536.21224 1104.4688 -538.5 1102.181 -538.5 1099.375 C -538.5 1096.569 -536.21224 1094.2812 -533.40625 1094.2812 z M -423.96875 1094.2812 C -421.16276 1094.2812 -418.90625 1096.569 -418.90625 1099.375 C -418.90625 1102.181 -421.16276 1104.4688 -423.96875 1104.4688 C -426.77474 1104.4688 -429.0625 1102.181 -429.0625 1099.375 C -429.0625 1096.569 -426.77474 1094.2812 -423.96875 1094.2812 z M -523.65625 1136.3125 C -515.99419 1136.3125 -509.78125 1142.5254 -509.78125 1150.1875 C -509.78125 1157.8496 -515.99419 1164.0625 -523.65625 1164.0625 C -531.31831 1164.0625 -537.53125 1157.8496 -537.53125 1150.1875 C -537.53125 1142.5254 -531.31831 1136.3125 -523.65625 1136.3125 z M -478.8125 1136.3125 C -467.27749 1136.3125 -457.90625 1145.6836 -457.90625 1157.2188 C -457.90625 1168.7537 -467.27749 1178.0938 -478.8125 1178.0938 C -490.34751 1178.0938 -499.6875 1168.7537 -499.6875 1157.2188 C -499.6875 1145.6836 -490.34751 1136.3125 -478.8125 1136.3125 z M -533.40625 1203.9688 C -530.60026 1203.9688 -528.34375 1206.2565 -528.34375 1209.0625 C -528.34375 1211.8685 -530.60026 1214.125 -533.40625 1214.125 C -536.21224 1214.125 -538.5 1211.8685 -538.5 1209.0625 C -538.5 1206.2565 -536.21224 1203.9688 -533.40625 1203.9688 z M -423.96875 1203.9688 C -421.16276 1203.9688 -418.90625 1206.2565 -418.90625 1209.0625 C -418.90625 1211.8685 -421.16276 1214.125 -423.96875 1214.125 C -426.77474 1214.125 -429.0625 1211.8685 -429.0625 1209.0625 C -429.0625 1206.2565 -426.77474 1203.9688 -423.96875 1203.9688 z "
       transform="translate(0,-1107.675)"
       id="rect4603" />
    <path
       style="fill:#0000ff;fill-opacity:1;stroke:none"
       d="M 1470.4688 1079.2812 L 1470.4688 1097 L 1488.1875 1097 L 1488.1875 1114.7188 L 1470.4688 1114.7188 L 1470.4688 1132.4375 L 1488.1875 1132.4375 L 1488.1875 1150.125 L 1470.4688 1150.125 L 1470.4688 1167.8438 L 1488.1875 1167.8438 L 1488.1875 1185.5625 L 1470.4688 1185.5625 L 1470.4688 1203.2812 L 1488.1875 1203.2812 L 1488.1875 1221 L 1470.4688 1221 L 1470.4688 1238.7188 L 1488.1875 1238.7188 L 1488.1875 1256.4375 L 1470.4688 1256.4375 L 1470.4688 1274.1562 L 1488.1875 1274.1562 L 1488.1875 1291.875 L 1470.4688 1291.875 L 1470.4688 1309.5938 L 1488.1875 1309.5938 L 1488.1875 1327.3125 L 1505.9062 1327.3125 L 1505.9062 1345.0312 L 1523.625 1345.0312 L 1523.625 1327.3125 L 1541.3438 1327.3125 L 1541.3438 1345.0312 L 1559.0625 1345.0312 L 1559.0625 1327.3125 L 1576.7812 1327.3125 L 1576.7812 1345.0312 L 1594.5 1345.0312 L 1594.5 1327.3125 L 1612.2188 1327.3125 L 1612.2188 1309.5938 L 1629.9375 1309.5938 L 1629.9375 1291.875 L 1612.2188 1291.875 L 1612.2188 1274.1875 L 1629.9375 1274.1875 L 1629.9375 1256.4688 L 1612.2188 1256.4688 L 1612.2188 1238.75 L 1629.9375 1238.75 L 1629.9375 1221.0312 L 1612.2188 1221.0312 L 1612.2188 1203.3125 L 1629.9375 1203.3125 L 1629.9375 1185.5938 L 1612.2188 1185.5938 L 1612.2188 1167.875 L 1629.9375 1167.875 L 1629.9375 1150.1562 L 1612.2188 1150.1562 L 1612.2188 1132.4375 L 1629.9375 1132.4375 L 1629.9375 1114.7188 L 1612.2188 1114.7188 L 1612.2188 1097 L 1629.9375 1097 L 1629.9375 1079.2812 L 1612.2188 1079.2812 L 1470.4688 1079.2812 z M 1523.7188 1284.8438 C 1527.6326 1284.8438 1530.8125 1288.0237 1530.8125 1291.9375 C 1530.8125 1295.8513 1527.6326 1299.0312 1523.7188 1299.0312 C 1519.8049 1299.0312 1516.6562 1295.8513 1516.6562 1291.9375 C 1516.6562 1288.0237 1519.8049 1284.8438 1523.7188 1284.8438 z "
       transform="translate(0,-1107.675)"
       id="path4786" />
    <path
       style="fill:#0000ff;fill-opacity:1;stroke:none"
       d="M 1683.0312 1079.2812 L 1683.0312 1097 L 1665.3438 1097 L 1665.3438 1114.7188 L 1683.0312 1114.7188 L 1683.0312 1132.4375 L 1665.3438 1132.4375 L 1665.3438 1150.125 L 1683.0312 1150.125 L 1683.0312 1167.8438 L 1665.3438 1167.8438 L 1665.3438 1185.5625 L 1683.0312 1185.5625 L 1683.0312 1203.2812 L 1665.3438 1203.2812 L 1665.3438 1221 L 1683.0312 1221 L 1683.0312 1238.7188 L 1665.3438 1238.7188 L 1665.3438 1256.4375 L 1683.0312 1256.4375 L 1683.0312 1274.1562 L 1665.3438 1274.1562 L 1665.3438 1291.875 L 1683.0312 1291.875 L 1683.0312 1309.5938 L 1665.3438 1309.5938 L 1665.3438 1327.3125 L 1683.0625 1327.3125 L 1683.0625 1345.0312 L 1700.7812 1345.0312 L 1700.7812 1327.3125 L 1718.5 1327.3125 L 1718.5 1345.0312 L 1736.2188 1345.0312 L 1736.2188 1327.3125 L 1753.9375 1327.3125 L 1753.9375 1345.0312 L 1771.6562 1345.0312 L 1771.6562 1327.3125 L 1789.375 1327.3125 L 1789.375 1345.0312 L 1807.0938 1345.0312 L 1807.0938 1327.3125 L 1824.8125 1327.3125 L 1824.8125 1345.0312 L 1842.5312 1345.0312 L 1842.5312 1327.3125 L 1860.25 1327.3125 L 1877.9375 1327.3125 L 1877.9375 1309.5938 L 1860.2188 1309.5938 L 1860.2188 1291.875 L 1877.9375 1291.875 L 1877.9375 1274.1562 L 1860.2188 1274.1562 L 1860.2188 1256.4375 L 1877.9375 1256.4375 L 1877.9375 1238.7188 L 1860.2188 1238.7188 L 1860.2188 1221 L 1877.9375 1221 L 1877.9375 1203.2812 L 1860.2188 1203.2812 L 1860.2188 1185.5625 L 1877.9375 1185.5625 L 1877.9375 1167.8438 L 1860.2188 1167.8438 L 1860.2188 1150.125 L 1877.9375 1150.125 L 1877.9375 1132.4375 L 1860.2188 1132.4375 L 1860.2188 1114.7188 L 1877.9375 1114.7188 L 1877.9375 1097 L 1860.2188 1097 L 1860.2188 1079.2812 L 1683.0312 1079.2812 z M 1707.6875 1094.2188 C 1710.6229 1094.2188 1713 1096.5961 1713 1099.5312 C 1713 1102.4668 1710.6229 1104.8438 1707.6875 1104.8438 C 1704.7522 1104.8438 1702.375 1102.4668 1702.375 1099.5312 C 1702.375 1096.5961 1704.7522 1094.2188 1707.6875 1094.2188 z M 1817.1875 1094.2188 C 1820.1229 1094.2188 1822.5 1096.5961 1822.5 1099.5312 C 1822.5 1102.4668 1820.1229 1104.8438 1817.1875 1104.8438 C 1814.2522 1104.8438 1811.875 1102.4668 1811.875 1099.5312 C 1811.875 1096.5961 1814.2522 1094.2188 1817.1875 1094.2188 z M 1762.5 1132.1562 C 1774.3795 1132.1562 1784.0312 1141.7769 1784.0312 1153.6562 C 1784.0312 1165.5358 1774.3795 1175.1875 1762.5 1175.1875 C 1750.6205 1175.1875 1741 1165.5358 1741 1153.6562 C 1741 1141.7769 1750.6205 1132.1562 1762.5 1132.1562 z M 1828.8125 1137.625 C 1836.5295 1137.625 1842.7812 1143.8765 1842.7812 1151.5938 C 1842.7812 1159.3104 1836.5295 1165.5625 1828.8125 1165.5625 C 1821.0955 1165.5625 1814.8125 1159.3104 1814.8125 1151.5938 C 1814.8125 1143.8765 1821.0955 1137.625 1828.8125 1137.625 z M 1707.6875 1203.6875 C 1710.6229 1203.6875 1713 1206.0646 1713 1209 C 1713 1211.9354 1710.6229 1214.3125 1707.6875 1214.3125 C 1704.7522 1214.3125 1702.375 1211.9354 1702.375 1209 C 1702.375 1206.0646 1704.7522 1203.6875 1707.6875 1203.6875 z M 1817.1875 1203.6875 C 1820.1229 1203.6875 1822.5 1206.0646 1822.5 1209 C 1822.5 1211.9354 1820.1229 1214.3125 1817.1875 1214.3125 C 1814.2522 1214.3125 1811.875 1211.9354 1811.875 1209 C 1811.875 1206.0646 1814.2522 1203.6875 1817.1875 1203.6875 z "
       transform="translate(0,-1107.675)"
       id="path4788" />
    <path
       style="fill:#0000ff;fill-opacity:1;stroke:none"
       d="M 318.90625 140.3125 L 318.90625 158.03125 L 336.625 158.03125 L 336.625 175.75 L 318.90625 175.75 L 318.90625 193.46875 L 336.625 193.46875 L 336.625 211.1875 L 318.90625 211.1875 L 318.90625 228.90625 L 336.625 228.90625 L 336.625 246.625 L 318.90625 246.625 L 318.90625 264.34375 L 336.625 264.34375 L 336.625 282.0625 L 318.90625 282.0625 L 318.90625 299.75 L 336.625 299.75 L 336.625 317.46875 L 318.90625 317.46875 L 318.90625 335.1875 L 336.625 335.1875 L 336.625 352.90625 L 318.90625 352.90625 L 318.90625 370.625 L 336.625 370.625 L 336.625 388.34375 L 318.90625 388.34375 L 318.90625 406.0625 L 336.625 406.0625 L 336.625 423.78125 L 318.90625 423.78125 L 318.90625 441.5 L 336.625 441.5 L 336.625 459.21875 L 318.90625 459.21875 L 318.90625 476.9375 L 336.625 476.9375 L 336.625 494.65625 L 318.90625 494.65625 L 318.90625 512.375 L 354.34375 512.375 L 354.34375 494.65625 L 372.0625 494.65625 L 372.0625 512.375 L 389.75 512.375 L 389.75 494.65625 L 407.46875 494.65625 L 407.46875 512.375 L 425.1875 512.375 L 425.1875 494.65625 L 442.90625 494.65625 L 442.90625 512.375 L 460.625 512.375 L 460.625 494.65625 L 478.34375 494.65625 L 478.34375 512.375 L 496.0625 512.375 L 496.0625 494.65625 L 513.78125 494.65625 L 513.78125 512.375 L 531.5 512.375 L 531.5 494.65625 L 549.21875 494.65625 L 549.21875 512.375 L 566.9375 512.375 L 566.9375 494.65625 L 584.65625 494.65625 L 584.65625 512.375 L 602.375 512.375 L 602.375 494.65625 L 620.09375 494.65625 L 620.09375 512.375 L 637.78125 512.375 L 637.78125 494.65625 L 655.5 494.65625 L 655.5 512.375 L 673.21875 512.375 L 673.21875 494.65625 L 690.9375 494.65625 L 690.9375 512.375 L 708.65625 512.375 L 708.65625 494.65625 L 726.375 494.65625 L 726.375 512.375 L 744.09375 512.375 L 744.09375 494.65625 L 761.8125 494.65625 L 761.8125 512.375 L 779.53125 512.375 L 779.53125 494.65625 L 797.25 494.65625 L 797.25 512.375 L 814.96875 512.375 L 814.96875 494.65625 L 832.6875 494.65625 L 832.6875 512.375 L 850.40625 512.375 L 850.40625 494.65625 L 868.125 494.65625 L 868.125 512.375 L 885.8125 512.375 L 885.8125 494.65625 L 903.53125 494.65625 L 903.53125 512.375 L 921.25 512.375 L 921.25 494.65625 L 938.96875 494.65625 L 938.96875 512.375 L 956.6875 512.375 L 956.6875 494.65625 L 974.40625 494.65625 L 974.40625 512.375 L 992.125 512.375 L 992.125 494.65625 L 1009.8438 494.65625 L 1009.8438 512.375 L 1027.5625 512.375 L 1027.5625 494.65625 L 1045.2812 494.65625 L 1045.2812 512.375 L 1063 512.375 L 1063 494.65625 L 1080.7188 494.65625 L 1080.7188 512.375 L 1116.1562 512.375 L 1116.1562 494.65625 L 1098.4375 494.65625 L 1098.4375 476.9375 L 1116.1562 476.9375 L 1116.1562 459.21875 L 1098.4375 459.21875 L 1098.4375 441.5 L 1116.1562 441.5 L 1116.1562 423.78125 L 1098.4375 423.78125 L 1098.4375 406.0625 L 1116.1562 406.0625 L 1116.1562 388.34375 L 1098.4375 388.34375 L 1098.4375 370.625 L 1116.1562 370.625 L 1116.1562 352.90625 L 1098.4375 352.90625 L 1098.4375 335.1875 L 1116.1562 335.1875 L 1116.1562 317.46875 L 1098.4375 317.46875 L 1098.4375 299.75 L 1116.1562 299.75 L 1116.1562 282.0625 L 1098.4375 282.0625 L 1098.4375 264.34375 L 1116.1562 264.34375 L 1116.1562 246.625 L 1098.4375 246.625 L 1098.4375 228.90625 L 1116.1562 228.90625 L 1116.1562 211.1875 L 1098.4375 211.1875 L 1098.4375 193.46875 L 1116.1562 193.46875 L 1116.1562 175.75 L 1098.4375 175.75 L 1098.4375 158.03125 L 1116.1562 158.03125 L 1116.1562 140.3125 L 1080.7188 140.3125 L 318.90625 140.3125 z "
       transform="translate(0,-1107.675)"
       id="rect4932" />
    <path
       style="fill:#0000ff;fill-opacity:1;stroke:none"
       d="M 336.625 -780.9375 L 336.625 -763.21875 L 318.90625 -763.21875 L 318.90625 -745.5 L 336.625 -745.5 L 336.625 -727.78125 L 318.90625 -727.78125 L 318.90625 -710.09375 L 336.625 -710.09375 L 336.625 -692.375 L 318.90625 -692.375 L 318.90625 -674.65625 L 336.625 -674.65625 L 336.625 -656.9375 L 318.90625 -656.9375 L 318.90625 -639.21875 L 336.625 -639.21875 L 336.625 -621.5 L 318.90625 -621.5 L 318.90625 -603.78125 L 336.625 -603.78125 L 336.625 -586.0625 L 318.90625 -586.0625 L 318.90625 -568.34375 L 336.625 -568.34375 L 336.625 -550.625 L 318.90625 -550.625 L 318.90625 -532.90625 L 336.625 -532.90625 L 336.625 -515.1875 L 318.90625 -515.1875 L 318.90625 -497.46875 L 336.625 -497.46875 L 336.625 -479.75 L 318.90625 -479.75 L 318.90625 -462.0625 L 336.625 -462.0625 L 336.625 -444.34375 L 318.90625 -444.34375 L 318.90625 -426.625 L 336.625 -426.625 L 336.625 -408.90625 L 318.90625 -408.90625 L 318.90625 -391.1875 L 336.625 -391.1875 L 336.625 -373.46875 L 318.90625 -373.46875 L 318.90625 -355.75 L 336.625 -355.75 L 336.625 -338.03125 L 318.90625 -338.03125 L 318.90625 -320.3125 L 336.625 -320.3125 L 336.625 -302.59375 L 318.90625 -302.59375 L 318.90625 -284.875 L 336.625 -284.875 L 336.625 -267.15625 L 318.90625 -267.15625 L 318.90625 -249.4375 L 336.625 -249.4375 L 336.625 -231.71875 L 318.90625 -231.71875 L 318.90625 -214.03125 L 336.625 -214.03125 L 336.625 -196.3125 L 318.90625 -196.3125 L 318.90625 -178.59375 L 336.625 -178.59375 L 336.625 -160.875 L 318.90625 -160.875 L 318.90625 -143.15625 L 336.625 -143.15625 L 336.625 -125.4375 L 318.90625 -125.4375 L 318.90625 -107.71875 L 1063 -107.71875 L 1080.7188 -107.71875 L 1098.4375 -107.71875 L 1116.1562 -107.71875 L 1116.1562 -125.4375 L 1098.4375 -125.4375 L 1098.4375 -143.15625 L 1116.1562 -143.15625 L 1116.1562 -160.875 L 1098.4375 -160.875 L 1098.4375 -178.59375 L 1116.1562 -178.59375 L 1116.1562 -196.3125 L 1098.4375 -196.3125 L 1098.4375 -214.03125 L 1116.1562 -214.03125 L 1116.1562 -231.71875 L 1098.4375 -231.71875 L 1098.4375 -249.4375 L 1116.1562 -249.4375 L 1116.1562 -267.15625 L 1098.4375 -267.15625 L 1098.4375 -284.875 L 1116.1562 -284.875 L 1116.1562 -302.59375 L 1098.4375 -302.59375 L 1098.4375 -320.3125 L 1116.1562 -320.3125 L 1116.1562 -338.03125 L 1098.4375 -338.03125 L 1098.4375 -355.75 L 1116.1562 -355.75 L 1116.1562 -373.46875 L 1098.4375 -373.46875 L 1098.4375 -391.1875 L 1116.1562 -391.1875 L 1116.1562 -408.90625 L 1098.4375 -408.90625 L 1098.4375 -426.625 L 1116.1562 -426.625 L 1116.1562 -444.34375 L 1098.4375 -444.34375 L 1098.4375 -462.0625 L 1116.1562 -462.0625 L 1116.1562 -479.75 L 1098.4375 -479.75 L 1098.4375 -497.46875 L 1116.1562 -497.46875 L 1116.1562 -515.1875 L 1098.4375 -515.1875 L 1098.4375 -532.90625 L 1116.1562 -532.90625 L 1116.1562 -550.625 L 1098.4375 -550.625 L 1098.4375 -568.34375 L 1116.1562 -568.34375 L 1116.1562 -586.0625 L 1098.4375 -586.0625 L 1098.4375 -603.78125 L 1116.1562 -603.78125 L 1116.1562 -621.5 L 1098.4375 -621.5 L 1098.4375 -639.21875 L 1116.1562 -639.21875 L 1116.1562 -656.9375 L 1098.4375 -656.9375 L 1098.4375 -674.65625 L 1116.1562 -674.65625 L 1116.1562 -692.375 L 1098.4375 -692.375 L 1098.4375 -710.09375 L 1116.1562 -710.09375 L 1116.1562 -727.78125 L 1098.4375 -727.78125 L 1098.4375 -745.5 L 1116.1562 -745.5 L 1116.1562 -763.21875 L 1098.4375 -763.21875 L 1098.4375 -780.9375 L 1080.7188 -780.9375 L 1080.7188 -763.21875 L 1063 -763.21875 L 1063 -780.9375 L 1045.2812 -780.9375 L 1045.2812 -763.21875 L 1027.5625 -763.21875 L 1027.5625 -780.9375 L 1009.8438 -780.9375 L 1009.8438 -763.21875 L 992.125 -763.21875 L 992.125 -780.9375 L 974.40625 -780.9375 L 974.40625 -763.21875 L 956.6875 -763.21875 L 956.6875 -780.9375 L 938.96875 -780.9375 L 938.96875 -763.21875 L 921.25 -763.21875 L 921.25 -780.9375 L 903.53125 -780.9375 L 903.53125 -763.21875 L 885.8125 -763.21875 L 885.8125 -780.9375 L 868.125 -780.9375 L 868.125 -763.21875 L 850.40625 -763.21875 L 850.40625 -780.9375 L 832.6875 -780.9375 L 832.6875 -763.21875 L 814.96875 -763.21875 L 814.96875 -780.9375 L 797.25 -780.9375 L 797.25 -763.21875 L 779.53125 -763.21875 L 779.53125 -780.9375 L 761.8125 -780.9375 L 761.8125 -763.21875 L 744.09375 -763.21875 L 744.09375 -780.9375 L 726.375 -780.9375 L 726.375 -763.21875 L 708.65625 -763.21875 L 708.65625 -780.9375 L 690.9375 -780.9375 L 690.9375 -763.21875 L 673.21875 -763.21875 L 673.21875 -780.9375 L 655.5 -780.9375 L 655.5 -763.21875 L 637.78125 -763.21875 L 637.78125 -780.9375 L 620.09375 -780.9375 L 620.09375 -763.21875 L 602.375 -763.21875 L 602.375 -780.9375 L 584.65625 -780.9375 L 584.65625 -763.21875 L 566.9375 -763.21875 L 566.9375 -780.9375 L 549.21875 -780.9375 L 549.21875 -763.21875 L 531.5 -763.21875 L 531.5 -780.9375 L 513.78125 -780.9375 L 513.78125 -763.21875 L 496.0625 -763.21875 L 496.0625 -780.9375 L 478.34375 -780.9375 L 478.34375 -763.21875 L 460.625 -763.21875 L 460.625 -780.9375 L 442.90625 -780.9375 L 442.90625 -763.21875 L 425.1875 -763.21875 L 425.1875 -780.9375 L 407.46875 -780.9375 L 407.46875 -763.21875 L 389.75 -763.21875 L 389.75 -780.9375 L 372.0625 -780.9375 L 372.0625 -763.21875 L 354.34375 -763.21875 L 354.34375 -780.9375 L 336.625 -780.9375 z M 354.34375 -621.5 L 372.0625 -621.5 L 372.0625 -603.78125 L 354.34375 -603.78125 L 354.34375 -621.5 z M 389.75 -621.5 L 407.46875 -621.5 L 407.46875 -603.78125 L 389.75 -603.78125 L 389.75 -621.5 z M 425.1875 -621.5 L 442.90625 -621.5 L 442.90625 -603.78125 L 425.1875 -603.78125 L 425.1875 -621.5 z M 460.625 -621.5 L 478.34375 -621.5 L 478.34375 -603.78125 L 460.625 -603.78125 L 460.625 -621.5 z M 496.0625 -621.5 L 513.78125 -621.5 L 513.78125 -603.78125 L 496.0625 -603.78125 L 496.0625 -621.5 z M 531.5 -621.5 L 549.21875 -621.5 L 549.21875 -603.78125 L 531.5 -603.78125 L 531.5 -621.5 z M 566.9375 -621.5 L 584.65625 -621.5 L 584.65625 -603.78125 L 566.9375 -603.78125 L 566.9375 -621.5 z M 602.375 -621.5 L 620.09375 -621.5 L 620.09375 -603.78125 L 602.375 -603.78125 L 602.375 -621.5 z M 637.78125 -621.5 L 655.5 -621.5 L 655.5 -603.78125 L 637.78125 -603.78125 L 637.78125 -621.5 z M 673.21875 -621.5 L 690.9375 -621.5 L 690.9375 -603.78125 L 673.21875 -603.78125 L 673.21875 -621.5 z M 708.65625 -621.5 L 726.375 -621.5 L 726.375 -603.78125 L 708.65625 -603.78125 L 708.65625 -621.5 z M 744.09375 -621.5 L 761.8125 -621.5 L 761.8125 -603.78125 L 744.09375 -603.78125 L 744.09375 -621.5 z M 779.53125 -621.5 L 797.25 -621.5 L 797.25 -603.78125 L 779.53125 -603.78125 L 779.53125 -621.5 z M 814.96875 -621.5 L 832.6875 -621.5 L 832.6875 -603.78125 L 814.96875 -603.78125 L 814.96875 -621.5 z M 850.40625 -621.5 L 868.125 -621.5 L 868.125 -603.78125 L 850.40625 -603.78125 L 850.40625 -621.5 z M 885.8125 -621.5 L 903.53125 -621.5 L 903.53125 -603.78125 L 885.8125 -603.78125 L 885.8125 -621.5 z M 921.25 -621.5 L 938.96875 -621.5 L 938.96875 -603.78125 L 921.25 -603.78125 L 921.25 -621.5 z M 956.6875 -621.5 L 974.40625 -621.5 L 974.40625 -603.78125 L 956.6875 -603.78125 L 956.6875 -621.5 z M 992.125 -621.5 L 1009.8438 -621.5 L 1009.8438 -603.78125 L 992.125 -603.78125 L 992.125 -621.5 z M 1027.5625 -621.5 L 1045.2812 -621.5 L 1045.2812 -603.78125 L 1027.5625 -603.78125 L 1027.5625 -621.5 z M 1063 -621.5 L 1080.7188 -621.5 L 1080.7188 -603.78125 L 1063 -603.78125 L 1063 -621.5 z "
       transform="translate(0,-1107.675)"
       id="rect4934" />
    <path
       style="fill:#0000ff;fill-opacity:1;stroke:none"
       d="M 1169.25 -780.9375 L 1169.25 -763.21875 L 1151.5312 -763.21875 L 1151.5312 -745.5 L 1133.8438 -745.5 L 1133.8438 -727.78125 L 1151.5312 -727.78125 L 1151.5312 -710.09375 L 1133.8438 -710.09375 L 1133.8438 -692.375 L 1151.5312 -692.375 L 1151.5312 -674.65625 L 1133.8438 -674.65625 L 1133.8438 -656.9375 L 1151.5312 -656.9375 L 1151.5312 -639.21875 L 1133.8438 -639.21875 L 1133.8438 -621.5 L 1151.5312 -621.5 L 1151.5312 -603.78125 L 1133.8438 -603.78125 L 1133.8438 -586.0625 L 1151.5312 -586.0625 L 1151.5312 -568.34375 L 1133.8438 -568.34375 L 1133.8438 -550.625 L 1151.5312 -550.625 L 1151.5312 -532.90625 L 1133.8438 -532.90625 L 1133.8438 -515.1875 L 1151.5312 -515.1875 L 1151.5312 -497.46875 L 1133.8438 -497.46875 L 1133.8438 -479.75 L 1151.5312 -479.75 L 1151.5312 -462.0625 L 1133.8438 -462.0625 L 1133.8438 -444.34375 L 1151.5312 -444.34375 L 1151.5312 -426.625 L 1133.8438 -426.625 L 1133.8438 -408.90625 L 1151.5312 -408.90625 L 1151.5312 -391.1875 L 1133.8438 -391.1875 L 1133.8438 -373.46875 L 1151.5312 -373.46875 L 1151.5312 -355.75 L 1133.8438 -355.75 L 1133.8438 -338.03125 L 1151.5312 -338.03125 L 1151.5312 -320.3125 L 1133.8438 -320.3125 L 1133.8438 -302.59375 L 1151.5312 -302.59375 L 1151.5312 -284.875 L 1133.8438 -284.875 L 1133.8438 -267.15625 L 1151.5312 -267.15625 L 1151.5312 -249.4375 L 1133.8438 -249.4375 L 1133.8438 -231.71875 L 1151.5312 -231.71875 L 1151.5312 -214.03125 L 1133.8438 -214.03125 L 1133.8438 -196.3125 L 1151.5312 -196.3125 L 1151.5312 -178.59375 L 1133.8438 -178.59375 L 1133.8438 -160.875 L 1151.5312 -160.875 L 1151.5312 -143.15625 L 1133.8438 -143.15625 L 1133.8438 -125.4375 L 1151.5312 -125.4375 L 1151.5312 -36.09375 C 1152.0386 -36.127382 1152.5497 -36.15625 1153.0625 -36.15625 C 1172.1487 -36.15625 1187.5938 -12.624342 1187.5938 16.40625 C 1187.5938 45.436842 1172.1487 68.96875 1153.0625 68.96875 C 1152.5497 68.96875 1152.0386 68.939882 1151.5312 68.90625 L 1151.5312 158.03125 L 1133.8438 158.03125 L 1133.8438 175.75 L 1151.5312 175.75 L 1151.5312 193.46875 L 1133.8438 193.46875 L 1133.8438 211.1875 L 1151.5312 211.1875 L 1151.5312 228.90625 L 1133.8438 228.90625 L 1133.8438 246.625 L 1151.5312 246.625 L 1151.5312 264.34375 L 1133.8438 264.34375 L 1133.8438 282.0625 L 1151.5312 282.0625 L 1151.5312 299.75 L 1133.8438 299.75 L 1133.8438 317.46875 L 1151.5312 317.46875 L 1151.5312 335.1875 L 1133.8438 335.1875 L 1133.8438 352.90625 L 1151.5312 352.90625 L 1151.5312 370.625 L 1133.8438 370.625 L 1133.8438 388.34375 L 1151.5312 388.34375 L 1151.5312 406.0625 L 1133.8438 406.0625 L 1133.8438 423.78125 L 1151.5312 423.78125 L 1151.5312 441.5 L 1133.8438 441.5 L 1133.8438 459.21875 L 1151.5312 459.21875 L 1151.5312 476.9375 L 1133.8438 476.9375 L 1133.8438 494.65625 L 1151.5312 494.65625 L 1169.25 494.65625 L 1169.25 512.375 L 1186.9688 512.375 L 1186.9688 494.65625 L 1204.6875 494.65625 L 1204.6875 512.375 L 1222.4062 512.375 L 1222.4062 494.65625 L 1240.125 494.65625 L 1240.125 512.375 L 1257.8438 512.375 L 1257.8438 494.65625 L 1275.5625 494.65625 L 1275.5625 512.375 L 1293.2812 512.375 L 1293.2812 494.65625 L 1311 494.65625 L 1311 512.375 L 1328.7188 512.375 L 1328.7188 494.65625 L 1328.7188 -603.78125 L 1311 -603.78125 L 1311 -621.5 L 1328.7188 -621.5 L 1328.7188 -763.21875 L 1328.7188 -780.9375 L 1311 -780.9375 L 1311 -763.21875 L 1293.2812 -763.21875 L 1293.2812 -780.9375 L 1275.5625 -780.9375 L 1275.5625 -763.21875 L 1257.8438 -763.21875 L 1257.8438 -780.9375 L 1240.125 -780.9375 L 1240.125 -763.21875 L 1222.4062 -763.21875 L 1222.4062 -780.9375 L 1204.6875 -780.9375 L 1204.6875 -763.21875 L 1186.9688 -763.21875 L 1186.9688 -780.9375 L 1169.25 -780.9375 z M 1169.25 -621.5 L 1186.9688 -621.5 L 1186.9688 -603.78125 L 1169.25 -603.78125 L 1169.25 -621.5 z M 1204.6875 -621.5 L 1222.4062 -621.5 L 1222.4062 -603.78125 L 1204.6875 -603.78125 L 1204.6875 -621.5 z M 1240.125 -621.5 L 1257.8438 -621.5 L 1257.8438 -603.78125 L 1240.125 -603.78125 L 1240.125 -621.5 z M 1275.5625 -621.5 L 1293.2812 -621.5 L 1293.2812 -603.78125 L 1275.5625 -603.78125 L 1275.5625 -621.5 z M 1254.8438 -49.875 C 1257.0751 -49.875 1258.875 -48.075292 1258.875 -45.84375 C 1258.875 -43.612208 1257.0751 -41.78125 1254.8438 -41.78125 C 1252.612 -41.78125 1250.7812 -43.612208 1250.7812 -45.84375 C 1250.7812 -48.075292 1252.612 -49.875 1254.8438 -49.875 z M 1254.1562 -11.75 C 1257.389 -11.75 1260 -9.138808 1260 -5.90625 C 1260 -2.673692 1257.389 -0.0625 1254.1562 -0.0625 C 1250.9239 -0.0625 1248.3125 -2.673692 1248.3125 -5.90625 C 1248.3125 -9.138808 1250.9239 -11.75 1254.1562 -11.75 z M 1219.2188 9.6875 C 1221.4501 9.6875 1223.25 11.487208 1223.25 13.71875 C 1223.25 15.950292 1221.4501 17.75 1219.2188 17.75 C 1216.987 17.75 1215.1875 15.950292 1215.1875 13.71875 C 1215.1875 11.487208 1216.987 9.6875 1219.2188 9.6875 z M 1288.6562 10.71875 C 1290.888 10.71875 1292.6875 12.549708 1292.6875 14.78125 C 1292.6875 17.012792 1290.888 18.8125 1288.6562 18.8125 C 1286.4249 18.8125 1284.625 17.012792 1284.625 14.78125 C 1284.625 12.549708 1286.4249 10.71875 1288.6562 10.71875 z "
       transform="translate(0,-1107.675)"
       id="rect4936" />
    <path
       style="fill:#0000ff;fill-opacity:1;stroke:none"
       d="M 106.3125 -780.9375 L 106.3125 -763.21875 L 106.3125 -621.5 L 124.03125 -621.5 L 124.03125 -603.78125 L 106.3125 -603.78125 L 106.3125 494.65625 L 106.3125 512.375 L 124.03125 512.375 L 124.03125 494.65625 L 141.71875 494.65625 L 141.71875 512.375 L 159.4375 512.375 L 159.4375 494.65625 L 177.15625 494.65625 L 177.15625 512.375 L 194.875 512.375 L 194.875 494.65625 L 212.59375 494.65625 L 212.59375 512.375 L 230.3125 512.375 L 230.3125 494.65625 L 248.03125 494.65625 L 248.03125 512.375 L 265.75 512.375 L 265.75 494.65625 L 283.5 494.65625 L 301.1875 494.65625 L 301.1875 476.9375 L 283.5 476.9375 L 283.5 459.21875 L 301.1875 459.21875 L 301.1875 441.5 L 283.5 441.5 L 283.5 423.78125 L 301.1875 423.78125 L 301.1875 406.0625 L 283.5 406.0625 L 283.5 388.34375 L 301.1875 388.34375 L 301.1875 370.625 L 283.5 370.625 L 283.5 352.90625 L 301.1875 352.90625 L 301.1875 335.1875 L 283.5 335.1875 L 283.5 317.46875 L 301.1875 317.46875 L 301.1875 299.75 L 283.5 299.75 L 283.5 282.0625 L 301.1875 282.0625 L 301.1875 264.34375 L 283.5 264.34375 L 283.5 246.625 L 301.1875 246.625 L 301.1875 228.90625 L 283.5 228.90625 L 283.5 211.1875 L 301.1875 211.1875 L 301.1875 193.46875 L 283.5 193.46875 L 283.5 175.75 L 301.1875 175.75 L 301.1875 158.03125 L 283.5 158.03125 L 283.5 68.96875 C 264.45709 68.891607 249.03125 45.389153 249.03125 16.40625 C 249.03125 -12.576653 264.45709 -36.079107 283.5 -36.15625 L 283.5 -125.4375 L 301.1875 -125.4375 L 301.1875 -143.15625 L 283.5 -143.15625 L 283.5 -160.875 L 301.1875 -160.875 L 301.1875 -178.59375 L 283.5 -178.59375 L 283.5 -196.3125 L 301.1875 -196.3125 L 301.1875 -214.03125 L 283.5 -214.03125 L 283.5 -231.71875 L 301.1875 -231.71875 L 301.1875 -249.4375 L 283.5 -249.4375 L 283.5 -267.15625 L 301.1875 -267.15625 L 301.1875 -284.875 L 283.5 -284.875 L 283.5 -302.59375 L 301.1875 -302.59375 L 301.1875 -320.3125 L 283.5 -320.3125 L 283.5 -338.03125 L 301.1875 -338.03125 L 301.1875 -355.75 L 283.5 -355.75 L 283.5 -373.46875 L 301.1875 -373.46875 L 301.1875 -391.1875 L 283.5 -391.1875 L 283.5 -408.90625 L 301.1875 -408.90625 L 301.1875 -426.625 L 283.5 -426.625 L 283.5 -444.34375 L 301.1875 -444.34375 L 301.1875 -462.0625 L 283.5 -462.0625 L 283.5 -479.75 L 301.1875 -479.75 L 301.1875 -497.46875 L 283.5 -497.46875 L 283.5 -515.1875 L 301.1875 -515.1875 L 301.1875 -532.90625 L 283.5 -532.90625 L 283.5 -550.625 L 301.1875 -550.625 L 301.1875 -568.34375 L 283.5 -568.34375 L 283.5 -586.0625 L 301.1875 -586.0625 L 301.1875 -603.78125 L 283.5 -603.78125 L 283.5 -621.5 L 301.1875 -621.5 L 301.1875 -639.21875 L 283.5 -639.21875 L 283.5 -656.9375 L 301.1875 -656.9375 L 301.1875 -674.65625 L 283.5 -674.65625 L 283.5 -692.375 L 301.1875 -692.375 L 301.1875 -710.09375 L 283.5 -710.09375 L 283.5 -727.78125 L 301.1875 -727.78125 L 301.1875 -745.5 L 283.5 -745.5 L 283.5 -763.21875 L 265.75 -763.21875 L 265.75 -780.9375 L 248.03125 -780.9375 L 248.03125 -763.21875 L 230.3125 -763.21875 L 230.3125 -780.9375 L 212.59375 -780.9375 L 212.59375 -763.21875 L 194.875 -763.21875 L 194.875 -780.9375 L 177.15625 -780.9375 L 177.15625 -763.21875 L 159.4375 -763.21875 L 159.4375 -780.9375 L 141.71875 -780.9375 L 141.71875 -763.21875 L 124.03125 -763.21875 L 124.03125 -780.9375 L 106.3125 -780.9375 z M 141.71875 -621.5 L 159.4375 -621.5 L 159.4375 -603.78125 L 141.71875 -603.78125 L 141.71875 -621.5 z M 177.15625 -621.5 L 194.875 -621.5 L 194.875 -603.78125 L 177.15625 -603.78125 L 177.15625 -621.5 z M 212.59375 -621.5 L 230.3125 -621.5 L 230.3125 -603.78125 L 212.59375 -603.78125 L 212.59375 -621.5 z M 248.03125 -621.5 L 265.75 -621.5 L 265.75 -603.78125 L 248.03125 -603.78125 L 248.03125 -621.5 z M 248.09375 -79.375 C 252.00758 -79.375 255.15625 -76.195079 255.15625 -72.28125 C 255.15625 -68.367421 252.00758 -65.1875 248.09375 -65.1875 C 244.17992 -65.1875 241 -68.367421 241 -72.28125 C 241 -76.195079 244.17992 -79.375 248.09375 -79.375 z M 180.15625 -49.875 C 182.38785 -49.875 184.21875 -48.07525 184.21875 -45.84375 C 184.21875 -43.61215 182.38785 -41.78125 180.15625 -41.78125 C 177.92475 -41.78125 176.125 -43.61215 176.125 -45.84375 C 176.125 -48.07525 177.92475 -49.875 180.15625 -49.875 z M 180.84375 -11.75 C 184.07625 -11.75 186.6875 -9.13875 186.6875 -5.90625 C 186.6875 -2.67365 184.07625 -0.0625 180.84375 -0.0625 C 177.61115 -0.0625 175 -2.67365 175 -5.90625 C 175 -9.13875 177.61115 -11.75 180.84375 -11.75 z M 215.78125 9.6875 C 218.01285 9.6875 219.8125 11.48725 219.8125 13.71875 C 219.8125 15.95035 218.01285 17.75 215.78125 17.75 C 213.54975 17.75 211.75 15.95035 211.75 13.71875 C 211.75 11.48725 213.54975 9.6875 215.78125 9.6875 z M 146.34375 10.71875 C 148.57525 10.71875 150.375 12.54975 150.375 14.78125 C 150.375 17.01285 148.57525 18.8125 146.34375 18.8125 C 144.11215 18.8125 142.3125 17.01285 142.3125 14.78125 C 142.3125 12.54975 144.11215 10.71875 146.34375 10.71875 z "
       transform="translate(0,-1107.675)"
       id="path5104" />
    <path
       style="fill:#0000ff;fill-opacity:1;stroke:none"
       d="M 336.625 -993.53125 L 336.625 -975.8125 L 318.90625 -975.8125 L 318.90625 -958.125 L 336.625 -958.125 L 336.625 -940.40625 L 318.90625 -940.40625 L 318.90625 -922.6875 L 336.625 -922.6875 L 336.625 -904.96875 L 318.90625 -904.96875 L 318.90625 -887.25 L 336.625 -887.25 L 336.625 -869.53125 L 318.90625 -869.53125 L 318.90625 -851.8125 L 336.625 -851.8125 L 336.625 -834.09375 L 318.90625 -834.09375 L 318.90625 -816.375 L 318.90625 -798.65625 L 336.625 -798.65625 L 336.625 -816.375 L 354.34375 -816.375 L 354.34375 -798.65625 L 372.0625 -798.65625 L 372.0625 -816.375 L 389.75 -816.375 L 389.75 -798.65625 L 407.46875 -798.65625 L 407.46875 -816.375 L 425.1875 -816.375 L 425.1875 -798.65625 L 442.90625 -798.65625 L 442.90625 -816.375 L 460.625 -816.375 L 460.625 -798.65625 L 478.34375 -798.65625 L 478.34375 -816.375 L 496.0625 -816.375 L 496.0625 -798.65625 L 513.78125 -798.65625 L 513.78125 -816.375 L 531.5 -816.375 L 531.5 -798.65625 L 549.21875 -798.65625 L 549.21875 -816.375 L 566.9375 -816.375 L 566.9375 -798.65625 L 584.65625 -798.65625 L 584.65625 -816.375 L 602.375 -816.375 L 602.375 -798.65625 L 620.09375 -798.65625 L 620.09375 -816.375 L 637.78125 -816.375 L 637.78125 -798.65625 L 655.5 -798.65625 L 655.5 -816.375 L 673.21875 -816.375 L 673.21875 -798.65625 L 690.9375 -798.65625 L 690.9375 -816.375 L 708.65625 -816.375 L 708.65625 -798.65625 L 726.375 -798.65625 L 726.375 -816.375 L 744.09375 -816.375 L 744.09375 -798.65625 L 761.8125 -798.65625 L 761.8125 -816.375 L 779.53125 -816.375 L 779.53125 -798.65625 L 797.25 -798.65625 L 797.25 -816.375 L 814.96875 -816.375 L 814.96875 -798.65625 L 832.6875 -798.65625 L 832.6875 -816.375 L 850.40625 -816.375 L 850.40625 -798.65625 L 868.125 -798.65625 L 868.125 -816.375 L 885.8125 -816.375 L 885.8125 -798.65625 L 903.53125 -798.65625 L 903.53125 -816.375 L 921.25 -816.375 L 921.25 -798.65625 L 938.96875 -798.65625 L 938.96875 -816.375 L 956.6875 -816.375 L 956.6875 -798.65625 L 974.40625 -798.65625 L 974.40625 -816.375 L 992.125 -816.375 L 992.125 -798.65625 L 1009.8438 -798.65625 L 1009.8438 -816.375 L 1027.5625 -816.375 L 1027.5625 -798.65625 L 1045.2812 -798.65625 L 1045.2812 -816.375 L 1063 -816.375 L 1063 -798.65625 L 1080.7188 -798.65625 L 1080.7188 -816.375 L 1098.4375 -816.375 L 1098.4375 -798.65625 L 1116.1562 -798.65625 L 1116.1562 -834.09375 L 1098.4375 -834.09375 L 1098.4375 -851.8125 L 1116.1562 -851.8125 L 1116.1562 -869.53125 L 1098.4375 -869.53125 L 1098.4375 -887.25 L 1116.1562 -887.25 L 1116.1562 -904.96875 L 1098.4375 -904.96875 L 1098.4375 -922.6875 L 1116.1562 -922.6875 L 1116.1562 -940.40625 L 1098.4375 -940.40625 L 1098.4375 -958.125 L 1116.1562 -958.125 L 1116.1562 -975.8125 L 1098.4375 -975.8125 L 1098.4375 -993.53125 L 1063 -993.53125 L 336.625 -993.53125 z M 498.09375 -913.75 C 501.02912 -913.75 503.40625 -911.37287 503.40625 -908.4375 C 503.40625 -905.50213 501.02912 -903.125 498.09375 -903.125 C 495.15838 -903.125 492.78125 -905.50213 492.78125 -908.4375 C 492.78125 -911.37287 495.15838 -913.75 498.09375 -913.75 z M 929.71875 -913.75 C 932.65412 -913.75 935.03125 -911.37287 935.03125 -908.4375 C 935.03125 -905.50213 932.65412 -903.125 929.71875 -903.125 C 926.78338 -903.125 924.40625 -905.50213 924.40625 -908.4375 C 924.40625 -911.37287 926.78338 -913.75 929.71875 -913.75 z "
       transform="translate(0,-1107.675)"
       id="rect5106" />
    <path
       style="fill:#0000ff;fill-opacity:1;stroke:none"
       d="M 354.34375 530.09375 L 354.34375 547.8125 L 336.625 547.8125 L 336.625 547.78125 L 318.90625 547.78125 L 318.90625 547.8125 L 318.90625 565.53125 L 336.625 565.53125 L 336.625 583.25 L 318.90625 583.25 L 318.90625 600.96875 L 336.625 600.96875 L 336.625 618.6875 L 318.90625 618.6875 L 318.90625 636.40625 L 336.625 636.40625 L 336.625 654.125 L 318.90625 654.125 L 318.90625 671.84375 L 336.625 671.84375 L 336.625 689.5625 L 318.90625 689.5625 L 318.90625 707.25 L 336.625 707.25 L 336.625 724.96875 L 992.125 724.96875 L 1045.2812 724.96875 L 1063 724.96875 L 1098.4375 724.96875 L 1098.4375 707.25 L 1116.1562 707.25 L 1116.1562 689.53125 L 1098.4375 689.53125 L 1098.4375 671.8125 L 1116.1562 671.8125 L 1116.1562 654.09375 L 1098.4375 654.09375 L 1098.4375 636.375 L 1116.1562 636.375 L 1116.1562 618.65625 L 1098.4375 618.65625 L 1098.4375 600.9375 L 1116.1562 600.9375 L 1116.1562 583.21875 L 1098.4375 583.21875 L 1098.4375 565.5 L 1116.1562 565.5 L 1116.1562 547.78125 L 1098.4375 547.78125 L 1080.7188 547.78125 L 1080.7188 530.09375 L 1063 530.09375 L 1063 547.78125 L 1063 547.8125 L 1045.2812 547.8125 L 1045.2812 530.09375 L 1027.5625 530.09375 L 1027.5625 547.8125 L 1009.8438 547.8125 L 1009.8438 530.09375 L 992.125 530.09375 L 992.125 547.8125 L 974.40625 547.8125 L 974.40625 530.09375 L 956.6875 530.09375 L 956.6875 547.8125 L 938.96875 547.8125 L 938.96875 530.09375 L 921.25 530.09375 L 921.25 547.8125 L 903.53125 547.8125 L 903.53125 530.09375 L 885.8125 530.09375 L 885.8125 547.8125 L 868.125 547.8125 L 868.125 530.09375 L 850.40625 530.09375 L 850.40625 547.8125 L 832.6875 547.8125 L 832.6875 530.09375 L 814.96875 530.09375 L 814.96875 547.8125 L 797.25 547.8125 L 797.25 530.09375 L 779.53125 530.09375 L 779.53125 547.8125 L 761.8125 547.8125 L 761.8125 530.09375 L 744.09375 530.09375 L 744.09375 547.8125 L 726.375 547.8125 L 726.375 530.09375 L 708.65625 530.09375 L 708.65625 547.8125 L 690.9375 547.8125 L 690.9375 530.09375 L 673.21875 530.09375 L 673.21875 547.8125 L 655.5 547.8125 L 655.5 530.09375 L 637.78125 530.09375 L 637.78125 547.8125 L 620.09375 547.8125 L 620.09375 530.09375 L 602.375 530.09375 L 602.375 547.8125 L 584.65625 547.8125 L 584.65625 530.09375 L 566.9375 530.09375 L 566.9375 547.8125 L 549.21875 547.8125 L 549.21875 530.09375 L 531.5 530.09375 L 531.5 547.8125 L 513.78125 547.8125 L 513.78125 530.09375 L 496.0625 530.09375 L 496.0625 547.8125 L 478.34375 547.8125 L 478.34375 530.09375 L 460.625 530.09375 L 460.625 547.8125 L 442.90625 547.8125 L 442.90625 530.09375 L 425.1875 530.09375 L 425.1875 547.8125 L 407.46875 547.8125 L 407.46875 530.09375 L 389.75 530.09375 L 389.75 547.8125 L 372.0625 547.8125 L 372.0625 530.09375 L 354.34375 530.09375 z M 921.25 565.5 L 938.96875 565.5 L 938.96875 583.21875 L 921.25 583.21875 L 921.25 565.5 z M 921.25 600.9375 L 938.96875 600.9375 L 938.96875 618.65625 L 921.25 618.65625 L 921.25 600.9375 z M 921.25 636.375 L 938.96875 636.375 L 938.96875 654.09375 L 921.25 654.09375 L 921.25 636.375 z M 921.25 671.8125 L 938.96875 671.8125 L 938.96875 689.53125 L 921.25 689.53125 L 921.25 671.8125 z M 398.84375 683.28125 C 406.67141 683.28125 413 689.64109 413 697.46875 C 413 705.29641 406.67141 711.625 398.84375 711.625 C 391.01609 711.625 384.65625 705.29641 384.65625 697.46875 C 384.65625 689.64109 391.01609 683.28125 398.84375 683.28125 z M 1024.8438 683.28125 C 1032.6712 683.28125 1039 689.64109 1039 697.46875 C 1039 705.29641 1032.6712 711.625 1024.8438 711.625 C 1017.0159 711.625 1010.6562 705.29641 1010.6562 697.46875 C 1010.6562 689.64109 1017.0159 683.28125 1024.8438 683.28125 z "
       transform="translate(0,-1107.675)"
       id="path5290" />
    <path
       style="fill:#0000ff;fill-opacity:1;stroke:none"
       d="M 1399.5938 -302.59375 L 1399.5938 -284.875 L 1381.875 -284.875 L 1381.875 -267.15625 L 1364.1875 -267.15625 L 1364.1875 -249.4375 L 1381.875 -249.4375 L 1381.875 -231.71875 L 1364.1875 -231.71875 L 1364.1875 -214.03125 L 1381.875 -214.03125 L 1381.875 -196.3125 L 1364.1875 -196.3125 L 1364.1875 -178.59375 L 1381.875 -178.59375 L 1381.875 -160.875 L 1364.1875 -160.875 L 1364.1875 -143.15625 L 1381.875 -143.15625 L 1381.875 -125.4375 L 1364.1875 -125.4375 L 1364.1875 -107.71875 L 1381.875 -107.71875 L 1488.1875 -107.71875 L 1488.1875 -249.4375 L 1877.9375 -249.4375 L 1877.9375 -107.71875 L 2072.8438 -107.71875 L 2108.2812 -107.71875 L 2125.9688 -107.71875 L 2143.6875 -107.71875 L 2161.4062 -107.71875 L 2161.4062 -125.4375 L 2143.6875 -125.4375 L 2143.6875 -143.15625 L 2161.4062 -143.15625 L 2161.4062 -160.875 L 2143.6875 -160.875 L 2143.6875 -178.59375 L 2161.4062 -178.59375 L 2161.4062 -196.3125 L 2143.6875 -196.3125 L 2143.6875 -214.03125 L 2161.4062 -214.03125 L 2161.4062 -231.71875 L 2143.6875 -231.71875 L 2143.6875 -249.4375 L 2161.4062 -249.4375 L 2161.4062 -267.15625 L 2143.6875 -267.15625 L 2143.6875 -284.875 L 2125.9688 -284.875 L 2125.9688 -302.59375 L 2108.2812 -302.59375 L 2108.2812 -284.875 L 2090.5625 -284.875 L 2090.5625 -302.59375 L 2072.8438 -302.59375 L 2072.8438 -284.875 L 2055.125 -284.875 L 2055.125 -302.59375 L 2037.4062 -302.59375 L 2037.4062 -284.875 L 2019.6875 -284.875 L 2019.6875 -302.59375 L 2001.9688 -302.59375 L 2001.9688 -284.875 L 1984.25 -284.875 L 1984.25 -302.59375 L 1966.5312 -302.59375 L 1966.5312 -284.875 L 1948.8125 -284.875 L 1948.8125 -302.59375 L 1931.0938 -302.59375 L 1931.0938 -284.875 L 1913.375 -284.875 L 1913.375 -302.59375 L 1895.6562 -302.59375 L 1895.6562 -284.875 L 1877.9375 -284.875 L 1877.9375 -302.59375 L 1860.25 -302.59375 L 1860.25 -284.875 L 1842.5312 -284.875 L 1842.5312 -302.59375 L 1824.8125 -302.59375 L 1824.8125 -284.875 L 1807.0938 -284.875 L 1807.0938 -302.59375 L 1789.375 -302.59375 L 1789.375 -284.875 L 1771.6562 -284.875 L 1771.6562 -302.59375 L 1753.9375 -302.59375 L 1753.9375 -284.875 L 1736.2188 -284.875 L 1736.2188 -302.59375 L 1718.5 -302.59375 L 1718.5 -284.875 L 1700.7812 -284.875 L 1700.7812 -302.59375 L 1683.0625 -302.59375 L 1683.0625 -284.875 L 1665.3438 -284.875 L 1665.3438 -302.59375 L 1647.625 -302.59375 L 1647.625 -284.875 L 1629.9062 -284.875 L 1629.9062 -302.59375 L 1612.2188 -302.59375 L 1612.2188 -284.875 L 1594.5 -284.875 L 1594.5 -302.59375 L 1576.7812 -302.59375 L 1576.7812 -284.875 L 1559.0625 -284.875 L 1559.0625 -302.59375 L 1541.3438 -302.59375 L 1541.3438 -284.875 L 1523.625 -284.875 L 1523.625 -302.59375 L 1505.9062 -302.59375 L 1505.9062 -284.875 L 1488.1875 -284.875 L 1488.1875 -302.59375 L 1470.4688 -302.59375 L 1470.4688 -284.875 L 1452.75 -284.875 L 1452.75 -302.59375 L 1435.0312 -302.59375 L 1435.0312 -284.875 L 1417.3125 -284.875 L 1417.3125 -302.59375 L 1399.5938 -302.59375 z M 1913.375 -231.71875 L 1931.0938 -231.71875 L 1931.0938 -214.03125 L 1913.375 -214.03125 L 1913.375 -231.71875 z M 1966.5312 -231.71875 L 1984.25 -231.71875 L 1984.25 -214.03125 L 1966.5312 -214.03125 L 1966.5312 -231.71875 z M 1913.375 -196.3125 L 1931.0938 -196.3125 L 1931.0938 -178.59375 L 1913.375 -178.59375 L 1913.375 -196.3125 z M 1966.5312 -196.3125 L 1984.25 -196.3125 L 1984.25 -178.59375 L 1966.5312 -178.59375 L 1966.5312 -196.3125 z M 1895.6562 -160.875 L 1913.375 -160.875 L 1913.375 -143.15625 L 1895.6562 -143.15625 L 1895.6562 -160.875 z M 1931.0938 -160.875 L 1948.8125 -160.875 L 1948.8125 -143.15625 L 1931.0938 -143.15625 L 1931.0938 -160.875 z M 1966.5312 -160.875 L 1984.25 -160.875 L 1984.25 -143.15625 L 1966.5312 -143.15625 L 1966.5312 -160.875 z M 1446.1562 -147.59375 C 1453.5845 -147.59375 1459.625 -141.58398 1459.625 -134.15625 C 1459.625 -126.72852 1453.5845 -120.71875 1446.1562 -120.71875 C 1438.7287 -120.71875 1432.7188 -126.72852 1432.7188 -134.15625 C 1432.7188 -141.58398 1438.7287 -147.59375 1446.1562 -147.59375 z M 2067.2812 -147.59375 C 2074.709 -147.59375 2080.7188 -141.58398 2080.7188 -134.15625 C 2080.7188 -126.72852 2074.709 -120.71875 2067.2812 -120.71875 C 2059.8538 -120.71875 2053.8125 -126.72852 2053.8125 -134.15625 C 2053.8125 -141.58398 2059.8538 -147.59375 2067.2812 -147.59375 z "
       transform="translate(0,-1107.675)"
       id="rect5345" />
    <rect
       style="fill:#0000ff;fill-opacity:1;stroke:none"
       id="rect5505"
       width="1311.0237"
       height="1311.0237"
       x="2019.6851"
       y="-1073.6593"
       ry="1.0822374e-005" />
    <g
       id="Sat Jun 21 21:00:04 2014"
       transform="translate(0,-1107.675)">
      <g
         id="Frame.009">
        <!-- start Frame.009-->
      </g>
      <!-- end Frame.009-->
    </g>
    <g
       id="Sat Jun 21 21:02:01 2014"
       transform="translate(0,-1107.675)">
      <g
         id="Frame.009-1">
        <!-- start Frame.009-->
      </g>
      <!-- end Frame.009-->
    </g>
    <g
       id="Sat Jun 21 21:02:46 2014"
       transform="translate(0,-1107.675)">
      <g
         id="Frame.009-4">
        <!-- start Frame.009-->
      </g>
      <!-- end Frame.009-->
    </g>
    <path
       style="opacity:1;fill:#0000ff;fill-opacity:1;stroke:none"
       d="M -354.34375 1088.875 L -354.34375 1238.75 L -336.625 1238.75 L -336.625 1256.4688 L -318.90625 1256.4688 L -318.90625 1238.75 L -301.1875 1238.75 L -301.1875 1256.4688 L -283.46875 1256.4688 L -283.46875 1238.75 L -265.75 1238.75 L -265.75 1256.4688 L -248.03125 1256.4688 L -248.03125 1238.75 L -230.3125 1238.75 L -230.3125 1256.4688 L -212.59375 1256.4688 L -212.59375 1238.75 L -204.46875 1238.75 L -204.46875 1205.7812 L -321.375 1205.7812 L -321.375 1088.875 L -354.34375 1088.875 z M -330.34375 1103.9688 C -327.53064 1103.9688 -325.25 1106.2494 -325.25 1109.0625 C -325.25 1111.8756 -327.53064 1114.1562 -330.34375 1114.1562 C -333.15686 1114.1562 -335.4375 1111.8756 -335.4375 1109.0625 C -335.4375 1106.2494 -333.15686 1103.9688 -330.34375 1103.9688 z M -330.875 1213.75 C -330.70377 1213.7326 -330.51957 1213.75 -330.34375 1213.75 C -327.53064 1213.75 -325.25 1216.0307 -325.25 1218.8438 C -325.25 1221.6571 -327.53064 1223.9375 -330.34375 1223.9375 C -333.15686 1223.9375 -335.4375 1221.6571 -335.4375 1218.8438 C -335.4375 1216.2066 -333.44347 1214.0108 -330.875 1213.75 z M -221.46875 1213.75 C -221.29752 1213.7326 -221.11332 1213.75 -220.9375 1213.75 C -218.12439 1213.75 -215.84375 1216.0307 -215.84375 1218.8438 C -215.84375 1221.6571 -218.12439 1223.9375 -220.9375 1223.9375 C -223.75061 1223.9375 -226.03125 1221.6571 -226.03125 1218.8438 C -226.03125 1216.2066 -224.03722 1214.0108 -221.46875 1213.75 z "
       transform="translate(0,-1107.675)"
       id="rect6602" />
    <path
       style="fill:#0000ff;stroke:none;stroke-width:1px;stroke-linecap:butt;stroke-linejoin:miter;stroke-opacity:1;fill-opacity:1;opacity:1"
       d="M -283.46875 600.9375 L -283.46875 618.65625 L -301.1875 618.65625 L -265.75 671.8125 L -248.03125 671.8125 L -212.59375 618.65625 L -230.3125 618.65625 L -230.3125 600.9375 L -248.03125 600.9375 L -248.03125 618.65625 L -265.75 618.65625 L -265.75 600.9375 L -283.46875 600.9375 z M -256.84375 641.5 C -251.75577 641.5 -247.625 645.63077 -247.625 650.71875 C -247.625 655.80673 -251.75577 659.9375 -256.84375 659.9375 C -261.93173 659.9375 -266.03125 655.80673 -266.03125 650.71875 C -266.03125 645.63077 -261.93173 641.5 -256.84375 641.5 z "
       transform="translate(0,-1107.675)"
       id="path6703" />
    <path
       id="path6706"
       d="m -159.44662,-506.7375 0,17.71875 -17.71875,0 35.4375,53.15625 17.71875,0 35.437502,-53.15625 -17.718752,0 0,-17.71875 -17.71875,0 0,17.71875 -17.71875,0 0,-17.71875 -17.71875,0 z m 26.625,40.5625 c 5.08798,0 9.21875,4.13077 9.21875,9.21875 0,5.08798 -4.13077,9.21875 -9.21875,9.21875 -5.08798,0 -9.1875,-4.13077 -9.1875,-9.21875 0,-5.08798 4.09952,-9.21875 9.1875,-9.21875 z"
       style="opacity:1;fill:#0000ff;fill-opacity:1;stroke:none"
       inkscape:connector-curvature="0" />
    <path
       style="opacity:1;fill:#0000ff;fill-opacity:1;stroke:none"
       d="M -1473.0625 579.34375 L -1473.0625 1348.5625 L -703.84375 1348.5625 L -703.84375 579.34375 L -1473.0625 579.34375 z M -1459.3125 589.5625 C -1456.404 589.5625 -1454.0625 591.93522 -1454.0625 594.84375 C -1454.0625 597.75228 -1456.404 600.09375 -1459.3125 600.09375 C -1462.221 600.09375 -1464.5938 597.75228 -1464.5938 594.84375 C -1464.5938 591.93522 -1462.221 589.5625 -1459.3125 589.5625 z M -718.8125 589.5625 C -715.90397 589.5625 -713.5625 591.93522 -713.5625 594.84375 C -713.5625 597.75228 -715.90397 600.09375 -718.8125 600.09375 C -721.72103 600.09375 -724.09375 597.75228 -724.09375 594.84375 C -724.09375 591.93522 -721.72103 589.5625 -718.8125 589.5625 z M -784.9375 813.875 C -782.02897 813.875 -779.6875 816.21647 -779.6875 819.125 C -779.6875 822.03353 -782.02897 824.40625 -784.9375 824.40625 C -787.84603 824.40625 -790.21875 822.03353 -790.21875 819.125 C -790.21875 816.21647 -787.84603 813.875 -784.9375 813.875 z M -1410.7812 814 C -1407.8727 814 -1405.5 816.34147 -1405.5 819.25 C -1405.5 822.15853 -1407.8727 824.53125 -1410.7812 824.53125 C -1413.69 824.53125 -1416.0312 822.15853 -1416.0312 819.25 C -1416.0312 816.34147 -1413.69 814 -1410.7812 814 z M -905.3125 900.6875 C -902.40397 900.6875 -900.03125 903.02897 -900.03125 905.9375 C -900.03125 908.84603 -902.40397 911.21875 -905.3125 911.21875 C -908.22103 911.21875 -910.5625 908.84603 -910.5625 905.9375 C -910.5625 903.02897 -908.22103 900.6875 -905.3125 900.6875 z M -840.625 900.6875 C -837.71647 900.6875 -835.375 903.02897 -835.375 905.9375 C -835.375 908.84603 -837.71647 911.21875 -840.625 911.21875 C -843.53353 911.21875 -845.90625 908.84603 -845.90625 905.9375 C -845.90625 903.02897 -843.53353 900.6875 -840.625 900.6875 z M -905.3125 1018.2812 C -902.40397 1018.2812 -900.03125 1020.654 -900.03125 1023.5625 C -900.03125 1026.471 -902.40397 1028.8125 -905.3125 1028.8125 C -908.22103 1028.8125 -910.5625 1026.471 -910.5625 1023.5625 C -910.5625 1020.654 -908.22103 1018.2812 -905.3125 1018.2812 z M -840.625 1018.2812 C -837.71647 1018.2812 -835.375 1020.654 -835.375 1023.5625 C -835.375 1026.471 -837.71647 1028.8125 -840.625 1028.8125 C -843.53353 1028.8125 -845.90625 1026.471 -845.90625 1023.5625 C -845.90625 1020.654 -843.53353 1018.2812 -840.625 1018.2812 z M -1410.7812 1103.0625 C -1407.8727 1103.0625 -1405.5 1105.435 -1405.5 1108.3438 C -1405.5 1111.2523 -1407.8727 1113.5938 -1410.7812 1113.5938 C -1413.69 1113.5938 -1416.0312 1111.2523 -1416.0312 1108.3438 C -1416.0312 1105.435 -1413.69 1103.0625 -1410.7812 1103.0625 z M -784.96875 1103.0625 C -782.06022 1103.0625 -779.71875 1105.435 -779.71875 1108.3438 C -779.71875 1111.2523 -782.06022 1113.5938 -784.96875 1113.5938 C -787.87728 1113.5938 -790.25 1111.2523 -790.25 1108.3438 C -790.25 1105.435 -787.87728 1103.0625 -784.96875 1103.0625 z M -1459.3125 1330.5312 C -1456.404 1330.5312 -1454.0625 1332.904 -1454.0625 1335.8125 C -1454.0625 1338.721 -1456.404 1341.0625 -1459.3125 1341.0625 C -1462.221 1341.0625 -1464.5938 1338.721 -1464.5938 1335.8125 C -1464.5938 1332.904 -1462.221 1330.5312 -1459.3125 1330.5312 z M -718.8125 1330.5312 C -715.90397 1330.5312 -713.5625 1332.904 -713.5625 1335.8125 C -713.5625 1338.721 -715.90397 1341.0625 -718.8125 1341.0625 C -721.72103 1341.0625 -724.09375 1338.721 -724.09375 1335.8125 C -724.09375 1332.904 -721.72103 1330.5312 -718.8125 1330.5312 z "
       transform="translate(0,-1107.675)"
       id="rect6718" />
    <path
       style="opacity:1;fill:#0000ff;fill-opacity:1;stroke:none"
       d="m 1838.712,-81.00271 c -10.8493,0 -19.625,8.807 -19.625,19.6563 0,10.8493 8.7757,19.6563 19.625,19.6563 10.8493,0 19.6563,-8.807 19.6563,-19.6563 0,-10.8493 -8.807,-19.6563 -19.6563,-19.6563 z m 0,5.625 c 7.748,0 14.0313,6.2833 14.0313,14.0313 0,7.748 -6.2833,14.0313 -14.0313,14.0313 -7.748,0 -14.0313,-6.2833 -14.0313,-14.0313 0,-7.748 6.2833,-14.0313 14.0313,-14.0313 z"
       id="path7584"
       inkscape:connector-curvature="0" />
    <path
       inkscape:connector-curvature="0"
       id="path7587"
       d="m 1795.212,-81.00271 c -10.8493,0 -19.625,8.807 -19.625,19.6563 0,10.8493 8.7757,19.6563 19.625,19.6563 10.8493,0 19.6563,-8.807 19.6563,-19.6563 0,-10.8493 -8.807,-19.6563 -19.6563,-19.6563 z m 0,5.625 c 7.748,0 14.0313,6.2833 14.0313,14.0313 0,7.748 -6.2833,14.0313 -14.0313,14.0313 -7.748,0 -14.0313,-6.2833 -14.0313,-14.0313 0,-7.748 6.2833,-14.0313 14.0313,-14.0313 z"
       style="fill:#0000ff;fill-opacity:1;stroke:none" />
    <path
       style="fill:#0000ff;fill-opacity:1;stroke:none"
       d="m 1750.212,-81.00271 c -10.8493,0 -19.625,8.807 -19.625,19.6563 0,10.8493 8.7757,19.6563 19.625,19.6563 10.8493,0 19.6563,-8.807 19.6563,-19.6563 0,-10.8493 -8.807,-19.6563 -19.6563,-19.6563 z m 0,5.625 c 7.748,0 14.0313,6.2833 14.0313,14.0313 0,7.748 -6.2833,14.0313 -14.0313,14.0313 -7.748,0 -14.0313,-6.2833 -14.0313,-14.0313 0,-7.748 6.2833,-14.0313 14.0313,-14.0313 z"
       id="path7589"
       inkscape:connector-curvature="0" />
    <path
       inkscape:connector-curvature="0"
       id="path7591"
       d="m 1708.212,-81.00271 c -10.8493,0 -19.625,8.807 -19.625,19.6563 0,10.8493 8.7757,19.6563 19.625,19.6563 10.8493,0 19.6563,-8.807 19.6563,-19.6563 0,-10.8493 -8.807,-19.6563 -19.6563,-19.6563 z m 0,5.625 c 7.748,0 14.0313,6.2833 14.0313,14.0313 0,7.748 -6.2833,14.0313 -14.0313,14.0313 -7.748,0 -14.0313,-6.2833 -14.0313,-14.0313 0,-7.748 6.2833,-14.0313 14.0313,-14.0313 z"
       style="fill:#0000ff;fill-opacity:1;stroke:none" />
    <path
       style="fill:#0000ff;fill-opacity:1;stroke:none"
       d="M 1417.3125 1380.4688 L 1417.3125 1415.9062 L 1452.75 1415.9062 L 1452.75 1380.4688 L 1417.3125 1380.4688 z M 1435.0312 1391.0938 C 1438.9451 1391.0938 1442.125 1394.2737 1442.125 1398.1875 C 1442.125 1402.1013 1438.9451 1405.2812 1435.0312 1405.2812 C 1431.1174 1405.2812 1427.9375 1402.1013 1427.9375 1398.1875 C 1427.9375 1394.2737 1431.1174 1391.0938 1435.0312 1391.0938 z "
       transform="translate(0,-1107.675)"
       id="rect7730" />
  </g>
</svg>
