  0
SECTION
  2
HEADER
  9
$ACADVER
  1
AC1014
  9
$HANDSEED
  5
FFFF
  9
$MEASUREMENT
 70
     1
  0
ENDSEC
  0
SECTION
  2
TABLES
  0
TABLE
  2
VPORT
  5
8
330
0
100
AcDbSymbolTable
 70
     4
  0
VPORT
  5
2E
330
8
100
AcDbSymbolTableRecord
100
AcDbViewportTableRecord
  2
*ACTIVE
 70
     0
 10
0.0
 20
0.0
 11
1.0
 21
1.0
 12
210.0
 22
148.5
 13
0.0
 23
0.0
 14
10.0
 24
10.0
 15
10.0
 25
10.0
 16
0.0
 26
0.0
 36
1.0
 17
0.0
 27
0.0
 37
0.0
 40
341.0
 41
1.24
 42
50.0
 43
0.0
 44
0.0
 50
0.0
 51
0.0
 71
     0
 72
   100
 73
     1
 74
     3
 75
     0
 76
     0
 77
     0
 78
     0
  0
ENDTAB
  0
TABLE
  2
LTYPE
  5
5
330
0
100
AcDbSymbolTable
 70
     1
  0
LTYPE
  5
14
330
5
100
AcDbSymbolTableRecord
100
AcDbLinetypeTableRecord
  2
BYBLOCK
 70
     0
  3

 72
    65
 73
     0
 40
0.0
  0
LTYPE
  5
15
330
5
100
AcDbSymbolTableRecord
100
AcDbLinetypeTableRecord
  2
BYLAYER
 70
     0
  3

 72
    65
 73
     0
 40
0.0
  0
LTYPE
  5
16
330
5
100
AcDbSymbolTableRecord
100
AcDbLinetypeTableRecord
  2
CONTINUOUS
 70
     0
  3
Solid line
 72
    65
 73
     0
 40
0.0
  0
ENDTAB
  0
TABLE
  2
LAYER
  5
2
100
AcDbSymbolTable
 70
2
  0
LAYER
  5
50
100
AcDbSymbolTableRecord
100
AcDbLayerTableRecord
  2
0
 70
0
  6
CONTINUOUS
  0
LAYER
  5
51
100
AcDbSymbolTableRecord
100
AcDbLayerTableRecord
  2
Layer_1
 70
0
  6
CONTINUOUS
  0
ENDTAB
  0
TABLE
  2
STYLE
  5
3
330
0
100
AcDbSymbolTable
 70
     1
  0
STYLE
  5
11
330
3
100
AcDbSymbolTableRecord
100
AcDbTextStyleTableRecord
  2
STANDARD
 70
     0
 40
0.0
 41
1.0
 50
0.0
 71
     0
 42
2.5
  3
txt
  4

  0
ENDTAB
  0
TABLE
  2
VIEW
  5
6
330
0
100
AcDbSymbolTable
 70
     0
  0
ENDTAB
  0
TABLE
  2
UCS
  5
7
330
0
100
AcDbSymbolTable
 70
     0
  0
ENDTAB
  0
TABLE
  2
APPID
  5
9
330
0
100
AcDbSymbolTable
 70
     2
  0
APPID
  5
12
330
9
100
AcDbSymbolTableRecord
100
AcDbRegAppTableRecord
  2
ACAD
 70
     0
  0
ENDTAB
  0
TABLE
  2
DIMSTYLE
  5
A
330
0
100
AcDbSymbolTable
 70
     1
  0
DIMSTYLE
105
27
330
A
100
AcDbSymbolTableRecord
100
AcDbDimStyleTableRecord
  2
ISO-25
 70
     0
  3

  4

  5

  6

  7

 40
1.0
 41
2.5
 42
0.625
 43
3.75
 44
1.25
 45
0.0
 46
0.0
 47
0.0
 48
0.0
140
2.5
141
2.5
142
0.0
143
0.03937007874016
144
1.0
145
0.0
146
1.0
147
0.625
 71
     0
 72
     0
 73
     0
 74
     0
 75
     0
 76
     0
 77
     1
 78
     8
170
     0
171
     3
172
     1
173
     0
174
     0
175
     0
176
     0
177
     0
178
     0
270
     2
271
     2
272
     2
273
     2
274
     3
340
11
275
     0
280
     0
281
     0
282
     0
283
     0
284
     8
285
     0
286
     0
287
     3
288
     0
  0
ENDTAB
  0
TABLE
  2
BLOCK_RECORD
  5
1
330
0
100
AcDbSymbolTable
 70
     1
  0
BLOCK_RECORD
  5
1F
330
1
100
AcDbSymbolTableRecord
100
AcDbBlockTableRecord
  2
*MODEL_SPACE
  0
BLOCK_RECORD
  5
1B
330
1
100
AcDbSymbolTableRecord
100
AcDbBlockTableRecord
  2
*PAPER_SPACE
  0
ENDTAB
  0
ENDSEC
  0
SECTION
  2
BLOCKS
  0
BLOCK
  5
20
330
1F
100
AcDbEntity
  8
0
100
AcDbBlockBegin
  2
*MODEL_SPACE
 70
     0
 10
0.0
 20
0.0
 30
0.0
  3
*MODEL_SPACE
  1

  0
ENDBLK
  5
21
330
1F
100
AcDbEntity
  8
0
100
AcDbBlockEnd
  0
BLOCK
  5
1C
330
1B
100
AcDbEntity
 67
     1
  8
0
100
AcDbBlockBegin
  2
*PAPER_SPACE
  1

  0
ENDBLK
  5
1D
330
1B
100
AcDbEntity
 67
     1
  8
0
100
AcDbBlockEnd
  0
ENDSEC
  0
SECTION
  2
ENTITIES
  0
LWPOLYLINE
  5
100
100
AcDbEntity
  8
Layer_1
 62
7
100
AcDbPolyline
 90
17
 70
0
 10
519.535833
 20
134.958667
 30
0.0
 10
519.535833
 20
104.954917
 30
0.0
 10
544.538972
 20
104.954917
 30
0.0
 10
549.539583
 20
104.954917
 30
0.0
 10
549.539583
 20
109.955542
 30
0.0
 10
544.538972
 20
109.955542
 30
0.0
 10
544.538972
 20
114.956167
 30
0.0
 10
549.539583
 20
114.956167
 30
0.0
 10
549.539583
 20
119.956792
 30
0.0
 10
544.538972
 20
119.956792
 30
0.0
 10
544.538972
 20
124.957417
 30
0.0
 10
549.539583
 20
124.957417
 30
0.0
 10
549.539583
 20
129.958042
 30
0.0
 10
544.538972
 20
129.958042
 30
0.0
 10
544.538972
 20
134.958667
 30
0.0
 10
519.535833
 20
134.958667
 30
0.0
 10
519.535833
 20
134.958667
 30
0.0
  0
SPLINE
  5
101
100
AcDbEntity
  8
Layer_1
 62
7
100
AcDbSpline
 70
8
 71
3
 72
8
 73
4
 74
0
 40
0
 40
0
 40
0
 40
0
 40
1
 40
1
 40
1
 40
1
 10
540.005750
 20
132.850819
 30
0.0
 10
540.813752
 20
132.850819
 30
0.0
 10
541.460972
 20
132.203585
 30
0.0
 10
541.460972
 20
131.395611
 30
0.0
  0
SPLINE
  5
102
100
AcDbEntity
  8
Layer_1
 62
7
100
AcDbSpline
 70
8
 71
3
 72
8
 73
4
 74
0
 40
0
 40
0
 40
0
 40
0
 40
1
 40
1
 40
1
 40
1
 10
541.460972
 20
131.395611
 30
0.0
 10
541.460972
 20
130.587637
 30
0.0
 10
540.813724
 20
129.940403
 30
0.0
 10
540.005750
 20
129.940403
 30
0.0
  0
LWPOLYLINE
  5
103
100
AcDbEntity
  8
Layer_1
 62
7
100
AcDbPolyline
 90
2
 70
0
 10
522.225750
 20
132.850819
 30
0.0
 10
540.005750
 20
132.850819
 30
0.0
  0
SPLINE
  5
104
100
AcDbEntity
  8
Layer_1
 62
7
100
AcDbSpline
 70
8
 71
3
 72
8
 73
4
 74
0
 40
0
 40
0
 40
0
 40
0
 40
1
 40
1
 40
1
 40
1
 10
522.225750
 20
129.940403
 30
0.0
 10
521.417748
 20
129.940403
 30
0.0
 10
520.770556
 20
130.587637
 30
0.0
 10
520.770556
 20
131.395611
 30
0.0
  0
SPLINE
  5
105
100
AcDbEntity
  8
Layer_1
 62
7
100
AcDbSpline
 70
8
 71
3
 72
8
 73
4
 74
0
 40
0
 40
0
 40
0
 40
0
 40
1
 40
1
 40
1
 40
1
 10
520.770556
 20
131.395611
 30
0.0
 10
520.770556
 20
132.203585
 30
0.0
 10
521.417748
 20
132.850819
 30
0.0
 10
522.225750
 20
132.850819
 30
0.0
  0
LWPOLYLINE
  5
106
100
AcDbEntity
  8
Layer_1
 62
7
100
AcDbPolyline
 90
2
 70
0
 10
540.005750
 20
129.940403
 30
0.0
 10
522.225750
 20
129.940403
 30
0.0
  0
LWPOLYLINE
  5
107
100
AcDbEntity
  8
Layer_1
 62
7
100
AcDbPolyline
 90
2
 70
0
 10
522.225750
 20
132.850819
 30
0.0
 10
522.225750
 20
132.850819
 30
0.0
  0
SPLINE
  5
108
100
AcDbEntity
  8
Layer_1
 62
7
100
AcDbSpline
 70
8
 71
3
 72
8
 73
4
 74
0
 40
0
 40
0
 40
0
 40
0
 40
1
 40
1
 40
1
 40
1
 10
540.005750
 20
109.973181
 30
0.0
 10
540.813752
 20
109.973181
 30
0.0
 10
541.460972
 20
109.325946
 30
0.0
 10
541.460972
 20
108.517972
 30
0.0
  0
SPLINE
  5
109
100
AcDbEntity
  8
Layer_1
 62
7
100
AcDbSpline
 70
8
 71
3
 72
8
 73
4
 74
0
 40
0
 40
0
 40
0
 40
0
 40
1
 40
1
 40
1
 40
1
 10
541.460972
 20
108.517972
 30
0.0
 10
541.460972
 20
107.709998
 30
0.0
 10
540.813724
 20
107.062764
 30
0.0
 10
540.005750
 20
107.062764
 30
0.0
  0
LWPOLYLINE
  5
10a
100
AcDbEntity
  8
Layer_1
 62
7
100
AcDbPolyline
 90
2
 70
0
 10
522.225750
 20
109.973181
 30
0.0
 10
540.005750
 20
109.973181
 30
0.0
  0
SPLINE
  5
10b
100
AcDbEntity
  8
Layer_1
 62
7
100
AcDbSpline
 70
8
 71
3
 72
8
 73
4
 74
0
 40
0
 40
0
 40
0
 40
0
 40
1
 40
1
 40
1
 40
1
 10
522.225750
 20
107.062764
 30
0.0
 10
521.417748
 20
107.062764
 30
0.0
 10
520.770556
 20
107.709998
 30
0.0
 10
520.770556
 20
108.517972
 30
0.0
  0
SPLINE
  5
10c
100
AcDbEntity
  8
Layer_1
 62
7
100
AcDbSpline
 70
8
 71
3
 72
8
 73
4
 74
0
 40
0
 40
0
 40
0
 40
0
 40
1
 40
1
 40
1
 40
1
 10
520.770556
 20
108.517972
 30
0.0
 10
520.770556
 20
109.325946
 30
0.0
 10
521.417748
 20
109.973181
 30
0.0
 10
522.225750
 20
109.973181
 30
0.0
  0
LWPOLYLINE
  5
10d
100
AcDbEntity
  8
Layer_1
 62
7
100
AcDbPolyline
 90
2
 70
0
 10
540.005750
 20
107.062764
 30
0.0
 10
522.225750
 20
107.062764
 30
0.0
  0
LWPOLYLINE
  5
10e
100
AcDbEntity
  8
Layer_1
 62
7
100
AcDbPolyline
 90
2
 70
0
 10
522.225750
 20
109.973181
 30
0.0
 10
522.225750
 20
109.973181
 30
0.0
  0
LWPOLYLINE
  5
10f
100
AcDbEntity
  8
Layer_1
 62
7
100
AcDbPolyline
 90
195
 70
0
 10
179.625625
 20
383.887486
 30
0.0
 10
179.625625
 20
18.885958
 30
0.0
 10
184.626250
 20
18.885958
 30
0.0
 10
184.626250
 20
13.885333
 30
0.0
 10
189.626875
 20
13.885333
 30
0.0
 10
189.626875
 20
18.885958
 30
0.0
 10
194.627500
 20
18.885958
 30
0.0
 10
194.627500
 20
13.885333
 30
0.0
 10
199.628125
 20
13.885333
 30
0.0
 10
199.628125
 20
18.885958
 30
0.0
 10
204.628750
 20
18.885958
 30
0.0
 10
204.628750
 20
13.885333
 30
0.0
 10
209.629375
 20
13.885333
 30
0.0
 10
209.629375
 20
18.885958
 30
0.0
 10
214.630000
 20
18.885958
 30
0.0
 10
214.630000
 20
13.885333
 30
0.0
 10
219.630625
 20
13.885333
 30
0.0
 10
219.630625
 20
18.885958
 30
0.0
 10
224.631250
 20
18.885958
 30
0.0
 10
224.631250
 20
13.885333
 30
0.0
 10
229.623056
 20
13.885333
 30
0.0
 10
229.623056
 20
18.885958
 30
0.0
 10
234.623681
 20
18.885958
 30
0.0
 10
234.623681
 20
13.885333
 30
0.0
 10
239.624306
 20
13.885333
 30
0.0
 10
239.624306
 20
18.885958
 30
0.0
 10
244.624931
 20
18.885958
 30
0.0
 10
244.624931
 20
23.886583
 30
0.0
 10
239.624306
 20
23.886583
 30
0.0
 10
239.624306
 20
28.887208
 30
0.0
 10
244.624931
 20
28.887208
 30
0.0
 10
244.624931
 20
33.887833
 30
0.0
 10
239.624306
 20
33.887833
 30
0.0
 10
239.624306
 20
38.888458
 30
0.0
 10
244.624931
 20
38.888458
 30
0.0
 10
244.624931
 20
43.889083
 30
0.0
 10
239.624306
 20
43.889083
 30
0.0
 10
239.624306
 20
48.889708
 30
0.0
 10
244.624931
 20
48.889708
 30
0.0
 10
244.624931
 20
53.890333
 30
0.0
 10
239.624306
 20
53.890333
 30
0.0
 10
239.624306
 20
58.882139
 30
0.0
 10
244.624931
 20
58.882139
 30
0.0
 10
244.624931
 20
63.882764
 30
0.0
 10
239.624306
 20
63.882764
 30
0.0
 10
239.624306
 20
68.883389
 30
0.0
 10
244.624931
 20
68.883389
 30
0.0
 10
244.624931
 20
73.884014
 30
0.0
 10
239.624306
 20
73.884014
 30
0.0
 10
239.624306
 20
78.884639
 30
0.0
 10
244.624931
 20
78.884639
 30
0.0
 10
244.624931
 20
83.885264
 30
0.0
 10
239.624306
 20
83.885264
 30
0.0
 10
239.624306
 20
88.885889
 30
0.0
 10
244.624931
 20
88.885889
 30
0.0
 10
244.624931
 20
93.886514
 30
0.0
 10
239.624306
 20
93.886514
 30
0.0
 10
239.624306
 20
98.887139
 30
0.0
 10
244.624931
 20
98.887139
 30
0.0
 10
244.624931
 20
103.887764
 30
0.0
 10
239.624306
 20
103.887764
 30
0.0
 10
239.624306
 20
108.888389
 30
0.0
 10
244.624931
 20
108.888389
 30
0.0
 10
244.624931
 20
113.889014
 30
0.0
 10
239.624306
 20
113.889014
 30
0.0
 10
239.624306
 20
118.889639
 30
0.0
 10
244.624931
 20
118.889639
 30
0.0
 10
244.624931
 20
123.890264
 30
0.0
 10
239.624306
 20
123.890264
 30
0.0
 10
239.624306
 20
128.882069
 30
0.0
 10
244.624931
 20
128.882069
 30
0.0
 10
244.624931
 20
133.882694
 30
0.0
 10
239.624306
 20
133.882694
 30
0.0
 10
239.624306
 20
138.883319
 30
0.0
 10
244.624931
 20
138.883319
 30
0.0
 10
244.624931
 20
143.883944
 30
0.0
 10
239.624306
 20
143.883944
 30
0.0
 10
239.624306
 20
148.884569
 30
0.0
 10
244.624931
 20
148.884569
 30
0.0
 10
244.624931
 20
153.885194
 30
0.0
 10
239.624306
 20
153.885194
 30
0.0
 10
239.624306
 20
158.885819
 30
0.0
 10
244.624931
 20
158.885819
 30
0.0
 10
244.624931
 20
163.886444
 30
0.0
 10
239.624306
 20
163.886444
 30
0.0
 10
239.624306
 20
168.887069
 30
0.0
 10
244.624931
 20
168.887069
 30
0.0
 10
244.624931
 20
173.887694
 30
0.0
 10
239.624306
 20
173.887694
 30
0.0
 10
239.624306
 20
178.888319
 30
0.0
 10
244.624931
 20
178.888319
 30
0.0
 10
244.624931
 20
183.888944
 30
0.0
 10
239.624306
 20
183.888944
 30
0.0
 10
239.624306
 20
188.889569
 30
0.0
 10
244.624931
 20
188.889569
 30
0.0
 10
244.624931
 20
193.890194
 30
0.0
 10
239.624306
 20
193.890194
 30
0.0
 10
239.624306
 20
198.882000
 30
0.0
 10
244.624931
 20
198.882000
 30
0.0
 10
244.624931
 20
203.882625
 30
0.0
 10
239.624306
 20
203.882625
 30
0.0
 10
239.624306
 20
208.883250
 30
0.0
 10
244.624931
 20
208.883250
 30
0.0
 10
244.624931
 20
213.883875
 30
0.0
 10
239.624306
 20
213.883875
 30
0.0
 10
239.624306
 20
218.884500
 30
0.0
 10
244.624931
 20
218.884500
 30
0.0
 10
244.624931
 20
223.885125
 30
0.0
 10
239.624306
 20
223.885125
 30
0.0
 10
239.624306
 20
228.885750
 30
0.0
 10
244.624931
 20
228.885750
 30
0.0
 10
244.624931
 20
233.886375
 30
0.0
 10
239.624306
 20
233.886375
 30
0.0
 10
239.624306
 20
238.887000
 30
0.0
 10
244.624931
 20
238.887000
 30
0.0
 10
244.624931
 20
243.887625
 30
0.0
 10
239.624306
 20
243.887625
 30
0.0
 10
239.624306
 20
248.888250
 30
0.0
 10
244.624931
 20
248.888250
 30
0.0
 10
244.624931
 20
253.888875
 30
0.0
 10
239.624306
 20
253.888875
 30
0.0
 10
239.624306
 20
258.889500
 30
0.0
 10
244.624931
 20
258.889500
 30
0.0
 10
244.624931
 20
263.890125
 30
0.0
 10
239.624306
 20
263.890125
 30
0.0
 10
239.624306
 20
268.881931
 30
0.0
 10
244.624931
 20
268.881931
 30
0.0
 10
244.624931
 20
273.882556
 30
0.0
 10
239.624306
 20
273.882556
 30
0.0
 10
239.624306
 20
278.883181
 30
0.0
 10
244.624931
 20
278.883181
 30
0.0
 10
244.624931
 20
283.883806
 30
0.0
 10
239.624306
 20
283.883806
 30
0.0
 10
239.624306
 20
288.884431
 30
0.0
 10
244.624931
 20
288.884431
 30
0.0
 10
244.624931
 20
293.885056
 30
0.0
 10
239.624306
 20
293.885056
 30
0.0
 10
239.624306
 20
298.885681
 30
0.0
 10
244.624931
 20
298.885681
 30
0.0
 10
244.624931
 20
303.886306
 30
0.0
 10
239.624306
 20
303.886306
 30
0.0
 10
239.624306
 20
308.886931
 30
0.0
 10
244.624931
 20
308.886931
 30
0.0
 10
244.624931
 20
313.887556
 30
0.0
 10
239.624306
 20
313.887556
 30
0.0
 10
239.624306
 20
318.888181
 30
0.0
 10
244.624931
 20
318.888181
 30
0.0
 10
244.624931
 20
323.888806
 30
0.0
 10
239.624306
 20
323.888806
 30
0.0
 10
239.624306
 20
328.889431
 30
0.0
 10
244.624931
 20
328.889431
 30
0.0
 10
244.624931
 20
333.890056
 30
0.0
 10
239.624306
 20
333.890056
 30
0.0
 10
239.624306
 20
338.890681
 30
0.0
 10
244.624931
 20
338.890681
 30
0.0
 10
244.624931
 20
343.882486
 30
0.0
 10
239.624306
 20
343.882486
 30
0.0
 10
239.624306
 20
343.891291
 30
0.0
 10
239.624306
 20
348.883097
 30
0.0
 10
244.624931
 20
348.883097
 30
0.0
 10
244.624931
 20
353.883722
 30
0.0
 10
239.624306
 20
353.883722
 30
0.0
 10
239.624306
 20
358.884347
 30
0.0
 10
244.624931
 20
358.884347
 30
0.0
 10
244.624931
 20
363.884972
 30
0.0
 10
239.624306
 20
363.884972
 30
0.0
 10
239.624306
 20
368.885597
 30
0.0
 10
244.624931
 20
368.885597
 30
0.0
 10
244.624931
 20
373.886222
 30
0.0
 10
239.624306
 20
373.886222
 30
0.0
 10
239.624306
 20
378.886847
 30
0.0
 10
234.632500
 20
378.886847
 30
0.0
 10
234.632500
 20
383.887472
 30
0.0
 10
229.631875
 20
383.887472
 30
0.0
 10
229.631875
 20
378.886847
 30
0.0
 10
224.631250
 20
378.886847
 30
0.0
 10
224.631250
 20
383.887472
 30
0.0
 10
219.630625
 20
383.887472
 30
0.0
 10
219.630625
 20
378.886847
 30
0.0
 10
214.630000
 20
378.886847
 30
0.0
 10
214.630000
 20
383.887472
 30
0.0
 10
209.629375
 20
383.887472
 30
0.0
 10
209.629375
 20
378.886847
 30
0.0
 10
204.628750
 20
378.886847
 30
0.0
 10
204.628750
 20
383.887472
 30
0.0
 10
199.628125
 20
383.887472
 30
0.0
 10
199.628125
 20
378.886847
 30
0.0
 10
194.627500
 20
378.886847
 30
0.0
 10
194.627500
 20
383.887472
 30
0.0
 10
189.626875
 20
383.887472
 30
0.0
 10
189.626875
 20
378.886847
 30
0.0
 10
184.626250
 20
378.886847
 30
0.0
 10
184.626250
 20
383.887472
 30
0.0
 10
179.625625
 20
383.887472
 30
0.0
 10
179.625625
 20
383.887486
 30
0.0
  0
LWPOLYLINE
  5
110
100
AcDbEntity
  8
Layer_1
 62
7
100
AcDbPolyline
 90
6
 70
0
 10
194.627500
 20
363.884986
 30
0.0
 10
234.632500
 20
363.884986
 30
0.0
 10
234.632500
 20
348.883111
 30
0.0
 10
194.627500
 20
348.883111
 30
0.0
 10
194.627500
 20
363.884986
 30
0.0
 10
194.627500
 20
363.884986
 30
0.0
  0
LWPOLYLINE
  5
111
100
AcDbEntity
  8
Layer_1
 62
7
100
AcDbPolyline
 90
6
 70
0
 10
199.628125
 20
343.882486
 30
0.0
 10
204.628750
 20
343.882486
 30
0.0
 10
204.628750
 20
338.881861
 30
0.0
 10
199.628125
 20
338.881861
 30
0.0
 10
199.628125
 20
343.882486
 30
0.0
 10
199.628125
 20
343.882486
 30
0.0
  0
LWPOLYLINE
  5
112
100
AcDbEntity
  8
Layer_1
 62
7
100
AcDbPolyline
 90
6
 70
0
 10
209.629375
 20
343.882486
 30
0.0
 10
214.630000
 20
343.882486
 30
0.0
 10
214.630000
 20
338.881861
 30
0.0
 10
209.629375
 20
338.881861
 30
0.0
 10
209.629375
 20
343.882486
 30
0.0
 10
209.629375
 20
343.882486
 30
0.0
  0
LWPOLYLINE
  5
113
100
AcDbEntity
  8
Layer_1
 62
7
100
AcDbPolyline
 90
6
 70
0
 10
219.630625
 20
343.882486
 30
0.0
 10
224.631250
 20
343.882486
 30
0.0
 10
224.631250
 20
338.881861
 30
0.0
 10
219.630625
 20
338.881861
 30
0.0
 10
219.630625
 20
343.882486
 30
0.0
 10
219.630625
 20
343.882486
 30
0.0
  0
LWPOLYLINE
  5
114
100
AcDbEntity
  8
Layer_1
 62
7
100
AcDbPolyline
 90
6
 70
0
 10
229.631875
 20
343.882486
 30
0.0
 10
234.632500
 20
343.882486
 30
0.0
 10
234.632500
 20
338.881861
 30
0.0
 10
229.631875
 20
338.881861
 30
0.0
 10
229.631875
 20
343.882486
 30
0.0
 10
229.631875
 20
343.882486
 30
0.0
  0
LWPOLYLINE
  5
115
100
AcDbEntity
  8
Layer_1
 62
7
100
AcDbPolyline
 90
128
 70
0
 10
101.344236
 20
385.104569
 30
0.0
 10
101.344236
 20
380.103944
 30
0.0
 10
96.343611
 20
380.103944
 30
0.0
 10
96.343611
 20
375.103319
 30
0.0
 10
101.344236
 20
375.103319
 30
0.0
 10
101.344236
 20
370.102694
 30
0.0
 10
96.343611
 20
370.102694
 30
0.0
 10
96.343611
 20
365.110889
 30
0.0
 10
101.344236
 20
365.110889
 30
0.0
 10
101.344236
 20
360.110264
 30
0.0
 10
96.343611
 20
360.110264
 30
0.0
 10
96.343611
 20
355.109639
 30
0.0
 10
101.344236
 20
355.109639
 30
0.0
 10
101.344236
 20
350.109014
 30
0.0
 10
96.343611
 20
350.109014
 30
0.0
 10
96.343611
 20
345.108389
 30
0.0
 10
101.344236
 20
345.108389
 30
0.0
 10
101.344236
 20
340.107764
 30
0.0
 10
96.343611
 20
340.107764
 30
0.0
 10
96.343611
 20
335.107139
 30
0.0
 10
101.344236
 20
335.107139
 30
0.0
 10
101.344236
 20
330.106514
 30
0.0
 10
96.343611
 20
330.106514
 30
0.0
 10
96.343611
 20
325.105889
 30
0.0
 10
101.344236
 20
325.105889
 30
0.0
 10
101.344236
 20
320.105264
 30
0.0
 10
96.343611
 20
320.105264
 30
0.0
 10
96.343611
 20
315.104639
 30
0.0
 10
101.344236
 20
315.104639
 30
0.0
 10
101.344236
 20
310.104014
 30
0.0
 10
96.343611
 20
310.104014
 30
0.0
 10
96.343611
 20
305.103389
 30
0.0
 10
101.344236
 20
305.103389
 30
0.0
 10
101.344236
 20
70.109292
 30
0.0
 10
96.343611
 20
70.109292
 30
0.0
 10
96.343611
 20
65.108667
 30
0.0
 10
101.344236
 20
65.108667
 30
0.0
 10
101.344236
 20
60.108042
 30
0.0
 10
96.343611
 20
60.108042
 30
0.0
 10
96.343611
 20
55.107417
 30
0.0
 10
101.344236
 20
55.107417
 30
0.0
 10
101.344236
 20
50.106792
 30
0.0
 10
96.343611
 20
50.106792
 30
0.0
 10
96.343611
 20
45.106167
 30
0.0
 10
101.344236
 20
45.106167
 30
0.0
 10
101.344236
 20
40.105542
 30
0.0
 10
96.343611
 20
40.105542
 30
0.0
 10
96.343611
 20
35.104917
 30
0.0
 10
101.344236
 20
35.104917
 30
0.0
 10
101.344236
 20
30.104292
 30
0.0
 10
96.343611
 20
30.104292
 30
0.0
 10
96.343611
 20
25.103667
 30
0.0
 10
101.344236
 20
25.103667
 30
0.0
 10
101.344236
 20
20.103042
 30
0.0
 10
96.343611
 20
20.103042
 30
0.0
 10
96.343611
 20
15.111236
 30
0.0
 10
101.344236
 20
15.111236
 30
0.0
 10
101.344236
 20
10.110611
 30
0.0
 10
106.344861
 20
10.110611
 30
0.0
 10
106.344861
 20
15.111236
 30
0.0
 10
111.345486
 20
15.111236
 30
0.0
 10
111.345486
 20
10.110611
 30
0.0
 10
116.337292
 20
10.110611
 30
0.0
 10
116.337292
 20
15.111236
 30
0.0
 10
121.337917
 20
15.111236
 30
0.0
 10
121.337917
 20
10.110611
 30
0.0
 10
126.338542
 20
10.110611
 30
0.0
 10
126.338542
 20
15.111236
 30
0.0
 10
131.339167
 20
15.111236
 30
0.0
 10
131.339167
 20
10.110611
 30
0.0
 10
136.339792
 20
10.110611
 30
0.0
 10
136.339792
 20
15.111236
 30
0.0
 10
141.340417
 20
15.111236
 30
0.0
 10
141.340417
 20
10.110611
 30
0.0
 10
146.341042
 20
10.110611
 30
0.0
 10
146.341042
 20
15.111236
 30
0.0
 10
151.341667
 20
15.111236
 30
0.0
 10
151.341667
 20
10.110611
 30
0.0
 10
156.342292
 20
10.110611
 30
0.0
 10
156.342292
 20
15.111236
 30
0.0
 10
161.342917
 20
15.111236
 30
0.0
 10
161.342917
 20
10.110611
 30
0.0
 10
166.343542
 20
10.110611
 30
0.0
 10
166.343542
 20
15.111236
 30
0.0
 10
171.344167
 20
15.111236
 30
0.0
 10
171.344167
 20
10.110611
 30
0.0
 10
176.344792
 20
10.110611
 30
0.0
 10
176.344792
 20
15.111236
 30
0.0
 10
176.344792
 20
70.109292
 30
0.0
 10
176.344792
 20
75.109917
 30
0.0
 10
176.344792
 20
80.110542
 30
0.0
 10
176.344792
 20
85.111167
 30
0.0
 10
176.344792
 20
100.104222
 30
0.0
 10
176.344792
 20
315.104639
 30
0.0
 10
176.344792
 20
325.105889
 30
0.0
 10
176.344792
 20
330.106514
 30
0.0
 10
176.344792
 20
340.107764
 30
0.0
 10
176.344792
 20
385.104569
 30
0.0
 10
171.344167
 20
385.104569
 30
0.0
 10
171.344167
 20
380.103944
 30
0.0
 10
166.343542
 20
380.103944
 30
0.0
 10
166.343542
 20
385.104569
 30
0.0
 10
161.342917
 20
385.104569
 30
0.0
 10
161.342917
 20
380.103944
 30
0.0
 10
156.342292
 20
380.103944
 30
0.0
 10
156.342292
 20
385.104569
 30
0.0
 10
151.341667
 20
385.104569
 30
0.0
 10
151.341667
 20
380.103944
 30
0.0
 10
146.341042
 20
380.103944
 30
0.0
 10
146.341042
 20
385.104569
 30
0.0
 10
141.340417
 20
385.104569
 30
0.0
 10
141.340417
 20
380.103944
 30
0.0
 10
136.339792
 20
380.103944
 30
0.0
 10
136.339792
 20
385.104569
 30
0.0
 10
131.339167
 20
385.104569
 30
0.0
 10
131.339167
 20
380.103944
 30
0.0
 10
126.338542
 20
380.103944
 30
0.0
 10
126.338542
 20
385.104569
 30
0.0
 10
121.337917
 20
385.104569
 30
0.0
 10
121.337917
 20
380.103944
 30
0.0
 10
116.337292
 20
380.103944
 30
0.0
 10
116.337292
 20
385.104569
 30
0.0
 10
111.345486
 20
385.104569
 30
0.0
 10
111.345486
 20
380.103944
 30
0.0
 10
106.344861
 20
380.103944
 30
0.0
 10
106.344861
 20
385.104569
 30
0.0
 10
101.344236
 20
385.104569
 30
0.0
 10
101.344236
 20
385.104569
 30
0.0
  0
LWPOLYLINE
  5
116
100
AcDbEntity
  8
Layer_1
 62
7
100
AcDbPolyline
 90
234
 70
0
 10
246.485833
 20
384.204986
 30
0.0
 10
246.485833
 20
379.204361
 30
0.0
 10
251.486458
 20
379.204361
 30
0.0
 10
251.486458
 20
374.203736
 30
0.0
 10
246.485833
 20
374.203736
 30
0.0
 10
246.485833
 20
369.203111
 30
0.0
 10
251.486458
 20
369.203111
 30
0.0
 10
251.486458
 20
364.202486
 30
0.0
 10
246.485833
 20
364.202486
 30
0.0
 10
246.485833
 20
359.201861
 30
0.0
 10
251.486458
 20
359.201861
 30
0.0
 10
251.486458
 20
354.201236
 30
0.0
 10
246.485833
 20
354.201236
 30
0.0
 10
246.485833
 20
349.200611
 30
0.0
 10
251.486458
 20
349.200611
 30
0.0
 10
251.486458
 20
344.208806
 30
0.0
 10
246.485833
 20
344.208806
 30
0.0
 10
246.485833
 20
339.208181
 30
0.0
 10
251.486458
 20
339.208181
 30
0.0
 10
251.486458
 20
334.207556
 30
0.0
 10
246.485833
 20
334.207556
 30
0.0
 10
246.485833
 20
329.206931
 30
0.0
 10
251.486458
 20
329.206931
 30
0.0
 10
251.486458
 20
324.206306
 30
0.0
 10
246.485833
 20
324.206306
 30
0.0
 10
246.485833
 20
319.205681
 30
0.0
 10
251.486458
 20
319.205681
 30
0.0
 10
251.486458
 20
314.205056
 30
0.0
 10
246.485833
 20
314.205056
 30
0.0
 10
246.485833
 20
309.204431
 30
0.0
 10
251.486458
 20
309.204431
 30
0.0
 10
251.486458
 20
304.203806
 30
0.0
 10
246.485833
 20
304.203806
 30
0.0
 10
246.485833
 20
299.203181
 30
0.0
 10
251.486458
 20
299.203181
 30
0.0
 10
251.486458
 20
294.202556
 30
0.0
 10
246.485833
 20
294.202556
 30
0.0
 10
246.485833
 20
289.201931
 30
0.0
 10
251.486458
 20
289.201931
 30
0.0
 10
251.486458
 20
284.201306
 30
0.0
 10
246.485833
 20
284.201306
 30
0.0
 10
246.485833
 20
279.200681
 30
0.0
 10
251.486458
 20
279.200681
 30
0.0
 10
251.486458
 20
274.208875
 30
0.0
 10
246.485833
 20
274.208875
 30
0.0
 10
246.485833
 20
269.208250
 30
0.0
 10
251.486458
 20
269.208250
 30
0.0
 10
251.486458
 20
264.207625
 30
0.0
 10
246.485833
 20
264.207625
 30
0.0
 10
246.485833
 20
259.207000
 30
0.0
 10
251.486458
 20
259.207000
 30
0.0
 10
251.486458
 20
254.206375
 30
0.0
 10
246.485833
 20
254.206375
 30
0.0
 10
246.485833
 20
249.205750
 30
0.0
 10
251.486458
 20
249.205750
 30
0.0
 10
251.486458
 20
244.205125
 30
0.0
 10
246.485833
 20
244.205125
 30
0.0
 10
246.485833
 20
239.204500
 30
0.0
 10
251.486458
 20
239.204500
 30
0.0
 10
251.486458
 20
234.203875
 30
0.0
 10
246.485833
 20
234.203875
 30
0.0
 10
246.485833
 20
229.203250
 30
0.0
 10
251.486458
 20
229.203250
 30
0.0
 10
251.486458
 20
224.202625
 30
0.0
 10
246.485833
 20
224.202625
 30
0.0
 10
246.485833
 20
219.202000
 30
0.0
 10
251.486458
 20
219.202000
 30
0.0
 10
251.486458
 20
214.201375
 30
0.0
 10
246.485833
 20
214.201375
 30
0.0
 10
246.485833
 20
209.200750
 30
0.0
 10
251.486458
 20
209.200750
 30
0.0
 10
251.486458
 20
204.208944
 30
0.0
 10
246.485833
 20
204.208944
 30
0.0
 10
246.485833
 20
199.208319
 30
0.0
 10
251.486458
 20
199.208319
 30
0.0
 10
251.486458
 20
194.207694
 30
0.0
 10
246.485833
 20
194.207694
 30
0.0
 10
246.485833
 20
189.207069
 30
0.0
 10
251.486458
 20
189.207069
 30
0.0
 10
251.486458
 20
184.206444
 30
0.0
 10
246.485833
 20
184.206444
 30
0.0
 10
246.485833
 20
179.205819
 30
0.0
 10
251.486458
 20
179.205819
 30
0.0
 10
251.486458
 20
174.205194
 30
0.0
 10
246.485833
 20
174.205194
 30
0.0
 10
246.485833
 20
169.204569
 30
0.0
 10
251.486458
 20
169.204569
 30
0.0
 10
251.486458
 20
164.203944
 30
0.0
 10
246.485833
 20
164.203944
 30
0.0
 10
246.485833
 20
159.203319
 30
0.0
 10
251.486458
 20
159.203319
 30
0.0
 10
251.486458
 20
154.202694
 30
0.0
 10
246.485833
 20
154.202694
 30
0.0
 10
246.485833
 20
149.202069
 30
0.0
 10
251.486458
 20
149.202069
 30
0.0
 10
251.486458
 20
144.201444
 30
0.0
 10
246.485833
 20
144.201444
 30
0.0
 10
246.485833
 20
139.200819
 30
0.0
 10
251.486458
 20
139.200819
 30
0.0
 10
251.486458
 20
134.209014
 30
0.0
 10
246.485833
 20
134.209014
 30
0.0
 10
246.485833
 20
129.208389
 30
0.0
 10
251.486458
 20
129.208389
 30
0.0
 10
251.486458
 20
124.207764
 30
0.0
 10
246.485833
 20
124.207764
 30
0.0
 10
246.485833
 20
119.207139
 30
0.0
 10
251.486458
 20
119.207139
 30
0.0
 10
251.486458
 20
114.206514
 30
0.0
 10
246.485833
 20
114.206514
 30
0.0
 10
246.485833
 20
109.205889
 30
0.0
 10
251.486458
 20
109.205889
 30
0.0
 10
251.486458
 20
104.205264
 30
0.0
 10
246.485833
 20
104.205264
 30
0.0
 10
246.485833
 20
99.204639
 30
0.0
 10
251.486458
 20
99.204639
 30
0.0
 10
251.486458
 20
94.204014
 30
0.0
 10
246.485833
 20
94.204014
 30
0.0
 10
246.485833
 20
89.203389
 30
0.0
 10
251.486458
 20
89.203389
 30
0.0
 10
251.486458
 20
84.202764
 30
0.0
 10
246.485833
 20
84.202764
 30
0.0
 10
246.485833
 20
79.202139
 30
0.0
 10
251.486458
 20
79.202139
 30
0.0
 10
251.486458
 20
74.201514
 30
0.0
 10
246.485833
 20
74.201514
 30
0.0
 10
246.485833
 20
69.200889
 30
0.0
 10
251.486458
 20
69.200889
 30
0.0
 10
251.486458
 20
64.209083
 30
0.0
 10
246.485833
 20
64.209083
 30
0.0
 10
246.485833
 20
59.208458
 30
0.0
 10
251.486458
 20
59.208458
 30
0.0
 10
251.486458
 20
54.207833
 30
0.0
 10
246.485833
 20
54.207833
 30
0.0
 10
246.485833
 20
49.207208
 30
0.0
 10
251.486458
 20
49.207208
 30
0.0
 10
251.486458
 20
44.206583
 30
0.0
 10
246.485833
 20
44.206583
 30
0.0
 10
246.485833
 20
39.205958
 30
0.0
 10
251.486458
 20
39.205958
 30
0.0
 10
251.486458
 20
34.205333
 30
0.0
 10
246.485833
 20
34.205333
 30
0.0
 10
246.485833
 20
29.204708
 30
0.0
 10
251.486458
 20
29.204708
 30
0.0
 10
251.486458
 20
24.204083
 30
0.0
 10
246.485833
 20
24.204083
 30
0.0
 10
246.485833
 20
19.203458
 30
0.0
 10
246.485833
 20
14.202833
 30
0.0
 10
251.486458
 20
14.202833
 30
0.0
 10
251.486458
 20
19.203458
 30
0.0
 10
256.487083
 20
19.203458
 30
0.0
 10
256.487083
 20
14.202833
 30
0.0
 10
261.487708
 20
14.202833
 30
0.0
 10
261.487708
 20
19.203458
 30
0.0
 10
266.479514
 20
19.203458
 30
0.0
 10
266.479514
 20
14.202833
 30
0.0
 10
271.480139
 20
14.202833
 30
0.0
 10
271.480139
 20
19.203458
 30
0.0
 10
276.480764
 20
19.203458
 30
0.0
 10
276.480764
 20
14.202833
 30
0.0
 10
281.481389
 20
14.202833
 30
0.0
 10
281.481389
 20
19.203458
 30
0.0
 10
286.482028
 20
19.203458
 30
0.0
 10
286.482028
 20
14.202833
 30
0.0
 10
291.482639
 20
14.202833
 30
0.0
 10
291.482639
 20
19.203458
 30
0.0
 10
296.483250
 20
19.203458
 30
0.0
 10
296.483250
 20
14.202833
 30
0.0
 10
301.483889
 20
14.202833
 30
0.0
 10
301.483889
 20
19.203458
 30
0.0
 10
306.484528
 20
19.203458
 30
0.0
 10
306.484528
 20
14.202833
 30
0.0
 10
311.485139
 20
14.202833
 30
0.0
 10
311.485139
 20
19.203458
 30
0.0
 10
316.485750
 20
19.203458
 30
0.0
 10
316.485750
 20
14.202833
 30
0.0
 10
321.486389
 20
14.202833
 30
0.0
 10
321.486389
 20
19.203458
 30
0.0
 10
326.487028
 20
19.203458
 30
0.0
 10
326.487028
 20
29.204708
 30
0.0
 10
326.487028
 20
319.205681
 30
0.0
 10
321.486389
 20
319.205681
 30
0.0
 10
321.486389
 20
324.206306
 30
0.0
 10
326.487028
 20
324.206306
 30
0.0
 10
326.487028
 20
329.206931
 30
0.0
 10
321.486389
 20
329.206931
 30
0.0
 10
321.486389
 20
334.207556
 30
0.0
 10
326.487028
 20
334.207556
 30
0.0
 10
326.487028
 20
339.208181
 30
0.0
 10
321.486389
 20
339.208181
 30
0.0
 10
321.486389
 20
344.208806
 30
0.0
 10
326.487028
 20
344.208806
 30
0.0
 10
326.487028
 20
349.209431
 30
0.0
 10
321.486389
 20
349.209431
 30
0.0
 10
321.486389
 20
354.201236
 30
0.0
 10
326.487028
 20
354.201236
 30
0.0
 10
326.487028
 20
359.201861
 30
0.0
 10
321.486389
 20
359.201861
 30
0.0
 10
321.486389
 20
364.202486
 30
0.0
 10
326.487028
 20
364.202486
 30
0.0
 10
326.487028
 20
369.203111
 30
0.0
 10
321.486389
 20
369.203111
 30
0.0
 10
321.486389
 20
374.203736
 30
0.0
 10
326.487028
 20
374.203736
 30
0.0
 10
326.487028
 20
379.204361
 30
0.0
 10
321.486389
 20
379.204361
 30
0.0
 10
321.486389
 20
384.204986
 30
0.0
 10
316.485750
 20
384.204986
 30
0.0
 10
316.485750
 20
379.204361
 30
0.0
 10
311.485139
 20
379.204361
 30
0.0
 10
311.485139
 20
384.204986
 30
0.0
 10
306.484528
 20
384.204986
 30
0.0
 10
306.484528
 20
379.204361
 30
0.0
 10
301.483889
 20
379.204361
 30
0.0
 10
301.483889
 20
384.204986
 30
0.0
 10
296.483250
 20
384.204986
 30
0.0
 10
296.483250
 20
379.204361
 30
0.0
 10
291.482639
 20
379.204361
 30
0.0
 10
291.482639
 20
384.204986
 30
0.0
 10
286.482028
 20
384.204986
 30
0.0
 10
286.482028
 20
379.204361
 30
0.0
 10
281.481389
 20
379.204361
 30
0.0
 10
281.481389
 20
384.204986
 30
0.0
 10
276.480764
 20
384.204986
 30
0.0
 10
276.480764
 20
379.204361
 30
0.0
 10
271.480139
 20
379.204361
 30
0.0
 10
271.480139
 20
384.204986
 30
0.0
 10
266.479514
 20
384.204986
 30
0.0
 10
266.479514
 20
379.204361
 30
0.0
 10
261.487708
 20
379.204361
 30
0.0
 10
261.487708
 20
384.204986
 30
0.0
 10
256.487083
 20
384.204986
 30
0.0
 10
251.486458
 20
384.204986
 30
0.0
 10
246.485833
 20
384.204986
 30
0.0
 10
246.485833
 20
384.204986
 30
0.0
  0
LWPOLYLINE
  5
117
100
AcDbEntity
  8
Layer_1
 62
7
100
AcDbPolyline
 90
6
 70
0
 10
256.487083
 20
59.208458
 30
0.0
 10
261.487708
 20
59.208458
 30
0.0
 10
261.487708
 20
54.207833
 30
0.0
 10
256.487083
 20
54.207833
 30
0.0
 10
256.487083
 20
59.208458
 30
0.0
 10
256.487083
 20
59.208458
 30
0.0
  0
LWPOLYLINE
  5
118
100
AcDbEntity
  8
Layer_1
 62
7
100
AcDbPolyline
 90
6
 70
0
 10
266.479514
 20
59.208458
 30
0.0
 10
271.480139
 20
59.208458
 30
0.0
 10
271.480139
 20
54.207833
 30
0.0
 10
266.479514
 20
54.207833
 30
0.0
 10
266.479514
 20
59.208458
 30
0.0
 10
266.479514
 20
59.208458
 30
0.0
  0
LWPOLYLINE
  5
119
100
AcDbEntity
  8
Layer_1
 62
7
100
AcDbPolyline
 90
6
 70
0
 10
276.480764
 20
59.208458
 30
0.0
 10
281.481389
 20
59.208458
 30
0.0
 10
281.481389
 20
54.207833
 30
0.0
 10
276.480764
 20
54.207833
 30
0.0
 10
276.480764
 20
59.208458
 30
0.0
 10
276.480764
 20
59.208458
 30
0.0
  0
LWPOLYLINE
  5
11a
100
AcDbEntity
  8
Layer_1
 62
7
100
AcDbPolyline
 90
6
 70
0
 10
286.482028
 20
59.208458
 30
0.0
 10
291.482639
 20
59.208458
 30
0.0
 10
291.482639
 20
54.207833
 30
0.0
 10
286.482028
 20
54.207833
 30
0.0
 10
286.482028
 20
59.208458
 30
0.0
 10
286.482028
 20
59.208458
 30
0.0
  0
LWPOLYLINE
  5
11b
100
AcDbEntity
  8
Layer_1
 62
7
100
AcDbPolyline
 90
6
 70
0
 10
296.483250
 20
59.208458
 30
0.0
 10
301.483889
 20
59.208458
 30
0.0
 10
301.483889
 20
54.207833
 30
0.0
 10
296.483250
 20
54.207833
 30
0.0
 10
296.483250
 20
59.208458
 30
0.0
 10
296.483250
 20
59.208458
 30
0.0
  0
LWPOLYLINE
  5
11c
100
AcDbEntity
  8
Layer_1
 62
7
100
AcDbPolyline
 90
6
 70
0
 10
306.484528
 20
59.208458
 30
0.0
 10
311.485139
 20
59.208458
 30
0.0
 10
311.485139
 20
54.207833
 30
0.0
 10
306.484528
 20
54.207833
 30
0.0
 10
306.484528
 20
59.208458
 30
0.0
 10
306.484528
 20
59.208458
 30
0.0
  0
LWPOLYLINE
  5
11d
100
AcDbEntity
  8
Layer_1
 62
7
100
AcDbPolyline
 90
6
 70
0
 10
316.485750
 20
59.208458
 30
0.0
 10
321.486389
 20
59.208458
 30
0.0
 10
321.486389
 20
54.207833
 30
0.0
 10
316.485750
 20
54.207833
 30
0.0
 10
316.485750
 20
59.208458
 30
0.0
 10
316.485750
 20
59.208458
 30
0.0
  0
SPLINE
  5
11e
100
AcDbEntity
  8
Layer_1
 62
7
100
AcDbSpline
 70
8
 71
3
 72
8
 73
4
 74
0
 40
0
 40
0
 40
0
 40
0
 40
1
 40
1
 40
1
 40
1
 10
502.787694
 20
367.606792
 30
0.0
 10
504.950137
 20
367.606792
 30
0.0
 10
506.703528
 20
365.853362
 30
0.0
 10
506.703528
 20
363.690958
 30
0.0
  0
SPLINE
  5
11f
100
AcDbEntity
  8
Layer_1
 62
7
100
AcDbSpline
 70
8
 71
3
 72
8
 73
4
 74
0
 40
0
 40
0
 40
0
 40
0
 40
1
 40
1
 40
1
 40
1
 10
506.703528
 20
363.690958
 30
0.0
 10
506.703528
 20
361.528555
 30
0.0
 10
504.950137
 20
359.775125
 30
0.0
 10
502.787694
 20
359.775125
 30
0.0
  0
SPLINE
  5
120
100
AcDbEntity
  8
Layer_1
 62
7
100
AcDbSpline
 70
8
 71
3
 72
8
 73
4
 74
0
 40
0
 40
0
 40
0
 40
0
 40
1
 40
1
 40
1
 40
1
 10
502.787694
 20
359.775125
 30
0.0
 10
500.625110
 20
359.775125
 30
0.0
 10
498.871861
 20
361.528555
 30
0.0
 10
498.871861
 20
363.690958
 30
0.0
  0
SPLINE
  5
121
100
AcDbEntity
  8
Layer_1
 62
7
100
AcDbSpline
 70
8
 71
3
 72
8
 73
4
 74
0
 40
0
 40
0
 40
0
 40
0
 40
1
 40
1
 40
1
 40
1
 10
498.871861
 20
363.690958
 30
0.0
 10
498.871861
 20
365.853362
 30
0.0
 10
500.625110
 20
367.606792
 30
0.0
 10
502.787694
 20
367.606792
 30
0.0
  0
LWPOLYLINE
  5
122
100
AcDbEntity
  8
Layer_1
 62
7
100
AcDbPolyline
 90
270
 70
0
 10
483.587778
 20
379.116167
 30
0.0
 10
483.587778
 20
374.124361
 30
0.0
 10
483.587778
 20
374.115556
 30
0.0
 10
483.587778
 20
354.121875
 30
0.0
 10
488.588417
 20
354.121875
 30
0.0
 10
488.588417
 20
349.121250
 30
0.0
 10
483.587778
 20
349.121250
 30
0.0
 10
483.587778
 20
344.120625
 30
0.0
 10
488.588417
 20
344.120625
 30
0.0
 10
488.588417
 20
339.120000
 30
0.0
 10
483.587778
 20
339.120000
 30
0.0
 10
483.587778
 20
334.119375
 30
0.0
 10
488.588417
 20
334.119375
 30
0.0
 10
488.588417
 20
329.118750
 30
0.0
 10
483.587778
 20
329.118750
 30
0.0
 10
483.587778
 20
324.118125
 30
0.0
 10
488.588417
 20
324.118125
 30
0.0
 10
488.588417
 20
319.117500
 30
0.0
 10
483.587778
 20
319.117500
 30
0.0
 10
483.587778
 20
314.116875
 30
0.0
 10
488.588417
 20
314.116875
 30
0.0
 10
488.588417
 20
309.116250
 30
0.0
 10
483.587778
 20
309.116250
 30
0.0
 10
483.587778
 20
304.115625
 30
0.0
 10
488.588417
 20
304.115625
 30
0.0
 10
488.588417
 20
299.123820
 30
0.0
 10
483.587778
 20
299.123820
 30
0.0
 10
483.587778
 20
294.123195
 30
0.0
 10
488.588417
 20
294.123195
 30
0.0
 10
488.588417
 20
289.122570
 30
0.0
 10
483.587778
 20
289.122570
 30
0.0
 10
483.587778
 20
284.121945
 30
0.0
 10
488.588417
 20
284.121945
 30
0.0
 10
488.588417
 20
279.121320
 30
0.0
 10
483.587778
 20
279.121320
 30
0.0
 10
483.587778
 20
274.120695
 30
0.0
 10
488.588417
 20
274.120695
 30
0.0
 10
488.588417
 20
269.120070
 30
0.0
 10
483.587778
 20
269.120070
 30
0.0
 10
483.587778
 20
264.119445
 30
0.0
 10
488.588417
 20
264.119445
 30
0.0
 10
488.588417
 20
259.118820
 30
0.0
 10
483.587778
 20
259.118820
 30
0.0
 10
483.587778
 20
254.118195
 30
0.0
 10
488.588417
 20
254.118195
 30
0.0
 10
488.588417
 20
249.117570
 30
0.0
 10
483.587778
 20
249.117570
 30
0.0
 10
483.587778
 20
244.116945
 30
0.0
 10
488.588417
 20
244.116945
 30
0.0
 10
488.588417
 20
239.116320
 30
0.0
 10
483.587778
 20
239.116320
 30
0.0
 10
483.587778
 20
234.115695
 30
0.0
 10
488.588417
 20
234.115695
 30
0.0
 10
488.588417
 20
229.123889
 30
0.0
 10
483.587778
 20
229.123889
 30
0.0
 10
483.587778
 20
224.123264
 30
0.0
 10
488.588417
 20
224.123264
 30
0.0
 10
488.588417
 20
219.122639
 30
0.0
 10
483.587778
 20
219.122639
 30
0.0
 10
483.587778
 20
214.122014
 30
0.0
 10
488.588417
 20
214.122014
 30
0.0
 10
488.588417
 20
209.121389
 30
0.0
 10
483.587778
 20
209.121389
 30
0.0
 10
483.587778
 20
204.120764
 30
0.0
 10
488.588417
 20
204.120764
 30
0.0
 10
488.588417
 20
199.120139
 30
0.0
 10
483.587778
 20
199.120139
 30
0.0
 10
483.587778
 20
194.119514
 30
0.0
 10
488.588417
 20
194.119514
 30
0.0
 10
488.588417
 20
189.118889
 30
0.0
 10
483.587778
 20
189.118889
 30
0.0
 10
483.587778
 20
184.118264
 30
0.0
 10
488.588417
 20
184.118264
 30
0.0
 10
488.588417
 20
179.117639
 30
0.0
 10
483.587778
 20
179.117639
 30
0.0
 10
483.587778
 20
174.117014
 30
0.0
 10
488.588417
 20
174.117014
 30
0.0
 10
488.588417
 20
169.116389
 30
0.0
 10
483.587778
 20
169.116389
 30
0.0
 10
483.587778
 20
164.115764
 30
0.0
 10
488.588417
 20
164.115764
 30
0.0
 10
488.588417
 20
159.123959
 30
0.0
 10
483.587778
 20
159.123959
 30
0.0
 10
483.587778
 20
154.123334
 30
0.0
 10
488.588417
 20
154.123334
 30
0.0
 10
488.588417
 20
149.122709
 30
0.0
 10
483.587778
 20
149.122709
 30
0.0
 10
483.587778
 20
144.122084
 30
0.0
 10
488.588417
 20
144.122084
 30
0.0
 10
488.588417
 20
139.121459
 30
0.0
 10
483.587778
 20
139.121459
 30
0.0
 10
483.587778
 20
134.120834
 30
0.0
 10
488.588417
 20
134.120834
 30
0.0
 10
488.588417
 20
129.120209
 30
0.0
 10
483.587778
 20
129.120209
 30
0.0
 10
483.587778
 20
124.119584
 30
0.0
 10
488.588417
 20
124.119584
 30
0.0
 10
488.588417
 20
119.118959
 30
0.0
 10
483.587778
 20
119.118959
 30
0.0
 10
483.587778
 20
114.118334
 30
0.0
 10
488.588417
 20
114.118334
 30
0.0
 10
488.588417
 20
109.117709
 30
0.0
 10
483.587778
 20
109.117709
 30
0.0
 10
483.587778
 20
104.117084
 30
0.0
 10
488.588417
 20
104.117084
 30
0.0
 10
488.588417
 20
99.116459
 30
0.0
 10
483.587778
 20
99.116459
 30
0.0
 10
483.587778
 20
94.115834
 30
0.0
 10
488.588417
 20
94.115834
 30
0.0
 10
488.588417
 20
89.124028
 30
0.0
 10
483.587778
 20
89.124028
 30
0.0
 10
483.587778
 20
84.123403
 30
0.0
 10
488.588417
 20
84.123403
 30
0.0
 10
488.588417
 20
79.122778
 30
0.0
 10
483.587778
 20
79.122778
 30
0.0
 10
483.587778
 20
74.122153
 30
0.0
 10
488.588417
 20
74.122153
 30
0.0
 10
488.588417
 20
69.121528
 30
0.0
 10
483.587778
 20
69.121528
 30
0.0
 10
483.587778
 20
64.120903
 30
0.0
 10
488.588417
 20
64.120903
 30
0.0
 10
488.588417
 20
59.120278
 30
0.0
 10
483.587778
 20
59.120278
 30
0.0
 10
483.587778
 20
54.119653
 30
0.0
 10
488.588417
 20
54.119653
 30
0.0
 10
488.588417
 20
49.119028
 30
0.0
 10
483.587778
 20
49.119028
 30
0.0
 10
483.587778
 20
44.118403
 30
0.0
 10
488.588417
 20
44.118403
 30
0.0
 10
488.588417
 20
39.117778
 30
0.0
 10
483.587778
 20
39.117778
 30
0.0
 10
483.587778
 20
34.117153
 30
0.0
 10
488.588417
 20
34.117153
 30
0.0
 10
488.588417
 20
29.116528
 30
0.0
 10
483.587778
 20
29.116528
 30
0.0
 10
483.587778
 20
24.115903
 30
0.0
 10
488.588417
 20
24.115903
 30
0.0
 10
488.588417
 20
19.124097
 30
0.0
 10
483.587778
 20
19.124097
 30
0.0
 10
483.587778
 20
4.122208
 30
0.0
 10
488.588417
 20
4.122208
 30
0.0
 10
488.588417
 20
9.122847
 30
0.0
 10
493.589028
 20
9.122847
 30
0.0
 10
493.589028
 20
4.122208
 30
0.0
 10
498.589639
 20
4.122208
 30
0.0
 10
498.589639
 20
9.122847
 30
0.0
 10
503.590278
 20
9.122847
 30
0.0
 10
503.590278
 20
4.122208
 30
0.0
 10
508.590917
 20
4.122208
 30
0.0
 10
508.590917
 20
9.122847
 30
0.0
 10
513.591528
 20
9.122847
 30
0.0
 10
513.591528
 20
4.122208
 30
0.0
 10
518.592139
 20
4.122208
 30
0.0
 10
518.592139
 20
9.122847
 30
0.0
 10
523.592778
 20
9.122847
 30
0.0
 10
523.592778
 20
4.122208
 30
0.0
 10
528.593417
 20
4.122208
 30
0.0
 10
528.593417
 20
9.122847
 30
0.0
 10
533.594028
 20
9.122847
 30
0.0
 10
533.594028
 20
4.122208
 30
0.0
 10
538.594639
 20
4.122208
 30
0.0
 10
538.594639
 20
9.122847
 30
0.0
 10
543.595278
 20
9.122847
 30
0.0
 10
543.595278
 20
4.122208
 30
0.0
 10
548.587083
 20
4.122208
 30
0.0
 10
548.587083
 20
9.122847
 30
0.0
 10
553.587694
 20
9.122847
 30
0.0
 10
558.588333
 20
9.122847
 30
0.0
 10
558.588333
 20
14.123487
 30
0.0
 10
563.588972
 20
14.123487
 30
0.0
 10
563.588972
 20
19.124097
 30
0.0
 10
558.588333
 20
19.124097
 30
0.0
 10
558.588333
 20
24.115903
 30
0.0
 10
563.588972
 20
24.115903
 30
0.0
 10
563.588972
 20
29.116528
 30
0.0
 10
558.588333
 20
29.116528
 30
0.0
 10
558.588333
 20
34.117153
 30
0.0
 10
563.588972
 20
34.117153
 30
0.0
 10
563.588972
 20
39.117778
 30
0.0
 10
558.588333
 20
39.117778
 30
0.0
 10
558.588333
 20
44.118403
 30
0.0
 10
563.588972
 20
44.118403
 30
0.0
 10
563.588972
 20
49.119028
 30
0.0
 10
558.588333
 20
49.119028
 30
0.0
 10
558.588333
 20
54.119653
 30
0.0
 10
563.588972
 20
54.119653
 30
0.0
 10
563.588972
 20
59.120278
 30
0.0
 10
558.588333
 20
59.120278
 30
0.0
 10
558.588333
 20
64.120903
 30
0.0
 10
563.588972
 20
64.120903
 30
0.0
 10
563.588972
 20
69.121528
 30
0.0
 10
558.588333
 20
69.121528
 30
0.0
 10
558.588333
 20
74.122153
 30
0.0
 10
563.588972
 20
74.122153
 30
0.0
 10
563.588972
 20
79.122778
 30
0.0
 10
558.588333
 20
79.122778
 30
0.0
 10
558.588333
 20
84.123403
 30
0.0
 10
563.588972
 20
84.123403
 30
0.0
 10
563.588972
 20
89.124028
 30
0.0
 10
558.588333
 20
89.124028
 30
0.0
 10
508.582083
 20
89.124028
 30
0.0
 10
508.582083
 20
259.118820
 30
0.0
 10
508.582083
 20
279.121320
 30
0.0
 10
508.582083
 20
284.121945
 30
0.0
 10
508.582083
 20
289.122570
 30
0.0
 10
508.582083
 20
294.123195
 30
0.0
 10
508.582083
 20
314.116875
 30
0.0
 10
563.588972
 20
314.116875
 30
0.0
 10
563.588972
 20
319.117500
 30
0.0
 10
558.588333
 20
319.117500
 30
0.0
 10
558.588333
 20
324.118125
 30
0.0
 10
563.588972
 20
324.118125
 30
0.0
 10
563.588972
 20
329.118750
 30
0.0
 10
558.588333
 20
329.118750
 30
0.0
 10
558.588333
 20
334.119375
 30
0.0
 10
563.588972
 20
334.119375
 30
0.0
 10
563.588972
 20
339.120000
 30
0.0
 10
558.588333
 20
339.120000
 30
0.0
 10
558.588333
 20
344.120625
 30
0.0
 10
563.588972
 20
344.120625
 30
0.0
 10
563.588972
 20
349.121250
 30
0.0
 10
558.588333
 20
349.121250
 30
0.0
 10
558.588333
 20
354.121875
 30
0.0
 10
563.588972
 20
354.121875
 30
0.0
 10
563.588972
 20
359.122500
 30
0.0
 10
558.588333
 20
359.122500
 30
0.0
 10
558.588333
 20
364.123125
 30
0.0
 10
563.588972
 20
364.123125
 30
0.0
 10
563.588972
 20
369.123750
 30
0.0
 10
558.588333
 20
369.123750
 30
0.0
 10
558.588333
 20
374.115556
 30
0.0
 10
548.587083
 20
374.115556
 30
0.0
 10
548.587083
 20
374.124361
 30
0.0
 10
548.587083
 20
379.116167
 30
0.0
 10
543.586472
 20
379.116167
 30
0.0
 10
543.586472
 20
374.115542
 30
0.0
 10
538.594639
 20
374.115542
 30
0.0
 10
538.594639
 20
374.124347
 30
0.0
 10
538.585890
 20
374.124347
 30
0.0
 10
538.585890
 20
379.116153
 30
0.0
 10
533.585251
 20
379.116153
 30
0.0
 10
533.585251
 20
374.115528
 30
0.0
 10
528.593473
 20
374.115528
 30
0.0
 10
528.593473
 20
374.124333
 30
0.0
 10
528.584724
 20
374.124333
 30
0.0
 10
528.584724
 20
379.116138
 30
0.0
 10
523.584114
 20
379.116138
 30
0.0
 10
523.584114
 20
374.115513
 30
0.0
 10
518.592280
 20
374.115513
 30
0.0
 10
518.592280
 20
374.124319
 30
0.0
 10
518.583531
 20
374.124319
 30
0.0
 10
518.583531
 20
379.116124
 30
0.0
 10
513.582892
 20
379.116124
 30
0.0
 10
513.582892
 20
374.115499
 30
0.0
 10
508.591114
 20
374.115499
 30
0.0
 10
508.591114
 20
374.124305
 30
0.0
 10
508.582366
 20
374.124305
 30
0.0
 10
508.582366
 20
379.116110
 30
0.0
 10
503.590560
 20
379.116110
 30
0.0
 10
503.590560
 20
374.124305
 30
0.0
 10
503.590560
 20
374.115499
 30
0.0
 10
498.589921
 20
374.115499
 30
0.0
 10
498.589921
 20
379.116124
 30
0.0
 10
493.589310
 20
379.116124
 30
0.0
 10
493.589310
 20
374.115499
 30
0.0
 10
488.588699
 20
374.115499
 30
0.0
 10
488.588699
 20
374.124305
 30
0.0
 10
488.588699
 20
379.116110
 30
0.0
 10
483.588060
 20
379.116110
 30
0.0
 10
483.587778
 20
379.116167
 30
0.0
  0
SPLINE
  5
123
100
AcDbEntity
  8
Layer_1
 62
7
100
AcDbSpline
 70
8
 71
3
 72
8
 73
4
 74
0
 40
0
 40
0
 40
0
 40
0
 40
1
 40
1
 40
1
 40
1
 10
498.554361
 20
345.611097
 30
0.0
 10
499.382570
 20
345.611097
 30
0.0
 10
500.053695
 20
344.940227
 30
0.0
 10
500.053695
 20
344.111792
 30
0.0
  0
SPLINE
  5
124
100
AcDbEntity
  8
Layer_1
 62
7
100
AcDbSpline
 70
8
 71
3
 72
8
 73
4
 74
0
 40
0
 40
0
 40
0
 40
0
 40
1
 40
1
 40
1
 40
1
 10
500.053695
 20
344.111792
 30
0.0
 10
500.053695
 20
343.283357
 30
0.0
 10
499.382570
 20
342.612486
 30
0.0
 10
498.554361
 20
342.612486
 30
0.0
  0
SPLINE
  5
125
100
AcDbEntity
  8
Layer_1
 62
7
100
AcDbSpline
 70
8
 71
3
 72
8
 73
4
 74
0
 40
0
 40
0
 40
0
 40
0
 40
1
 40
1
 40
1
 40
1
 10
498.554361
 20
342.612486
 30
0.0
 10
497.725869
 20
342.612486
 30
0.0
 10
497.055084
 20
343.283357
 30
0.0
 10
497.055084
 20
344.111792
 30
0.0
  0
SPLINE
  5
126
100
AcDbEntity
  8
Layer_1
 62
7
100
AcDbSpline
 70
8
 71
3
 72
8
 73
4
 74
0
 40
0
 40
0
 40
0
 40
0
 40
1
 40
1
 40
1
 40
1
 10
497.055084
 20
344.111792
 30
0.0
 10
497.055084
 20
344.940227
 30
0.0
 10
497.725869
 20
345.611097
 30
0.0
 10
498.554361
 20
345.611097
 30
0.0
  0
LWPOLYLINE
  5
127
100
AcDbEntity
  8
Layer_1
 62
7
100
AcDbPolyline
 90
2
 70
0
 10
502.787694
 20
367.606792
 30
0.0
 10
502.787694
 20
367.606792
 30
0.0
  0
SPLINE
  5
128
100
AcDbEntity
  8
Layer_1
 62
7
100
AcDbSpline
 70
8
 71
3
 72
8
 73
4
 74
0
 40
0
 40
0
 40
0
 40
0
 40
1
 40
1
 40
1
 40
1
 10
498.554361
 20
325.626236
 30
0.0
 10
499.382570
 20
325.626236
 30
0.0
 10
500.053695
 20
324.955366
 30
0.0
 10
500.053695
 20
324.126931
 30
0.0
  0
SPLINE
  5
129
100
AcDbEntity
  8
Layer_1
 62
7
100
AcDbSpline
 70
8
 71
3
 72
8
 73
4
 74
0
 40
0
 40
0
 40
0
 40
0
 40
1
 40
1
 40
1
 40
1
 10
500.053695
 20
324.126931
 30
0.0
 10
500.053695
 20
323.298495
 30
0.0
 10
499.382570
 20
322.627625
 30
0.0
 10
498.554361
 20
322.627625
 30
0.0
  0
SPLINE
  5
12a
100
AcDbEntity
  8
Layer_1
 62
7
100
AcDbSpline
 70
8
 71
3
 72
8
 73
4
 74
0
 40
0
 40
0
 40
0
 40
0
 40
1
 40
1
 40
1
 40
1
 10
498.554361
 20
322.627625
 30
0.0
 10
497.725869
 20
322.627625
 30
0.0
 10
497.055084
 20
323.298495
 30
0.0
 10
497.055084
 20
324.126931
 30
0.0
  0
SPLINE
  5
12b
100
AcDbEntity
  8
Layer_1
 62
7
100
AcDbSpline
 70
8
 71
3
 72
8
 73
4
 74
0
 40
0
 40
0
 40
0
 40
0
 40
1
 40
1
 40
1
 40
1
 10
497.055084
 20
324.126931
 30
0.0
 10
497.055084
 20
324.955366
 30
0.0
 10
497.725869
 20
325.626236
 30
0.0
 10
498.554361
 20
325.626236
 30
0.0
  0
LWPOLYLINE
  5
12c
100
AcDbEntity
  8
Layer_1
 62
7
100
AcDbPolyline
 90
2
 70
0
 10
498.554361
 20
345.611097
 30
0.0
 10
498.554361
 20
345.611097
 30
0.0
  0
SPLINE
  5
12d
100
AcDbEntity
  8
Layer_1
 62
7
100
AcDbSpline
 70
8
 71
3
 72
8
 73
4
 74
0
 40
0
 40
0
 40
0
 40
0
 40
1
 40
1
 40
1
 40
1
 10
498.554361
 20
60.628389
 30
0.0
 10
499.382570
 20
60.628389
 30
0.0
 10
500.053695
 20
59.957490
 30
0.0
 10
500.053695
 20
59.129083
 30
0.0
  0
SPLINE
  5
12e
100
AcDbEntity
  8
Layer_1
 62
7
100
AcDbSpline
 70
8
 71
3
 72
8
 73
4
 74
0
 40
0
 40
0
 40
0
 40
0
 40
1
 40
1
 40
1
 40
1
 10
500.053695
 20
59.129083
 30
0.0
 10
500.053695
 20
58.300648
 30
0.0
 10
499.382570
 20
57.629778
 30
0.0
 10
498.554361
 20
57.629778
 30
0.0
  0
SPLINE
  5
12f
100
AcDbEntity
  8
Layer_1
 62
7
100
AcDbSpline
 70
8
 71
3
 72
8
 73
4
 74
0
 40
0
 40
0
 40
0
 40
0
 40
1
 40
1
 40
1
 40
1
 10
498.554361
 20
57.629778
 30
0.0
 10
497.725869
 20
57.629778
 30
0.0
 10
497.055084
 20
58.300648
 30
0.0
 10
497.055084
 20
59.129083
 30
0.0
  0
SPLINE
  5
130
100
AcDbEntity
  8
Layer_1
 62
7
100
AcDbSpline
 70
8
 71
3
 72
8
 73
4
 74
0
 40
0
 40
0
 40
0
 40
0
 40
1
 40
1
 40
1
 40
1
 10
497.055084
 20
59.129083
 30
0.0
 10
497.055084
 20
59.957490
 30
0.0
 10
497.725869
 20
60.628389
 30
0.0
 10
498.554361
 20
60.628389
 30
0.0
  0
LWPOLYLINE
  5
131
100
AcDbEntity
  8
Layer_1
 62
7
100
AcDbPolyline
 90
2
 70
0
 10
498.554361
 20
325.626236
 30
0.0
 10
498.554361
 20
325.626236
 30
0.0
  0
SPLINE
  5
132
100
AcDbEntity
  8
Layer_1
 62
7
100
AcDbSpline
 70
8
 71
3
 72
8
 73
4
 74
0
 40
0
 40
0
 40
0
 40
0
 40
1
 40
1
 40
1
 40
1
 10
498.554361
 20
40.625889
 30
0.0
 10
499.382570
 20
40.625889
 30
0.0
 10
500.053695
 20
39.954990
 30
0.0
 10
500.053695
 20
39.126583
 30
0.0
  0
SPLINE
  5
133
100
AcDbEntity
  8
Layer_1
 62
7
100
AcDbSpline
 70
8
 71
3
 72
8
 73
4
 74
0
 40
0
 40
0
 40
0
 40
0
 40
1
 40
1
 40
1
 40
1
 10
500.053695
 20
39.126583
 30
0.0
 10
500.053695
 20
38.298148
 30
0.0
 10
499.382570
 20
37.627278
 30
0.0
 10
498.554361
 20
37.627278
 30
0.0
  0
SPLINE
  5
134
100
AcDbEntity
  8
Layer_1
 62
7
100
AcDbSpline
 70
8
 71
3
 72
8
 73
4
 74
0
 40
0
 40
0
 40
0
 40
0
 40
1
 40
1
 40
1
 40
1
 10
498.554361
 20
37.627278
 30
0.0
 10
497.725869
 20
37.627278
 30
0.0
 10
497.055084
 20
38.298148
 30
0.0
 10
497.055084
 20
39.126583
 30
0.0
  0
SPLINE
  5
135
100
AcDbEntity
  8
Layer_1
 62
7
100
AcDbSpline
 70
8
 71
3
 72
8
 73
4
 74
0
 40
0
 40
0
 40
0
 40
0
 40
1
 40
1
 40
1
 40
1
 10
497.055084
 20
39.126583
 30
0.0
 10
497.055084
 20
39.954990
 30
0.0
 10
497.725869
 20
40.625889
 30
0.0
 10
498.554361
 20
40.625889
 30
0.0
  0
LWPOLYLINE
  5
136
100
AcDbEntity
  8
Layer_1
 62
7
100
AcDbPolyline
 90
2
 70
0
 10
498.554361
 20
60.628389
 30
0.0
 10
498.554361
 20
60.628389
 30
0.0
  0
SPLINE
  5
137
100
AcDbEntity
  8
Layer_1
 62
7
100
AcDbSpline
 70
8
 71
3
 72
8
 73
4
 74
0
 40
0
 40
0
 40
0
 40
0
 40
1
 40
1
 40
1
 40
1
 10
502.699528
 20
24.786167
 30
0.0
 10
504.862028
 20
24.786167
 30
0.0
 10
506.615361
 20
23.032720
 30
0.0
 10
506.615361
 20
20.870333
 30
0.0
  0
SPLINE
  5
138
100
AcDbEntity
  8
Layer_1
 62
7
100
AcDbSpline
 70
8
 71
3
 72
8
 73
4
 74
0
 40
0
 40
0
 40
0
 40
0
 40
1
 40
1
 40
1
 40
1
 10
506.615361
 20
20.870333
 30
0.0
 10
506.615361
 20
18.707918
 30
0.0
 10
504.862028
 20
16.954500
 30
0.0
 10
502.699528
 20
16.954500
 30
0.0
  0
SPLINE
  5
139
100
AcDbEntity
  8
Layer_1
 62
7
100
AcDbSpline
 70
8
 71
3
 72
8
 73
4
 74
0
 40
0
 40
0
 40
0
 40
0
 40
1
 40
1
 40
1
 40
1
 10
502.699528
 20
16.954500
 30
0.0
 10
500.537085
 20
16.954500
 30
0.0
 10
498.783695
 20
18.707918
 30
0.0
 10
498.783695
 20
20.870333
 30
0.0
  0
SPLINE
  5
13a
100
AcDbEntity
  8
Layer_1
 62
7
100
AcDbSpline
 70
8
 71
3
 72
8
 73
4
 74
0
 40
0
 40
0
 40
0
 40
0
 40
1
 40
1
 40
1
 40
1
 10
498.783695
 20
20.870333
 30
0.0
 10
498.783695
 20
23.032720
 30
0.0
 10
500.537085
 20
24.786167
 30
0.0
 10
502.699528
 20
24.786167
 30
0.0
  0
LWPOLYLINE
  5
13b
100
AcDbEntity
  8
Layer_1
 62
7
100
AcDbPolyline
 90
2
 70
0
 10
498.554361
 20
40.625889
 30
0.0
 10
498.554361
 20
40.625889
 30
0.0
  0
LWPOLYLINE
  5
13c
100
AcDbEntity
  8
Layer_1
 62
7
100
AcDbPolyline
 90
2
 70
0
 10
502.699528
 20
24.786167
 30
0.0
 10
502.699528
 20
24.786167
 30
0.0
  0
LWPOLYLINE
  5
13d
100
AcDbEntity
  8
Layer_1
 62
7
100
AcDbPolyline
 90
192
 70
0
 10
420.696305
 20
385.739569
 30
0.0
 10
420.696305
 20
380.738944
 30
0.0
 10
415.695694
 20
380.738944
 30
0.0
 10
415.695694
 20
370.737694
 30
0.0
 10
410.695084
 20
370.737694
 30
0.0
 10
410.695084
 20
365.745889
 30
0.0
 10
415.695694
 20
365.745889
 30
0.0
 10
415.695694
 20
360.745264
 30
0.0
 10
410.695084
 20
360.745264
 30
0.0
 10
410.695084
 20
355.744639
 30
0.0
 10
415.695694
 20
355.744639
 30
0.0
 10
415.695694
 20
350.744014
 30
0.0
 10
410.695084
 20
350.744014
 30
0.0
 10
410.695084
 20
345.743389
 30
0.0
 10
415.695694
 20
345.743389
 30
0.0
 10
415.695694
 20
340.742764
 30
0.0
 10
410.695084
 20
340.742764
 30
0.0
 10
410.695084
 20
335.742139
 30
0.0
 10
415.695694
 20
335.742139
 30
0.0
 10
415.695694
 20
330.741514
 30
0.0
 10
410.695084
 20
330.741514
 30
0.0
 10
410.695084
 20
325.740889
 30
0.0
 10
415.695694
 20
325.740889
 30
0.0
 10
415.695694
 20
320.740264
 30
0.0
 10
410.695084
 20
320.740264
 30
0.0
 10
410.695084
 20
315.739639
 30
0.0
 10
415.695694
 20
315.739639
 30
0.0
 10
415.695694
 20
310.739014
 30
0.0
 10
410.695084
 20
310.739014
 30
0.0
 10
410.695084
 20
305.738389
 30
0.0
 10
415.695694
 20
305.738389
 30
0.0
 10
415.695694
 20
300.737764
 30
0.0
 10
410.695084
 20
300.737764
 30
0.0
 10
410.695084
 20
295.745958
 30
0.0
 10
415.695694
 20
295.745958
 30
0.0
 10
415.695694
 20
290.745333
 30
0.0
 10
410.695084
 20
290.745333
 30
0.0
 10
410.695084
 20
285.744708
 30
0.0
 10
415.695694
 20
285.744708
 30
0.0
 10
415.695694
 20
280.744083
 30
0.0
 10
410.695084
 20
280.744083
 30
0.0
 10
410.695084
 20
275.743458
 30
0.0
 10
415.695694
 20
275.743458
 30
0.0
 10
415.695694
 20
270.742833
 30
0.0
 10
410.695084
 20
270.742833
 30
0.0
 10
410.695084
 20
265.742208
 30
0.0
 10
415.695694
 20
265.742208
 30
0.0
 10
415.695694
 20
260.741583
 30
0.0
 10
410.695084
 20
260.741583
 30
0.0
 10
410.695084
 20
255.740958
 30
0.0
 10
415.695694
 20
255.740958
 30
0.0
 10
415.695694
 20
250.740333
 30
0.0
 10
410.695084
 20
250.740333
 30
0.0
 10
410.695084
 20
245.739708
 30
0.0
 10
415.695694
 20
245.739708
 30
0.0
 10
415.695694
 20
240.739083
 30
0.0
 10
410.695084
 20
240.739083
 30
0.0
 10
410.695084
 20
235.738458
 30
0.0
 10
415.695694
 20
235.738458
 30
0.0
 10
415.695694
 20
230.737833
 30
0.0
 10
410.695084
 20
230.737833
 30
0.0
 10
410.695084
 20
225.746028
 30
0.0
 10
415.695694
 20
225.746028
 30
0.0
 10
415.695694
 20
220.745403
 30
0.0
 10
410.695084
 20
220.745403
 30
0.0
 10
410.695084
 20
215.744778
 30
0.0
 10
415.695694
 20
215.744778
 30
0.0
 10
415.695694
 20
210.744153
 30
0.0
 10
410.695084
 20
210.744153
 30
0.0
 10
410.695084
 20
205.743528
 30
0.0
 10
415.695694
 20
205.743528
 30
0.0
 10
415.695694
 20
200.742903
 30
0.0
 10
410.695084
 20
200.742903
 30
0.0
 10
410.695084
 20
195.742278
 30
0.0
 10
415.695694
 20
195.742278
 30
0.0
 10
415.695694
 20
190.741653
 30
0.0
 10
410.695084
 20
190.741653
 30
0.0
 10
410.695084
 20
185.741028
 30
0.0
 10
415.695694
 20
185.741028
 30
0.0
 10
415.695694
 20
180.740403
 30
0.0
 10
410.695084
 20
180.740403
 30
0.0
 10
410.695084
 20
175.739778
 30
0.0
 10
415.695694
 20
175.739778
 30
0.0
 10
415.695694
 20
170.739153
 30
0.0
 10
410.695084
 20
170.739153
 30
0.0
 10
410.695084
 20
165.738528
 30
0.0
 10
415.695694
 20
165.738528
 30
0.0
 10
415.695694
 20
160.737903
 30
0.0
 10
410.695084
 20
160.737903
 30
0.0
 10
410.695084
 20
155.746097
 30
0.0
 10
415.695694
 20
155.746097
 30
0.0
 10
415.695694
 20
150.745472
 30
0.0
 10
410.695084
 20
150.745472
 30
0.0
 10
410.695084
 20
145.744847
 30
0.0
 10
415.695694
 20
145.744847
 30
0.0
 10
415.695694
 20
140.744222
 30
0.0
 10
410.695084
 20
140.744222
 30
0.0
 10
410.695084
 20
135.743597
 30
0.0
 10
415.695694
 20
135.743597
 30
0.0
 10
415.695694
 20
130.742972
 30
0.0
 10
410.695084
 20
130.742972
 30
0.0
 10
410.695084
 20
125.742347
 30
0.0
 10
415.695694
 20
125.742347
 30
0.0
 10
415.695694
 20
120.741722
 30
0.0
 10
410.695084
 20
120.741722
 30
0.0
 10
410.695084
 20
115.741097
 30
0.0
 10
415.695694
 20
115.741097
 30
0.0
 10
415.695694
 20
110.740472
 30
0.0
 10
410.695084
 20
110.740472
 30
0.0
 10
410.695084
 20
105.739847
 30
0.0
 10
415.695694
 20
105.739847
 30
0.0
 10
415.695694
 20
100.739222
 30
0.0
 10
410.695084
 20
100.739222
 30
0.0
 10
410.695084
 20
95.738597
 30
0.0
 10
415.695694
 20
95.738597
 30
0.0
 10
415.695694
 20
90.737972
 30
0.0
 10
410.695084
 20
90.737972
 30
0.0
 10
410.695084
 20
85.746167
 30
0.0
 10
415.695694
 20
85.746167
 30
0.0
 10
415.695694
 20
80.745542
 30
0.0
 10
410.695084
 20
80.745542
 30
0.0
 10
410.695084
 20
75.744917
 30
0.0
 10
415.695694
 20
75.744917
 30
0.0
 10
415.695694
 20
70.744292
 30
0.0
 10
410.695084
 20
70.744292
 30
0.0
 10
410.695084
 20
65.743667
 30
0.0
 10
415.695694
 20
65.743667
 30
0.0
 10
415.695694
 20
60.743042
 30
0.0
 10
410.695084
 20
60.743042
 30
0.0
 10
410.695084
 20
55.742417
 30
0.0
 10
415.695694
 20
55.742417
 30
0.0
 10
415.695694
 20
50.741792
 30
0.0
 10
410.695084
 20
50.741792
 30
0.0
 10
410.695084
 20
45.741167
 30
0.0
 10
415.695694
 20
45.741167
 30
0.0
 10
415.695694
 20
40.740542
 30
0.0
 10
410.695084
 20
40.740542
 30
0.0
 10
410.695084
 20
35.739917
 30
0.0
 10
415.695694
 20
35.739917
 30
0.0
 10
415.695694
 20
20.738042
 30
0.0
 10
415.695694
 20
15.746236
 30
0.0
 10
420.696305
 20
15.746236
 30
0.0
 10
420.696305
 20
10.745611
 30
0.0
 10
425.696944
 20
10.745611
 30
0.0
 10
425.696944
 20
15.746236
 30
0.0
 10
430.697584
 20
15.746236
 30
0.0
 10
430.697584
 20
10.745611
 30
0.0
 10
435.698194
 20
10.745611
 30
0.0
 10
435.698194
 20
15.746236
 30
0.0
 10
440.698805
 20
15.746236
 30
0.0
 10
440.698805
 20
10.745611
 30
0.0
 10
445.699444
 20
10.745611
 30
0.0
 10
445.699444
 20
15.746236
 30
0.0
 10
450.700084
 20
15.746236
 30
0.0
 10
450.700084
 20
10.745611
 30
0.0
 10
455.691861
 20
10.745611
 30
0.0
 10
455.691861
 20
15.746236
 30
0.0
 10
460.692500
 20
15.746236
 30
0.0
 10
460.692500
 20
10.745611
 30
0.0
 10
465.693139
 20
10.745611
 30
0.0
 10
465.693139
 20
15.746236
 30
0.0
 10
470.693750
 20
15.746236
 30
0.0
 10
470.693750
 20
10.745611
 30
0.0
 10
475.694361
 20
10.745611
 30
0.0
 10
475.694361
 20
15.746236
 30
0.0
 10
480.695000
 20
15.746236
 30
0.0
 10
480.695000
 20
20.738042
 30
0.0
 10
480.695000
 20
380.738944
 30
0.0
 10
475.694361
 20
380.738944
 30
0.0
 10
475.694361
 20
385.739569
 30
0.0
 10
470.693750
 20
385.739569
 30
0.0
 10
470.693750
 20
380.738944
 30
0.0
 10
465.693139
 20
380.738944
 30
0.0
 10
465.693139
 20
385.739569
 30
0.0
 10
460.692500
 20
385.739569
 30
0.0
 10
460.692500
 20
380.738944
 30
0.0
 10
455.691861
 20
380.738944
 30
0.0
 10
455.691861
 20
385.739569
 30
0.0
 10
450.700084
 20
385.739569
 30
0.0
 10
450.700084
 20
380.738944
 30
0.0
 10
445.699444
 20
380.738944
 30
0.0
 10
445.699444
 20
385.739569
 30
0.0
 10
440.698805
 20
385.739569
 30
0.0
 10
440.698805
 20
380.738944
 30
0.0
 10
435.698194
 20
380.738944
 30
0.0
 10
435.698194
 20
385.739569
 30
0.0
 10
430.697584
 20
385.739569
 30
0.0
 10
430.697584
 20
380.738944
 30
0.0
 10
425.696944
 20
380.738944
 30
0.0
 10
425.696944
 20
385.739569
 30
0.0
 10
420.696305
 20
385.739569
 30
0.0
 10
420.696305
 20
385.739569
 30
0.0
  0
LWPOLYLINE
  5
13e
100
AcDbEntity
  8
Layer_1
 62
7
100
AcDbPolyline
 90
212
 70
0
 10
18.714861
 20
383.517069
 30
0.0
 10
18.714861
 20
378.516444
 30
0.0
 10
13.714236
 20
378.516444
 30
0.0
 10
13.714236
 20
373.515819
 30
0.0
 10
8.713611
 20
373.515819
 30
0.0
 10
8.713611
 20
368.515194
 30
0.0
 10
13.714236
 20
368.515194
 30
0.0
 10
13.714236
 20
363.514569
 30
0.0
 10
8.713611
 20
363.514569
 30
0.0
 10
8.713611
 20
358.513944
 30
0.0
 10
13.714236
 20
358.513944
 30
0.0
 10
13.714236
 20
353.513319
 30
0.0
 10
8.713611
 20
353.513319
 30
0.0
 10
8.713611
 20
348.512694
 30
0.0
 10
13.714236
 20
348.512694
 30
0.0
 10
13.714236
 20
343.520889
 30
0.0
 10
13.714236
 20
343.512084
 30
0.0
 10
8.713611
 20
343.512084
 30
0.0
 10
8.713611
 20
338.520278
 30
0.0
 10
13.714236
 20
338.520278
 30
0.0
 10
13.714236
 20
333.519653
 30
0.0
 10
8.713611
 20
333.519653
 30
0.0
 10
8.713611
 20
328.519028
 30
0.0
 10
13.714236
 20
328.519028
 30
0.0
 10
13.714236
 20
323.518403
 30
0.0
 10
8.713611
 20
323.518403
 30
0.0
 10
8.713611
 20
318.517778
 30
0.0
 10
13.714236
 20
318.517778
 30
0.0
 10
13.714236
 20
313.517153
 30
0.0
 10
8.713611
 20
313.517153
 30
0.0
 10
8.713611
 20
308.516528
 30
0.0
 10
13.714236
 20
308.516528
 30
0.0
 10
13.714236
 20
303.515903
 30
0.0
 10
8.713611
 20
303.515903
 30
0.0
 10
8.713611
 20
298.515278
 30
0.0
 10
13.714236
 20
298.515278
 30
0.0
 10
13.714236
 20
293.514653
 30
0.0
 10
8.713611
 20
293.514653
 30
0.0
 10
8.713611
 20
288.514028
 30
0.0
 10
13.714236
 20
288.514028
 30
0.0
 10
13.714236
 20
283.513403
 30
0.0
 10
8.713611
 20
283.513403
 30
0.0
 10
8.713611
 20
278.512778
 30
0.0
 10
13.714236
 20
278.512778
 30
0.0
 10
13.714236
 20
273.512153
 30
0.0
 10
8.713611
 20
273.512153
 30
0.0
 10
8.713611
 20
268.511528
 30
0.0
 10
13.714236
 20
268.511528
 30
0.0
 10
13.714236
 20
263.519722
 30
0.0
 10
8.713611
 20
263.519722
 30
0.0
 10
8.713611
 20
258.519097
 30
0.0
 10
13.714236
 20
258.519097
 30
0.0
 10
13.714236
 20
253.518472
 30
0.0
 10
8.713611
 20
253.518472
 30
0.0
 10
8.713611
 20
248.517847
 30
0.0
 10
13.714236
 20
248.517847
 30
0.0
 10
13.714236
 20
243.517222
 30
0.0
 10
8.713611
 20
243.517222
 30
0.0
 10
8.713611
 20
238.516597
 30
0.0
 10
13.714236
 20
238.516597
 30
0.0
 10
13.714236
 20
233.515972
 30
0.0
 10
8.713611
 20
233.515972
 30
0.0
 10
8.713611
 20
228.515347
 30
0.0
 10
13.714236
 20
228.515347
 30
0.0
 10
13.714236
 20
223.514722
 30
0.0
 10
8.713611
 20
223.514722
 30
0.0
 10
8.713611
 20
218.514097
 30
0.0
 10
13.714236
 20
218.514097
 30
0.0
 10
13.714236
 20
213.513472
 30
0.0
 10
8.713611
 20
213.513472
 30
0.0
 10
8.713611
 20
208.512847
 30
0.0
 10
13.714236
 20
208.512847
 30
0.0
 10
13.714236
 20
203.512222
 30
0.0
 10
8.713611
 20
203.512222
 30
0.0
 10
8.713611
 20
198.511597
 30
0.0
 10
13.714236
 20
198.511597
 30
0.0
 10
13.714236
 20
193.519792
 30
0.0
 10
8.713611
 20
193.519792
 30
0.0
 10
8.713611
 20
188.519167
 30
0.0
 10
13.714236
 20
188.519167
 30
0.0
 10
13.714236
 20
183.518542
 30
0.0
 10
8.713611
 20
183.518542
 30
0.0
 10
8.713611
 20
178.517917
 30
0.0
 10
13.714236
 20
178.517917
 30
0.0
 10
13.714236
 20
173.517292
 30
0.0
 10
8.713611
 20
173.517292
 30
0.0
 10
8.713611
 20
168.516667
 30
0.0
 10
13.714236
 20
168.516667
 30
0.0
 10
13.714236
 20
163.516042
 30
0.0
 10
8.713611
 20
163.516042
 30
0.0
 10
8.713611
 20
158.515417
 30
0.0
 10
13.714236
 20
158.515417
 30
0.0
 10
13.714236
 20
153.514792
 30
0.0
 10
8.713611
 20
153.514792
 30
0.0
 10
8.713611
 20
148.514167
 30
0.0
 10
13.714236
 20
148.514167
 30
0.0
 10
13.714236
 20
143.513542
 30
0.0
 10
8.713611
 20
143.513542
 30
0.0
 10
8.713611
 20
138.512917
 30
0.0
 10
13.714236
 20
138.512917
 30
0.0
 10
13.714236
 20
133.512292
 30
0.0
 10
8.713611
 20
133.512292
 30
0.0
 10
8.713611
 20
128.511667
 30
0.0
 10
13.714236
 20
128.511667
 30
0.0
 10
13.714236
 20
123.519861
 30
0.0
 10
8.713611
 20
123.519861
 30
0.0
 10
8.713611
 20
118.519236
 30
0.0
 10
13.714236
 20
118.519236
 30
0.0
 10
13.714236
 20
113.518611
 30
0.0
 10
8.713611
 20
113.518611
 30
0.0
 10
8.713611
 20
108.517986
 30
0.0
 10
13.714236
 20
108.517986
 30
0.0
 10
13.714236
 20
103.517361
 30
0.0
 10
8.713611
 20
103.517361
 30
0.0
 10
8.713611
 20
98.516736
 30
0.0
 10
13.714236
 20
98.516736
 30
0.0
 10
13.714236
 20
93.516111
 30
0.0
 10
8.713611
 20
93.516111
 30
0.0
 10
8.713611
 20
88.515486
 30
0.0
 10
13.714236
 20
88.515486
 30
0.0
 10
13.714236
 20
83.514861
 30
0.0
 10
8.713611
 20
83.514861
 30
0.0
 10
8.713611
 20
78.514236
 30
0.0
 10
13.714236
 20
78.514236
 30
0.0
 10
13.714236
 20
73.513611
 30
0.0
 10
8.713611
 20
73.513611
 30
0.0
 10
8.713611
 20
68.512986
 30
0.0
 10
13.714236
 20
68.512986
 30
0.0
 10
13.714236
 20
63.512361
 30
0.0
 10
8.713611
 20
63.512361
 30
0.0
 10
8.713611
 20
58.511736
 30
0.0
 10
13.714236
 20
58.511736
 30
0.0
 10
13.714236
 20
53.519931
 30
0.0
 10
8.713611
 20
53.519931
 30
0.0
 10
8.713611
 20
48.519306
 30
0.0
 10
13.714236
 20
48.519306
 30
0.0
 10
13.714236
 20
43.518681
 30
0.0
 10
8.713611
 20
43.518681
 30
0.0
 10
8.713611
 20
38.518056
 30
0.0
 10
13.714236
 20
38.518056
 30
0.0
 10
13.714236
 20
33.517431
 30
0.0
 10
8.713611
 20
33.517431
 30
0.0
 10
8.713611
 20
28.516806
 30
0.0
 10
13.714236
 20
28.516806
 30
0.0
 10
13.714236
 20
23.516181
 30
0.0
 10
8.713611
 20
23.516181
 30
0.0
 10
8.713611
 20
18.515556
 30
0.0
 10
13.714236
 20
18.515556
 30
0.0
 10
13.714236
 20
13.514931
 30
0.0
 10
18.714861
 20
13.514931
 30
0.0
 10
18.714861
 20
18.515556
 30
0.0
 10
23.715486
 20
18.515556
 30
0.0
 10
23.715486
 20
13.514931
 30
0.0
 10
28.707292
 20
13.514931
 30
0.0
 10
28.707292
 20
18.515556
 30
0.0
 10
33.707917
 20
18.515556
 30
0.0
 10
33.707917
 20
13.514931
 30
0.0
 10
38.708542
 20
13.514931
 30
0.0
 10
38.708542
 20
18.515556
 30
0.0
 10
43.709167
 20
18.515556
 30
0.0
 10
43.709167
 20
13.514931
 30
0.0
 10
48.709792
 20
13.514931
 30
0.0
 10
48.709792
 20
18.515556
 30
0.0
 10
53.710417
 20
18.515556
 30
0.0
 10
53.710417
 20
13.514931
 30
0.0
 10
58.711042
 20
13.514931
 30
0.0
 10
58.711042
 20
18.515556
 30
0.0
 10
63.711667
 20
18.515556
 30
0.0
 10
63.711667
 20
13.514931
 30
0.0
 10
68.712292
 20
13.514931
 30
0.0
 10
68.712292
 20
18.515556
 30
0.0
 10
73.712917
 20
18.515556
 30
0.0
 10
73.712917
 20
13.514931
 30
0.0
 10
78.713542
 20
13.514931
 30
0.0
 10
78.713542
 20
18.515556
 30
0.0
 10
83.714167
 20
18.515556
 30
0.0
 10
83.714167
 20
13.514931
 30
0.0
 10
88.714792
 20
13.514931
 30
0.0
 10
88.714792
 20
18.515556
 30
0.0
 10
93.715417
 20
18.515556
 30
0.0
 10
93.715417
 20
378.516459
 30
0.0
 10
93.715417
 20
383.517084
 30
0.0
 10
88.714792
 20
383.517084
 30
0.0
 10
88.714792
 20
378.516459
 30
0.0
 10
83.714167
 20
378.516459
 30
0.0
 10
83.714167
 20
383.517084
 30
0.0
 10
78.713542
 20
383.517084
 30
0.0
 10
78.713542
 20
378.516459
 30
0.0
 10
73.712917
 20
378.516459
 30
0.0
 10
73.712917
 20
383.517084
 30
0.0
 10
68.712292
 20
383.517084
 30
0.0
 10
68.712292
 20
378.516459
 30
0.0
 10
63.711667
 20
378.516459
 30
0.0
 10
63.711667
 20
383.517084
 30
0.0
 10
58.711042
 20
383.517084
 30
0.0
 10
58.711042
 20
378.516459
 30
0.0
 10
53.710417
 20
378.516459
 30
0.0
 10
53.710417
 20
383.517084
 30
0.0
 10
48.709792
 20
383.517084
 30
0.0
 10
48.709792
 20
378.516459
 30
0.0
 10
43.709167
 20
378.516459
 30
0.0
 10
43.709167
 20
383.517084
 30
0.0
 10
38.708542
 20
383.517084
 30
0.0
 10
38.708542
 20
378.516459
 30
0.0
 10
33.707917
 20
378.516459
 30
0.0
 10
33.707917
 20
383.517084
 30
0.0
 10
28.707292
 20
383.517084
 30
0.0
 10
28.707292
 20
378.516459
 30
0.0
 10
23.715486
 20
378.516459
 30
0.0
 10
23.715486
 20
383.517084
 30
0.0
 10
18.714861
 20
383.517084
 30
0.0
 10
18.714861
 20
383.517069
 30
0.0
  0
LWPOLYLINE
  5
13f
100
AcDbEntity
  8
Layer_1
 62
7
100
AcDbPolyline
 90
6
 70
0
 10
18.714861
 20
343.512069
 30
0.0
 10
23.715486
 20
343.512069
 30
0.0
 10
23.715486
 20
338.511444
 30
0.0
 10
18.714861
 20
338.511444
 30
0.0
 10
18.714861
 20
343.512069
 30
0.0
 10
18.714861
 20
343.512069
 30
0.0
  0
LWPOLYLINE
  5
140
100
AcDbEntity
  8
Layer_1
 62
7
100
AcDbPolyline
 90
6
 70
0
 10
28.707292
 20
343.512069
 30
0.0
 10
33.707917
 20
343.512069
 30
0.0
 10
33.707917
 20
338.511444
 30
0.0
 10
28.707292
 20
338.511444
 30
0.0
 10
28.707292
 20
343.512069
 30
0.0
 10
28.707292
 20
343.512069
 30
0.0
  0
LWPOLYLINE
  5
141
100
AcDbEntity
  8
Layer_1
 62
7
100
AcDbPolyline
 90
6
 70
0
 10
38.708542
 20
343.512069
 30
0.0
 10
43.709167
 20
343.512069
 30
0.0
 10
43.709167
 20
338.511444
 30
0.0
 10
38.708542
 20
338.511444
 30
0.0
 10
38.708542
 20
343.512069
 30
0.0
 10
38.708542
 20
343.512069
 30
0.0
  0
SPLINE
  5
142
100
AcDbEntity
  8
Layer_1
 62
7
100
AcDbSpline
 70
8
 71
3
 72
8
 73
4
 74
0
 40
0
 40
0
 40
0
 40
0
 40
1
 40
1
 40
1
 40
1
 10
25.770417
 20
274.782139
 30
0.0
 10
25.818886
 20
274.787078
 30
0.0
 10
25.870541
 20
274.782139
 30
0.0
 10
25.920347
 20
274.782139
 30
0.0
  0
SPLINE
  5
143
100
AcDbEntity
  8
Layer_1
 62
7
100
AcDbSpline
 70
8
 71
3
 72
8
 73
4
 74
0
 40
0
 40
0
 40
0
 40
0
 40
1
 40
1
 40
1
 40
1
 10
25.920347
 20
274.782139
 30
0.0
 10
26.717258
 20
274.782139
 30
0.0
 10
27.357917
 20
274.132604
 30
0.0
 10
27.357917
 20
273.335750
 30
0.0
  0
LWPOLYLINE
  5
144
100
AcDbEntity
  8
Layer_1
 62
7
100
AcDbPolyline
 90
6
 70
0
 10
48.709792
 20
343.512069
 30
0.0
 10
53.710417
 20
343.512069
 30
0.0
 10
53.710417
 20
338.511444
 30
0.0
 10
48.709792
 20
338.511444
 30
0.0
 10
48.709792
 20
343.512069
 30
0.0
 10
48.709792
 20
343.512069
 30
0.0
  0
SPLINE
  5
145
100
AcDbEntity
  8
Layer_1
 62
7
100
AcDbSpline
 70
8
 71
3
 72
8
 73
4
 74
0
 40
0
 40
0
 40
0
 40
0
 40
1
 40
1
 40
1
 40
1
 10
27.357917
 20
255.520472
 30
0.0
 10
27.357917
 20
254.723533
 30
0.0
 10
26.717258
 20
254.082903
 30
0.0
 10
25.920347
 20
254.082903
 30
0.0
  0
SPLINE
  5
146
100
AcDbEntity
  8
Layer_1
 62
7
100
AcDbSpline
 70
8
 71
3
 72
8
 73
4
 74
0
 40
0
 40
0
 40
0
 40
0
 40
1
 40
1
 40
1
 40
1
 10
25.920347
 20
254.082903
 30
0.0
 10
25.123434
 20
254.082903
 30
0.0
 10
24.482778
 20
254.723533
 30
0.0
 10
24.482778
 20
255.520472
 30
0.0
  0
LWPOLYLINE
  5
147
100
AcDbEntity
  8
Layer_1
 62
7
100
AcDbPolyline
 90
2
 70
0
 10
27.357917
 20
273.335750
 30
0.0
 10
27.357917
 20
255.520472
 30
0.0
  0
SPLINE
  5
148
100
AcDbEntity
  8
Layer_1
 62
7
100
AcDbSpline
 70
8
 71
3
 72
8
 73
4
 74
0
 40
0
 40
0
 40
0
 40
0
 40
1
 40
1
 40
1
 40
1
 10
24.482778
 20
273.335750
 30
0.0
 10
24.482778
 20
274.082792
 30
0.0
 10
25.043395
 20
274.707858
 30
0.0
 10
25.770417
 20
274.782139
 30
0.0
  0
LWPOLYLINE
  5
149
100
AcDbEntity
  8
Layer_1
 62
7
100
AcDbPolyline
 90
2
 70
0
 10
24.482778
 20
255.520472
 30
0.0
 10
24.482778
 20
273.335750
 30
0.0
  0
SPLINE
  5
14a
100
AcDbEntity
  8
Layer_1
 62
7
100
AcDbSpline
 70
8
 71
3
 72
8
 73
4
 74
0
 40
0
 40
0
 40
0
 40
0
 40
1
 40
1
 40
1
 40
1
 10
48.656875
 20
274.782139
 30
0.0
 10
48.705347
 20
274.787078
 30
0.0
 10
48.756996
 20
274.782139
 30
0.0
 10
48.806806
 20
274.782139
 30
0.0
  0
SPLINE
  5
14b
100
AcDbEntity
  8
Layer_1
 62
7
100
AcDbSpline
 70
8
 71
3
 72
8
 73
4
 74
0
 40
0
 40
0
 40
0
 40
0
 40
1
 40
1
 40
1
 40
1
 10
48.806806
 20
274.782139
 30
0.0
 10
49.603601
 20
274.782139
 30
0.0
 10
50.244375
 20
274.132604
 30
0.0
 10
50.244375
 20
273.335750
 30
0.0
  0
LWPOLYLINE
  5
14c
100
AcDbEntity
  8
Layer_1
 62
7
100
AcDbPolyline
 90
2
 70
0
 10
25.770417
 20
274.782139
 30
0.0
 10
25.770417
 20
274.782139
 30
0.0
  0
SPLINE
  5
14d
100
AcDbEntity
  8
Layer_1
 62
7
100
AcDbSpline
 70
8
 71
3
 72
8
 73
4
 74
0
 40
0
 40
0
 40
0
 40
0
 40
1
 40
1
 40
1
 40
1
 10
50.244375
 20
255.520472
 30
0.0
 10
50.244375
 20
254.723533
 30
0.0
 10
49.603604
 20
254.082903
 30
0.0
 10
48.806806
 20
254.082903
 30
0.0
  0
SPLINE
  5
14e
100
AcDbEntity
  8
Layer_1
 62
7
100
AcDbSpline
 70
8
 71
3
 72
8
 73
4
 74
0
 40
0
 40
0
 40
0
 40
0
 40
1
 40
1
 40
1
 40
1
 10
48.806806
 20
254.082903
 30
0.0
 10
48.009835
 20
254.082903
 30
0.0
 10
47.369236
 20
254.723533
 30
0.0
 10
47.369236
 20
255.520472
 30
0.0
  0
LWPOLYLINE
  5
14f
100
AcDbEntity
  8
Layer_1
 62
7
100
AcDbPolyline
 90
2
 70
0
 10
50.244375
 20
273.335750
 30
0.0
 10
50.244375
 20
255.520472
 30
0.0
  0
SPLINE
  5
150
100
AcDbEntity
  8
Layer_1
 62
7
100
AcDbSpline
 70
8
 71
3
 72
8
 73
4
 74
0
 40
0
 40
0
 40
0
 40
0
 40
1
 40
1
 40
1
 40
1
 10
47.369236
 20
273.335750
 30
0.0
 10
47.369236
 20
274.082792
 30
0.0
 10
47.929811
 20
274.707858
 30
0.0
 10
48.656875
 20
274.782139
 30
0.0
  0
LWPOLYLINE
  5
151
100
AcDbEntity
  8
Layer_1
 62
7
100
AcDbPolyline
 90
2
 70
0
 10
47.369236
 20
255.520472
 30
0.0
 10
47.369236
 20
273.335750
 30
0.0
  0
LWPOLYLINE
  5
152
100
AcDbEntity
  8
Layer_1
 62
7
100
AcDbPolyline
 90
2
 70
0
 10
48.656875
 20
274.782139
 30
0.0
 10
48.656875
 20
274.782139
 30
0.0
  0
LWPOLYLINE
  5
153
100
AcDbEntity
  8
Layer_1
 62
7
100
AcDbPolyline
 90
233
 70
0
 10
328.559583
 20
381.012347
 30
0.0
 10
328.559583
 20
371.011097
 30
0.0
 10
333.560194
 20
371.011097
 30
0.0
 10
333.560194
 20
366.010472
 30
0.0
 10
328.559583
 20
366.010472
 30
0.0
 10
328.559583
 20
361.009847
 30
0.0
 10
333.560194
 20
361.009847
 30
0.0
 10
333.560194
 20
356.009222
 30
0.0
 10
328.559583
 20
356.009222
 30
0.0
 10
328.559583
 20
351.008597
 30
0.0
 10
333.560194
 20
351.008597
 30
0.0
 10
333.560194
 20
346.007972
 30
0.0
 10
328.559583
 20
346.007972
 30
0.0
 10
328.559583
 20
341.007347
 30
0.0
 10
333.560194
 20
341.007347
 30
0.0
 10
333.560194
 20
336.006722
 30
0.0
 10
328.559583
 20
336.006722
 30
0.0
 10
328.559583
 20
331.006097
 30
0.0
 10
333.560194
 20
331.006097
 30
0.0
 10
333.560194
 20
326.005472
 30
0.0
 10
328.559583
 20
326.005472
 30
0.0
 10
328.559583
 20
321.013667
 30
0.0
 10
333.560194
 20
321.013667
 30
0.0
 10
333.560194
 20
316.013042
 30
0.0
 10
328.559583
 20
316.013042
 30
0.0
 10
328.559583
 20
311.012417
 30
0.0
 10
333.560194
 20
311.012417
 30
0.0
 10
333.560194
 20
306.011792
 30
0.0
 10
328.559583
 20
306.011792
 30
0.0
 10
328.559583
 20
301.011167
 30
0.0
 10
333.560194
 20
301.011167
 30
0.0
 10
333.560194
 20
296.010542
 30
0.0
 10
328.559583
 20
296.010542
 30
0.0
 10
328.559583
 20
291.009917
 30
0.0
 10
333.560194
 20
291.009917
 30
0.0
 10
333.560194
 20
286.009292
 30
0.0
 10
328.559583
 20
286.009292
 30
0.0
 10
328.559583
 20
281.008667
 30
0.0
 10
333.560194
 20
281.008667
 30
0.0
 10
333.560194
 20
276.008042
 30
0.0
 10
328.559583
 20
276.008042
 30
0.0
 10
328.559583
 20
271.007417
 30
0.0
 10
333.560194
 20
271.007417
 30
0.0
 10
333.560194
 20
266.006792
 30
0.0
 10
328.559583
 20
266.006792
 30
0.0
 10
328.559583
 20
261.006167
 30
0.0
 10
333.560194
 20
261.006167
 30
0.0
 10
333.560194
 20
256.005542
 30
0.0
 10
328.559583
 20
256.005542
 30
0.0
 10
328.559583
 20
251.013736
 30
0.0
 10
333.560194
 20
251.013736
 30
0.0
 10
333.560194
 20
246.013111
 30
0.0
 10
328.559583
 20
246.013111
 30
0.0
 10
328.559583
 20
241.012486
 30
0.0
 10
333.560194
 20
241.012486
 30
0.0
 10
333.560194
 20
236.011861
 30
0.0
 10
328.559583
 20
236.011861
 30
0.0
 10
328.559583
 20
231.011236
 30
0.0
 10
333.560194
 20
231.011236
 30
0.0
 10
333.560194
 20
226.010611
 30
0.0
 10
328.559583
 20
226.010611
 30
0.0
 10
328.559583
 20
221.009986
 30
0.0
 10
333.560194
 20
221.009986
 30
0.0
 10
333.560194
 20
216.009361
 30
0.0
 10
328.559583
 20
216.009361
 30
0.0
 10
328.559583
 20
211.008736
 30
0.0
 10
333.560194
 20
211.008736
 30
0.0
 10
333.560194
 20
206.008111
 30
0.0
 10
328.559583
 20
206.008111
 30
0.0
 10
328.559583
 20
201.007486
 30
0.0
 10
333.560194
 20
201.007486
 30
0.0
 10
333.560194
 20
196.006861
 30
0.0
 10
328.559583
 20
196.006861
 30
0.0
 10
328.559583
 20
191.006236
 30
0.0
 10
333.560194
 20
191.006236
 30
0.0
 10
333.560194
 20
186.005611
 30
0.0
 10
328.559583
 20
186.005611
 30
0.0
 10
328.559583
 20
181.013806
 30
0.0
 10
333.560194
 20
181.013806
 30
0.0
 10
333.560194
 20
176.013181
 30
0.0
 10
328.559583
 20
176.013181
 30
0.0
 10
328.559583
 20
171.012556
 30
0.0
 10
333.560194
 20
171.012556
 30
0.0
 10
333.560194
 20
166.011931
 30
0.0
 10
328.559583
 20
166.011931
 30
0.0
 10
328.559583
 20
161.011306
 30
0.0
 10
333.560194
 20
161.011306
 30
0.0
 10
333.560194
 20
156.010681
 30
0.0
 10
328.559583
 20
156.010681
 30
0.0
 10
328.559583
 20
151.010056
 30
0.0
 10
333.560194
 20
151.010056
 30
0.0
 10
333.560194
 20
146.009431
 30
0.0
 10
328.559583
 20
146.009431
 30
0.0
 10
328.559583
 20
141.008806
 30
0.0
 10
333.560194
 20
141.008806
 30
0.0
 10
333.560194
 20
136.008181
 30
0.0
 10
328.559583
 20
136.008181
 30
0.0
 10
328.559583
 20
131.007556
 30
0.0
 10
333.560194
 20
131.007556
 30
0.0
 10
333.560194
 20
126.006931
 30
0.0
 10
328.559583
 20
126.006931
 30
0.0
 10
328.559583
 20
121.006306
 30
0.0
 10
333.560194
 20
121.006306
 30
0.0
 10
333.560194
 20
116.005681
 30
0.0
 10
328.559583
 20
116.005681
 30
0.0
 10
328.559583
 20
111.005056
 30
0.0
 10
333.560194
 20
111.005056
 30
0.0
 10
333.560194
 20
106.013250
 30
0.0
 10
328.559583
 20
106.013250
 30
0.0
 10
328.559583
 20
101.012625
 30
0.0
 10
333.560194
 20
101.012625
 30
0.0
 10
333.560194
 20
96.012000
 30
0.0
 10
328.559583
 20
96.012000
 30
0.0
 10
328.559583
 20
91.011375
 30
0.0
 10
333.560194
 20
91.011375
 30
0.0
 10
333.560194
 20
86.010750
 30
0.0
 10
328.559583
 20
86.010750
 30
0.0
 10
328.559583
 20
81.010125
 30
0.0
 10
333.560194
 20
81.010125
 30
0.0
 10
333.560194
 20
76.009500
 30
0.0
 10
328.559583
 20
76.009500
 30
0.0
 10
328.559583
 20
71.008875
 30
0.0
 10
333.560194
 20
71.008875
 30
0.0
 10
333.560194
 20
66.008250
 30
0.0
 10
328.559583
 20
66.008250
 30
0.0
 10
328.559583
 20
61.007625
 30
0.0
 10
333.560194
 20
61.007625
 30
0.0
 10
333.560194
 20
56.007000
 30
0.0
 10
328.559583
 20
56.007000
 30
0.0
 10
328.559583
 20
51.006375
 30
0.0
 10
333.560194
 20
51.006375
 30
0.0
 10
333.560194
 20
46.005750
 30
0.0
 10
328.559583
 20
46.005750
 30
0.0
 10
328.559583
 20
41.005125
 30
0.0
 10
333.560194
 20
41.005125
 30
0.0
 10
333.560194
 20
36.013319
 30
0.0
 10
328.559583
 20
36.013319
 30
0.0
 10
328.559583
 20
31.012694
 30
0.0
 10
333.560194
 20
31.012694
 30
0.0
 10
333.560194
 20
26.012069
 30
0.0
 10
328.559583
 20
26.012069
 30
0.0
 10
328.559583
 20
21.011444
 30
0.0
 10
333.560194
 20
21.011444
 30
0.0
 10
333.560194
 20
16.010819
 30
0.0
 10
328.559583
 20
16.010819
 30
0.0
 10
328.559583
 20
11.010194
 30
0.0
 10
333.560194
 20
11.010194
 30
0.0
 10
338.560833
 20
11.010194
 30
0.0
 10
343.561472
 20
11.010194
 30
0.0
 10
343.561472
 20
16.010819
 30
0.0
 10
348.553250
 20
16.010819
 30
0.0
 10
348.553250
 20
11.010194
 30
0.0
 10
353.553889
 20
11.010194
 30
0.0
 10
353.553889
 20
16.010819
 30
0.0
 10
358.554528
 20
16.010819
 30
0.0
 10
358.554528
 20
11.010194
 30
0.0
 10
363.555139
 20
11.010194
 30
0.0
 10
363.555139
 20
16.010819
 30
0.0
 10
368.555750
 20
16.010819
 30
0.0
 10
368.555750
 20
11.010194
 30
0.0
 10
373.556389
 20
11.010194
 30
0.0
 10
373.556389
 20
16.010819
 30
0.0
 10
378.557028
 20
16.010819
 30
0.0
 10
378.557028
 20
11.010194
 30
0.0
 10
383.557639
 20
11.010194
 30
0.0
 10
383.557639
 20
16.010819
 30
0.0
 10
388.558250
 20
16.010819
 30
0.0
 10
388.558250
 20
11.010194
 30
0.0
 10
393.558889
 20
11.010194
 30
0.0
 10
393.558889
 20
16.010819
 30
0.0
 10
398.559528
 20
16.010819
 30
0.0
 10
398.559528
 20
11.010194
 30
0.0
 10
403.560139
 20
11.010194
 30
0.0
 10
403.560139
 20
16.010819
 30
0.0
 10
408.560750
 20
16.010819
 30
0.0
 10
408.560750
 20
21.011444
 30
0.0
 10
403.560139
 20
21.011444
 30
0.0
 10
403.560139
 20
26.012069
 30
0.0
 10
408.560750
 20
26.012069
 30
0.0
 10
408.560750
 20
31.012694
 30
0.0
 10
403.560139
 20
31.012694
 30
0.0
 10
403.560139
 20
36.013319
 30
0.0
 10
408.560750
 20
36.013319
 30
0.0
 10
408.560750
 20
41.013944
 30
0.0
 10
403.560139
 20
41.013944
 30
0.0
 10
403.560139
 20
46.005750
 30
0.0
 10
408.560750
 20
46.005750
 30
0.0
 10
408.560750
 20
51.006375
 30
0.0
 10
403.560139
 20
51.006375
 30
0.0
 10
403.560139
 20
56.007000
 30
0.0
 10
408.560750
 20
56.007000
 30
0.0
 10
408.560750
 20
61.007625
 30
0.0
 10
403.560139
 20
61.007625
 30
0.0
 10
403.560139
 20
66.008250
 30
0.0
 10
408.560750
 20
66.008250
 30
0.0
 10
408.560750
 20
71.008875
 30
0.0
 10
403.560139
 20
71.008875
 30
0.0
 10
403.560139
 20
76.009500
 30
0.0
 10
408.560750
 20
76.009500
 30
0.0
 10
408.560750
 20
366.010472
 30
0.0
 10
408.560750
 20
376.011722
 30
0.0
 10
403.560139
 20
376.011722
 30
0.0
 10
403.560139
 20
381.012347
 30
0.0
 10
398.559528
 20
381.012347
 30
0.0
 10
398.559528
 20
376.011722
 30
0.0
 10
393.558889
 20
376.011722
 30
0.0
 10
393.558889
 20
381.012347
 30
0.0
 10
388.558250
 20
381.012347
 30
0.0
 10
388.558250
 20
376.011722
 30
0.0
 10
383.557639
 20
376.011722
 30
0.0
 10
383.557639
 20
381.012347
 30
0.0
 10
378.557028
 20
381.012347
 30
0.0
 10
378.557028
 20
376.011722
 30
0.0
 10
373.556389
 20
376.011722
 30
0.0
 10
373.556389
 20
381.012347
 30
0.0
 10
368.555750
 20
381.012347
 30
0.0
 10
368.555750
 20
376.011722
 30
0.0
 10
363.555139
 20
376.011722
 30
0.0
 10
363.555139
 20
381.012347
 30
0.0
 10
358.554528
 20
381.012347
 30
0.0
 10
358.554528
 20
376.011722
 30
0.0
 10
353.553889
 20
376.011722
 30
0.0
 10
353.553889
 20
381.012347
 30
0.0
 10
348.553250
 20
381.012347
 30
0.0
 10
348.553250
 20
376.011722
 30
0.0
 10
343.561472
 20
376.011722
 30
0.0
 10
343.561472
 20
381.012347
 30
0.0
 10
338.560833
 20
381.012347
 30
0.0
 10
338.560833
 20
376.011722
 30
0.0
 10
333.560194
 20
376.011722
 30
0.0
 10
333.560194
 20
381.012347
 30
0.0
 10
328.559583
 20
381.012347
 30
0.0
 10
328.559583
 20
381.012347
 30
0.0
  0
LWPOLYLINE
  5
154
100
AcDbEntity
  8
Layer_1
 62
7
100
AcDbPolyline
 90
6
 70
0
 10
338.560833
 20
341.007347
 30
0.0
 10
343.561472
 20
341.007347
 30
0.0
 10
343.561472
 20
336.006722
 30
0.0
 10
338.560833
 20
336.006722
 30
0.0
 10
338.560833
 20
341.007347
 30
0.0
 10
338.560833
 20
341.007347
 30
0.0
  0
LWPOLYLINE
  5
155
100
AcDbEntity
  8
Layer_1
 62
7
100
AcDbPolyline
 90
6
 70
0
 10
348.553250
 20
341.007347
 30
0.0
 10
353.553889
 20
341.007347
 30
0.0
 10
353.553889
 20
336.006722
 30
0.0
 10
348.553250
 20
336.006722
 30
0.0
 10
348.553250
 20
341.007347
 30
0.0
 10
348.553250
 20
341.007347
 30
0.0
  0
LWPOLYLINE
  5
156
100
AcDbEntity
  8
Layer_1
 62
7
100
AcDbPolyline
 90
6
 70
0
 10
358.554528
 20
341.007347
 30
0.0
 10
363.555139
 20
341.007347
 30
0.0
 10
363.555139
 20
336.006722
 30
0.0
 10
358.554528
 20
336.006722
 30
0.0
 10
358.554528
 20
341.007347
 30
0.0
 10
358.554528
 20
341.007347
 30
0.0
  0
LWPOLYLINE
  5
157
100
AcDbEntity
  8
Layer_1
 62
7
100
AcDbPolyline
 90
6
 70
0
 10
368.555750
 20
341.007347
 30
0.0
 10
373.556389
 20
341.007347
 30
0.0
 10
373.556389
 20
336.006722
 30
0.0
 10
368.555750
 20
336.006722
 30
0.0
 10
368.555750
 20
341.007347
 30
0.0
 10
368.555750
 20
341.007347
 30
0.0
  0
LWPOLYLINE
  5
158
100
AcDbEntity
  8
Layer_1
 62
7
100
AcDbPolyline
 90
6
 70
0
 10
378.557028
 20
341.007347
 30
0.0
 10
383.557639
 20
341.007347
 30
0.0
 10
383.557639
 20
336.006722
 30
0.0
 10
378.557028
 20
336.006722
 30
0.0
 10
378.557028
 20
341.007347
 30
0.0
 10
378.557028
 20
341.007347
 30
0.0
  0
LWPOLYLINE
  5
159
100
AcDbEntity
  8
Layer_1
 62
7
100
AcDbPolyline
 90
6
 70
0
 10
388.558250
 20
341.007347
 30
0.0
 10
393.558889
 20
341.007347
 30
0.0
 10
393.558889
 20
336.006722
 30
0.0
 10
388.558250
 20
336.006722
 30
0.0
 10
388.558250
 20
341.007347
 30
0.0
 10
388.558250
 20
341.007347
 30
0.0
  0
LWPOLYLINE
  5
15a
100
AcDbEntity
  8
Layer_1
 62
7
100
AcDbPolyline
 90
6
 70
0
 10
398.559528
 20
341.007347
 30
0.0
 10
403.560139
 20
341.007347
 30
0.0
 10
403.560139
 20
336.006722
 30
0.0
 10
398.559528
 20
336.006722
 30
0.0
 10
398.559528
 20
341.007347
 30
0.0
 10
398.559528
 20
341.007347
 30
0.0
  0
LWPOLYLINE
  5
15b
100
AcDbEntity
  8
Layer_1
 62
7
100
AcDbPolyline
 90
171
 70
0
 10
90.002431
 20
636.044222
 30
0.0
 10
90.002431
 20
631.043583
 30
0.0
 10
95.003056
 20
631.043583
 30
0.0
 10
95.003056
 20
626.042972
 30
0.0
 10
90.002431
 20
626.042972
 30
0.0
 10
90.002431
 20
621.042361
 30
0.0
 10
95.003056
 20
621.042361
 30
0.0
 10
95.003056
 20
616.041722
 30
0.0
 10
90.002431
 20
616.041722
 30
0.0
 10
90.002431
 20
611.041083
 30
0.0
 10
95.003056
 20
611.041083
 30
0.0
 10
95.003056
 20
606.040472
 30
0.0
 10
90.002431
 20
606.040472
 30
0.0
 10
90.002431
 20
601.039861
 30
0.0
 10
95.003056
 20
601.039861
 30
0.0
 10
95.003056
 20
596.039222
 30
0.0
 10
90.002431
 20
596.039222
 30
0.0
 10
90.002431
 20
591.047417
 30
0.0
 10
95.003056
 20
591.047417
 30
0.0
 10
95.003056
 20
586.046806
 30
0.0
 10
90.002431
 20
586.046806
 30
0.0
 10
90.002431
 20
581.046167
 30
0.0
 10
95.003056
 20
581.046167
 30
0.0
 10
95.003056
 20
576.045542
 30
0.0
 10
90.002431
 20
576.045542
 30
0.0
 10
90.002431
 20
571.044917
 30
0.0
 10
95.003056
 20
571.044917
 30
0.0
 10
95.003056
 20
566.044292
 30
0.0
 10
90.002431
 20
566.044292
 30
0.0
 10
90.002431
 20
561.043667
 30
0.0
 10
95.003056
 20
561.043667
 30
0.0
 10
95.003056
 20
556.043042
 30
0.0
 10
90.002431
 20
556.043042
 30
0.0
 10
90.002431
 20
551.042417
 30
0.0
 10
95.003056
 20
551.042417
 30
0.0
 10
95.003056
 20
546.041792
 30
0.0
 10
90.002431
 20
546.041792
 30
0.0
 10
90.002431
 20
541.041167
 30
0.0
 10
95.003056
 20
541.041167
 30
0.0
 10
95.003056
 20
536.040542
 30
0.0
 10
90.002431
 20
536.040542
 30
0.0
 10
90.002431
 20
531.039917
 30
0.0
 10
100.003681
 20
531.039917
 30
0.0
 10
100.003681
 20
536.040542
 30
0.0
 10
105.004306
 20
536.040542
 30
0.0
 10
105.004306
 20
531.039917
 30
0.0
 10
109.996111
 20
531.039917
 30
0.0
 10
109.996111
 20
536.040542
 30
0.0
 10
114.996736
 20
536.040542
 30
0.0
 10
114.996736
 20
531.039917
 30
0.0
 10
119.997361
 20
531.039917
 30
0.0
 10
119.997361
 20
536.040542
 30
0.0
 10
124.997986
 20
536.040542
 30
0.0
 10
124.997986
 20
531.039917
 30
0.0
 10
129.998611
 20
531.039917
 30
0.0
 10
129.998611
 20
536.040542
 30
0.0
 10
134.999236
 20
536.040542
 30
0.0
 10
134.999236
 20
531.039917
 30
0.0
 10
139.999861
 20
531.039917
 30
0.0
 10
139.999861
 20
536.040542
 30
0.0
 10
145.000486
 20
536.040542
 30
0.0
 10
145.000486
 20
531.039917
 30
0.0
 10
150.001111
 20
531.039917
 30
0.0
 10
150.001111
 20
536.040542
 30
0.0
 10
155.001736
 20
536.040542
 30
0.0
 10
155.001736
 20
531.039917
 30
0.0
 10
160.002361
 20
531.039917
 30
0.0
 10
160.002361
 20
536.040542
 30
0.0
 10
165.002986
 20
536.040542
 30
0.0
 10
165.002986
 20
531.039917
 30
0.0
 10
170.003611
 20
531.039917
 30
0.0
 10
170.003611
 20
536.040542
 30
0.0
 10
175.004236
 20
536.040542
 30
0.0
 10
175.004236
 20
531.039917
 30
0.0
 10
179.996042
 20
531.039917
 30
0.0
 10
179.996042
 20
536.040542
 30
0.0
 10
184.996667
 20
536.040542
 30
0.0
 10
184.996667
 20
531.039917
 30
0.0
 10
189.997292
 20
531.039917
 30
0.0
 10
189.997292
 20
536.040542
 30
0.0
 10
194.997917
 20
536.040542
 30
0.0
 10
194.997917
 20
531.039917
 30
0.0
 10
199.998542
 20
531.039917
 30
0.0
 10
199.998542
 20
536.040542
 30
0.0
 10
204.999167
 20
536.040542
 30
0.0
 10
204.999167
 20
531.039917
 30
0.0
 10
209.999792
 20
531.039917
 30
0.0
 10
209.999792
 20
536.040542
 30
0.0
 10
215.000417
 20
536.040542
 30
0.0
 10
215.000417
 20
531.039917
 30
0.0
 10
220.001042
 20
531.039917
 30
0.0
 10
220.001042
 20
536.040542
 30
0.0
 10
225.001667
 20
536.040542
 30
0.0
 10
225.001667
 20
531.039917
 30
0.0
 10
230.002292
 20
531.039917
 30
0.0
 10
230.002292
 20
536.040542
 30
0.0
 10
235.002917
 20
536.040542
 30
0.0
 10
235.002917
 20
531.039917
 30
0.0
 10
240.003542
 20
531.039917
 30
0.0
 10
240.003542
 20
536.040542
 30
0.0
 10
245.004167
 20
536.040542
 30
0.0
 10
245.004167
 20
531.039917
 30
0.0
 10
249.995972
 20
531.039917
 30
0.0
 10
249.995972
 20
536.040542
 30
0.0
 10
254.996597
 20
536.040542
 30
0.0
 10
254.996597
 20
531.039917
 30
0.0
 10
259.997222
 20
531.039917
 30
0.0
 10
259.997222
 20
536.040542
 30
0.0
 10
264.997847
 20
536.040542
 30
0.0
 10
264.997847
 20
531.039917
 30
0.0
 10
269.998472
 20
531.039917
 30
0.0
 10
269.998472
 20
536.040542
 30
0.0
 10
274.999097
 20
536.040542
 30
0.0
 10
274.999097
 20
531.039917
 30
0.0
 10
279.999722
 20
531.039917
 30
0.0
 10
279.999722
 20
536.040542
 30
0.0
 10
285.000361
 20
536.040542
 30
0.0
 10
285.000361
 20
531.039917
 30
0.0
 10
290.000972
 20
531.039917
 30
0.0
 10
290.000972
 20
536.040542
 30
0.0
 10
295.001583
 20
536.040542
 30
0.0
 10
295.001583
 20
531.039917
 30
0.0
 10
300.002222
 20
531.039917
 30
0.0
 10
300.002222
 20
536.040542
 30
0.0
 10
305.002861
 20
536.040542
 30
0.0
 10
305.002861
 20
531.039917
 30
0.0
 10
315.004083
 20
531.039917
 30
0.0
 10
315.004083
 20
536.040542
 30
0.0
 10
310.003472
 20
536.040542
 30
0.0
 10
310.003472
 20
541.041167
 30
0.0
 10
315.004083
 20
541.041167
 30
0.0
 10
315.004083
 20
546.041792
 30
0.0
 10
310.003472
 20
546.041792
 30
0.0
 10
310.003472
 20
551.042417
 30
0.0
 10
315.004083
 20
551.042417
 30
0.0
 10
315.004083
 20
556.043042
 30
0.0
 10
310.003472
 20
556.043042
 30
0.0
 10
310.003472
 20
561.043667
 30
0.0
 10
315.004083
 20
561.043667
 30
0.0
 10
315.004083
 20
566.044292
 30
0.0
 10
310.003472
 20
566.044292
 30
0.0
 10
310.003472
 20
571.044917
 30
0.0
 10
315.004083
 20
571.044917
 30
0.0
 10
315.004083
 20
576.045542
 30
0.0
 10
310.003472
 20
576.045542
 30
0.0
 10
310.003472
 20
581.046167
 30
0.0
 10
315.004083
 20
581.046167
 30
0.0
 10
315.004083
 20
586.046806
 30
0.0
 10
310.003472
 20
586.046806
 30
0.0
 10
310.003472
 20
591.047417
 30
0.0
 10
315.004083
 20
591.047417
 30
0.0
 10
315.004083
 20
596.039222
 30
0.0
 10
310.003472
 20
596.039222
 30
0.0
 10
310.003472
 20
601.039861
 30
0.0
 10
315.004083
 20
601.039861
 30
0.0
 10
315.004083
 20
606.040472
 30
0.0
 10
310.003472
 20
606.040472
 30
0.0
 10
310.003472
 20
611.041083
 30
0.0
 10
315.004083
 20
611.041083
 30
0.0
 10
315.004083
 20
616.041722
 30
0.0
 10
310.003472
 20
616.041722
 30
0.0
 10
310.003472
 20
621.042361
 30
0.0
 10
315.004083
 20
621.042361
 30
0.0
 10
315.004083
 20
626.042972
 30
0.0
 10
310.003472
 20
626.042972
 30
0.0
 10
310.003472
 20
631.043583
 30
0.0
 10
315.004083
 20
631.043583
 30
0.0
 10
315.004083
 20
636.044222
 30
0.0
 10
305.002861
 20
636.044222
 30
0.0
 10
90.002431
 20
636.044222
 30
0.0
 10
90.002431
 20
636.044222
 30
0.0
  0
LWPOLYLINE
  5
15c
100
AcDbEntity
  8
Layer_1
 62
7
100
AcDbPolyline
 90
241
 70
0
 10
95.003056
 20
829.997917
 30
0.0
 10
95.003056
 20
824.997292
 30
0.0
 10
90.002431
 20
824.997292
 30
0.0
 10
90.002431
 20
819.996667
 30
0.0
 10
95.003056
 20
819.996667
 30
0.0
 10
95.003056
 20
814.996042
 30
0.0
 10
90.002431
 20
814.996042
 30
0.0
 10
90.002431
 20
810.004236
 30
0.0
 10
95.003056
 20
810.004236
 30
0.0
 10
95.003056
 20
805.003611
 30
0.0
 10
90.002431
 20
805.003611
 30
0.0
 10
90.002431
 20
800.002986
 30
0.0
 10
95.003056
 20
800.002986
 30
0.0
 10
95.003056
 20
795.002361
 30
0.0
 10
90.002431
 20
795.002361
 30
0.0
 10
90.002431
 20
790.001736
 30
0.0
 10
95.003056
 20
790.001736
 30
0.0
 10
95.003056
 20
785.001111
 30
0.0
 10
90.002431
 20
785.001111
 30
0.0
 10
90.002431
 20
780.000486
 30
0.0
 10
95.003056
 20
780.000486
 30
0.0
 10
95.003056
 20
774.999861
 30
0.0
 10
90.002431
 20
774.999861
 30
0.0
 10
90.002431
 20
769.999236
 30
0.0
 10
95.003056
 20
769.999236
 30
0.0
 10
95.003056
 20
764.998611
 30
0.0
 10
90.002431
 20
764.998611
 30
0.0
 10
90.002431
 20
759.997986
 30
0.0
 10
95.003056
 20
759.997986
 30
0.0
 10
95.003056
 20
754.997361
 30
0.0
 10
90.002431
 20
754.997361
 30
0.0
 10
90.002431
 20
749.996736
 30
0.0
 10
95.003056
 20
749.996736
 30
0.0
 10
95.003056
 20
744.996111
 30
0.0
 10
90.002431
 20
744.996111
 30
0.0
 10
90.002431
 20
740.004306
 30
0.0
 10
95.003056
 20
740.004306
 30
0.0
 10
95.003056
 20
735.003681
 30
0.0
 10
90.002431
 20
735.003681
 30
0.0
 10
90.002431
 20
730.003056
 30
0.0
 10
95.003056
 20
730.003056
 30
0.0
 10
95.003056
 20
725.002431
 30
0.0
 10
90.002431
 20
725.002431
 30
0.0
 10
90.002431
 20
720.001806
 30
0.0
 10
95.003056
 20
720.001806
 30
0.0
 10
95.003056
 20
715.001181
 30
0.0
 10
90.002431
 20
715.001181
 30
0.0
 10
90.002431
 20
710.000556
 30
0.0
 10
95.003056
 20
710.000556
 30
0.0
 10
95.003056
 20
704.999931
 30
0.0
 10
90.002431
 20
704.999931
 30
0.0
 10
90.002431
 20
699.999306
 30
0.0
 10
95.003056
 20
699.999306
 30
0.0
 10
95.003056
 20
694.998681
 30
0.0
 10
90.002431
 20
694.998681
 30
0.0
 10
90.002431
 20
689.998056
 30
0.0
 10
95.003056
 20
689.998056
 30
0.0
 10
95.003056
 20
684.997431
 30
0.0
 10
90.002431
 20
684.997431
 30
0.0
 10
90.002431
 20
679.996806
 30
0.0
 10
95.003056
 20
679.996806
 30
0.0
 10
95.003056
 20
674.996181
 30
0.0
 10
90.002431
 20
674.996181
 30
0.0
 10
90.002431
 20
670.004375
 30
0.0
 10
95.003056
 20
670.004375
 30
0.0
 10
95.003056
 20
665.003750
 30
0.0
 10
90.002431
 20
665.003750
 30
0.0
 10
90.002431
 20
660.003125
 30
0.0
 10
95.003056
 20
660.003125
 30
0.0
 10
95.003056
 20
655.002500
 30
0.0
 10
90.002431
 20
655.002500
 30
0.0
 10
90.002431
 20
650.001875
 30
0.0
 10
95.003056
 20
650.001875
 30
0.0
 10
95.003056
 20
645.001250
 30
0.0
 10
90.002431
 20
645.001250
 30
0.0
 10
90.002431
 20
640.000625
 30
0.0
 10
300.002222
 20
640.000625
 30
0.0
 10
305.002861
 20
640.000625
 30
0.0
 10
310.003472
 20
640.000625
 30
0.0
 10
315.004083
 20
640.000625
 30
0.0
 10
315.004083
 20
645.001250
 30
0.0
 10
310.003472
 20
645.001250
 30
0.0
 10
310.003472
 20
650.001875
 30
0.0
 10
315.004083
 20
650.001875
 30
0.0
 10
315.004083
 20
655.002500
 30
0.0
 10
310.003472
 20
655.002500
 30
0.0
 10
310.003472
 20
660.003125
 30
0.0
 10
315.004083
 20
660.003125
 30
0.0
 10
315.004083
 20
665.003750
 30
0.0
 10
310.003472
 20
665.003750
 30
0.0
 10
310.003472
 20
670.004375
 30
0.0
 10
315.004083
 20
670.004375
 30
0.0
 10
315.004083
 20
674.996181
 30
0.0
 10
310.003472
 20
674.996181
 30
0.0
 10
310.003472
 20
679.996806
 30
0.0
 10
315.004083
 20
679.996806
 30
0.0
 10
315.004083
 20
684.997431
 30
0.0
 10
310.003472
 20
684.997431
 30
0.0
 10
310.003472
 20
689.998056
 30
0.0
 10
315.004083
 20
689.998056
 30
0.0
 10
315.004083
 20
694.998681
 30
0.0
 10
310.003472
 20
694.998681
 30
0.0
 10
310.003472
 20
699.999306
 30
0.0
 10
315.004083
 20
699.999306
 30
0.0
 10
315.004083
 20
704.999931
 30
0.0
 10
310.003472
 20
704.999931
 30
0.0
 10
310.003472
 20
710.000556
 30
0.0
 10
315.004083
 20
710.000556
 30
0.0
 10
315.004083
 20
715.001181
 30
0.0
 10
310.003472
 20
715.001181
 30
0.0
 10
310.003472
 20
720.001806
 30
0.0
 10
315.004083
 20
720.001806
 30
0.0
 10
315.004083
 20
725.002431
 30
0.0
 10
310.003472
 20
725.002431
 30
0.0
 10
310.003472
 20
730.003056
 30
0.0
 10
315.004083
 20
730.003056
 30
0.0
 10
315.004083
 20
735.003681
 30
0.0
 10
310.003472
 20
735.003681
 30
0.0
 10
310.003472
 20
740.004306
 30
0.0
 10
315.004083
 20
740.004306
 30
0.0
 10
315.004083
 20
744.996111
 30
0.0
 10
310.003472
 20
744.996111
 30
0.0
 10
310.003472
 20
749.996736
 30
0.0
 10
315.004083
 20
749.996736
 30
0.0
 10
315.004083
 20
754.997361
 30
0.0
 10
310.003472
 20
754.997361
 30
0.0
 10
310.003472
 20
759.997986
 30
0.0
 10
315.004083
 20
759.997986
 30
0.0
 10
315.004083
 20
764.998611
 30
0.0
 10
310.003472
 20
764.998611
 30
0.0
 10
310.003472
 20
769.999236
 30
0.0
 10
315.004083
 20
769.999236
 30
0.0
 10
315.004083
 20
774.999861
 30
0.0
 10
310.003472
 20
774.999861
 30
0.0
 10
310.003472
 20
780.000486
 30
0.0
 10
315.004083
 20
780.000486
 30
0.0
 10
315.004083
 20
785.001111
 30
0.0
 10
310.003472
 20
785.001111
 30
0.0
 10
310.003472
 20
790.001736
 30
0.0
 10
315.004083
 20
790.001736
 30
0.0
 10
315.004083
 20
795.002361
 30
0.0
 10
310.003472
 20
795.002361
 30
0.0
 10
310.003472
 20
800.002986
 30
0.0
 10
315.004083
 20
800.002986
 30
0.0
 10
315.004083
 20
805.003611
 30
0.0
 10
310.003472
 20
805.003611
 30
0.0
 10
310.003472
 20
810.004236
 30
0.0
 10
315.004083
 20
810.004236
 30
0.0
 10
315.004083
 20
814.996042
 30
0.0
 10
310.003472
 20
814.996042
 30
0.0
 10
310.003472
 20
819.996667
 30
0.0
 10
315.004083
 20
819.996667
 30
0.0
 10
315.004083
 20
824.997292
 30
0.0
 10
310.003472
 20
824.997292
 30
0.0
 10
310.003472
 20
829.997917
 30
0.0
 10
305.002861
 20
829.997917
 30
0.0
 10
305.002861
 20
824.997292
 30
0.0
 10
300.002222
 20
824.997292
 30
0.0
 10
300.002222
 20
829.997917
 30
0.0
 10
295.001583
 20
829.997917
 30
0.0
 10
295.001583
 20
824.997292
 30
0.0
 10
290.000972
 20
824.997292
 30
0.0
 10
290.000972
 20
829.997917
 30
0.0
 10
285.000361
 20
829.997917
 30
0.0
 10
285.000361
 20
824.997292
 30
0.0
 10
279.999722
 20
824.997292
 30
0.0
 10
279.999722
 20
829.997917
 30
0.0
 10
274.999097
 20
829.997917
 30
0.0
 10
274.999097
 20
824.997292
 30
0.0
 10
269.998472
 20
824.997292
 30
0.0
 10
269.998472
 20
829.997917
 30
0.0
 10
264.997847
 20
829.997917
 30
0.0
 10
264.997847
 20
824.997292
 30
0.0
 10
259.997222
 20
824.997292
 30
0.0
 10
259.997222
 20
829.997917
 30
0.0
 10
254.996597
 20
829.997917
 30
0.0
 10
254.996597
 20
824.997292
 30
0.0
 10
249.995972
 20
824.997292
 30
0.0
 10
249.995972
 20
829.997917
 30
0.0
 10
245.004167
 20
829.997917
 30
0.0
 10
245.004167
 20
824.997292
 30
0.0
 10
240.003542
 20
824.997292
 30
0.0
 10
240.003542
 20
829.997917
 30
0.0
 10
235.002917
 20
829.997917
 30
0.0
 10
235.002917
 20
824.997292
 30
0.0
 10
230.002292
 20
824.997292
 30
0.0
 10
230.002292
 20
829.997917
 30
0.0
 10
225.001667
 20
829.997917
 30
0.0
 10
225.001667
 20
824.997292
 30
0.0
 10
220.001042
 20
824.997292
 30
0.0
 10
220.001042
 20
829.997917
 30
0.0
 10
215.000417
 20
829.997917
 30
0.0
 10
215.000417
 20
824.997292
 30
0.0
 10
209.999792
 20
824.997292
 30
0.0
 10
209.999792
 20
829.997917
 30
0.0
 10
204.999167
 20
829.997917
 30
0.0
 10
204.999167
 20
824.997292
 30
0.0
 10
199.998542
 20
824.997292
 30
0.0
 10
199.998542
 20
829.997917
 30
0.0
 10
194.997917
 20
829.997917
 30
0.0
 10
194.997917
 20
824.997292
 30
0.0
 10
189.997292
 20
824.997292
 30
0.0
 10
189.997292
 20
829.997917
 30
0.0
 10
184.996667
 20
829.997917
 30
0.0
 10
184.996667
 20
824.997292
 30
0.0
 10
179.996042
 20
824.997292
 30
0.0
 10
179.996042
 20
829.997917
 30
0.0
 10
175.004236
 20
829.997917
 30
0.0
 10
175.004236
 20
824.997292
 30
0.0
 10
170.003611
 20
824.997292
 30
0.0
 10
170.003611
 20
829.997917
 30
0.0
 10
165.002986
 20
829.997917
 30
0.0
 10
165.002986
 20
824.997292
 30
0.0
 10
160.002361
 20
824.997292
 30
0.0
 10
160.002361
 20
829.997917
 30
0.0
 10
155.001736
 20
829.997917
 30
0.0
 10
155.001736
 20
824.997292
 30
0.0
 10
150.001111
 20
824.997292
 30
0.0
 10
150.001111
 20
829.997917
 30
0.0
 10
145.000486
 20
829.997917
 30
0.0
 10
145.000486
 20
824.997292
 30
0.0
 10
139.999861
 20
824.997292
 30
0.0
 10
139.999861
 20
829.997917
 30
0.0
 10
134.999236
 20
829.997917
 30
0.0
 10
134.999236
 20
824.997292
 30
0.0
 10
129.998611
 20
824.997292
 30
0.0
 10
129.998611
 20
829.997917
 30
0.0
 10
124.997986
 20
829.997917
 30
0.0
 10
124.997986
 20
824.997292
 30
0.0
 10
119.997361
 20
824.997292
 30
0.0
 10
119.997361
 20
829.997917
 30
0.0
 10
114.996736
 20
829.997917
 30
0.0
 10
114.996736
 20
824.997292
 30
0.0
 10
109.996111
 20
824.997292
 30
0.0
 10
109.996111
 20
829.997917
 30
0.0
 10
105.004306
 20
829.997917
 30
0.0
 10
105.004306
 20
824.997292
 30
0.0
 10
100.003681
 20
824.997292
 30
0.0
 10
100.003681
 20
829.997917
 30
0.0
 10
95.003056
 20
829.997917
 30
0.0
 10
95.003056
 20
829.997917
 30
0.0
  0
LWPOLYLINE
  5
15d
100
AcDbEntity
  8
Layer_1
 62
7
100
AcDbPolyline
 90
6
 70
0
 10
100.003681
 20
785.001111
 30
0.0
 10
105.004306
 20
785.001111
 30
0.0
 10
105.004306
 20
780.000486
 30
0.0
 10
100.003681
 20
780.000486
 30
0.0
 10
100.003681
 20
785.001111
 30
0.0
 10
100.003681
 20
785.001111
 30
0.0
  0
LWPOLYLINE
  5
15e
100
AcDbEntity
  8
Layer_1
 62
7
100
AcDbPolyline
 90
6
 70
0
 10
109.996111
 20
785.001111
 30
0.0
 10
114.996736
 20
785.001111
 30
0.0
 10
114.996736
 20
780.000486
 30
0.0
 10
109.996111
 20
780.000486
 30
0.0
 10
109.996111
 20
785.001111
 30
0.0
 10
109.996111
 20
785.001111
 30
0.0
  0
LWPOLYLINE
  5
15f
100
AcDbEntity
  8
Layer_1
 62
7
100
AcDbPolyline
 90
6
 70
0
 10
119.997361
 20
785.001111
 30
0.0
 10
124.997986
 20
785.001111
 30
0.0
 10
124.997986
 20
780.000486
 30
0.0
 10
119.997361
 20
780.000486
 30
0.0
 10
119.997361
 20
785.001111
 30
0.0
 10
119.997361
 20
785.001111
 30
0.0
  0
LWPOLYLINE
  5
160
100
AcDbEntity
  8
Layer_1
 62
7
100
AcDbPolyline
 90
6
 70
0
 10
240.003542
 20
785.001111
 30
0.0
 10
245.004167
 20
785.001111
 30
0.0
 10
245.004167
 20
780.000486
 30
0.0
 10
240.003542
 20
780.000486
 30
0.0
 10
240.003542
 20
785.001111
 30
0.0
 10
240.003542
 20
785.001111
 30
0.0
  0
LWPOLYLINE
  5
161
100
AcDbEntity
  8
Layer_1
 62
7
100
AcDbPolyline
 90
6
 70
0
 10
249.995972
 20
785.001111
 30
0.0
 10
254.996597
 20
785.001111
 30
0.0
 10
254.996597
 20
780.000486
 30
0.0
 10
249.995972
 20
780.000486
 30
0.0
 10
249.995972
 20
785.001111
 30
0.0
 10
249.995972
 20
785.001111
 30
0.0
  0
LWPOLYLINE
  5
162
100
AcDbEntity
  8
Layer_1
 62
7
100
AcDbPolyline
 90
6
 70
0
 10
259.997222
 20
785.001111
 30
0.0
 10
264.997847
 20
785.001111
 30
0.0
 10
264.997847
 20
780.000486
 30
0.0
 10
259.997222
 20
780.000486
 30
0.0
 10
259.997222
 20
785.001111
 30
0.0
 10
259.997222
 20
785.001111
 30
0.0
  0
LWPOLYLINE
  5
163
100
AcDbEntity
  8
Layer_1
 62
7
100
AcDbPolyline
 90
6
 70
0
 10
269.998472
 20
785.001111
 30
0.0
 10
274.999097
 20
785.001111
 30
0.0
 10
274.999097
 20
780.000486
 30
0.0
 10
269.998472
 20
780.000486
 30
0.0
 10
269.998472
 20
785.001111
 30
0.0
 10
269.998472
 20
785.001111
 30
0.0
  0
LWPOLYLINE
  5
164
100
AcDbEntity
  8
Layer_1
 62
7
100
AcDbPolyline
 90
6
 70
0
 10
279.999722
 20
785.001111
 30
0.0
 10
285.000361
 20
785.001111
 30
0.0
 10
285.000361
 20
780.000486
 30
0.0
 10
279.999722
 20
780.000486
 30
0.0
 10
279.999722
 20
785.001111
 30
0.0
 10
279.999722
 20
785.001111
 30
0.0
  0
LWPOLYLINE
  5
165
100
AcDbEntity
  8
Layer_1
 62
7
100
AcDbPolyline
 90
6
 70
0
 10
290.000972
 20
785.001111
 30
0.0
 10
295.001583
 20
785.001111
 30
0.0
 10
295.001583
 20
780.000486
 30
0.0
 10
290.000972
 20
780.000486
 30
0.0
 10
290.000972
 20
785.001111
 30
0.0
 10
290.000972
 20
785.001111
 30
0.0
  0
LWPOLYLINE
  5
166
100
AcDbEntity
  8
Layer_1
 62
7
100
AcDbPolyline
 90
6
 70
0
 10
300.002222
 20
785.001111
 30
0.0
 10
305.002861
 20
785.001111
 30
0.0
 10
305.002861
 20
780.000486
 30
0.0
 10
300.002222
 20
780.000486
 30
0.0
 10
300.002222
 20
785.001111
 30
0.0
 10
300.002222
 20
785.001111
 30
0.0
  0
SPLINE
  5
167
100
AcDbEntity
  8
Layer_1
 62
7
100
AcDbSpline
 70
8
 71
3
 72
8
 73
4
 74
0
 40
0
 40
0
 40
0
 40
0
 40
1
 40
1
 40
1
 40
1
 10
322.729916
 20
621.483305
 30
0.0
 10
322.873172
 20
621.492901
 30
0.0
 10
323.017360
 20
621.501085
 30
0.0
 10
323.162083
 20
621.501085
 30
0.0
  0
SPLINE
  5
168
100
AcDbEntity
  8
Layer_1
 62
7
100
AcDbSpline
 70
8
 71
3
 72
8
 73
4
 74
0
 40
0
 40
0
 40
0
 40
0
 40
1
 40
1
 40
1
 40
1
 10
323.162083
 20
621.501085
 30
0.0
 10
328.548633
 20
621.501085
 30
0.0
 10
332.907584
 20
614.859832
 30
0.0
 10
332.907584
 20
606.666752
 30
0.0
  0
SPLINE
  5
169
100
AcDbEntity
  8
Layer_1
 62
7
100
AcDbSpline
 70
8
 71
3
 72
8
 73
4
 74
0
 40
0
 40
0
 40
0
 40
0
 40
1
 40
1
 40
1
 40
1
 10
332.907584
 20
606.666752
 30
0.0
 10
332.907584
 20
598.473671
 30
0.0
 10
328.548633
 20
591.832474
 30
0.0
 10
323.162083
 20
591.832474
 30
0.0
  0
SPLINE
  5
16a
100
AcDbEntity
  8
Layer_1
 62
7
100
AcDbSpline
 70
8
 71
3
 72
8
 73
4
 74
0
 40
0
 40
0
 40
0
 40
0
 40
1
 40
1
 40
1
 40
1
 10
323.162083
 20
591.832474
 30
0.0
 10
323.017360
 20
591.832474
 30
0.0
 10
322.873201
 20
591.840659
 30
0.0
 10
322.729916
 20
591.849972
 30
0.0
  0
LWPOLYLINE
  5
16b
100
AcDbEntity
  8
Layer_1
 62
7
100
AcDbPolyline
 90
76
 70
0
 10
327.730556
 20
831.694778
 30
0.0
 10
327.730556
 20
826.694139
 30
0.0
 10
322.729916
 20
826.694139
 30
0.0
 10
322.729916
 20
821.693528
 30
0.0
 10
317.738139
 20
821.693528
 30
0.0
 10
317.738139
 20
816.692917
 30
0.0
 10
322.729916
 20
816.692917
 30
0.0
 10
322.729916
 20
811.701083
 30
0.0
 10
317.738139
 20
811.701083
 30
0.0
 10
317.738139
 20
806.700472
 30
0.0
 10
322.729916
 20
806.700472
 30
0.0
 10
322.729916
 20
801.699861
 30
0.0
 10
317.738139
 20
801.699861
 30
0.0
 10
317.738139
 20
796.699222
 30
0.0
 10
322.729916
 20
796.699222
 30
0.0
 10
322.729916
 20
791.698583
 30
0.0
 10
317.738139
 20
791.698583
 30
0.0
 10
317.738139
 20
786.697972
 30
0.0
 10
322.729916
 20
786.697972
 30
0.0
 10
322.729916
 20
781.697361
 30
0.0
 10
317.738139
 20
781.697361
 30
0.0
 10
317.738139
 20
776.696722
 30
0.0
 10
322.729916
 20
776.696722
 30
0.0
 10
322.729916
 20
771.696083
 30
0.0
 10
317.738139
 20
771.696083
 30
0.0
 10
317.738139
 20
766.695472
 30
0.0
 10
322.729916
 20
766.695472
 30
0.0
 10
322.729916
 20
761.694861
 30
0.0
 10
317.738139
 20
761.694861
 30
0.0
 10
317.738139
 20
756.694222
 30
0.0
 10
322.729916
 20
756.694222
 30
0.0
 10
322.729916
 20
751.693583
 30
0.0
 10
317.738139
 20
751.693583
 30
0.0
 10
317.738139
 20
746.692972
 30
0.0
 10
322.729916
 20
746.692972
 30
0.0
 10
322.729916
 20
741.701167
 30
0.0
 10
317.738139
 20
741.701167
 30
0.0
 10
317.738139
 20
736.700528
 30
0.0
 10
322.729916
 20
736.700528
 30
0.0
 10
322.729916
 20
731.699917
 30
0.0
 10
317.738139
 20
731.699917
 30
0.0
 10
317.738139
 20
726.699306
 30
0.0
 10
322.729916
 20
726.699306
 30
0.0
 10
322.729916
 20
721.698667
 30
0.0
 10
317.738139
 20
721.698667
 30
0.0
 10
317.738139
 20
716.698028
 30
0.0
 10
322.729916
 20
716.698028
 30
0.0
 10
322.729916
 20
711.697417
 30
0.0
 10
317.738139
 20
711.697417
 30
0.0
 10
317.738139
 20
706.696806
 30
0.0
 10
322.729916
 20
706.696806
 30
0.0
 10
322.729916
 20
701.696167
 30
0.0
 10
317.738139
 20
701.696167
 30
0.0
 10
317.738139
 20
696.695528
 30
0.0
 10
322.729916
 20
696.695528
 30
0.0
 10
322.729916
 20
691.694917
 30
0.0
 10
317.738139
 20
691.694917
 30
0.0
 10
317.738139
 20
686.694306
 30
0.0
 10
322.729916
 20
686.694306
 30
0.0
 10
322.729916
 20
681.693667
 30
0.0
 10
317.738139
 20
681.693667
 30
0.0
 10
317.738139
 20
676.693028
 30
0.0
 10
322.729916
 20
676.693028
 30
0.0
 10
322.729916
 20
671.701250
 30
0.0
 10
317.738139
 20
671.701250
 30
0.0
 10
317.738139
 20
666.700611
 30
0.0
 10
322.729916
 20
666.700611
 30
0.0
 10
322.729916
 20
661.699972
 30
0.0
 10
317.738139
 20
661.699972
 30
0.0
 10
317.738139
 20
656.699361
 30
0.0
 10
322.729916
 20
656.699361
 30
0.0
 10
322.729916
 20
651.698750
 30
0.0
 10
317.738139
 20
651.698750
 30
0.0
 10
317.738139
 20
646.698111
 30
0.0
 10
322.729916
 20
646.698111
 30
0.0
 10
322.729916
 20
621.483305
 30
0.0
  0
LWPOLYLINE
  5
16c
100
AcDbEntity
  8
Layer_1
 62
7
100
AcDbPolyline
 90
85
 70
0
 10
322.729916
 20
591.849972
 30
0.0
 10
322.729916
 20
566.696931
 30
0.0
 10
317.738139
 20
566.696931
 30
0.0
 10
317.738139
 20
561.696306
 30
0.0
 10
322.729916
 20
561.696306
 30
0.0
 10
322.729916
 20
556.695681
 30
0.0
 10
317.738139
 20
556.695681
 30
0.0
 10
317.738139
 20
551.695056
 30
0.0
 10
322.729916
 20
551.695056
 30
0.0
 10
322.729916
 20
546.694431
 30
0.0
 10
317.738139
 20
546.694431
 30
0.0
 10
317.738139
 20
541.693806
 30
0.0
 10
322.729916
 20
541.693806
 30
0.0
 10
322.729916
 20
536.693181
 30
0.0
 10
317.738139
 20
536.693181
 30
0.0
 10
317.738139
 20
531.692556
 30
0.0
 10
322.729916
 20
531.692556
 30
0.0
 10
322.729916
 20
526.700750
 30
0.0
 10
317.738139
 20
526.700750
 30
0.0
 10
317.738139
 20
521.700125
 30
0.0
 10
322.729916
 20
521.700125
 30
0.0
 10
322.729916
 20
516.699500
 30
0.0
 10
317.738139
 20
516.699500
 30
0.0
 10
317.738139
 20
511.698875
 30
0.0
 10
322.729916
 20
511.698875
 30
0.0
 10
322.729916
 20
506.698250
 30
0.0
 10
317.738139
 20
506.698250
 30
0.0
 10
317.738139
 20
501.697625
 30
0.0
 10
322.729916
 20
501.697625
 30
0.0
 10
322.729916
 20
496.697000
 30
0.0
 10
317.738139
 20
496.697000
 30
0.0
 10
317.738139
 20
491.696375
 30
0.0
 10
322.729916
 20
491.696375
 30
0.0
 10
322.729916
 20
486.695750
 30
0.0
 10
317.738139
 20
486.695750
 30
0.0
 10
317.738139
 20
481.695125
 30
0.0
 10
322.729916
 20
481.695125
 30
0.0
 10
322.729916
 20
476.694500
 30
0.0
 10
317.738139
 20
476.694500
 30
0.0
 10
317.738139
 20
471.693875
 30
0.0
 10
322.729916
 20
471.693875
 30
0.0
 10
327.730556
 20
471.693875
 30
0.0
 10
327.730556
 20
466.693250
 30
0.0
 10
332.731195
 20
466.693250
 30
0.0
 10
332.731195
 20
471.693875
 30
0.0
 10
337.731806
 20
471.693875
 30
0.0
 10
337.731806
 20
466.693250
 30
0.0
 10
342.732416
 20
466.693250
 30
0.0
 10
342.732416
 20
471.693875
 30
0.0
 10
347.733056
 20
471.693875
 30
0.0
 10
347.733056
 20
466.693250
 30
0.0
 10
352.733695
 20
466.693250
 30
0.0
 10
352.733695
 20
471.693875
 30
0.0
 10
357.734306
 20
471.693875
 30
0.0
 10
357.734306
 20
466.693250
 30
0.0
 10
362.734916
 20
466.693250
 30
0.0
 10
362.734916
 20
471.693875
 30
0.0
 10
367.735556
 20
471.693875
 30
0.0
 10
367.735556
 20
466.693250
 30
0.0
 10
372.736195
 20
466.693250
 30
0.0
 10
372.736195
 20
471.693875
 30
0.0
 10
372.736195
 20
781.697361
 30
0.0
 10
367.735556
 20
781.697361
 30
0.0
 10
367.735556
 20
786.697972
 30
0.0
 10
372.736195
 20
786.697972
 30
0.0
 10
372.736195
 20
826.694139
 30
0.0
 10
372.736195
 20
831.694778
 30
0.0
 10
367.735556
 20
831.694778
 30
0.0
 10
367.735556
 20
826.694139
 30
0.0
 10
362.734916
 20
826.694139
 30
0.0
 10
362.734916
 20
831.694778
 30
0.0
 10
357.734306
 20
831.694778
 30
0.0
 10
357.734306
 20
826.694139
 30
0.0
 10
352.733695
 20
826.694139
 30
0.0
 10
352.733695
 20
831.694778
 30
0.0
 10
347.733056
 20
831.694778
 30
0.0
 10
347.733056
 20
826.694139
 30
0.0
 10
342.732416
 20
826.694139
 30
0.0
 10
342.732416
 20
831.694778
 30
0.0
 10
337.731806
 20
831.694778
 30
0.0
 10
337.731806
 20
826.694139
 30
0.0
 10
332.731195
 20
826.694139
 30
0.0
 10
332.731195
 20
831.694778
 30
0.0
 10
327.730556
 20
831.694778
 30
0.0
 10
327.730556
 20
831.694778
 30
0.0
  0
LWPOLYLINE
  5
16d
100
AcDbEntity
  8
Layer_1
 62
7
100
AcDbPolyline
 90
6
 70
0
 10
327.730556
 20
786.697972
 30
0.0
 10
332.731195
 20
786.697972
 30
0.0
 10
332.731195
 20
781.697361
 30
0.0
 10
327.730556
 20
781.697361
 30
0.0
 10
327.730556
 20
786.697972
 30
0.0
 10
327.730556
 20
786.697972
 30
0.0
  0
LWPOLYLINE
  5
16e
100
AcDbEntity
  8
Layer_1
 62
7
100
AcDbPolyline
 90
6
 70
0
 10
337.731806
 20
786.697972
 30
0.0
 10
342.732416
 20
786.697972
 30
0.0
 10
342.732416
 20
781.697361
 30
0.0
 10
337.731806
 20
781.697361
 30
0.0
 10
337.731806
 20
786.697972
 30
0.0
 10
337.731806
 20
786.697972
 30
0.0
  0
LWPOLYLINE
  5
16f
100
AcDbEntity
  8
Layer_1
 62
7
100
AcDbPolyline
 90
6
 70
0
 10
347.733056
 20
786.697972
 30
0.0
 10
352.733695
 20
786.697972
 30
0.0
 10
352.733695
 20
781.697361
 30
0.0
 10
347.733056
 20
781.697361
 30
0.0
 10
347.733056
 20
786.697972
 30
0.0
 10
347.733056
 20
786.697972
 30
0.0
  0
SPLINE
  5
170
100
AcDbEntity
  8
Layer_1
 62
7
100
AcDbSpline
 70
8
 71
3
 72
8
 73
4
 74
0
 40
0
 40
0
 40
0
 40
0
 40
1
 40
1
 40
1
 40
1
 10
356.887639
 20
625.372694
 30
0.0
 10
357.517333
 20
625.372694
 30
0.0
 10
358.025361
 20
624.864751
 30
0.0
 10
358.025361
 20
624.234972
 30
0.0
  0
SPLINE
  5
171
100
AcDbEntity
  8
Layer_1
 62
7
100
AcDbSpline
 70
8
 71
3
 72
8
 73
4
 74
0
 40
0
 40
0
 40
0
 40
0
 40
1
 40
1
 40
1
 40
1
 10
358.025361
 20
624.234972
 30
0.0
 10
358.025361
 20
623.605165
 30
0.0
 10
357.517333
 20
623.088472
 30
0.0
 10
356.887639
 20
623.088472
 30
0.0
  0
SPLINE
  5
172
100
AcDbEntity
  8
Layer_1
 62
7
100
AcDbSpline
 70
8
 71
3
 72
8
 73
4
 74
0
 40
0
 40
0
 40
0
 40
0
 40
1
 40
1
 40
1
 40
1
 10
356.887639
 20
623.088472
 30
0.0
 10
356.257747
 20
623.088472
 30
0.0
 10
355.741111
 20
623.605165
 30
0.0
 10
355.741111
 20
624.234972
 30
0.0
  0
SPLINE
  5
173
100
AcDbEntity
  8
Layer_1
 62
7
100
AcDbSpline
 70
8
 71
3
 72
8
 73
4
 74
0
 40
0
 40
0
 40
0
 40
0
 40
1
 40
1
 40
1
 40
1
 10
355.741111
 20
624.234972
 30
0.0
 10
355.741111
 20
624.864779
 30
0.0
 10
356.257747
 20
625.372694
 30
0.0
 10
356.887639
 20
625.372694
 30
0.0
  0
LWPOLYLINE
  5
174
100
AcDbEntity
  8
Layer_1
 62
7
100
AcDbPolyline
 90
6
 70
0
 10
357.734306
 20
786.697972
 30
0.0
 10
362.734916
 20
786.697972
 30
0.0
 10
362.734916
 20
781.697361
 30
0.0
 10
357.734306
 20
781.697361
 30
0.0
 10
357.734306
 20
786.697972
 30
0.0
 10
357.734306
 20
786.697972
 30
0.0
  0
SPLINE
  5
175
100
AcDbEntity
  8
Layer_1
 62
7
100
AcDbSpline
 70
8
 71
3
 72
8
 73
4
 74
0
 40
0
 40
0
 40
0
 40
0
 40
1
 40
1
 40
1
 40
1
 10
356.693611
 20
614.612972
 30
0.0
 10
357.605979
 20
614.612972
 30
0.0
 10
358.342861
 20
613.876005
 30
0.0
 10
358.342861
 20
612.963750
 30
0.0
  0
SPLINE
  5
176
100
AcDbEntity
  8
Layer_1
 62
7
100
AcDbSpline
 70
8
 71
3
 72
8
 73
4
 74
0
 40
0
 40
0
 40
0
 40
0
 40
1
 40
1
 40
1
 40
1
 10
358.342861
 20
612.963750
 30
0.0
 10
358.342861
 20
612.051410
 30
0.0
 10
357.605979
 20
611.314500
 30
0.0
 10
356.693611
 20
611.314500
 30
0.0
  0
SPLINE
  5
177
100
AcDbEntity
  8
Layer_1
 62
7
100
AcDbSpline
 70
8
 71
3
 72
8
 73
4
 74
0
 40
0
 40
0
 40
0
 40
0
 40
1
 40
1
 40
1
 40
1
 10
356.693611
 20
611.314500
 30
0.0
 10
355.781412
 20
611.314500
 30
0.0
 10
355.044361
 20
612.051410
 30
0.0
 10
355.044361
 20
612.963750
 30
0.0
  0
SPLINE
  5
178
100
AcDbEntity
  8
Layer_1
 62
7
100
AcDbSpline
 70
8
 71
3
 72
8
 73
4
 74
0
 40
0
 40
0
 40
0
 40
0
 40
1
 40
1
 40
1
 40
1
 10
355.044361
 20
612.963750
 30
0.0
 10
355.044361
 20
613.876034
 30
0.0
 10
355.781412
 20
614.612972
 30
0.0
 10
356.693611
 20
614.612972
 30
0.0
  0
LWPOLYLINE
  5
179
100
AcDbEntity
  8
Layer_1
 62
7
100
AcDbPolyline
 90
2
 70
0
 10
356.887639
 20
625.372694
 30
0.0
 10
356.887639
 20
625.372694
 30
0.0
  0
SPLINE
  5
17a
100
AcDbEntity
  8
Layer_1
 62
7
100
AcDbSpline
 70
8
 71
3
 72
8
 73
4
 74
0
 40
0
 40
0
 40
0
 40
0
 40
1
 40
1
 40
1
 40
1
 10
346.833472
 20
608.562833
 30
0.0
 10
347.463166
 20
608.562833
 30
0.0
 10
347.971195
 20
608.054890
 30
0.0
 10
347.971195
 20
607.425139
 30
0.0
  0
SPLINE
  5
17b
100
AcDbEntity
  8
Layer_1
 62
7
100
AcDbSpline
 70
8
 71
3
 72
8
 73
4
 74
0
 40
0
 40
0
 40
0
 40
0
 40
1
 40
1
 40
1
 40
1
 10
347.971195
 20
607.425139
 30
0.0
 10
347.971195
 20
606.795304
 30
0.0
 10
347.463166
 20
606.287417
 30
0.0
 10
346.833472
 20
606.287417
 30
0.0
  0
SPLINE
  5
17c
100
AcDbEntity
  8
Layer_1
 62
7
100
AcDbSpline
 70
8
 71
3
 72
8
 73
4
 74
0
 40
0
 40
0
 40
0
 40
0
 40
1
 40
1
 40
1
 40
1
 10
346.833472
 20
606.287417
 30
0.0
 10
346.203580
 20
606.287417
 30
0.0
 10
345.695750
 20
606.795304
 30
0.0
 10
345.695750
 20
607.425139
 30
0.0
  0
SPLINE
  5
17d
100
AcDbEntity
  8
Layer_1
 62
7
100
AcDbSpline
 70
8
 71
3
 72
8
 73
4
 74
0
 40
0
 40
0
 40
0
 40
0
 40
1
 40
1
 40
1
 40
1
 10
345.695750
 20
607.425139
 30
0.0
 10
345.695750
 20
608.054918
 30
0.0
 10
346.203580
 20
608.562833
 30
0.0
 10
346.833472
 20
608.562833
 30
0.0
  0
LWPOLYLINE
  5
17e
100
AcDbEntity
  8
Layer_1
 62
7
100
AcDbPolyline
 90
2
 70
0
 10
356.693611
 20
614.612972
 30
0.0
 10
356.693611
 20
614.612972
 30
0.0
  0
SPLINE
  5
17f
100
AcDbEntity
  8
Layer_1
 62
7
100
AcDbSpline
 70
8
 71
3
 72
8
 73
4
 74
0
 40
0
 40
0
 40
0
 40
0
 40
1
 40
1
 40
1
 40
1
 10
366.430278
 20
608.271806
 30
0.0
 10
367.060170
 20
608.271806
 30
0.0
 10
367.567972
 20
607.755057
 30
0.0
 10
367.567972
 20
607.125250
 30
0.0
  0
SPLINE
  5
180
100
AcDbEntity
  8
Layer_1
 62
7
100
AcDbSpline
 70
8
 71
3
 72
8
 73
4
 74
0
 40
0
 40
0
 40
0
 40
0
 40
1
 40
1
 40
1
 40
1
 10
367.567972
 20
607.125250
 30
0.0
 10
367.567972
 20
606.495443
 30
0.0
 10
367.060170
 20
605.987556
 30
0.0
 10
366.430278
 20
605.987556
 30
0.0
  0
SPLINE
  5
181
100
AcDbEntity
  8
Layer_1
 62
7
100
AcDbSpline
 70
8
 71
3
 72
8
 73
4
 74
0
 40
0
 40
0
 40
0
 40
0
 40
1
 40
1
 40
1
 40
1
 10
366.430278
 20
605.987556
 30
0.0
 10
365.800584
 20
605.987556
 30
0.0
 10
365.292584
 20
606.495443
 30
0.0
 10
365.292584
 20
607.125250
 30
0.0
  0
SPLINE
  5
182
100
AcDbEntity
  8
Layer_1
 62
7
100
AcDbSpline
 70
8
 71
3
 72
8
 73
4
 74
0
 40
0
 40
0
 40
0
 40
0
 40
1
 40
1
 40
1
 40
1
 10
365.292584
 20
607.125250
 30
0.0
 10
365.292584
 20
607.755057
 30
0.0
 10
365.800584
 20
608.271806
 30
0.0
 10
366.430278
 20
608.271806
 30
0.0
  0
LWPOLYLINE
  5
183
100
AcDbEntity
  8
Layer_1
 62
7
100
AcDbPolyline
 90
2
 70
0
 10
346.833472
 20
608.562833
 30
0.0
 10
346.833472
 20
608.562833
 30
0.0
  0
LWPOLYLINE
  5
184
100
AcDbEntity
  8
Layer_1
 62
7
100
AcDbPolyline
 90
2
 70
0
 10
366.430278
 20
608.271806
 30
0.0
 10
366.430278
 20
608.271806
 30
0.0
  0
SPLINE
  5
185
100
AcDbEntity
  8
Layer_1
 62
7
100
AcDbSpline
 70
8
 71
3
 72
8
 73
4
 74
0
 40
0
 40
0
 40
0
 40
0
 40
1
 40
1
 40
1
 40
1
 10
80.010000
 20
590.135486
 30
0.0
 10
74.635668
 20
590.157257
 30
0.0
 10
70.282153
 20
596.790172
 30
0.0
 10
70.282153
 20
604.969792
 30
0.0
  0
SPLINE
  5
186
100
AcDbEntity
  8
Layer_1
 62
7
100
AcDbSpline
 70
8
 71
3
 72
8
 73
4
 74
0
 40
0
 40
0
 40
0
 40
0
 40
1
 40
1
 40
1
 40
1
 10
70.282153
 20
604.969792
 30
0.0
 10
70.282153
 20
613.149411
 30
0.0
 10
74.635668
 20
619.782326
 30
0.0
 10
80.010000
 20
619.804097
 30
0.0
  0
LWPOLYLINE
  5
187
100
AcDbEntity
  8
Layer_1
 62
7
100
AcDbPolyline
 90
67
 70
0
 10
30.003750
 20
829.997917
 30
0.0
 10
30.003750
 20
824.997292
 30
0.0
 10
30.003750
 20
785.001111
 30
0.0
 10
35.004375
 20
785.001111
 30
0.0
 10
35.004375
 20
780.000486
 30
0.0
 10
30.003750
 20
780.000486
 30
0.0
 10
30.003750
 20
469.997014
 30
0.0
 10
30.003750
 20
464.996389
 30
0.0
 10
35.004375
 20
464.996389
 30
0.0
 10
35.004375
 20
469.997014
 30
0.0
 10
39.996181
 20
469.997014
 30
0.0
 10
39.996181
 20
464.996389
 30
0.0
 10
44.996806
 20
464.996389
 30
0.0
 10
44.996806
 20
469.997014
 30
0.0
 10
49.997431
 20
469.997014
 30
0.0
 10
49.997431
 20
464.996389
 30
0.0
 10
54.998056
 20
464.996389
 30
0.0
 10
54.998056
 20
469.997014
 30
0.0
 10
59.998681
 20
469.997014
 30
0.0
 10
59.998681
 20
464.996389
 30
0.0
 10
64.999306
 20
464.996389
 30
0.0
 10
64.999306
 20
469.997014
 30
0.0
 10
69.999931
 20
469.997014
 30
0.0
 10
69.999931
 20
464.996389
 30
0.0
 10
75.000556
 20
464.996389
 30
0.0
 10
75.000556
 20
469.997014
 30
0.0
 10
80.010000
 20
469.997014
 30
0.0
 10
85.001806
 20
469.997014
 30
0.0
 10
85.001806
 20
474.997639
 30
0.0
 10
80.010000
 20
474.997639
 30
0.0
 10
80.010000
 20
479.998264
 30
0.0
 10
85.001806
 20
479.998264
 30
0.0
 10
85.001806
 20
484.998889
 30
0.0
 10
80.010000
 20
484.998889
 30
0.0
 10
80.010000
 20
489.999514
 30
0.0
 10
85.001806
 20
489.999514
 30
0.0
 10
85.001806
 20
495.000139
 30
0.0
 10
80.010000
 20
495.000139
 30
0.0
 10
80.010000
 20
500.000764
 30
0.0
 10
85.001806
 20
500.000764
 30
0.0
 10
85.001806
 20
505.001389
 30
0.0
 10
80.010000
 20
505.001389
 30
0.0
 10
80.010000
 20
510.002014
 30
0.0
 10
85.001806
 20
510.002014
 30
0.0
 10
85.001806
 20
515.002639
 30
0.0
 10
80.010000
 20
515.002639
 30
0.0
 10
80.010000
 20
520.003264
 30
0.0
 10
85.001806
 20
520.003264
 30
0.0
 10
85.001806
 20
525.003889
 30
0.0
 10
80.010000
 20
525.003889
 30
0.0
 10
80.010000
 20
529.995694
 30
0.0
 10
85.001806
 20
529.995694
 30
0.0
 10
85.001806
 20
534.996319
 30
0.0
 10
80.010000
 20
534.996319
 30
0.0
 10
80.010000
 20
539.996944
 30
0.0
 10
85.001806
 20
539.996944
 30
0.0
 10
85.001806
 20
544.997569
 30
0.0
 10
80.010000
 20
544.997569
 30
0.0
 10
80.010000
 20
549.998194
 30
0.0
 10
85.001806
 20
549.998194
 30
0.0
 10
85.001806
 20
554.998819
 30
0.0
 10
80.010000
 20
554.998819
 30
0.0
 10
80.010000
 20
559.999444
 30
0.0
 10
85.001806
 20
559.999444
 30
0.0
 10
85.001806
 20
565.000069
 30
0.0
 10
80.010000
 20
565.000069
 30
0.0
 10
80.010000
 20
590.135486
 30
0.0
  0
LWPOLYLINE
  5
188
100
AcDbEntity
  8
Layer_1
 62
7
100
AcDbPolyline
 90
94
 70
0
 10
80.010000
 20
619.804097
 30
0.0
 10
80.010000
 20
645.001250
 30
0.0
 10
85.001806
 20
645.001250
 30
0.0
 10
85.001806
 20
650.001875
 30
0.0
 10
80.010000
 20
650.001875
 30
0.0
 10
80.010000
 20
655.002500
 30
0.0
 10
85.001806
 20
655.002500
 30
0.0
 10
85.001806
 20
660.003125
 30
0.0
 10
80.010000
 20
660.003125
 30
0.0
 10
80.010000
 20
665.003750
 30
0.0
 10
85.001806
 20
665.003750
 30
0.0
 10
85.001806
 20
670.004375
 30
0.0
 10
80.010000
 20
670.004375
 30
0.0
 10
80.010000
 20
674.996181
 30
0.0
 10
85.001806
 20
674.996181
 30
0.0
 10
85.001806
 20
679.996806
 30
0.0
 10
80.010000
 20
679.996806
 30
0.0
 10
80.010000
 20
684.997431
 30
0.0
 10
85.001806
 20
684.997431
 30
0.0
 10
85.001806
 20
689.998056
 30
0.0
 10
80.010000
 20
689.998056
 30
0.0
 10
80.010000
 20
694.998681
 30
0.0
 10
85.001806
 20
694.998681
 30
0.0
 10
85.001806
 20
699.999306
 30
0.0
 10
80.010000
 20
699.999306
 30
0.0
 10
80.010000
 20
704.999931
 30
0.0
 10
85.001806
 20
704.999931
 30
0.0
 10
85.001806
 20
710.000556
 30
0.0
 10
80.010000
 20
710.000556
 30
0.0
 10
80.010000
 20
715.001181
 30
0.0
 10
85.001806
 20
715.001181
 30
0.0
 10
85.001806
 20
720.001806
 30
0.0
 10
80.010000
 20
720.001806
 30
0.0
 10
80.010000
 20
725.002431
 30
0.0
 10
85.001806
 20
725.002431
 30
0.0
 10
85.001806
 20
730.003056
 30
0.0
 10
80.010000
 20
730.003056
 30
0.0
 10
80.010000
 20
735.003681
 30
0.0
 10
85.001806
 20
735.003681
 30
0.0
 10
85.001806
 20
740.004306
 30
0.0
 10
80.010000
 20
740.004306
 30
0.0
 10
80.010000
 20
744.996111
 30
0.0
 10
85.001806
 20
744.996111
 30
0.0
 10
85.001806
 20
749.996736
 30
0.0
 10
80.010000
 20
749.996736
 30
0.0
 10
80.010000
 20
754.997361
 30
0.0
 10
85.001806
 20
754.997361
 30
0.0
 10
85.001806
 20
759.997986
 30
0.0
 10
80.010000
 20
759.997986
 30
0.0
 10
80.010000
 20
764.998611
 30
0.0
 10
85.001806
 20
764.998611
 30
0.0
 10
85.001806
 20
769.999236
 30
0.0
 10
80.010000
 20
769.999236
 30
0.0
 10
80.010000
 20
774.999861
 30
0.0
 10
85.001806
 20
774.999861
 30
0.0
 10
85.001806
 20
780.000486
 30
0.0
 10
80.010000
 20
780.000486
 30
0.0
 10
80.010000
 20
785.001111
 30
0.0
 10
85.001806
 20
785.001111
 30
0.0
 10
85.001806
 20
790.001736
 30
0.0
 10
80.010000
 20
790.001736
 30
0.0
 10
80.010000
 20
795.002361
 30
0.0
 10
85.001806
 20
795.002361
 30
0.0
 10
85.001806
 20
800.002986
 30
0.0
 10
80.010000
 20
800.002986
 30
0.0
 10
80.010000
 20
805.003611
 30
0.0
 10
85.001806
 20
805.003611
 30
0.0
 10
85.001806
 20
810.004236
 30
0.0
 10
80.010000
 20
810.004236
 30
0.0
 10
80.010000
 20
814.996042
 30
0.0
 10
85.001806
 20
814.996042
 30
0.0
 10
85.001806
 20
819.996667
 30
0.0
 10
80.010000
 20
819.996667
 30
0.0
 10
80.010000
 20
824.997292
 30
0.0
 10
75.000556
 20
824.997292
 30
0.0
 10
75.000556
 20
829.997917
 30
0.0
 10
69.999931
 20
829.997917
 30
0.0
 10
69.999931
 20
824.997292
 30
0.0
 10
64.999306
 20
824.997292
 30
0.0
 10
64.999306
 20
829.997917
 30
0.0
 10
59.998681
 20
829.997917
 30
0.0
 10
59.998681
 20
824.997292
 30
0.0
 10
54.998056
 20
824.997292
 30
0.0
 10
54.998056
 20
829.997917
 30
0.0
 10
49.997431
 20
829.997917
 30
0.0
 10
49.997431
 20
824.997292
 30
0.0
 10
44.996806
 20
824.997292
 30
0.0
 10
44.996806
 20
829.997917
 30
0.0
 10
39.996181
 20
829.997917
 30
0.0
 10
39.996181
 20
824.997292
 30
0.0
 10
35.004375
 20
824.997292
 30
0.0
 10
35.004375
 20
829.997917
 30
0.0
 10
30.003750
 20
829.997917
 30
0.0
 10
30.003750
 20
829.997917
 30
0.0
  0
LWPOLYLINE
  5
189
100
AcDbEntity
  8
Layer_1
 62
7
100
AcDbPolyline
 90
6
 70
0
 10
39.996181
 20
785.001111
 30
0.0
 10
44.996806
 20
785.001111
 30
0.0
 10
44.996806
 20
780.000486
 30
0.0
 10
39.996181
 20
780.000486
 30
0.0
 10
39.996181
 20
785.001111
 30
0.0
 10
39.996181
 20
785.001111
 30
0.0
  0
LWPOLYLINE
  5
18a
100
AcDbEntity
  8
Layer_1
 62
7
100
AcDbPolyline
 90
6
 70
0
 10
49.997431
 20
785.001111
 30
0.0
 10
54.998056
 20
785.001111
 30
0.0
 10
54.998056
 20
780.000486
 30
0.0
 10
49.997431
 20
780.000486
 30
0.0
 10
49.997431
 20
785.001111
 30
0.0
 10
49.997431
 20
785.001111
 30
0.0
  0
LWPOLYLINE
  5
18b
100
AcDbEntity
  8
Layer_1
 62
7
100
AcDbPolyline
 90
6
 70
0
 10
59.998681
 20
785.001111
 30
0.0
 10
64.999306
 20
785.001111
 30
0.0
 10
64.999306
 20
780.000486
 30
0.0
 10
59.998681
 20
780.000486
 30
0.0
 10
59.998681
 20
785.001111
 30
0.0
 10
59.998681
 20
785.001111
 30
0.0
  0
SPLINE
  5
18c
100
AcDbEntity
  8
Layer_1
 62
7
100
AcDbSpline
 70
8
 71
3
 72
8
 73
4
 74
0
 40
0
 40
0
 40
0
 40
0
 40
1
 40
1
 40
1
 40
1
 10
70.017569
 20
632.001389
 30
0.0
 10
71.122139
 20
632.001389
 30
0.0
 10
72.010764
 20
631.103945
 30
0.0
 10
72.010764
 20
629.999375
 30
0.0
  0
SPLINE
  5
18d
100
AcDbEntity
  8
Layer_1
 62
7
100
AcDbSpline
 70
8
 71
3
 72
8
 73
4
 74
0
 40
0
 40
0
 40
0
 40
0
 40
1
 40
1
 40
1
 40
1
 10
72.010764
 20
629.999375
 30
0.0
 10
72.010764
 20
628.894805
 30
0.0
 10
71.122139
 20
627.997361
 30
0.0
 10
70.017569
 20
627.997361
 30
0.0
  0
SPLINE
  5
18e
100
AcDbEntity
  8
Layer_1
 62
7
100
AcDbSpline
 70
8
 71
3
 72
8
 73
4
 74
0
 40
0
 40
0
 40
0
 40
0
 40
1
 40
1
 40
1
 40
1
 10
70.017569
 20
627.997361
 30
0.0
 10
68.913000
 20
627.997361
 30
0.0
 10
68.015556
 20
628.894805
 30
0.0
 10
68.015556
 20
629.999375
 30
0.0
  0
SPLINE
  5
18f
100
AcDbEntity
  8
Layer_1
 62
7
100
AcDbSpline
 70
8
 71
3
 72
8
 73
4
 74
0
 40
0
 40
0
 40
0
 40
0
 40
1
 40
1
 40
1
 40
1
 10
68.015556
 20
629.999375
 30
0.0
 10
68.015556
 20
631.103945
 30
0.0
 10
68.913000
 20
632.001389
 30
0.0
 10
70.017569
 20
632.001389
 30
0.0
  0
LWPOLYLINE
  5
190
100
AcDbEntity
  8
Layer_1
 62
7
100
AcDbPolyline
 90
6
 70
0
 10
69.999931
 20
785.001111
 30
0.0
 10
75.000556
 20
785.001111
 30
0.0
 10
75.000556
 20
780.000486
 30
0.0
 10
69.999931
 20
780.000486
 30
0.0
 10
69.999931
 20
785.001111
 30
0.0
 10
69.999931
 20
785.001111
 30
0.0
  0
SPLINE
  5
191
100
AcDbEntity
  8
Layer_1
 62
7
100
AcDbSpline
 70
8
 71
3
 72
8
 73
4
 74
0
 40
0
 40
0
 40
0
 40
0
 40
1
 40
1
 40
1
 40
1
 10
45.843472
 20
623.675833
 30
0.0
 10
46.473279
 20
623.675833
 30
0.0
 10
46.990000
 20
623.167904
 30
0.0
 10
46.990000
 20
622.538125
 30
0.0
  0
SPLINE
  5
192
100
AcDbEntity
  8
Layer_1
 62
7
100
AcDbSpline
 70
8
 71
3
 72
8
 73
4
 74
0
 40
0
 40
0
 40
0
 40
0
 40
1
 40
1
 40
1
 40
1
 10
46.990000
 20
622.538125
 30
0.0
 10
46.990000
 20
621.908290
 30
0.0
 10
46.473279
 20
621.391597
 30
0.0
 10
45.843472
 20
621.391597
 30
0.0
  0
SPLINE
  5
193
100
AcDbEntity
  8
Layer_1
 62
7
100
AcDbSpline
 70
8
 71
3
 72
8
 73
4
 74
0
 40
0
 40
0
 40
0
 40
0
 40
1
 40
1
 40
1
 40
1
 10
45.843472
 20
621.391597
 30
0.0
 10
45.213693
 20
621.391597
 30
0.0
 10
44.705764
 20
621.908290
 30
0.0
 10
44.705764
 20
622.538125
 30
0.0
  0
SPLINE
  5
194
100
AcDbEntity
  8
Layer_1
 62
7
100
AcDbSpline
 70
8
 71
3
 72
8
 73
4
 74
0
 40
0
 40
0
 40
0
 40
0
 40
1
 40
1
 40
1
 40
1
 10
44.705764
 20
622.538125
 30
0.0
 10
44.705764
 20
623.167904
 30
0.0
 10
45.213693
 20
623.675833
 30
0.0
 10
45.843472
 20
623.675833
 30
0.0
  0
LWPOLYLINE
  5
195
100
AcDbEntity
  8
Layer_1
 62
7
100
AcDbPolyline
 90
2
 70
0
 10
70.017569
 20
632.001389
 30
0.0
 10
70.017569
 20
632.001389
 30
0.0
  0
SPLINE
  5
196
100
AcDbEntity
  8
Layer_1
 62
7
100
AcDbSpline
 70
8
 71
3
 72
8
 73
4
 74
0
 40
0
 40
0
 40
0
 40
0
 40
1
 40
1
 40
1
 40
1
 10
46.037500
 20
612.916111
 30
0.0
 10
46.949783
 20
612.916111
 30
0.0
 10
47.686736
 20
612.179158
 30
0.0
 10
47.686736
 20
611.266875
 30
0.0
  0
SPLINE
  5
197
100
AcDbEntity
  8
Layer_1
 62
7
100
AcDbSpline
 70
8
 71
3
 72
8
 73
4
 74
0
 40
0
 40
0
 40
0
 40
0
 40
1
 40
1
 40
1
 40
1
 10
47.686736
 20
611.266875
 30
0.0
 10
47.686736
 20
610.354563
 30
0.0
 10
46.949783
 20
609.617639
 30
0.0
 10
46.037500
 20
609.617639
 30
0.0
  0
SPLINE
  5
198
100
AcDbEntity
  8
Layer_1
 62
7
100
AcDbSpline
 70
8
 71
3
 72
8
 73
4
 74
0
 40
0
 40
0
 40
0
 40
0
 40
1
 40
1
 40
1
 40
1
 10
46.037500
 20
609.617639
 30
0.0
 10
45.125188
 20
609.617639
 30
0.0
 10
44.388264
 20
610.354563
 30
0.0
 10
44.388264
 20
611.266875
 30
0.0
  0
SPLINE
  5
199
100
AcDbEntity
  8
Layer_1
 62
7
100
AcDbSpline
 70
8
 71
3
 72
8
 73
4
 74
0
 40
0
 40
0
 40
0
 40
0
 40
1
 40
1
 40
1
 40
1
 10
44.388264
 20
611.266875
 30
0.0
 10
44.388264
 20
612.179158
 30
0.0
 10
45.125188
 20
612.916111
 30
0.0
 10
46.037500
 20
612.916111
 30
0.0
  0
LWPOLYLINE
  5
19a
100
AcDbEntity
  8
Layer_1
 62
7
100
AcDbPolyline
 90
2
 70
0
 10
45.843472
 20
623.675833
 30
0.0
 10
45.843472
 20
623.675833
 30
0.0
  0
SPLINE
  5
19b
100
AcDbEntity
  8
Layer_1
 62
7
100
AcDbSpline
 70
8
 71
3
 72
8
 73
4
 74
0
 40
0
 40
0
 40
0
 40
0
 40
1
 40
1
 40
1
 40
1
 10
55.897639
 20
606.865972
 30
0.0
 10
56.527446
 20
606.865972
 30
0.0
 10
57.035347
 20
606.358043
 30
0.0
 10
57.035347
 20
605.728264
 30
0.0
  0
SPLINE
  5
19c
100
AcDbEntity
  8
Layer_1
 62
7
100
AcDbSpline
 70
8
 71
3
 72
8
 73
4
 74
0
 40
0
 40
0
 40
0
 40
0
 40
1
 40
1
 40
1
 40
1
 10
57.035347
 20
605.728264
 30
0.0
 10
57.035347
 20
605.098429
 30
0.0
 10
56.527446
 20
604.590556
 30
0.0
 10
55.897639
 20
604.590556
 30
0.0
  0
SPLINE
  5
19d
100
AcDbEntity
  8
Layer_1
 62
7
100
AcDbSpline
 70
8
 71
3
 72
8
 73
4
 74
0
 40
0
 40
0
 40
0
 40
0
 40
1
 40
1
 40
1
 40
1
 10
55.897639
 20
604.590556
 30
0.0
 10
55.267860
 20
604.590556
 30
0.0
 10
54.759931
 20
605.098429
 30
0.0
 10
54.759931
 20
605.728264
 30
0.0
  0
SPLINE
  5
19e
100
AcDbEntity
  8
Layer_1
 62
7
100
AcDbSpline
 70
8
 71
3
 72
8
 73
4
 74
0
 40
0
 40
0
 40
0
 40
0
 40
1
 40
1
 40
1
 40
1
 10
54.759931
 20
605.728264
 30
0.0
 10
54.759931
 20
606.358043
 30
0.0
 10
55.267860
 20
606.865972
 30
0.0
 10
55.897639
 20
606.865972
 30
0.0
  0
LWPOLYLINE
  5
19f
100
AcDbEntity
  8
Layer_1
 62
7
100
AcDbPolyline
 90
2
 70
0
 10
46.037500
 20
612.916111
 30
0.0
 10
46.037500
 20
612.916111
 30
0.0
  0
SPLINE
  5
1a0
100
AcDbEntity
  8
Layer_1
 62
7
100
AcDbSpline
 70
8
 71
3
 72
8
 73
4
 74
0
 40
0
 40
0
 40
0
 40
0
 40
1
 40
1
 40
1
 40
1
 10
36.300833
 20
606.574931
 30
0.0
 10
36.930612
 20
606.574931
 30
0.0
 10
37.438542
 20
606.058182
 30
0.0
 10
37.438542
 20
605.428403
 30
0.0
  0
SPLINE
  5
1a1
100
AcDbEntity
  8
Layer_1
 62
7
100
AcDbSpline
 70
8
 71
3
 72
8
 73
4
 74
0
 40
0
 40
0
 40
0
 40
0
 40
1
 40
1
 40
1
 40
1
 10
37.438542
 20
605.428403
 30
0.0
 10
37.438542
 20
604.798567
 30
0.0
 10
36.930612
 20
604.290694
 30
0.0
 10
36.300833
 20
604.290694
 30
0.0
  0
SPLINE
  5
1a2
100
AcDbEntity
  8
Layer_1
 62
7
100
AcDbSpline
 70
8
 71
3
 72
8
 73
4
 74
0
 40
0
 40
0
 40
0
 40
0
 40
1
 40
1
 40
1
 40
1
 10
36.300833
 20
604.290694
 30
0.0
 10
35.671026
 20
604.290694
 30
0.0
 10
35.163125
 20
604.798567
 30
0.0
 10
35.163125
 20
605.428403
 30
0.0
  0
SPLINE
  5
1a3
100
AcDbEntity
  8
Layer_1
 62
7
100
AcDbSpline
 70
8
 71
3
 72
8
 73
4
 74
0
 40
0
 40
0
 40
0
 40
0
 40
1
 40
1
 40
1
 40
1
 10
35.163125
 20
605.428403
 30
0.0
 10
35.163125
 20
606.058182
 30
0.0
 10
35.671026
 20
606.574931
 30
0.0
 10
36.300833
 20
606.574931
 30
0.0
  0
LWPOLYLINE
  5
1a4
100
AcDbEntity
  8
Layer_1
 62
7
100
AcDbPolyline
 90
2
 70
0
 10
55.897639
 20
606.865972
 30
0.0
 10
55.897639
 20
606.865972
 30
0.0
  0
LWPOLYLINE
  5
1a5
100
AcDbEntity
  8
Layer_1
 62
7
100
AcDbPolyline
 90
2
 70
0
 10
36.300833
 20
606.574931
 30
0.0
 10
36.300833
 20
606.574931
 30
0.0
  0
SPLINE
  5
1a6
100
AcDbEntity
  8
Layer_1
 62
7
100
AcDbSpline
 70
8
 71
3
 72
8
 73
4
 74
0
 40
0
 40
0
 40
0
 40
0
 40
1
 40
1
 40
1
 40
1
 10
162.022014
 20
865.226306
 30
0.0
 10
162.850441
 20
865.226306
 30
0.0
 10
163.521319
 20
864.555435
 30
0.0
 10
163.521319
 20
863.727000
 30
0.0
  0
SPLINE
  5
1a7
100
AcDbEntity
  8
Layer_1
 62
7
100
AcDbSpline
 70
8
 71
3
 72
8
 73
4
 74
0
 40
0
 40
0
 40
0
 40
0
 40
1
 40
1
 40
1
 40
1
 10
163.521319
 20
863.727000
 30
0.0
 10
163.521319
 20
862.898565
 30
0.0
 10
162.850441
 20
862.227694
 30
0.0
 10
162.022014
 20
862.227694
 30
0.0
  0
SPLINE
  5
1a8
100
AcDbEntity
  8
Layer_1
 62
7
100
AcDbSpline
 70
8
 71
3
 72
8
 73
4
 74
0
 40
0
 40
0
 40
0
 40
0
 40
1
 40
1
 40
1
 40
1
 10
162.022014
 20
862.227694
 30
0.0
 10
161.193587
 20
862.227694
 30
0.0
 10
160.522708
 20
862.898565
 30
0.0
 10
160.522708
 20
863.727000
 30
0.0
  0
SPLINE
  5
1a9
100
AcDbEntity
  8
Layer_1
 62
7
100
AcDbSpline
 70
8
 71
3
 72
8
 73
4
 74
0
 40
0
 40
0
 40
0
 40
0
 40
1
 40
1
 40
1
 40
1
 10
160.522708
 20
863.727000
 30
0.0
 10
160.522708
 20
864.555435
 30
0.0
 10
161.193587
 20
865.226306
 30
0.0
 10
162.022014
 20
865.226306
 30
0.0
  0
LWPOLYLINE
  5
1aa
100
AcDbEntity
  8
Layer_1
 62
7
100
AcDbPolyline
 90
132
 70
0
 10
116.451944
 20
887.742361
 30
0.0
 10
116.451944
 20
882.741722
 30
0.0
 10
111.451319
 20
882.741722
 30
0.0
 10
111.451319
 20
877.749917
 30
0.0
 10
116.451944
 20
877.749917
 30
0.0
 10
116.451944
 20
872.749306
 30
0.0
 10
111.451319
 20
872.749306
 30
0.0
 10
111.451319
 20
867.748667
 30
0.0
 10
116.451944
 20
867.748667
 30
0.0
 10
116.451944
 20
862.748028
 30
0.0
 10
111.451319
 20
862.748028
 30
0.0
 10
111.451319
 20
857.747417
 30
0.0
 10
116.451944
 20
857.747417
 30
0.0
 10
116.451944
 20
852.746806
 30
0.0
 10
111.451319
 20
852.746806
 30
0.0
 10
111.451319
 20
847.746167
 30
0.0
 10
116.451944
 20
847.746167
 30
0.0
 10
116.451944
 20
842.745528
 30
0.0
 10
111.451319
 20
842.745528
 30
0.0
 10
111.451319
 20
837.744917
 30
0.0
 10
111.451319
 20
832.744306
 30
0.0
 10
116.451944
 20
832.744306
 30
0.0
 10
116.451944
 20
837.744917
 30
0.0
 10
121.452569
 20
837.744917
 30
0.0
 10
121.452569
 20
832.744306
 30
0.0
 10
126.453194
 20
832.744306
 30
0.0
 10
126.453194
 20
837.744917
 30
0.0
 10
131.445000
 20
837.744917
 30
0.0
 10
131.445000
 20
832.744306
 30
0.0
 10
136.445625
 20
832.744306
 30
0.0
 10
136.445625
 20
837.744917
 30
0.0
 10
141.446250
 20
837.744917
 30
0.0
 10
141.446250
 20
832.744306
 30
0.0
 10
146.446875
 20
832.744306
 30
0.0
 10
146.446875
 20
837.744917
 30
0.0
 10
151.447500
 20
837.744917
 30
0.0
 10
151.447500
 20
832.744306
 30
0.0
 10
156.448125
 20
832.744306
 30
0.0
 10
156.448125
 20
837.744917
 30
0.0
 10
161.448750
 20
837.744917
 30
0.0
 10
161.448750
 20
832.744306
 30
0.0
 10
166.449375
 20
832.744306
 30
0.0
 10
166.449375
 20
837.744917
 30
0.0
 10
171.450000
 20
837.744917
 30
0.0
 10
171.450000
 20
832.744306
 30
0.0
 10
176.450625
 20
832.744306
 30
0.0
 10
176.450625
 20
837.744917
 30
0.0
 10
181.451250
 20
837.744917
 30
0.0
 10
181.451250
 20
832.744306
 30
0.0
 10
186.451875
 20
832.744306
 30
0.0
 10
186.451875
 20
837.744917
 30
0.0
 10
191.452500
 20
837.744917
 30
0.0
 10
191.452500
 20
832.744306
 30
0.0
 10
196.453125
 20
832.744306
 30
0.0
 10
196.453125
 20
837.744917
 30
0.0
 10
201.444931
 20
837.744917
 30
0.0
 10
201.444931
 20
832.744306
 30
0.0
 10
206.445556
 20
832.744306
 30
0.0
 10
206.445556
 20
837.744917
 30
0.0
 10
211.446181
 20
837.744917
 30
0.0
 10
211.446181
 20
832.744306
 30
0.0
 10
216.446806
 20
832.744306
 30
0.0
 10
216.446806
 20
837.744917
 30
0.0
 10
221.447431
 20
837.744917
 30
0.0
 10
221.447431
 20
832.744306
 30
0.0
 10
226.448056
 20
832.744306
 30
0.0
 10
226.448056
 20
837.744917
 30
0.0
 10
231.448681
 20
837.744917
 30
0.0
 10
231.448681
 20
832.744306
 30
0.0
 10
236.449306
 20
832.744306
 30
0.0
 10
236.449306
 20
837.744917
 30
0.0
 10
241.449931
 20
837.744917
 30
0.0
 10
241.449931
 20
832.744306
 30
0.0
 10
246.450556
 20
832.744306
 30
0.0
 10
246.450556
 20
837.744917
 30
0.0
 10
251.451181
 20
837.744917
 30
0.0
 10
251.451181
 20
832.744306
 30
0.0
 10
256.451806
 20
832.744306
 30
0.0
 10
256.451806
 20
837.744917
 30
0.0
 10
261.452431
 20
837.744917
 30
0.0
 10
261.452431
 20
832.744306
 30
0.0
 10
266.453056
 20
832.744306
 30
0.0
 10
266.453056
 20
837.744917
 30
0.0
 10
271.444861
 20
837.744917
 30
0.0
 10
271.444861
 20
832.744306
 30
0.0
 10
276.445486
 20
832.744306
 30
0.0
 10
276.445486
 20
837.744917
 30
0.0
 10
281.446111
 20
837.744917
 30
0.0
 10
281.446111
 20
832.744306
 30
0.0
 10
286.446750
 20
832.744306
 30
0.0
 10
286.446750
 20
837.744917
 30
0.0
 10
291.447361
 20
837.744917
 30
0.0
 10
291.447361
 20
832.744306
 30
0.0
 10
296.447972
 20
832.744306
 30
0.0
 10
296.447972
 20
837.744917
 30
0.0
 10
301.448611
 20
837.744917
 30
0.0
 10
301.448611
 20
832.744306
 30
0.0
 10
306.449250
 20
832.744306
 30
0.0
 10
306.449250
 20
837.744917
 30
0.0
 10
311.449861
 20
837.744917
 30
0.0
 10
311.449861
 20
832.744306
 30
0.0
 10
316.450472
 20
832.744306
 30
0.0
 10
316.450472
 20
837.744917
 30
0.0
 10
321.451111
 20
837.744917
 30
0.0
 10
321.451111
 20
832.744306
 30
0.0
 10
326.451750
 20
832.744306
 30
0.0
 10
326.451750
 20
837.744917
 30
0.0
 10
331.452361
 20
837.744917
 30
0.0
 10
331.452361
 20
832.744306
 30
0.0
 10
336.452972
 20
832.744306
 30
0.0
 10
336.452972
 20
842.745528
 30
0.0
 10
331.452361
 20
842.745528
 30
0.0
 10
331.452361
 20
847.746167
 30
0.0
 10
336.452972
 20
847.746167
 30
0.0
 10
336.452972
 20
852.746806
 30
0.0
 10
331.452361
 20
852.746806
 30
0.0
 10
331.452361
 20
857.747417
 30
0.0
 10
336.452972
 20
857.747417
 30
0.0
 10
336.452972
 20
862.748028
 30
0.0
 10
331.452361
 20
862.748028
 30
0.0
 10
331.452361
 20
867.748667
 30
0.0
 10
336.452972
 20
867.748667
 30
0.0
 10
336.452972
 20
872.749306
 30
0.0
 10
331.452361
 20
872.749306
 30
0.0
 10
331.452361
 20
877.749917
 30
0.0
 10
336.452972
 20
877.749917
 30
0.0
 10
336.452972
 20
882.741722
 30
0.0
 10
331.452361
 20
882.741722
 30
0.0
 10
331.452361
 20
887.742361
 30
0.0
 10
321.451111
 20
887.742361
 30
0.0
 10
116.451944
 20
887.742361
 30
0.0
 10
116.451944
 20
887.742361
 30
0.0
  0
SPLINE
  5
1ab
100
AcDbEntity
  8
Layer_1
 62
7
100
AcDbSpline
 70
8
 71
3
 72
8
 73
4
 74
0
 40
0
 40
0
 40
0
 40
0
 40
1
 40
1
 40
1
 40
1
 10
283.836195
 20
865.226306
 30
0.0
 10
284.664573
 20
865.226306
 30
0.0
 10
285.335472
 20
864.555435
 30
0.0
 10
285.335472
 20
863.727000
 30
0.0
  0
SPLINE
  5
1ac
100
AcDbEntity
  8
Layer_1
 62
7
100
AcDbSpline
 70
8
 71
3
 72
8
 73
4
 74
0
 40
0
 40
0
 40
0
 40
0
 40
1
 40
1
 40
1
 40
1
 10
285.335472
 20
863.727000
 30
0.0
 10
285.335472
 20
862.898565
 30
0.0
 10
284.664573
 20
862.227694
 30
0.0
 10
283.836195
 20
862.227694
 30
0.0
  0
SPLINE
  5
1ad
100
AcDbEntity
  8
Layer_1
 62
7
100
AcDbSpline
 70
8
 71
3
 72
8
 73
4
 74
0
 40
0
 40
0
 40
0
 40
0
 40
1
 40
1
 40
1
 40
1
 10
283.836195
 20
862.227694
 30
0.0
 10
283.007760
 20
862.227694
 30
0.0
 10
282.336861
 20
862.898565
 30
0.0
 10
282.336861
 20
863.727000
 30
0.0
  0
SPLINE
  5
1ae
100
AcDbEntity
  8
Layer_1
 62
7
100
AcDbSpline
 70
8
 71
3
 72
8
 73
4
 74
0
 40
0
 40
0
 40
0
 40
0
 40
1
 40
1
 40
1
 40
1
 10
282.336861
 20
863.727000
 30
0.0
 10
282.336861
 20
864.555435
 30
0.0
 10
283.007760
 20
865.226306
 30
0.0
 10
283.836195
 20
865.226306
 30
0.0
  0
LWPOLYLINE
  5
1af
100
AcDbEntity
  8
Layer_1
 62
7
100
AcDbPolyline
 90
2
 70
0
 10
162.022014
 20
865.226306
 30
0.0
 10
162.022014
 20
865.226306
 30
0.0
  0
LWPOLYLINE
  5
1b0
100
AcDbEntity
  8
Layer_1
 62
7
100
AcDbPolyline
 90
2
 70
0
 10
283.836195
 20
865.226306
 30
0.0
 10
283.836195
 20
865.226306
 30
0.0
  0
LWPOLYLINE
  5
1b1
100
AcDbEntity
  8
Layer_1
 62
7
100
AcDbPolyline
 90
134
 70
0
 10
100.003681
 20
526.039292
 30
0.0
 10
100.003681
 20
521.038667
 30
0.0
 10
95.003056
 20
521.038667
 30
0.0
 10
95.003056
 20
521.047472
 30
0.0
 10
90.002431
 20
521.047472
 30
0.0
 10
90.002431
 20
521.038667
 30
0.0
 10
90.002431
 20
516.038042
 30
0.0
 10
95.003056
 20
516.038042
 30
0.0
 10
95.003056
 20
511.037417
 30
0.0
 10
90.002431
 20
511.037417
 30
0.0
 10
90.002431
 20
506.036792
 30
0.0
 10
95.003056
 20
506.036792
 30
0.0
 10
95.003056
 20
501.036167
 30
0.0
 10
90.002431
 20
501.036167
 30
0.0
 10
90.002431
 20
496.035542
 30
0.0
 10
95.003056
 20
496.035542
 30
0.0
 10
95.003056
 20
491.034917
 30
0.0
 10
90.002431
 20
491.034917
 30
0.0
 10
90.002431
 20
486.034292
 30
0.0
 10
95.003056
 20
486.034292
 30
0.0
 10
95.003056
 20
481.033667
 30
0.0
 10
90.002431
 20
481.033667
 30
0.0
 10
90.002431
 20
476.041861
 30
0.0
 10
95.003056
 20
476.041861
 30
0.0
 10
95.003056
 20
471.041236
 30
0.0
 10
279.999722
 20
471.041236
 30
0.0
 10
295.001583
 20
471.041236
 30
0.0
 10
300.002222
 20
471.041236
 30
0.0
 10
310.003472
 20
471.041236
 30
0.0
 10
310.003472
 20
476.041861
 30
0.0
 10
315.004083
 20
476.041861
 30
0.0
 10
315.004083
 20
481.042486
 30
0.0
 10
310.003472
 20
481.042486
 30
0.0
 10
310.003472
 20
486.043111
 30
0.0
 10
315.004083
 20
486.043111
 30
0.0
 10
315.004083
 20
491.043736
 30
0.0
 10
310.003472
 20
491.043736
 30
0.0
 10
310.003472
 20
496.044361
 30
0.0
 10
315.004083
 20
496.044361
 30
0.0
 10
315.004083
 20
501.044986
 30
0.0
 10
310.003472
 20
501.044986
 30
0.0
 10
310.003472
 20
506.045611
 30
0.0
 10
315.004083
 20
506.045611
 30
0.0
 10
315.004083
 20
511.046236
 30
0.0
 10
310.003472
 20
511.046236
 30
0.0
 10
310.003472
 20
516.046861
 30
0.0
 10
315.004083
 20
516.046861
 30
0.0
 10
315.004083
 20
521.047486
 30
0.0
 10
310.003472
 20
521.047486
 30
0.0
 10
305.002861
 20
521.047486
 30
0.0
 10
305.002861
 20
526.039292
 30
0.0
 10
300.002222
 20
526.039292
 30
0.0
 10
300.002222
 20
521.047486
 30
0.0
 10
300.002222
 20
521.038681
 30
0.0
 10
295.001583
 20
521.038681
 30
0.0
 10
295.001583
 20
526.039306
 30
0.0
 10
290.000972
 20
526.039306
 30
0.0
 10
290.000972
 20
521.038681
 30
0.0
 10
285.000361
 20
521.038681
 30
0.0
 10
285.000361
 20
526.039306
 30
0.0
 10
279.999722
 20
526.039306
 30
0.0
 10
279.999722
 20
521.038681
 30
0.0
 10
274.999097
 20
521.038681
 30
0.0
 10
274.999097
 20
526.039306
 30
0.0
 10
269.998472
 20
526.039306
 30
0.0
 10
269.998472
 20
521.038681
 30
0.0
 10
264.997847
 20
521.038681
 30
0.0
 10
264.997847
 20
526.039306
 30
0.0
 10
259.997222
 20
526.039306
 30
0.0
 10
259.997222
 20
521.038681
 30
0.0
 10
254.996597
 20
521.038681
 30
0.0
 10
254.996597
 20
526.039306
 30
0.0
 10
249.995972
 20
526.039306
 30
0.0
 10
249.995972
 20
521.038681
 30
0.0
 10
245.004167
 20
521.038681
 30
0.0
 10
245.004167
 20
526.039306
 30
0.0
 10
240.003542
 20
526.039306
 30
0.0
 10
240.003542
 20
521.038681
 30
0.0
 10
235.002917
 20
521.038681
 30
0.0
 10
235.002917
 20
526.039306
 30
0.0
 10
230.002292
 20
526.039306
 30
0.0
 10
230.002292
 20
521.038681
 30
0.0
 10
225.001667
 20
521.038681
 30
0.0
 10
225.001667
 20
526.039306
 30
0.0
 10
220.001042
 20
526.039306
 30
0.0
 10
220.001042
 20
521.038681
 30
0.0
 10
215.000417
 20
521.038681
 30
0.0
 10
215.000417
 20
526.039306
 30
0.0
 10
209.999792
 20
526.039306
 30
0.0
 10
209.999792
 20
521.038681
 30
0.0
 10
204.999167
 20
521.038681
 30
0.0
 10
204.999167
 20
526.039306
 30
0.0
 10
199.998542
 20
526.039306
 30
0.0
 10
199.998542
 20
521.038681
 30
0.0
 10
194.997917
 20
521.038681
 30
0.0
 10
194.997917
 20
526.039306
 30
0.0
 10
189.997292
 20
526.039306
 30
0.0
 10
189.997292
 20
521.038681
 30
0.0
 10
184.996667
 20
521.038681
 30
0.0
 10
184.996667
 20
526.039306
 30
0.0
 10
179.996042
 20
526.039306
 30
0.0
 10
179.996042
 20
521.038681
 30
0.0
 10
175.004236
 20
521.038681
 30
0.0
 10
175.004236
 20
526.039306
 30
0.0
 10
170.003611
 20
526.039306
 30
0.0
 10
170.003611
 20
521.038681
 30
0.0
 10
165.002986
 20
521.038681
 30
0.0
 10
165.002986
 20
526.039306
 30
0.0
 10
160.002361
 20
526.039306
 30
0.0
 10
160.002361
 20
521.038681
 30
0.0
 10
155.001736
 20
521.038681
 30
0.0
 10
155.001736
 20
526.039306
 30
0.0
 10
150.001111
 20
526.039306
 30
0.0
 10
150.001111
 20
521.038681
 30
0.0
 10
145.000486
 20
521.038681
 30
0.0
 10
145.000486
 20
526.039306
 30
0.0
 10
139.999861
 20
526.039306
 30
0.0
 10
139.999861
 20
521.038681
 30
0.0
 10
134.999236
 20
521.038681
 30
0.0
 10
134.999236
 20
526.039306
 30
0.0
 10
129.998611
 20
526.039306
 30
0.0
 10
129.998611
 20
521.038681
 30
0.0
 10
124.997986
 20
521.038681
 30
0.0
 10
124.997986
 20
526.039306
 30
0.0
 10
119.997361
 20
526.039306
 30
0.0
 10
119.997361
 20
521.038681
 30
0.0
 10
114.996736
 20
521.038681
 30
0.0
 10
114.996736
 20
526.039306
 30
0.0
 10
109.996111
 20
526.039306
 30
0.0
 10
109.996111
 20
521.038681
 30
0.0
 10
105.004306
 20
521.038681
 30
0.0
 10
105.004306
 20
526.039306
 30
0.0
 10
100.003681
 20
526.039306
 30
0.0
 10
100.003681
 20
526.039292
 30
0.0
  0
LWPOLYLINE
  5
1b2
100
AcDbEntity
  8
Layer_1
 62
7
100
AcDbPolyline
 90
6
 70
0
 10
259.997222
 20
516.046861
 30
0.0
 10
264.997847
 20
516.046861
 30
0.0
 10
264.997847
 20
511.046236
 30
0.0
 10
259.997222
 20
511.046236
 30
0.0
 10
259.997222
 20
516.046861
 30
0.0
 10
259.997222
 20
516.046861
 30
0.0
  0
LWPOLYLINE
  5
1b3
100
AcDbEntity
  8
Layer_1
 62
7
100
AcDbPolyline
 90
6
 70
0
 10
259.997222
 20
506.045611
 30
0.0
 10
264.997847
 20
506.045611
 30
0.0
 10
264.997847
 20
501.044986
 30
0.0
 10
259.997222
 20
501.044986
 30
0.0
 10
259.997222
 20
506.045611
 30
0.0
 10
259.997222
 20
506.045611
 30
0.0
  0
LWPOLYLINE
  5
1b4
100
AcDbEntity
  8
Layer_1
 62
7
100
AcDbPolyline
 90
6
 70
0
 10
259.997222
 20
496.044361
 30
0.0
 10
264.997847
 20
496.044361
 30
0.0
 10
264.997847
 20
491.043736
 30
0.0
 10
259.997222
 20
491.043736
 30
0.0
 10
259.997222
 20
496.044361
 30
0.0
 10
259.997222
 20
496.044361
 30
0.0
  0
SPLINE
  5
1b5
100
AcDbEntity
  8
Layer_1
 62
7
100
AcDbSpline
 70
8
 71
3
 72
8
 73
4
 74
0
 40
0
 40
0
 40
0
 40
0
 40
1
 40
1
 40
1
 40
1
 10
112.562569
 20
482.806375
 30
0.0
 10
114.771709
 20
482.806375
 30
0.0
 10
116.557778
 20
481.011487
 30
0.0
 10
116.557778
 20
478.802347
 30
0.0
  0
SPLINE
  5
1b6
100
AcDbEntity
  8
Layer_1
 62
7
100
AcDbSpline
 70
8
 71
3
 72
8
 73
4
 74
0
 40
0
 40
0
 40
0
 40
0
 40
1
 40
1
 40
1
 40
1
 10
116.557778
 20
478.802347
 30
0.0
 10
116.557778
 20
476.593208
 30
0.0
 10
114.771709
 20
474.807139
 30
0.0
 10
112.562569
 20
474.807139
 30
0.0
  0
SPLINE
  5
1b7
100
AcDbEntity
  8
Layer_1
 62
7
100
AcDbSpline
 70
8
 71
3
 72
8
 73
4
 74
0
 40
0
 40
0
 40
0
 40
0
 40
1
 40
1
 40
1
 40
1
 10
112.562569
 20
474.807139
 30
0.0
 10
110.353430
 20
474.807139
 30
0.0
 10
108.558542
 20
476.593208
 30
0.0
 10
108.558542
 20
478.802347
 30
0.0
  0
SPLINE
  5
1b8
100
AcDbEntity
  8
Layer_1
 62
7
100
AcDbSpline
 70
8
 71
3
 72
8
 73
4
 74
0
 40
0
 40
0
 40
0
 40
0
 40
1
 40
1
 40
1
 40
1
 10
108.558542
 20
478.802347
 30
0.0
 10
108.558542
 20
481.011487
 30
0.0
 10
110.353430
 20
482.806375
 30
0.0
 10
112.562569
 20
482.806375
 30
0.0
  0
LWPOLYLINE
  5
1b9
100
AcDbEntity
  8
Layer_1
 62
7
100
AcDbPolyline
 90
6
 70
0
 10
259.997222
 20
486.043111
 30
0.0
 10
264.997847
 20
486.043111
 30
0.0
 10
264.997847
 20
481.042486
 30
0.0
 10
259.997222
 20
481.042486
 30
0.0
 10
259.997222
 20
486.043111
 30
0.0
 10
259.997222
 20
486.043111
 30
0.0
  0
SPLINE
  5
1ba
100
AcDbEntity
  8
Layer_1
 62
7
100
AcDbSpline
 70
8
 71
3
 72
8
 73
4
 74
0
 40
0
 40
0
 40
0
 40
0
 40
1
 40
1
 40
1
 40
1
 10
289.233695
 20
482.806375
 30
0.0
 10
291.442733
 20
482.806375
 30
0.0
 10
293.228889
 20
481.011487
 30
0.0
 10
293.228889
 20
478.802347
 30
0.0
  0
SPLINE
  5
1bb
100
AcDbEntity
  8
Layer_1
 62
7
100
AcDbSpline
 70
8
 71
3
 72
8
 73
4
 74
0
 40
0
 40
0
 40
0
 40
0
 40
1
 40
1
 40
1
 40
1
 10
293.228889
 20
478.802347
 30
0.0
 10
293.228889
 20
476.593208
 30
0.0
 10
291.442733
 20
474.807139
 30
0.0
 10
289.233695
 20
474.807139
 30
0.0
  0
SPLINE
  5
1bc
100
AcDbEntity
  8
Layer_1
 62
7
100
AcDbSpline
 70
8
 71
3
 72
8
 73
4
 74
0
 40
0
 40
0
 40
0
 40
0
 40
1
 40
1
 40
1
 40
1
 10
289.233695
 20
474.807139
 30
0.0
 10
287.024487
 20
474.807139
 30
0.0
 10
285.229639
 20
476.593208
 30
0.0
 10
285.229639
 20
478.802347
 30
0.0
  0
SPLINE
  5
1bd
100
AcDbEntity
  8
Layer_1
 62
7
100
AcDbSpline
 70
8
 71
3
 72
8
 73
4
 74
0
 40
0
 40
0
 40
0
 40
0
 40
1
 40
1
 40
1
 40
1
 10
285.229639
 20
478.802347
 30
0.0
 10
285.229639
 20
481.011487
 30
0.0
 10
287.024487
 20
482.806375
 30
0.0
 10
289.233695
 20
482.806375
 30
0.0
  0
LWPOLYLINE
  5
1be
100
AcDbEntity
  8
Layer_1
 62
7
100
AcDbPolyline
 90
2
 70
0
 10
112.562569
 20
482.806375
 30
0.0
 10
112.562569
 20
482.806375
 30
0.0
  0
LWPOLYLINE
  5
1bf
100
AcDbEntity
  8
Layer_1
 62
7
100
AcDbPolyline
 90
2
 70
0
 10
289.233695
 20
482.806375
 30
0.0
 10
289.233695
 20
482.806375
 30
0.0
  0
LWPOLYLINE
  5
1c0
100
AcDbEntity
  8
Layer_1
 62
7
100
AcDbPolyline
 90
58
 70
0
 10
33.117014
 20
888.606639
 30
0.0
 10
33.117014
 20
883.606028
 30
0.0
 10
28.116389
 20
883.606028
 30
0.0
 10
28.116389
 20
873.604778
 30
0.0
 10
28.116389
 20
868.604139
 30
0.0
 10
28.116389
 20
833.608583
 30
0.0
 10
83.123264
 20
833.608583
 30
0.0
 10
93.124514
 20
833.608583
 30
0.0
 10
98.116319
 20
833.608583
 30
0.0
 10
103.116944
 20
833.608583
 30
0.0
 10
108.117569
 20
833.608583
 30
0.0
 10
108.117569
 20
838.609222
 30
0.0
 10
103.116944
 20
838.609222
 30
0.0
 10
103.116944
 20
843.609861
 30
0.0
 10
108.117569
 20
843.609861
 30
0.0
 10
108.117569
 20
848.610472
 30
0.0
 10
103.116944
 20
848.610472
 30
0.0
 10
103.116944
 20
853.611083
 30
0.0
 10
108.117569
 20
853.611083
 30
0.0
 10
108.117569
 20
858.611722
 30
0.0
 10
103.116944
 20
858.611722
 30
0.0
 10
103.116944
 20
863.612361
 30
0.0
 10
108.117569
 20
863.612361
 30
0.0
 10
108.117569
 20
868.604139
 30
0.0
 10
103.116944
 20
868.604139
 30
0.0
 10
103.116944
 20
873.604778
 30
0.0
 10
108.117569
 20
873.604778
 30
0.0
 10
108.117569
 20
878.605417
 30
0.0
 10
103.116944
 20
878.605417
 30
0.0
 10
103.116944
 20
883.606028
 30
0.0
 10
98.116319
 20
883.606028
 30
0.0
 10
98.116319
 20
888.606639
 30
0.0
 10
93.124514
 20
888.606639
 30
0.0
 10
93.124514
 20
883.606028
 30
0.0
 10
88.123889
 20
883.606028
 30
0.0
 10
88.123889
 20
888.606639
 30
0.0
 10
83.123264
 20
888.606639
 30
0.0
 10
83.123264
 20
883.606028
 30
0.0
 10
78.122639
 20
883.606028
 30
0.0
 10
78.122639
 20
888.606639
 30
0.0
 10
73.122014
 20
888.606639
 30
0.0
 10
73.122014
 20
883.606028
 30
0.0
 10
68.121389
 20
883.606028
 30
0.0
 10
68.121389
 20
888.606639
 30
0.0
 10
63.120764
 20
888.606639
 30
0.0
 10
63.120764
 20
883.606028
 30
0.0
 10
58.120139
 20
883.606028
 30
0.0
 10
58.120139
 20
888.606639
 30
0.0
 10
53.119514
 20
888.606639
 30
0.0
 10
53.119514
 20
883.606028
 30
0.0
 10
48.118889
 20
883.606028
 30
0.0
 10
48.118889
 20
888.606639
 30
0.0
 10
43.118264
 20
888.606639
 30
0.0
 10
43.118264
 20
883.606028
 30
0.0
 10
38.117639
 20
883.606028
 30
0.0
 10
38.117639
 20
888.606639
 30
0.0
 10
33.117014
 20
888.606639
 30
0.0
 10
33.117014
 20
888.606639
 30
0.0
  0
LWPOLYLINE
  5
1c1
100
AcDbEntity
  8
Layer_1
 62
7
100
AcDbPolyline
 90
6
 70
0
 10
38.117639
 20
868.604139
 30
0.0
 10
43.118264
 20
868.604139
 30
0.0
 10
43.118264
 20
863.612361
 30
0.0
 10
38.117639
 20
863.612361
 30
0.0
 10
38.117639
 20
868.604139
 30
0.0
 10
38.117639
 20
868.604139
 30
0.0
  0
LWPOLYLINE
  5
1c2
100
AcDbEntity
  8
Layer_1
 62
7
100
AcDbPolyline
 90
6
 70
0
 10
53.119514
 20
868.604139
 30
0.0
 10
58.120139
 20
868.604139
 30
0.0
 10
58.120139
 20
863.612361
 30
0.0
 10
53.119514
 20
863.612361
 30
0.0
 10
53.119514
 20
868.604139
 30
0.0
 10
53.119514
 20
868.604139
 30
0.0
  0
LWPOLYLINE
  5
1c3
100
AcDbEntity
  8
Layer_1
 62
7
100
AcDbPolyline
 90
6
 70
0
 10
38.117639
 20
858.611722
 30
0.0
 10
43.118264
 20
858.611722
 30
0.0
 10
43.118264
 20
853.611083
 30
0.0
 10
38.117639
 20
853.611083
 30
0.0
 10
38.117639
 20
858.611722
 30
0.0
 10
38.117639
 20
858.611722
 30
0.0
  0
LWPOLYLINE
  5
1c4
100
AcDbEntity
  8
Layer_1
 62
7
100
AcDbPolyline
 90
6
 70
0
 10
53.119514
 20
858.611722
 30
0.0
 10
58.120139
 20
858.611722
 30
0.0
 10
58.120139
 20
853.611083
 30
0.0
 10
53.119514
 20
853.611083
 30
0.0
 10
53.119514
 20
858.611722
 30
0.0
 10
53.119514
 20
858.611722
 30
0.0
  0
LWPOLYLINE
  5
1c5
100
AcDbEntity
  8
Layer_1
 62
7
100
AcDbPolyline
 90
6
 70
0
 10
33.117014
 20
848.610472
 30
0.0
 10
38.117639
 20
848.610472
 30
0.0
 10
38.117639
 20
843.609861
 30
0.0
 10
33.117014
 20
843.609861
 30
0.0
 10
33.117014
 20
848.610472
 30
0.0
 10
33.117014
 20
848.610472
 30
0.0
  0
LWPOLYLINE
  5
1c6
100
AcDbEntity
  8
Layer_1
 62
7
100
AcDbPolyline
 90
6
 70
0
 10
43.118264
 20
848.610472
 30
0.0
 10
48.118889
 20
848.610472
 30
0.0
 10
48.118889
 20
843.609861
 30
0.0
 10
43.118264
 20
843.609861
 30
0.0
 10
43.118264
 20
848.610472
 30
0.0
 10
43.118264
 20
848.610472
 30
0.0
  0
SPLINE
  5
1c7
100
AcDbEntity
  8
Layer_1
 62
7
100
AcDbSpline
 70
8
 71
3
 72
8
 73
4
 74
0
 40
0
 40
0
 40
0
 40
0
 40
1
 40
1
 40
1
 40
1
 10
81.553403
 20
845.047417
 30
0.0
 10
83.762497
 20
845.047417
 30
0.0
 10
85.548611
 20
843.252512
 30
0.0
 10
85.548611
 20
841.043389
 30
0.0
  0
SPLINE
  5
1c8
100
AcDbEntity
  8
Layer_1
 62
7
100
AcDbSpline
 70
8
 71
3
 72
8
 73
4
 74
0
 40
0
 40
0
 40
0
 40
0
 40
1
 40
1
 40
1
 40
1
 10
85.548611
 20
841.043389
 30
0.0
 10
85.548611
 20
838.834238
 30
0.0
 10
83.762525
 20
837.048195
 30
0.0
 10
81.553403
 20
837.048195
 30
0.0
  0
SPLINE
  5
1c9
100
AcDbEntity
  8
Layer_1
 62
7
100
AcDbSpline
 70
8
 71
3
 72
8
 73
4
 74
0
 40
0
 40
0
 40
0
 40
0
 40
1
 40
1
 40
1
 40
1
 10
81.553403
 20
837.048195
 30
0.0
 10
79.344195
 20
837.048195
 30
0.0
 10
77.549375
 20
838.834238
 30
0.0
 10
77.549375
 20
841.043389
 30
0.0
  0
SPLINE
  5
1ca
100
AcDbEntity
  8
Layer_1
 62
7
100
AcDbSpline
 70
8
 71
3
 72
8
 73
4
 74
0
 40
0
 40
0
 40
0
 40
0
 40
1
 40
1
 40
1
 40
1
 10
77.549375
 20
841.043389
 30
0.0
 10
77.549375
 20
843.252512
 30
0.0
 10
79.344224
 20
845.047417
 30
0.0
 10
81.553403
 20
845.047417
 30
0.0
  0
LWPOLYLINE
  5
1cb
100
AcDbEntity
  8
Layer_1
 62
7
100
AcDbPolyline
 90
6
 70
0
 10
53.119514
 20
848.610472
 30
0.0
 10
58.120139
 20
848.610472
 30
0.0
 10
58.120139
 20
843.609861
 30
0.0
 10
53.119514
 20
843.609861
 30
0.0
 10
53.119514
 20
848.610472
 30
0.0
 10
53.119514
 20
848.610472
 30
0.0
  0
LWPOLYLINE
  5
1cc
100
AcDbEntity
  8
Layer_1
 62
7
100
AcDbPolyline
 90
2
 70
0
 10
81.553403
 20
845.047417
 30
0.0
 10
81.553403
 20
845.047417
 30
0.0
  0
LWPOLYLINE
  5
1cd
100
AcDbEntity
  8
Layer_1
 62
7
100
AcDbPolyline
 90
10
 70
0
 10
662.596028
 20
389.258528
 30
0.0
 10
662.596028
 20
69.262625
 30
0.0
 10
662.596028
 20
19.265194
 30
0.0
 10
662.596028
 20
14.264584
 30
0.0
 10
1032.598194
 20
14.264584
 30
0.0
 10
1032.598194
 20
19.265194
 30
0.0
 10
1032.598194
 20
69.262625
 30
0.0
 10
1032.598194
 20
389.258528
 30
0.0
 10
662.596028
 20
389.258528
 30
0.0
 10
662.596028
 20
389.258528
 30
0.0
  0
SPLINE
  5
1ce
100
AcDbEntity
  8
Layer_1
 62
7
100
AcDbSpline
 70
8
 71
3
 72
8
 73
4
 74
0
 40
0
 40
0
 40
0
 40
0
 40
1
 40
1
 40
1
 40
1
 10
516.113889
 20
132.956653
 30
0.0
 10
516.907808
 20
132.956653
 30
0.0
 10
517.551472
 20
132.313003
 30
0.0
 10
517.551472
 20
131.519083
 30
0.0
  0
SPLINE
  5
1cf
100
AcDbEntity
  8
Layer_1
 62
7
100
AcDbSpline
 70
8
 71
3
 72
8
 73
4
 74
0
 40
0
 40
0
 40
0
 40
0
 40
1
 40
1
 40
1
 40
1
 10
517.551472
 20
131.519083
 30
0.0
 10
517.551472
 20
130.725164
 30
0.0
 10
516.907808
 20
130.081514
 30
0.0
 10
516.113889
 20
130.081514
 30
0.0
  0
SPLINE
  5
1d0
100
AcDbEntity
  8
Layer_1
 62
7
100
AcDbSpline
 70
8
 71
3
 72
8
 73
4
 74
0
 40
0
 40
0
 40
0
 40
0
 40
1
 40
1
 40
1
 40
1
 10
516.113889
 20
130.081514
 30
0.0
 10
515.319970
 20
130.081514
 30
0.0
 10
514.676305
 20
130.725164
 30
0.0
 10
514.676305
 20
131.519083
 30
0.0
  0
SPLINE
  5
1d1
100
AcDbEntity
  8
Layer_1
 62
7
100
AcDbSpline
 70
8
 71
3
 72
8
 73
4
 74
0
 40
0
 40
0
 40
0
 40
0
 40
1
 40
1
 40
1
 40
1
 10
514.676305
 20
131.519083
 30
0.0
 10
514.676305
 20
132.313003
 30
0.0
 10
515.319970
 20
132.956653
 30
0.0
 10
516.113889
 20
132.956653
 30
0.0
  0
LWPOLYLINE
  5
1d2
100
AcDbEntity
  8
Layer_1
 62
7
100
AcDbPolyline
 90
24
 70
0
 10
509.340556
 20
137.216444
 30
0.0
 10
509.340556
 20
94.918389
 30
0.0
 10
514.341195
 20
94.918389
 30
0.0
 10
514.341195
 20
89.917764
 30
0.0
 10
519.341806
 20
89.917764
 30
0.0
 10
519.341806
 20
94.918389
 30
0.0
 10
524.342416
 20
94.918389
 30
0.0
 10
524.342416
 20
89.917764
 30
0.0
 10
529.343056
 20
89.917764
 30
0.0
 10
529.343056
 20
94.918389
 30
0.0
 10
534.343695
 20
94.918389
 30
0.0
 10
534.343695
 20
89.917764
 30
0.0
 10
539.344306
 20
89.917764
 30
0.0
 10
539.344306
 20
94.918389
 30
0.0
 10
544.344916
 20
94.918389
 30
0.0
 10
544.344916
 20
89.917764
 30
0.0
 10
549.345556
 20
89.917764
 30
0.0
 10
549.345556
 20
94.918389
 30
0.0
 10
551.638611
 20
94.918389
 30
0.0
 10
551.638611
 20
104.222903
 30
0.0
 10
518.645084
 20
104.222903
 30
0.0
 10
518.645084
 20
137.216444
 30
0.0
 10
509.340556
 20
137.216444
 30
0.0
 10
509.340556
 20
137.216444
 30
0.0
  0
SPLINE
  5
1d3
100
AcDbEntity
  8
Layer_1
 62
7
100
AcDbSpline
 70
8
 71
3
 72
8
 73
4
 74
0
 40
0
 40
0
 40
0
 40
0
 40
1
 40
1
 40
1
 40
1
 10
515.963972
 20
101.973944
 30
0.0
 10
516.012261
 20
101.978742
 30
0.0
 10
516.064274
 20
101.973944
 30
0.0
 10
516.113889
 20
101.973944
 30
0.0
  0
SPLINE
  5
1d4
100
AcDbEntity
  8
Layer_1
 62
7
100
AcDbSpline
 70
8
 71
3
 72
8
 73
4
 74
0
 40
0
 40
0
 40
0
 40
0
 40
1
 40
1
 40
1
 40
1
 10
516.113889
 20
101.973944
 30
0.0
 10
516.907808
 20
101.973944
 30
0.0
 10
517.551472
 20
101.330294
 30
0.0
 10
517.551472
 20
100.536375
 30
0.0
  0
SPLINE
  5
1d5
100
AcDbEntity
  8
Layer_1
 62
7
100
AcDbSpline
 70
8
 71
3
 72
8
 73
4
 74
0
 40
0
 40
0
 40
0
 40
0
 40
1
 40
1
 40
1
 40
1
 10
517.551472
 20
100.536375
 30
0.0
 10
517.551472
 20
99.742399
 30
0.0
 10
516.907808
 20
99.098806
 30
0.0
 10
516.113889
 20
99.098806
 30
0.0
  0
SPLINE
  5
1d6
100
AcDbEntity
  8
Layer_1
 62
7
100
AcDbSpline
 70
8
 71
3
 72
8
 73
4
 74
0
 40
0
 40
0
 40
0
 40
0
 40
1
 40
1
 40
1
 40
1
 10
516.113889
 20
99.098806
 30
0.0
 10
515.319970
 20
99.098806
 30
0.0
 10
514.676305
 20
99.742399
 30
0.0
 10
514.676305
 20
100.536375
 30
0.0
  0
SPLINE
  5
1d7
100
AcDbEntity
  8
Layer_1
 62
7
100
AcDbSpline
 70
8
 71
3
 72
8
 73
4
 74
0
 40
0
 40
0
 40
0
 40
0
 40
1
 40
1
 40
1
 40
1
 10
514.676305
 20
100.536375
 30
0.0
 10
514.676305
 20
101.280651
 30
0.0
 10
515.239056
 20
101.900341
 30
0.0
 10
515.963972
 20
101.973944
 30
0.0
  0
LWPOLYLINE
  5
1d8
100
AcDbEntity
  8
Layer_1
 62
7
100
AcDbPolyline
 90
2
 70
0
 10
516.113889
 20
132.956653
 30
0.0
 10
516.113889
 20
132.956653
 30
0.0
  0
SPLINE
  5
1d9
100
AcDbEntity
  8
Layer_1
 62
7
100
AcDbSpline
 70
8
 71
3
 72
8
 73
4
 74
0
 40
0
 40
0
 40
0
 40
0
 40
1
 40
1
 40
1
 40
1
 10
546.840833
 20
101.973944
 30
0.0
 10
546.889150
 20
101.978742
 30
0.0
 10
546.941107
 20
101.973944
 30
0.0
 10
546.990750
 20
101.973944
 30
0.0
  0
SPLINE
  5
1da
100
AcDbEntity
  8
Layer_1
 62
7
100
AcDbSpline
 70
8
 71
3
 72
8
 73
4
 74
0
 40
0
 40
0
 40
0
 40
0
 40
1
 40
1
 40
1
 40
1
 10
546.990750
 20
101.973944
 30
0.0
 10
547.784697
 20
101.973944
 30
0.0
 10
548.428333
 20
101.330294
 30
0.0
 10
548.428333
 20
100.536375
 30
0.0
  0
SPLINE
  5
1db
100
AcDbEntity
  8
Layer_1
 62
7
100
AcDbSpline
 70
8
 71
3
 72
8
 73
4
 74
0
 40
0
 40
0
 40
0
 40
0
 40
1
 40
1
 40
1
 40
1
 10
548.428333
 20
100.536375
 30
0.0
 10
548.428333
 20
99.742399
 30
0.0
 10
547.784669
 20
99.098806
 30
0.0
 10
546.990750
 20
99.098806
 30
0.0
  0
SPLINE
  5
1dc
100
AcDbEntity
  8
Layer_1
 62
7
100
AcDbSpline
 70
8
 71
3
 72
8
 73
4
 74
0
 40
0
 40
0
 40
0
 40
0
 40
1
 40
1
 40
1
 40
1
 10
546.990750
 20
99.098806
 30
0.0
 10
546.196802
 20
99.098806
 30
0.0
 10
545.553194
 20
99.742399
 30
0.0
 10
545.553194
 20
100.536375
 30
0.0
  0
SPLINE
  5
1dd
100
AcDbEntity
  8
Layer_1
 62
7
100
AcDbSpline
 70
8
 71
3
 72
8
 73
4
 74
0
 40
0
 40
0
 40
0
 40
0
 40
1
 40
1
 40
1
 40
1
 10
545.553194
 20
100.536375
 30
0.0
 10
545.553194
 20
101.280651
 30
0.0
 10
546.115946
 20
101.900341
 30
0.0
 10
546.840833
 20
101.973944
 30
0.0
  0
LWPOLYLINE
  5
1de
100
AcDbEntity
  8
Layer_1
 62
7
100
AcDbPolyline
 90
2
 70
0
 10
515.963972
 20
101.973944
 30
0.0
 10
515.963972
 20
101.973944
 30
0.0
  0
LWPOLYLINE
  5
1df
100
AcDbEntity
  8
Layer_1
 62
7
100
AcDbPolyline
 90
2
 70
0
 10
546.840833
 20
101.973944
 30
0.0
 10
546.840833
 20
101.973944
 30
0.0
  0
SPLINE
  5
1e0
100
AcDbEntity
  8
Layer_1
 62
7
100
AcDbSpline
 70
8
 71
3
 72
8
 73
4
 74
0
 40
0
 40
0
 40
0
 40
0
 40
1
 40
1
 40
1
 40
1
 10
551.691528
 20
139.624153
 30
0.0
 10
553.127474
 20
139.624153
 30
0.0
 10
554.293250
 20
138.458363
 30
0.0
 10
554.293250
 20
137.022417
 30
0.0
  0
SPLINE
  5
1e1
100
AcDbEntity
  8
Layer_1
 62
7
100
AcDbSpline
 70
8
 71
3
 72
8
 73
4
 74
0
 40
0
 40
0
 40
0
 40
0
 40
1
 40
1
 40
1
 40
1
 10
554.293250
 20
137.022417
 30
0.0
 10
554.293250
 20
135.586470
 30
0.0
 10
553.127474
 20
134.420681
 30
0.0
 10
551.691528
 20
134.420681
 30
0.0
  0
SPLINE
  5
1e2
100
AcDbEntity
  8
Layer_1
 62
7
100
AcDbSpline
 70
8
 71
3
 72
8
 73
4
 74
0
 40
0
 40
0
 40
0
 40
0
 40
1
 40
1
 40
1
 40
1
 10
551.691528
 20
134.420681
 30
0.0
 10
550.255581
 20
134.420681
 30
0.0
 10
549.098611
 20
135.586470
 30
0.0
 10
549.098611
 20
137.022417
 30
0.0
  0
SPLINE
  5
1e3
100
AcDbEntity
  8
Layer_1
 62
7
100
AcDbSpline
 70
8
 71
3
 72
8
 73
4
 74
0
 40
0
 40
0
 40
0
 40
0
 40
1
 40
1
 40
1
 40
1
 10
549.098611
 20
137.022417
 30
0.0
 10
549.098611
 20
138.458363
 30
0.0
 10
550.255581
 20
139.624153
 30
0.0
 10
551.691528
 20
139.624153
 30
0.0
  0
LWPOLYLINE
  5
1e4
100
AcDbEntity
  8
Layer_1
 62
7
100
AcDbPolyline
 90
14
 70
0
 10
544.177361
 20
151.071792
 30
0.0
 10
544.177361
 20
146.071167
 30
0.0
 10
539.176750
 20
146.071167
 30
0.0
 10
549.177972
 20
131.069292
 30
0.0
 10
554.178611
 20
131.069292
 30
0.0
 10
564.179861
 20
146.071167
 30
0.0
 10
559.179250
 20
146.071167
 30
0.0
 10
559.179250
 20
151.071792
 30
0.0
 10
554.178611
 20
151.071792
 30
0.0
 10
554.178611
 20
146.071167
 30
0.0
 10
549.177972
 20
146.071167
 30
0.0
 10
549.177972
 20
151.071792
 30
0.0
 10
544.177361
 20
151.071792
 30
0.0
 10
544.177361
 20
151.071792
 30
0.0
  0
LWPOLYLINE
  5
1e5
100
AcDbEntity
  8
Layer_1
 62
7
100
AcDbPolyline
 90
2
 70
0
 10
551.691528
 20
139.624153
 30
0.0
 10
551.691528
 20
139.624153
 30
0.0
  0
SPLINE
  5
1e6
100
AcDbEntity
  8
Layer_1
 62
7
100
AcDbSpline
 70
8
 71
3
 72
8
 73
4
 74
0
 40
0
 40
0
 40
0
 40
0
 40
1
 40
1
 40
1
 40
1
 10
564.903056
 20
116.014500
 30
0.0
 10
566.339002
 20
116.014500
 30
0.0
 10
567.504806
 20
114.857502
 30
0.0
 10
567.504806
 20
113.421583
 30
0.0
  0
SPLINE
  5
1e7
100
AcDbEntity
  8
Layer_1
 62
7
100
AcDbSpline
 70
8
 71
3
 72
8
 73
4
 74
0
 40
0
 40
0
 40
0
 40
0
 40
1
 40
1
 40
1
 40
1
 10
567.504806
 20
113.421583
 30
0.0
 10
567.504806
 20
111.985637
 30
0.0
 10
566.339002
 20
110.819847
 30
0.0
 10
564.903056
 20
110.819847
 30
0.0
  0
SPLINE
  5
1e8
100
AcDbEntity
  8
Layer_1
 62
7
100
AcDbSpline
 70
8
 71
3
 72
8
 73
4
 74
0
 40
0
 40
0
 40
0
 40
0
 40
1
 40
1
 40
1
 40
1
 10
564.903056
 20
110.819847
 30
0.0
 10
563.467109
 20
110.819847
 30
0.0
 10
562.301305
 20
111.985637
 30
0.0
 10
562.301305
 20
113.421583
 30
0.0
  0
SPLINE
  5
1e9
100
AcDbEntity
  8
Layer_1
 62
7
100
AcDbSpline
 70
8
 71
3
 72
8
 73
4
 74
0
 40
0
 40
0
 40
0
 40
0
 40
1
 40
1
 40
1
 40
1
 10
562.301305
 20
113.421583
 30
0.0
 10
562.301305
 20
114.857502
 30
0.0
 10
563.467109
 20
116.014500
 30
0.0
 10
564.903056
 20
116.014500
 30
0.0
  0
LWPOLYLINE
  5
1ea
100
AcDbEntity
  8
Layer_1
 62
7
100
AcDbPolyline
 90
14
 70
0
 10
555.854306
 20
125.936375
 30
0.0
 10
555.854306
 20
120.935750
 30
0.0
 10
550.853695
 20
120.935750
 30
0.0
 10
550.853695
 20
115.935125
 30
0.0
 10
555.854306
 20
115.935125
 30
0.0
 10
555.854306
 20
110.934500
 30
0.0
 10
550.853695
 20
110.934500
 30
0.0
 10
550.853695
 20
105.933875
 30
0.0
 10
555.854306
 20
105.933875
 30
0.0
 10
555.854306
 20
100.933250
 30
0.0
 10
570.856195
 20
110.934500
 30
0.0
 10
570.856195
 20
115.935125
 30
0.0
 10
555.854306
 20
125.936375
 30
0.0
 10
555.854306
 20
125.936375
 30
0.0
  0
LWPOLYLINE
  5
1eb
100
AcDbEntity
  8
Layer_1
 62
7
100
AcDbPolyline
 90
2
 70
0
 10
564.903056
 20
116.014500
 30
0.0
 10
564.903056
 20
116.014500
 30
0.0
  0
SPLINE
  5
1ec
100
AcDbEntity
  8
Layer_1
 62
7
100
AcDbSpline
 70
8
 71
3
 72
8
 73
4
 74
0
 40
0
 40
0
 40
0
 40
0
 40
1
 40
1
 40
1
 40
1
 10
742.412028
 20
610.847084
 30
0.0
 10
743.232871
 20
610.847084
 30
0.0
 10
743.893695
 20
610.177455
 30
0.0
 10
743.893695
 20
609.356583
 30
0.0
  0
SPLINE
  5
1ed
100
AcDbEntity
  8
Layer_1
 62
7
100
AcDbSpline
 70
8
 71
3
 72
8
 73
4
 74
0
 40
0
 40
0
 40
0
 40
0
 40
1
 40
1
 40
1
 40
1
 10
743.893695
 20
609.356583
 30
0.0
 10
743.893695
 20
608.535740
 30
0.0
 10
743.232871
 20
607.874917
 30
0.0
 10
742.412028
 20
607.874917
 30
0.0
  0
SPLINE
  5
1ee
100
AcDbEntity
  8
Layer_1
 62
7
100
AcDbSpline
 70
8
 71
3
 72
8
 73
4
 74
0
 40
0
 40
0
 40
0
 40
0
 40
1
 40
1
 40
1
 40
1
 10
742.412028
 20
607.874917
 30
0.0
 10
741.591156
 20
607.874917
 30
0.0
 10
740.921528
 20
608.535740
 30
0.0
 10
740.921528
 20
609.356583
 30
0.0
  0
SPLINE
  5
1ef
100
AcDbEntity
  8
Layer_1
 62
7
100
AcDbSpline
 70
8
 71
3
 72
8
 73
4
 74
0
 40
0
 40
0
 40
0
 40
0
 40
1
 40
1
 40
1
 40
1
 10
740.921528
 20
609.356583
 30
0.0
 10
740.921528
 20
610.177455
 30
0.0
 10
741.591156
 20
610.847084
 30
0.0
 10
742.412028
 20
610.847084
 30
0.0
  0
LWPOLYLINE
  5
1f0
100
AcDbEntity
  8
Layer_1
 62
7
100
AcDbPolyline
 90
6
 70
0
 10
738.531472
 20
613.731028
 30
0.0
 10
738.531472
 20
396.640403
 30
0.0
 10
955.622083
 20
396.640403
 30
0.0
 10
955.622083
 20
613.731028
 30
0.0
 10
738.531472
 20
613.731028
 30
0.0
 10
738.531472
 20
613.731028
 30
0.0
  0
SPLINE
  5
1f1
100
AcDbEntity
  8
Layer_1
 62
7
100
AcDbSpline
 70
8
 71
3
 72
8
 73
4
 74
0
 40
0
 40
0
 40
0
 40
0
 40
1
 40
1
 40
1
 40
1
 10
951.397584
 20
610.847084
 30
0.0
 10
952.218455
 20
610.847084
 30
0.0
 10
952.879250
 20
610.177455
 30
0.0
 10
952.879250
 20
609.356583
 30
0.0
  0
SPLINE
  5
1f2
100
AcDbEntity
  8
Layer_1
 62
7
100
AcDbSpline
 70
8
 71
3
 72
8
 73
4
 74
0
 40
0
 40
0
 40
0
 40
0
 40
1
 40
1
 40
1
 40
1
 10
952.879250
 20
609.356583
 30
0.0
 10
952.879250
 20
608.535740
 30
0.0
 10
952.218455
 20
607.874917
 30
0.0
 10
951.397584
 20
607.874917
 30
0.0
  0
SPLINE
  5
1f3
100
AcDbEntity
  8
Layer_1
 62
7
100
AcDbSpline
 70
8
 71
3
 72
8
 73
4
 74
0
 40
0
 40
0
 40
0
 40
0
 40
1
 40
1
 40
1
 40
1
 10
951.397584
 20
607.874917
 30
0.0
 10
950.576712
 20
607.874917
 30
0.0
 10
949.907083
 20
608.535740
 30
0.0
 10
949.907083
 20
609.356583
 30
0.0
  0
SPLINE
  5
1f4
100
AcDbEntity
  8
Layer_1
 62
7
100
AcDbSpline
 70
8
 71
3
 72
8
 73
4
 74
0
 40
0
 40
0
 40
0
 40
0
 40
1
 40
1
 40
1
 40
1
 10
949.907083
 20
609.356583
 30
0.0
 10
949.907083
 20
610.177455
 30
0.0
 10
950.576712
 20
610.847084
 30
0.0
 10
951.397584
 20
610.847084
 30
0.0
  0
LWPOLYLINE
  5
1f5
100
AcDbEntity
  8
Layer_1
 62
7
100
AcDbPolyline
 90
2
 70
0
 10
742.412028
 20
610.847084
 30
0.0
 10
742.412028
 20
610.847084
 30
0.0
  0
SPLINE
  5
1f6
100
AcDbEntity
  8
Layer_1
 62
7
100
AcDbSpline
 70
8
 71
3
 72
8
 73
4
 74
0
 40
0
 40
0
 40
0
 40
0
 40
1
 40
1
 40
1
 40
1
 10
932.735639
 20
547.541097
 30
0.0
 10
933.556511
 20
547.541097
 30
0.0
 10
934.217306
 20
546.880282
 30
0.0
 10
934.217306
 20
546.059431
 30
0.0
  0
SPLINE
  5
1f7
100
AcDbEntity
  8
Layer_1
 62
7
100
AcDbSpline
 70
8
 71
3
 72
8
 73
4
 74
0
 40
0
 40
0
 40
0
 40
0
 40
1
 40
1
 40
1
 40
1
 10
934.217306
 20
546.059431
 30
0.0
 10
934.217306
 20
545.238579
 30
0.0
 10
933.556511
 20
544.568944
 30
0.0
 10
932.735639
 20
544.568944
 30
0.0
  0
SPLINE
  5
1f8
100
AcDbEntity
  8
Layer_1
 62
7
100
AcDbSpline
 70
8
 71
3
 72
8
 73
4
 74
0
 40
0
 40
0
 40
0
 40
0
 40
1
 40
1
 40
1
 40
1
 10
932.735639
 20
544.568944
 30
0.0
 10
931.914768
 20
544.568944
 30
0.0
 10
931.245139
 20
545.238579
 30
0.0
 10
931.245139
 20
546.059431
 30
0.0
  0
SPLINE
  5
1f9
100
AcDbEntity
  8
Layer_1
 62
7
100
AcDbSpline
 70
8
 71
3
 72
8
 73
4
 74
0
 40
0
 40
0
 40
0
 40
0
 40
1
 40
1
 40
1
 40
1
 10
931.245139
 20
546.059431
 30
0.0
 10
931.245139
 20
546.880282
 30
0.0
 10
931.914768
 20
547.541097
 30
0.0
 10
932.735639
 20
547.541097
 30
0.0
  0
LWPOLYLINE
  5
1fa
100
AcDbEntity
  8
Layer_1
 62
7
100
AcDbPolyline
 90
2
 70
0
 10
951.397584
 20
610.847084
 30
0.0
 10
951.397584
 20
610.847084
 30
0.0
  0
SPLINE
  5
1fb
100
AcDbEntity
  8
Layer_1
 62
7
100
AcDbSpline
 70
8
 71
3
 72
8
 73
4
 74
0
 40
0
 40
0
 40
0
 40
0
 40
1
 40
1
 40
1
 40
1
 10
756.108611
 20
547.505819
 30
0.0
 10
756.929454
 20
547.505819
 30
0.0
 10
757.599083
 20
546.845005
 30
0.0
 10
757.599083
 20
546.024153
 30
0.0
  0
SPLINE
  5
1fc
100
AcDbEntity
  8
Layer_1
 62
7
100
AcDbSpline
 70
8
 71
3
 72
8
 73
4
 74
0
 40
0
 40
0
 40
0
 40
0
 40
1
 40
1
 40
1
 40
1
 10
757.599083
 20
546.024153
 30
0.0
 10
757.599083
 20
545.203301
 30
0.0
 10
756.929454
 20
544.533667
 30
0.0
 10
756.108611
 20
544.533667
 30
0.0
  0
SPLINE
  5
1fd
100
AcDbEntity
  8
Layer_1
 62
7
100
AcDbSpline
 70
8
 71
3
 72
8
 73
4
 74
0
 40
0
 40
0
 40
0
 40
0
 40
1
 40
1
 40
1
 40
1
 10
756.108611
 20
544.533667
 30
0.0
 10
755.287683
 20
544.533667
 30
0.0
 10
754.626944
 20
545.203301
 30
0.0
 10
754.626944
 20
546.024153
 30
0.0
  0
SPLINE
  5
1fe
100
AcDbEntity
  8
Layer_1
 62
7
100
AcDbSpline
 70
8
 71
3
 72
8
 73
4
 74
0
 40
0
 40
0
 40
0
 40
0
 40
1
 40
1
 40
1
 40
1
 10
754.626944
 20
546.024153
 30
0.0
 10
754.626944
 20
546.845005
 30
0.0
 10
755.287683
 20
547.505819
 30
0.0
 10
756.108611
 20
547.505819
 30
0.0
  0
LWPOLYLINE
  5
1ff
100
AcDbEntity
  8
Layer_1
 62
7
100
AcDbPolyline
 90
2
 70
0
 10
932.735639
 20
547.541097
 30
0.0
 10
932.735639
 20
547.541097
 30
0.0
  0
SPLINE
  5
200
100
AcDbEntity
  8
Layer_1
 62
7
100
AcDbSpline
 70
8
 71
3
 72
8
 73
4
 74
0
 40
0
 40
0
 40
0
 40
0
 40
1
 40
1
 40
1
 40
1
 10
898.763139
 20
523.040681
 30
0.0
 10
899.584011
 20
523.040681
 30
0.0
 10
900.253611
 20
522.379866
 30
0.0
 10
900.253611
 20
521.559014
 30
0.0
  0
SPLINE
  5
201
100
AcDbEntity
  8
Layer_1
 62
7
100
AcDbSpline
 70
8
 71
3
 72
8
 73
4
 74
0
 40
0
 40
0
 40
0
 40
0
 40
1
 40
1
 40
1
 40
1
 10
900.253611
 20
521.559014
 30
0.0
 10
900.253611
 20
520.738162
 30
0.0
 10
899.584011
 20
520.068528
 30
0.0
 10
898.763139
 20
520.068528
 30
0.0
  0
SPLINE
  5
202
100
AcDbEntity
  8
Layer_1
 62
7
100
AcDbSpline
 70
8
 71
3
 72
8
 73
4
 74
0
 40
0
 40
0
 40
0
 40
0
 40
1
 40
1
 40
1
 40
1
 10
898.763139
 20
520.068528
 30
0.0
 10
897.942268
 20
520.068528
 30
0.0
 10
897.281472
 20
520.738162
 30
0.0
 10
897.281472
 20
521.559014
 30
0.0
  0
SPLINE
  5
203
100
AcDbEntity
  8
Layer_1
 62
7
100
AcDbSpline
 70
8
 71
3
 72
8
 73
4
 74
0
 40
0
 40
0
 40
0
 40
0
 40
1
 40
1
 40
1
 40
1
 10
897.281472
 20
521.559014
 30
0.0
 10
897.281472
 20
522.379866
 30
0.0
 10
897.942268
 20
523.040681
 30
0.0
 10
898.763139
 20
523.040681
 30
0.0
  0
LWPOLYLINE
  5
204
100
AcDbEntity
  8
Layer_1
 62
7
100
AcDbPolyline
 90
2
 70
0
 10
756.108611
 20
547.505819
 30
0.0
 10
756.108611
 20
547.505819
 30
0.0
  0
SPLINE
  5
205
100
AcDbEntity
  8
Layer_1
 62
7
100
AcDbSpline
 70
8
 71
3
 72
8
 73
4
 74
0
 40
0
 40
0
 40
0
 40
0
 40
1
 40
1
 40
1
 40
1
 10
917.019361
 20
523.040681
 30
0.0
 10
917.840261
 20
523.040681
 30
0.0
 10
918.501028
 20
522.379866
 30
0.0
 10
918.501028
 20
521.559014
 30
0.0
  0
SPLINE
  5
206
100
AcDbEntity
  8
Layer_1
 62
7
100
AcDbSpline
 70
8
 71
3
 72
8
 73
4
 74
0
 40
0
 40
0
 40
0
 40
0
 40
1
 40
1
 40
1
 40
1
 10
918.501028
 20
521.559014
 30
0.0
 10
918.501028
 20
520.738162
 30
0.0
 10
917.840261
 20
520.068528
 30
0.0
 10
917.019361
 20
520.068528
 30
0.0
  0
SPLINE
  5
207
100
AcDbEntity
  8
Layer_1
 62
7
100
AcDbSpline
 70
8
 71
3
 72
8
 73
4
 74
0
 40
0
 40
0
 40
0
 40
0
 40
1
 40
1
 40
1
 40
1
 10
917.019361
 20
520.068528
 30
0.0
 10
916.198518
 20
520.068528
 30
0.0
 10
915.528889
 20
520.738162
 30
0.0
 10
915.528889
 20
521.559014
 30
0.0
  0
SPLINE
  5
208
100
AcDbEntity
  8
Layer_1
 62
7
100
AcDbSpline
 70
8
 71
3
 72
8
 73
4
 74
0
 40
0
 40
0
 40
0
 40
0
 40
1
 40
1
 40
1
 40
1
 10
915.528889
 20
521.559014
 30
0.0
 10
915.528889
 20
522.379866
 30
0.0
 10
916.198518
 20
523.040681
 30
0.0
 10
917.019361
 20
523.040681
 30
0.0
  0
LWPOLYLINE
  5
209
100
AcDbEntity
  8
Layer_1
 62
7
100
AcDbPolyline
 90
2
 70
0
 10
898.763139
 20
523.040681
 30
0.0
 10
898.763139
 20
523.040681
 30
0.0
  0
SPLINE
  5
20a
100
AcDbEntity
  8
Layer_1
 62
7
100
AcDbSpline
 70
8
 71
3
 72
8
 73
4
 74
0
 40
0
 40
0
 40
0
 40
0
 40
1
 40
1
 40
1
 40
1
 10
898.763139
 20
489.853111
 30
0.0
 10
899.584011
 20
489.853111
 30
0.0
 10
900.253611
 20
489.183468
 30
0.0
 10
900.253611
 20
488.362625
 30
0.0
  0
SPLINE
  5
20b
100
AcDbEntity
  8
Layer_1
 62
7
100
AcDbSpline
 70
8
 71
3
 72
8
 73
4
 74
0
 40
0
 40
0
 40
0
 40
0
 40
1
 40
1
 40
1
 40
1
 10
900.253611
 20
488.362625
 30
0.0
 10
900.253611
 20
487.541782
 30
0.0
 10
899.584011
 20
486.880958
 30
0.0
 10
898.763139
 20
486.880958
 30
0.0
  0
SPLINE
  5
20c
100
AcDbEntity
  8
Layer_1
 62
7
100
AcDbSpline
 70
8
 71
3
 72
8
 73
4
 74
0
 40
0
 40
0
 40
0
 40
0
 40
1
 40
1
 40
1
 40
1
 10
898.763139
 20
486.880958
 30
0.0
 10
897.942268
 20
486.880958
 30
0.0
 10
897.281472
 20
487.541782
 30
0.0
 10
897.281472
 20
488.362625
 30
0.0
  0
SPLINE
  5
20d
100
AcDbEntity
  8
Layer_1
 62
7
100
AcDbSpline
 70
8
 71
3
 72
8
 73
4
 74
0
 40
0
 40
0
 40
0
 40
0
 40
1
 40
1
 40
1
 40
1
 10
897.281472
 20
488.362625
 30
0.0
 10
897.281472
 20
489.183468
 30
0.0
 10
897.942268
 20
489.853111
 30
0.0
 10
898.763139
 20
489.853111
 30
0.0
  0
LWPOLYLINE
  5
20e
100
AcDbEntity
  8
Layer_1
 62
7
100
AcDbPolyline
 90
2
 70
0
 10
917.019361
 20
523.040681
 30
0.0
 10
917.019361
 20
523.040681
 30
0.0
  0
SPLINE
  5
20f
100
AcDbEntity
  8
Layer_1
 62
7
100
AcDbSpline
 70
8
 71
3
 72
8
 73
4
 74
0
 40
0
 40
0
 40
0
 40
0
 40
1
 40
1
 40
1
 40
1
 10
917.019361
 20
489.853111
 30
0.0
 10
917.840261
 20
489.853111
 30
0.0
 10
918.501028
 20
489.183468
 30
0.0
 10
918.501028
 20
488.362625
 30
0.0
  0
SPLINE
  5
210
100
AcDbEntity
  8
Layer_1
 62
7
100
AcDbSpline
 70
8
 71
3
 72
8
 73
4
 74
0
 40
0
 40
0
 40
0
 40
0
 40
1
 40
1
 40
1
 40
1
 10
918.501028
 20
488.362625
 30
0.0
 10
918.501028
 20
487.541782
 30
0.0
 10
917.840261
 20
486.880958
 30
0.0
 10
917.019361
 20
486.880958
 30
0.0
  0
SPLINE
  5
211
100
AcDbEntity
  8
Layer_1
 62
7
100
AcDbSpline
 70
8
 71
3
 72
8
 73
4
 74
0
 40
0
 40
0
 40
0
 40
0
 40
1
 40
1
 40
1
 40
1
 10
917.019361
 20
486.880958
 30
0.0
 10
916.198518
 20
486.880958
 30
0.0
 10
915.528889
 20
487.541782
 30
0.0
 10
915.528889
 20
488.362625
 30
0.0
  0
SPLINE
  5
212
100
AcDbEntity
  8
Layer_1
 62
7
100
AcDbSpline
 70
8
 71
3
 72
8
 73
4
 74
0
 40
0
 40
0
 40
0
 40
0
 40
1
 40
1
 40
1
 40
1
 10
915.528889
 20
488.362625
 30
0.0
 10
915.528889
 20
489.183468
 30
0.0
 10
916.198518
 20
489.853111
 30
0.0
 10
917.019361
 20
489.853111
 30
0.0
  0
LWPOLYLINE
  5
213
100
AcDbEntity
  8
Layer_1
 62
7
100
AcDbPolyline
 90
2
 70
0
 10
898.763139
 20
489.853111
 30
0.0
 10
898.763139
 20
489.853111
 30
0.0
  0
SPLINE
  5
214
100
AcDbEntity
  8
Layer_1
 62
7
100
AcDbSpline
 70
8
 71
3
 72
8
 73
4
 74
0
 40
0
 40
0
 40
0
 40
0
 40
1
 40
1
 40
1
 40
1
 10
756.108611
 20
465.925958
 30
0.0
 10
756.929454
 20
465.925958
 30
0.0
 10
757.599083
 20
465.256400
 30
0.0
 10
757.599083
 20
464.435472
 30
0.0
  0
SPLINE
  5
215
100
AcDbEntity
  8
Layer_1
 62
7
100
AcDbSpline
 70
8
 71
3
 72
8
 73
4
 74
0
 40
0
 40
0
 40
0
 40
0
 40
1
 40
1
 40
1
 40
1
 10
757.599083
 20
464.435472
 30
0.0
 10
757.599083
 20
463.614629
 30
0.0
 10
756.929454
 20
462.953806
 30
0.0
 10
756.108611
 20
462.953806
 30
0.0
  0
SPLINE
  5
216
100
AcDbEntity
  8
Layer_1
 62
7
100
AcDbSpline
 70
8
 71
3
 72
8
 73
4
 74
0
 40
0
 40
0
 40
0
 40
0
 40
1
 40
1
 40
1
 40
1
 10
756.108611
 20
462.953806
 30
0.0
 10
755.287683
 20
462.953806
 30
0.0
 10
754.626944
 20
463.614629
 30
0.0
 10
754.626944
 20
464.435472
 30
0.0
  0
SPLINE
  5
217
100
AcDbEntity
  8
Layer_1
 62
7
100
AcDbSpline
 70
8
 71
3
 72
8
 73
4
 74
0
 40
0
 40
0
 40
0
 40
0
 40
1
 40
1
 40
1
 40
1
 10
754.626944
 20
464.435472
 30
0.0
 10
754.626944
 20
465.256400
 30
0.0
 10
755.287683
 20
465.925958
 30
0.0
 10
756.108611
 20
465.925958
 30
0.0
  0
LWPOLYLINE
  5
218
100
AcDbEntity
  8
Layer_1
 62
7
100
AcDbPolyline
 90
2
 70
0
 10
917.019361
 20
489.853111
 30
0.0
 10
917.019361
 20
489.853111
 30
0.0
  0
SPLINE
  5
219
100
AcDbEntity
  8
Layer_1
 62
7
100
AcDbSpline
 70
8
 71
3
 72
8
 73
4
 74
0
 40
0
 40
0
 40
0
 40
0
 40
1
 40
1
 40
1
 40
1
 10
932.726806
 20
465.925958
 30
0.0
 10
933.547649
 20
465.925958
 30
0.0
 10
934.208472
 20
465.256400
 30
0.0
 10
934.208472
 20
464.435472
 30
0.0
  0
SPLINE
  5
21a
100
AcDbEntity
  8
Layer_1
 62
7
100
AcDbSpline
 70
8
 71
3
 72
8
 73
4
 74
0
 40
0
 40
0
 40
0
 40
0
 40
1
 40
1
 40
1
 40
1
 10
934.208472
 20
464.435472
 30
0.0
 10
934.208472
 20
463.614629
 30
0.0
 10
933.547649
 20
462.953806
 30
0.0
 10
932.726806
 20
462.953806
 30
0.0
  0
SPLINE
  5
21b
100
AcDbEntity
  8
Layer_1
 62
7
100
AcDbSpline
 70
8
 71
3
 72
8
 73
4
 74
0
 40
0
 40
0
 40
0
 40
0
 40
1
 40
1
 40
1
 40
1
 10
932.726806
 20
462.953806
 30
0.0
 10
931.905934
 20
462.953806
 30
0.0
 10
931.236305
 20
463.614629
 30
0.0
 10
931.236305
 20
464.435472
 30
0.0
  0
SPLINE
  5
21c
100
AcDbEntity
  8
Layer_1
 62
7
100
AcDbSpline
 70
8
 71
3
 72
8
 73
4
 74
0
 40
0
 40
0
 40
0
 40
0
 40
1
 40
1
 40
1
 40
1
 10
931.236305
 20
464.435472
 30
0.0
 10
931.236305
 20
465.256400
 30
0.0
 10
931.905934
 20
465.925958
 30
0.0
 10
932.726806
 20
465.925958
 30
0.0
  0
LWPOLYLINE
  5
21d
100
AcDbEntity
  8
Layer_1
 62
7
100
AcDbPolyline
 90
2
 70
0
 10
756.108611
 20
465.925958
 30
0.0
 10
756.108611
 20
465.925958
 30
0.0
  0
SPLINE
  5
21e
100
AcDbEntity
  8
Layer_1
 62
7
100
AcDbSpline
 70
8
 71
3
 72
8
 73
4
 74
0
 40
0
 40
0
 40
0
 40
0
 40
1
 40
1
 40
1
 40
1
 10
742.412028
 20
401.729222
 30
0.0
 10
743.232871
 20
401.729222
 30
0.0
 10
743.893695
 20
401.059579
 30
0.0
 10
743.893695
 20
400.238736
 30
0.0
  0
SPLINE
  5
21f
100
AcDbEntity
  8
Layer_1
 62
7
100
AcDbSpline
 70
8
 71
3
 72
8
 73
4
 74
0
 40
0
 40
0
 40
0
 40
0
 40
1
 40
1
 40
1
 40
1
 10
743.893695
 20
400.238736
 30
0.0
 10
743.893695
 20
399.417893
 30
0.0
 10
743.232871
 20
398.757069
 30
0.0
 10
742.412028
 20
398.757069
 30
0.0
  0
SPLINE
  5
220
100
AcDbEntity
  8
Layer_1
 62
7
100
AcDbSpline
 70
8
 71
3
 72
8
 73
4
 74
0
 40
0
 40
0
 40
0
 40
0
 40
1
 40
1
 40
1
 40
1
 10
742.412028
 20
398.757069
 30
0.0
 10
741.591156
 20
398.757069
 30
0.0
 10
740.921528
 20
399.417893
 30
0.0
 10
740.921528
 20
400.238736
 30
0.0
  0
SPLINE
  5
221
100
AcDbEntity
  8
Layer_1
 62
7
100
AcDbSpline
 70
8
 71
3
 72
8
 73
4
 74
0
 40
0
 40
0
 40
0
 40
0
 40
1
 40
1
 40
1
 40
1
 10
740.921528
 20
400.238736
 30
0.0
 10
740.921528
 20
401.059579
 30
0.0
 10
741.591156
 20
401.729222
 30
0.0
 10
742.412028
 20
401.729222
 30
0.0
  0
LWPOLYLINE
  5
222
100
AcDbEntity
  8
Layer_1
 62
7
100
AcDbPolyline
 90
2
 70
0
 10
932.726806
 20
465.925958
 30
0.0
 10
932.726806
 20
465.925958
 30
0.0
  0
SPLINE
  5
223
100
AcDbEntity
  8
Layer_1
 62
7
100
AcDbSpline
 70
8
 71
3
 72
8
 73
4
 74
0
 40
0
 40
0
 40
0
 40
0
 40
1
 40
1
 40
1
 40
1
 10
951.397584
 20
401.729222
 30
0.0
 10
952.218455
 20
401.729222
 30
0.0
 10
952.879250
 20
401.059579
 30
0.0
 10
952.879250
 20
400.238736
 30
0.0
  0
SPLINE
  5
224
100
AcDbEntity
  8
Layer_1
 62
7
100
AcDbSpline
 70
8
 71
3
 72
8
 73
4
 74
0
 40
0
 40
0
 40
0
 40
0
 40
1
 40
1
 40
1
 40
1
 10
952.879250
 20
400.238736
 30
0.0
 10
952.879250
 20
399.417893
 30
0.0
 10
952.218455
 20
398.757069
 30
0.0
 10
951.397584
 20
398.757069
 30
0.0
  0
SPLINE
  5
225
100
AcDbEntity
  8
Layer_1
 62
7
100
AcDbSpline
 70
8
 71
3
 72
8
 73
4
 74
0
 40
0
 40
0
 40
0
 40
0
 40
1
 40
1
 40
1
 40
1
 10
951.397584
 20
398.757069
 30
0.0
 10
950.576712
 20
398.757069
 30
0.0
 10
949.907083
 20
399.417893
 30
0.0
 10
949.907083
 20
400.238736
 30
0.0
  0
SPLINE
  5
226
100
AcDbEntity
  8
Layer_1
 62
7
100
AcDbSpline
 70
8
 71
3
 72
8
 73
4
 74
0
 40
0
 40
0
 40
0
 40
0
 40
1
 40
1
 40
1
 40
1
 10
949.907083
 20
400.238736
 30
0.0
 10
949.907083
 20
401.059579
 30
0.0
 10
950.576712
 20
401.729222
 30
0.0
 10
951.397584
 20
401.729222
 30
0.0
  0
LWPOLYLINE
  5
227
100
AcDbEntity
  8
Layer_1
 62
7
100
AcDbPolyline
 90
2
 70
0
 10
742.412028
 20
401.729222
 30
0.0
 10
742.412028
 20
401.729222
 30
0.0
  0
LWPOLYLINE
  5
228
100
AcDbEntity
  8
Layer_1
 62
7
100
AcDbPolyline
 90
2
 70
0
 10
951.397584
 20
401.729222
 30
0.0
 10
951.397584
 20
401.729222
 30
0.0
  0
SPLINE
  5
229
100
AcDbEntity
  8
Layer_1
 62
7
100
AcDbSpline
 70
8
 71
3
 72
8
 73
4
 74
0
 40
0
 40
0
 40
0
 40
0
 40
1
 40
1
 40
1
 40
1
 10
517.216305
 20
199.622833
 30
0.0
 10
518.008221
 20
199.622833
 30
0.0
 10
518.645084
 20
198.977208
 30
0.0
 10
518.645084
 20
198.185264
 30
0.0
  0
SPLINE
  5
22a
100
AcDbEntity
  8
Layer_1
 62
7
100
AcDbSpline
 70
8
 71
3
 72
8
 73
4
 74
0
 40
0
 40
0
 40
0
 40
0
 40
1
 40
1
 40
1
 40
1
 10
518.645084
 20
198.185264
 30
0.0
 10
518.645084
 20
197.393348
 30
0.0
 10
518.008221
 20
196.747694
 30
0.0
 10
517.216305
 20
196.747694
 30
0.0
  0
SPLINE
  5
22b
100
AcDbEntity
  8
Layer_1
 62
7
100
AcDbSpline
 70
8
 71
3
 72
8
 73
4
 74
0
 40
0
 40
0
 40
0
 40
0
 40
1
 40
1
 40
1
 40
1
 10
517.216305
 20
196.747694
 30
0.0
 10
516.424390
 20
196.747694
 30
0.0
 10
515.778750
 20
197.393348
 30
0.0
 10
515.778750
 20
198.185264
 30
0.0
  0
SPLINE
  5
22c
100
AcDbEntity
  8
Layer_1
 62
7
100
AcDbSpline
 70
8
 71
3
 72
8
 73
4
 74
0
 40
0
 40
0
 40
0
 40
0
 40
1
 40
1
 40
1
 40
1
 10
515.778750
 20
198.185264
 30
0.0
 10
515.778750
 20
198.977208
 30
0.0
 10
516.424390
 20
199.622833
 30
0.0
 10
517.216305
 20
199.622833
 30
0.0
  0
LWPOLYLINE
  5
22d
100
AcDbEntity
  8
Layer_1
 62
7
100
AcDbPolyline
 90
52
 70
0
 10
515.126111
 20
231.963736
 30
0.0
 10
515.126111
 20
226.963111
 30
0.0
 10
510.125472
 20
226.963111
 30
0.0
 10
510.125472
 20
211.961236
 30
0.0
 10
510.125472
 20
166.964431
 30
0.0
 10
510.125472
 20
151.962556
 30
0.0
 10
555.122306
 20
151.962556
 30
0.0
 10
555.122306
 20
156.963181
 30
0.0
 10
560.122917
 20
156.963181
 30
0.0
 10
560.122917
 20
161.963806
 30
0.0
 10
555.122306
 20
161.963806
 30
0.0
 10
555.122306
 20
166.964431
 30
0.0
 10
560.122917
 20
166.964431
 30
0.0
 10
560.122917
 20
171.965056
 30
0.0
 10
555.122306
 20
171.965056
 30
0.0
 10
555.122306
 20
176.965681
 30
0.0
 10
560.122917
 20
176.965681
 30
0.0
 10
560.122917
 20
181.966306
 30
0.0
 10
555.122306
 20
181.966306
 30
0.0
 10
555.122306
 20
186.966931
 30
0.0
 10
560.122917
 20
186.966931
 30
0.0
 10
560.122917
 20
191.967556
 30
0.0
 10
555.122306
 20
191.967556
 30
0.0
 10
555.122306
 20
196.968181
 30
0.0
 10
560.122917
 20
196.968181
 30
0.0
 10
560.122917
 20
201.968806
 30
0.0
 10
555.122306
 20
201.968806
 30
0.0
 10
555.122306
 20
206.969431
 30
0.0
 10
560.122917
 20
206.969431
 30
0.0
 10
560.122917
 20
211.961236
 30
0.0
 10
555.122306
 20
211.961236
 30
0.0
 10
555.122306
 20
216.961861
 30
0.0
 10
560.122917
 20
216.961861
 30
0.0
 10
560.122917
 20
221.962486
 30
0.0
 10
555.122306
 20
221.962486
 30
0.0
 10
555.122306
 20
226.963111
 30
0.0
 10
550.121667
 20
226.963111
 30
0.0
 10
550.121667
 20
231.963736
 30
0.0
 10
545.129861
 20
231.963736
 30
0.0
 10
545.129861
 20
226.963111
 30
0.0
 10
540.129250
 20
226.963111
 30
0.0
 10
540.129250
 20
231.963736
 30
0.0
 10
535.128611
 20
231.963736
 30
0.0
 10
535.128611
 20
226.963111
 30
0.0
 10
530.127972
 20
226.963111
 30
0.0
 10
530.127972
 20
231.963736
 30
0.0
 10
525.127361
 20
231.963736
 30
0.0
 10
525.127361
 20
226.963111
 30
0.0
 10
520.126750
 20
226.963111
 30
0.0
 10
520.126750
 20
231.963736
 30
0.0
 10
515.126111
 20
231.963736
 30
0.0
 10
515.126111
 20
231.963736
 30
0.0
  0
SPLINE
  5
22e
100
AcDbEntity
  8
Layer_1
 62
7
100
AcDbSpline
 70
8
 71
3
 72
8
 73
4
 74
0
 40
0
 40
0
 40
0
 40
0
 40
1
 40
1
 40
1
 40
1
 10
548.102028
 20
199.622833
 30
0.0
 10
548.893915
 20
199.622833
 30
0.0
 10
549.530750
 20
198.977208
 30
0.0
 10
549.530750
 20
198.185264
 30
0.0
  0
SPLINE
  5
22f
100
AcDbEntity
  8
Layer_1
 62
7
100
AcDbSpline
 70
8
 71
3
 72
8
 73
4
 74
0
 40
0
 40
0
 40
0
 40
0
 40
1
 40
1
 40
1
 40
1
 10
549.530750
 20
198.185264
 30
0.0
 10
549.530750
 20
197.393348
 30
0.0
 10
548.893915
 20
196.747694
 30
0.0
 10
548.102028
 20
196.747694
 30
0.0
  0
SPLINE
  5
230
100
AcDbEntity
  8
Layer_1
 62
7
100
AcDbSpline
 70
8
 71
3
 72
8
 73
4
 74
0
 40
0
 40
0
 40
0
 40
0
 40
1
 40
1
 40
1
 40
1
 10
548.102028
 20
196.747694
 30
0.0
 10
547.310084
 20
196.747694
 30
0.0
 10
546.664444
 20
197.393348
 30
0.0
 10
546.664444
 20
198.185264
 30
0.0
  0
SPLINE
  5
231
100
AcDbEntity
  8
Layer_1
 62
7
100
AcDbSpline
 70
8
 71
3
 72
8
 73
4
 74
0
 40
0
 40
0
 40
0
 40
0
 40
1
 40
1
 40
1
 40
1
 10
546.664444
 20
198.185264
 30
0.0
 10
546.664444
 20
198.977208
 30
0.0
 10
547.310084
 20
199.622833
 30
0.0
 10
548.102028
 20
199.622833
 30
0.0
  0
LWPOLYLINE
  5
232
100
AcDbEntity
  8
Layer_1
 62
7
100
AcDbPolyline
 90
2
 70
0
 10
517.216305
 20
199.622833
 30
0.0
 10
517.216305
 20
199.622833
 30
0.0
  0
SPLINE
  5
233
100
AcDbEntity
  8
Layer_1
 62
7
100
AcDbSpline
 70
8
 71
3
 72
8
 73
4
 74
0
 40
0
 40
0
 40
0
 40
0
 40
1
 40
1
 40
1
 40
1
 10
532.623889
 20
188.607347
 30
0.0
 10
535.879322
 20
188.607347
 30
0.0
 10
538.524083
 20
185.962742
 30
0.0
 10
538.524083
 20
182.707139
 30
0.0
  0
SPLINE
  5
234
100
AcDbEntity
  8
Layer_1
 62
7
100
AcDbSpline
 70
8
 71
3
 72
8
 73
4
 74
0
 40
0
 40
0
 40
0
 40
0
 40
1
 40
1
 40
1
 40
1
 10
538.524083
 20
182.707139
 30
0.0
 10
538.524083
 20
179.451847
 30
0.0
 10
535.879322
 20
176.815750
 30
0.0
 10
532.623889
 20
176.815750
 30
0.0
  0
SPLINE
  5
235
100
AcDbEntity
  8
Layer_1
 62
7
100
AcDbSpline
 70
8
 71
3
 72
8
 73
4
 74
0
 40
0
 40
0
 40
0
 40
0
 40
1
 40
1
 40
1
 40
1
 10
532.623889
 20
176.815750
 30
0.0
 10
529.368456
 20
176.815750
 30
0.0
 10
526.732500
 20
179.451847
 30
0.0
 10
526.732500
 20
182.707139
 30
0.0
  0
SPLINE
  5
236
100
AcDbEntity
  8
Layer_1
 62
7
100
AcDbSpline
 70
8
 71
3
 72
8
 73
4
 74
0
 40
0
 40
0
 40
0
 40
0
 40
1
 40
1
 40
1
 40
1
 10
526.732500
 20
182.707139
 30
0.0
 10
526.732500
 20
185.962742
 30
0.0
 10
529.368456
 20
188.607347
 30
0.0
 10
532.623889
 20
188.607347
 30
0.0
  0
LWPOLYLINE
  5
237
100
AcDbEntity
  8
Layer_1
 62
7
100
AcDbPolyline
 90
2
 70
0
 10
548.102028
 20
199.622833
 30
0.0
 10
548.102028
 20
199.622833
 30
0.0
  0
SPLINE
  5
238
100
AcDbEntity
  8
Layer_1
 62
7
100
AcDbSpline
 70
8
 71
3
 72
8
 73
4
 74
0
 40
0
 40
0
 40
0
 40
0
 40
1
 40
1
 40
1
 40
1
 10
543.374806
 20
174.990125
 30
0.0
 10
545.537192
 20
174.990125
 30
0.0
 10
547.290639
 20
173.236707
 30
0.0
 10
547.290639
 20
171.074292
 30
0.0
  0
SPLINE
  5
239
100
AcDbEntity
  8
Layer_1
 62
7
100
AcDbSpline
 70
8
 71
3
 72
8
 73
4
 74
0
 40
0
 40
0
 40
0
 40
0
 40
1
 40
1
 40
1
 40
1
 10
547.290639
 20
171.074292
 30
0.0
 10
547.290639
 20
168.911849
 30
0.0
 10
545.537192
 20
167.158458
 30
0.0
 10
543.374806
 20
167.158458
 30
0.0
  0
SPLINE
  5
23a
100
AcDbEntity
  8
Layer_1
 62
7
100
AcDbSpline
 70
8
 71
3
 72
8
 73
4
 74
0
 40
0
 40
0
 40
0
 40
0
 40
1
 40
1
 40
1
 40
1
 10
543.374806
 20
167.158458
 30
0.0
 10
541.212363
 20
167.158458
 30
0.0
 10
539.458972
 20
168.911849
 30
0.0
 10
539.458972
 20
171.074292
 30
0.0
  0
SPLINE
  5
23b
100
AcDbEntity
  8
Layer_1
 62
7
100
AcDbSpline
 70
8
 71
3
 72
8
 73
4
 74
0
 40
0
 40
0
 40
0
 40
0
 40
1
 40
1
 40
1
 40
1
 10
539.458972
 20
171.074292
 30
0.0
 10
539.458972
 20
173.236707
 30
0.0
 10
541.212363
 20
174.990125
 30
0.0
 10
543.374806
 20
174.990125
 30
0.0
  0
LWPOLYLINE
  5
23c
100
AcDbEntity
  8
Layer_1
 62
7
100
AcDbPolyline
 90
2
 70
0
 10
532.623889
 20
188.607347
 30
0.0
 10
532.623889
 20
188.607347
 30
0.0
  0
SPLINE
  5
23d
100
AcDbEntity
  8
Layer_1
 62
7
100
AcDbSpline
 70
8
 71
3
 72
8
 73
4
 74
0
 40
0
 40
0
 40
0
 40
0
 40
1
 40
1
 40
1
 40
1
 10
517.216305
 20
168.666583
 30
0.0
 10
518.008221
 20
168.666583
 30
0.0
 10
518.645084
 20
168.020929
 30
0.0
 10
518.645084
 20
167.229014
 30
0.0
  0
SPLINE
  5
23e
100
AcDbEntity
  8
Layer_1
 62
7
100
AcDbSpline
 70
8
 71
3
 72
8
 73
4
 74
0
 40
0
 40
0
 40
0
 40
0
 40
1
 40
1
 40
1
 40
1
 10
518.645084
 20
167.229014
 30
0.0
 10
518.645084
 20
166.437070
 30
0.0
 10
518.008221
 20
165.800264
 30
0.0
 10
517.216305
 20
165.800264
 30
0.0
  0
SPLINE
  5
23f
100
AcDbEntity
  8
Layer_1
 62
7
100
AcDbSpline
 70
8
 71
3
 72
8
 73
4
 74
0
 40
0
 40
0
 40
0
 40
0
 40
1
 40
1
 40
1
 40
1
 10
517.216305
 20
165.800264
 30
0.0
 10
516.424390
 20
165.800264
 30
0.0
 10
515.778750
 20
166.437070
 30
0.0
 10
515.778750
 20
167.229014
 30
0.0
  0
SPLINE
  5
240
100
AcDbEntity
  8
Layer_1
 62
7
100
AcDbSpline
 70
8
 71
3
 72
8
 73
4
 74
0
 40
0
 40
0
 40
0
 40
0
 40
1
 40
1
 40
1
 40
1
 10
515.778750
 20
167.229014
 30
0.0
 10
515.778750
 20
168.020929
 30
0.0
 10
516.424390
 20
168.666583
 30
0.0
 10
517.216305
 20
168.666583
 30
0.0
  0
LWPOLYLINE
  5
241
100
AcDbEntity
  8
Layer_1
 62
7
100
AcDbPolyline
 90
2
 70
0
 10
543.374806
 20
174.990125
 30
0.0
 10
543.374806
 20
174.990125
 30
0.0
  0
LWPOLYLINE
  5
242
100
AcDbEntity
  8
Layer_1
 62
7
100
AcDbPolyline
 90
2
 70
0
 10
517.216305
 20
168.666583
 30
0.0
 10
517.216305
 20
168.666583
 30
0.0
  0
SPLINE
  5
243
100
AcDbEntity
  8
Layer_1
 62
7
100
AcDbSpline
 70
8
 71
3
 72
8
 73
4
 74
0
 40
0
 40
0
 40
0
 40
0
 40
1
 40
1
 40
1
 40
1
 10
520.408972
 20
280.708806
 30
0.0
 10
521.200888
 20
280.708806
 30
0.0
 10
521.837694
 20
280.063152
 30
0.0
 10
521.837694
 20
279.271236
 30
0.0
  0
SPLINE
  5
244
100
AcDbEntity
  8
Layer_1
 62
7
100
AcDbSpline
 70
8
 71
3
 72
8
 73
4
 74
0
 40
0
 40
0
 40
0
 40
0
 40
1
 40
1
 40
1
 40
1
 10
521.837694
 20
279.271236
 30
0.0
 10
521.837694
 20
278.479321
 30
0.0
 10
521.200888
 20
277.833667
 30
0.0
 10
520.408972
 20
277.833667
 30
0.0
  0
SPLINE
  5
245
100
AcDbEntity
  8
Layer_1
 62
7
100
AcDbSpline
 70
8
 71
3
 72
8
 73
4
 74
0
 40
0
 40
0
 40
0
 40
0
 40
1
 40
1
 40
1
 40
1
 10
520.408972
 20
277.833667
 30
0.0
 10
519.617029
 20
277.833667
 30
0.0
 10
518.971389
 20
278.479321
 30
0.0
 10
518.971389
 20
279.271236
 30
0.0
  0
SPLINE
  5
246
100
AcDbEntity
  8
Layer_1
 62
7
100
AcDbSpline
 70
8
 71
3
 72
8
 73
4
 74
0
 40
0
 40
0
 40
0
 40
0
 40
1
 40
1
 40
1
 40
1
 10
518.971389
 20
279.271236
 30
0.0
 10
518.971389
 20
280.063152
 30
0.0
 10
519.617057
 20
280.708806
 30
0.0
 10
520.408972
 20
280.708806
 30
0.0
  0
LWPOLYLINE
  5
247
100
AcDbEntity
  8
Layer_1
 62
7
100
AcDbPolyline
 90
53
 70
0
 10
519.535833
 20
313.093806
 30
0.0
 10
519.535833
 20
308.093181
 30
0.0
 10
514.535194
 20
308.093181
 30
0.0
 10
514.535194
 20
303.092556
 30
0.0
 10
509.534583
 20
303.092556
 30
0.0
 10
509.534583
 20
298.091931
 30
0.0
 10
514.535194
 20
298.091931
 30
0.0
 10
514.535194
 20
293.100125
 30
0.0
 10
514.535194
 20
293.091306
 30
0.0
 10
509.534583
 20
293.091306
 30
0.0
 10
509.534583
 20
288.099500
 30
0.0
 10
514.535194
 20
288.099500
 30
0.0
 10
514.535194
 20
283.098875
 30
0.0
 10
509.534583
 20
283.098875
 30
0.0
 10
509.534583
 20
278.098250
 30
0.0
 10
514.535194
 20
278.098250
 30
0.0
 10
514.535194
 20
273.097625
 30
0.0
 10
509.534583
 20
273.097625
 30
0.0
 10
509.534583
 20
268.097000
 30
0.0
 10
514.535194
 20
268.097000
 30
0.0
 10
514.535194
 20
263.096375
 30
0.0
 10
509.534583
 20
263.096375
 30
0.0
 10
509.534583
 20
258.095750
 30
0.0
 10
514.535194
 20
258.095750
 30
0.0
 10
514.535194
 20
253.095125
 30
0.0
 10
509.534583
 20
253.095125
 30
0.0
 10
509.534583
 20
248.094500
 30
0.0
 10
514.535194
 20
248.094500
 30
0.0
 10
514.535194
 20
243.093875
 30
0.0
 10
509.534583
 20
243.093875
 30
0.0
 10
509.534583
 20
238.093250
 30
0.0
 10
514.535194
 20
238.093250
 30
0.0
 10
514.535194
 20
233.092625
 30
0.0
 10
559.532028
 20
233.092625
 30
0.0
 10
559.532028
 20
238.093250
 30
0.0
 10
559.532028
 20
293.100125
 30
0.0
 10
559.532028
 20
308.093181
 30
0.0
 10
554.531389
 20
308.093181
 30
0.0
 10
554.531389
 20
313.093806
 30
0.0
 10
549.530750
 20
313.093806
 30
0.0
 10
549.530750
 20
308.093181
 30
0.0
 10
544.530139
 20
308.093181
 30
0.0
 10
544.530139
 20
313.093806
 30
0.0
 10
539.529528
 20
313.093806
 30
0.0
 10
539.529528
 20
308.093181
 30
0.0
 10
534.528889
 20
308.093181
 30
0.0
 10
534.528889
 20
313.093806
 30
0.0
 10
529.528250
 20
313.093806
 30
0.0
 10
529.528250
 20
308.093181
 30
0.0
 10
524.527639
 20
308.093181
 30
0.0
 10
524.527639
 20
313.093806
 30
0.0
 10
519.535833
 20
313.093806
 30
0.0
 10
519.535833
 20
313.093806
 30
0.0
  0
SPLINE
  5
248
100
AcDbEntity
  8
Layer_1
 62
7
100
AcDbSpline
 70
8
 71
3
 72
8
 73
4
 74
0
 40
0
 40
0
 40
0
 40
0
 40
1
 40
1
 40
1
 40
1
 10
551.294639
 20
280.708806
 30
0.0
 10
552.086582
 20
280.708806
 30
0.0
 10
552.723417
 20
280.063152
 30
0.0
 10
552.723417
 20
279.271236
 30
0.0
  0
SPLINE
  5
249
100
AcDbEntity
  8
Layer_1
 62
7
100
AcDbSpline
 70
8
 71
3
 72
8
 73
4
 74
0
 40
0
 40
0
 40
0
 40
0
 40
1
 40
1
 40
1
 40
1
 10
552.723417
 20
279.271236
 30
0.0
 10
552.723417
 20
278.479321
 30
0.0
 10
552.086582
 20
277.833667
 30
0.0
 10
551.294639
 20
277.833667
 30
0.0
  0
SPLINE
  5
24a
100
AcDbEntity
  8
Layer_1
 62
7
100
AcDbSpline
 70
8
 71
3
 72
8
 73
4
 74
0
 40
0
 40
0
 40
0
 40
0
 40
1
 40
1
 40
1
 40
1
 10
551.294639
 20
277.833667
 30
0.0
 10
550.502723
 20
277.833667
 30
0.0
 10
549.857083
 20
278.479321
 30
0.0
 10
549.857083
 20
279.271236
 30
0.0
  0
SPLINE
  5
24b
100
AcDbEntity
  8
Layer_1
 62
7
100
AcDbSpline
 70
8
 71
3
 72
8
 73
4
 74
0
 40
0
 40
0
 40
0
 40
0
 40
1
 40
1
 40
1
 40
1
 10
549.857083
 20
279.271236
 30
0.0
 10
549.857083
 20
280.063152
 30
0.0
 10
550.502751
 20
280.708806
 30
0.0
 10
551.294639
 20
280.708806
 30
0.0
  0
LWPOLYLINE
  5
24c
100
AcDbEntity
  8
Layer_1
 62
7
100
AcDbPolyline
 90
2
 70
0
 10
520.408972
 20
280.708806
 30
0.0
 10
520.408972
 20
280.708806
 30
0.0
  0
SPLINE
  5
24d
100
AcDbEntity
  8
Layer_1
 62
7
100
AcDbSpline
 70
8
 71
3
 72
8
 73
4
 74
0
 40
0
 40
0
 40
0
 40
0
 40
1
 40
1
 40
1
 40
1
 10
535.816528
 20
269.693319
 30
0.0
 10
539.071961
 20
269.693319
 30
0.0
 10
541.716750
 20
267.048629
 30
0.0
 10
541.716750
 20
263.793111
 30
0.0
  0
SPLINE
  5
24e
100
AcDbEntity
  8
Layer_1
 62
7
100
AcDbSpline
 70
8
 71
3
 72
8
 73
4
 74
0
 40
0
 40
0
 40
0
 40
0
 40
1
 40
1
 40
1
 40
1
 10
541.716750
 20
263.793111
 30
0.0
 10
541.716750
 20
260.537734
 30
0.0
 10
539.071961
 20
257.901722
 30
0.0
 10
535.816528
 20
257.901722
 30
0.0
  0
SPLINE
  5
24f
100
AcDbEntity
  8
Layer_1
 62
7
100
AcDbSpline
 70
8
 71
3
 72
8
 73
4
 74
0
 40
0
 40
0
 40
0
 40
0
 40
1
 40
1
 40
1
 40
1
 10
535.816528
 20
257.901722
 30
0.0
 10
532.561094
 20
257.901722
 30
0.0
 10
529.925139
 20
260.537734
 30
0.0
 10
529.925139
 20
263.793111
 30
0.0
  0
SPLINE
  5
250
100
AcDbEntity
  8
Layer_1
 62
7
100
AcDbSpline
 70
8
 71
3
 72
8
 73
4
 74
0
 40
0
 40
0
 40
0
 40
0
 40
1
 40
1
 40
1
 40
1
 10
529.925139
 20
263.793111
 30
0.0
 10
529.925139
 20
267.048629
 30
0.0
 10
532.561094
 20
269.693319
 30
0.0
 10
535.816528
 20
269.693319
 30
0.0
  0
LWPOLYLINE
  5
251
100
AcDbEntity
  8
Layer_1
 62
7
100
AcDbPolyline
 90
2
 70
0
 10
551.294639
 20
280.708806
 30
0.0
 10
551.294639
 20
280.708806
 30
0.0
  0
SPLINE
  5
252
100
AcDbEntity
  8
Layer_1
 62
7
100
AcDbSpline
 70
8
 71
3
 72
8
 73
4
 74
0
 40
0
 40
0
 40
0
 40
0
 40
1
 40
1
 40
1
 40
1
 10
524.959806
 20
256.208389
 30
0.0
 10
527.122221
 20
256.208389
 30
0.0
 10
528.875639
 20
254.454970
 30
0.0
 10
528.875639
 20
252.292556
 30
0.0
  0
SPLINE
  5
253
100
AcDbEntity
  8
Layer_1
 62
7
100
AcDbSpline
 70
8
 71
3
 72
8
 73
4
 74
0
 40
0
 40
0
 40
0
 40
0
 40
1
 40
1
 40
1
 40
1
 10
528.875639
 20
252.292556
 30
0.0
 10
528.875639
 20
250.130141
 30
0.0
 10
527.122221
 20
248.376722
 30
0.0
 10
524.959806
 20
248.376722
 30
0.0
  0
SPLINE
  5
254
100
AcDbEntity
  8
Layer_1
 62
7
100
AcDbSpline
 70
8
 71
3
 72
8
 73
4
 74
0
 40
0
 40
0
 40
0
 40
0
 40
1
 40
1
 40
1
 40
1
 10
524.959806
 20
248.376722
 30
0.0
 10
522.797363
 20
248.376722
 30
0.0
 10
521.043972
 20
250.130141
 30
0.0
 10
521.043972
 20
252.292556
 30
0.0
  0
SPLINE
  5
255
100
AcDbEntity
  8
Layer_1
 62
7
100
AcDbSpline
 70
8
 71
3
 72
8
 73
4
 74
0
 40
0
 40
0
 40
0
 40
0
 40
1
 40
1
 40
1
 40
1
 10
521.043972
 20
252.292556
 30
0.0
 10
521.043972
 20
254.454970
 30
0.0
 10
522.797363
 20
256.208389
 30
0.0
 10
524.959806
 20
256.208389
 30
0.0
  0
LWPOLYLINE
  5
256
100
AcDbEntity
  8
Layer_1
 62
7
100
AcDbPolyline
 90
2
 70
0
 10
535.816528
 20
269.693319
 30
0.0
 10
535.816528
 20
269.693319
 30
0.0
  0
SPLINE
  5
257
100
AcDbEntity
  8
Layer_1
 62
7
100
AcDbSpline
 70
8
 71
3
 72
8
 73
4
 74
0
 40
0
 40
0
 40
0
 40
0
 40
1
 40
1
 40
1
 40
1
 10
551.294639
 20
249.752556
 30
0.0
 10
552.086582
 20
249.752556
 30
0.0
 10
552.723417
 20
249.106902
 30
0.0
 10
552.723417
 20
248.314986
 30
0.0
  0
SPLINE
  5
258
100
AcDbEntity
  8
Layer_1
 62
7
100
AcDbSpline
 70
8
 71
3
 72
8
 73
4
 74
0
 40
0
 40
0
 40
0
 40
0
 40
1
 40
1
 40
1
 40
1
 10
552.723417
 20
248.314986
 30
0.0
 10
552.723417
 20
247.523071
 30
0.0
 10
552.086582
 20
246.886236
 30
0.0
 10
551.294639
 20
246.886236
 30
0.0
  0
SPLINE
  5
259
100
AcDbEntity
  8
Layer_1
 62
7
100
AcDbSpline
 70
8
 71
3
 72
8
 73
4
 74
0
 40
0
 40
0
 40
0
 40
0
 40
1
 40
1
 40
1
 40
1
 10
551.294639
 20
246.886236
 30
0.0
 10
550.502723
 20
246.886236
 30
0.0
 10
549.857083
 20
247.523071
 30
0.0
 10
549.857083
 20
248.314986
 30
0.0
  0
SPLINE
  5
25a
100
AcDbEntity
  8
Layer_1
 62
7
100
AcDbSpline
 70
8
 71
3
 72
8
 73
4
 74
0
 40
0
 40
0
 40
0
 40
0
 40
1
 40
1
 40
1
 40
1
 10
549.857083
 20
248.314986
 30
0.0
 10
549.857083
 20
249.106902
 30
0.0
 10
550.502751
 20
249.752556
 30
0.0
 10
551.294639
 20
249.752556
 30
0.0
  0
LWPOLYLINE
  5
25b
100
AcDbEntity
  8
Layer_1
 62
7
100
AcDbPolyline
 90
2
 70
0
 10
524.959806
 20
256.208389
 30
0.0
 10
524.959806
 20
256.208389
 30
0.0
  0
LWPOLYLINE
  5
25c
100
AcDbEntity
  8
Layer_1
 62
7
100
AcDbPolyline
 90
2
 70
0
 10
551.294639
 20
249.752556
 30
0.0
 10
551.294639
 20
249.752556
 30
0.0
  0
SPLINE
  5
25d
100
AcDbEntity
  8
Layer_1
 62
7
100
AcDbSpline
 70
8
 71
3
 72
8
 73
4
 74
0
 40
0
 40
0
 40
0
 40
0
 40
1
 40
1
 40
1
 40
1
 10
362.426250
 20
845.629500
 30
0.0
 10
364.635316
 20
845.629500
 30
0.0
 10
366.421472
 20
843.834595
 30
0.0
 10
366.421472
 20
841.625472
 30
0.0
  0
SPLINE
  5
25e
100
AcDbEntity
  8
Layer_1
 62
7
100
AcDbSpline
 70
8
 71
3
 72
8
 73
4
 74
0
 40
0
 40
0
 40
0
 40
0
 40
1
 40
1
 40
1
 40
1
 10
366.421472
 20
841.625472
 30
0.0
 10
366.421472
 20
839.416321
 30
0.0
 10
364.635316
 20
837.630250
 30
0.0
 10
362.426250
 20
837.630250
 30
0.0
  0
SPLINE
  5
25f
100
AcDbEntity
  8
Layer_1
 62
7
100
AcDbSpline
 70
8
 71
3
 72
8
 73
4
 74
0
 40
0
 40
0
 40
0
 40
0
 40
1
 40
1
 40
1
 40
1
 10
362.426250
 20
837.630250
 30
0.0
 10
360.217043
 20
837.630250
 30
0.0
 10
358.422222
 20
839.416321
 30
0.0
 10
358.422222
 20
841.625472
 30
0.0
  0
SPLINE
  5
260
100
AcDbEntity
  8
Layer_1
 62
7
100
AcDbSpline
 70
8
 71
3
 72
8
 73
4
 74
0
 40
0
 40
0
 40
0
 40
0
 40
1
 40
1
 40
1
 40
1
 10
358.422222
 20
841.625472
 30
0.0
 10
358.422222
 20
843.834595
 30
0.0
 10
360.217043
 20
845.629500
 30
0.0
 10
362.426250
 20
845.629500
 30
0.0
  0
LWPOLYLINE
  5
261
100
AcDbEntity
  8
Layer_1
 62
7
100
AcDbPolyline
 90
38
 70
0
 10
349.285278
 20
889.171083
 30
0.0
 10
349.285278
 20
884.170472
 30
0.0
 10
344.284639
 20
884.170472
 30
0.0
 10
344.284639
 20
879.169861
 30
0.0
 10
339.284028
 20
879.169861
 30
0.0
 10
339.284028
 20
874.169222
 30
0.0
 10
344.284639
 20
874.169222
 30
0.0
 10
344.284639
 20
869.168583
 30
0.0
 10
339.284028
 20
869.168583
 30
0.0
 10
339.284028
 20
864.176806
 30
0.0
 10
344.284639
 20
864.176806
 30
0.0
 10
344.284639
 20
859.176167
 30
0.0
 10
339.284028
 20
859.176167
 30
0.0
 10
339.284028
 20
854.175528
 30
0.0
 10
344.284639
 20
854.175528
 30
0.0
 10
344.284639
 20
849.174917
 30
0.0
 10
339.284028
 20
849.174917
 30
0.0
 10
339.284028
 20
844.174306
 30
0.0
 10
344.284639
 20
844.174306
 30
0.0
 10
344.284639
 20
839.173667
 30
0.0
 10
339.284028
 20
839.173667
 30
0.0
 10
339.284028
 20
834.173028
 30
0.0
 10
344.284639
 20
834.173028
 30
0.0
 10
349.285278
 20
834.173028
 30
0.0
 10
374.279583
 20
834.173028
 30
0.0
 10
374.279583
 20
879.169861
 30
0.0
 10
374.279583
 20
884.170472
 30
0.0
 10
374.279583
 20
889.171083
 30
0.0
 10
369.278972
 20
889.171083
 30
0.0
 10
369.278972
 20
884.170472
 30
0.0
 10
364.278333
 20
884.170472
 30
0.0
 10
364.278333
 20
889.171083
 30
0.0
 10
359.286528
 20
889.171083
 30
0.0
 10
359.286528
 20
884.170472
 30
0.0
 10
354.285917
 20
884.170472
 30
0.0
 10
354.285917
 20
889.171083
 30
0.0
 10
349.285278
 20
889.171083
 30
0.0
 10
349.285278
 20
889.171083
 30
0.0
  0
LWPOLYLINE
  5
262
100
AcDbEntity
  8
Layer_1
 62
7
100
AcDbPolyline
 90
2
 70
0
 10
362.426250
 20
845.629500
 30
0.0
 10
362.426250
 20
845.629500
 30
0.0
  0
ENDSEC
  0
SECTION
  2
OBJECTS
  0
DICTIONARY
  5
C
330
0
100
AcDbDictionary
  3
ACAD_GROUP
350
D
  3
ACAD_MLINESTYLE
350
17
  0
DICTIONARY
  5
D
330
C
100
AcDbDictionary
  0
DICTIONARY
  5
1A
330
C
100
AcDbDictionary
  0
DICTIONARY
  5
17
330
C
100
AcDbDictionary
  3
STANDARD
350
18
  0
DICTIONARY
  5
19
330
C
100
AcDbDictionary
  0
ENDSEC
  0
EOF
