<?xml version="1.0" encoding="UTF-8" standalone="no"?>
<!-- Created with Inkscape (http://www.inkscape.org/) -->

<svg
   xmlns:dc="http://purl.org/dc/elements/1.1/"
   xmlns:cc="http://creativecommons.org/ns#"
   xmlns:rdf="http://www.w3.org/1999/02/22-rdf-syntax-ns#"
   xmlns:svg="http://www.w3.org/2000/svg"
   xmlns="http://www.w3.org/2000/svg"
   xmlns:sodipodi="http://sodipodi.sourceforge.net/DTD/sodipodi-0.dtd"
   xmlns:inkscape="http://www.inkscape.org/namespaces/inkscape"
   width="744.09448819"
   height="1052.3622047"
   id="svg2"
   version="1.1"
   inkscape:version="0.48.4 r9939"
   sodipodi:docname="Whole-Frame.dxf">
  <defs
     id="defs4" />
  <sodipodi:namedview
     id="base"
     pagecolor="#ffffff"
     bordercolor="#666666"
     borderopacity="1.0"
     inkscape:pageopacity="0.0"
     inkscape:pageshadow="2"
     inkscape:zoom="0.11313708"
     inkscape:cx="-761.73477"
     inkscape:cy="-114.89566"
     inkscape:document-units="px"
     inkscape:current-layer="layer1"
     showgrid="true"
     inkscape:window-width="1366"
     inkscape:window-height="705"
     inkscape:window-x="1358"
     inkscape:window-y="-8"
     inkscape:window-maximized="1">
    <inkscape:grid
       type="xygrid"
       id="grid3757"
       empspacing="2"
       visible="true"
       enabled="true"
       snapvisiblegridlinesonly="true"
       units="cm"
       spacingx="0.5cm"
       spacingy="0.5cm"
       dotted="false" />
  </sodipodi:namedview>
  <metadata
     id="metadata7">
    <rdf:RDF>
      <cc:Work
         rdf:about="">
        <dc:format>image/svg+xml</dc:format>
        <dc:type
           rdf:resource="http://purl.org/dc/dcmitype/StillImage" />
        <dc:title></dc:title>
      </cc:Work>
    </rdf:RDF>
  </metadata>
  <g
     inkscape:label="Layer 1"
     inkscape:groupmode="layer"
     id="layer1">
    <path
       style="fill:#0000ff;fill-opacity:1;stroke:none"
       d="M -265.75 -347.25 L -265.75 -329.53125 L -283.46875 -329.53125 L -283.46875 1123.2188 L -265.75 1123.2188 L -265.75 1140.9375 L -248.03125 1140.9375 L -248.03125 1123.2188 L -230.3125 1123.2188 L -230.3125 1140.9375 L -212.59375 1140.9375 L -212.59375 1123.2188 L -194.875 1123.2188 L -194.875 1140.9375 L -177.15625 1140.9375 L -177.15625 1123.2188 L -159.4375 1123.2188 L -159.4375 1140.9375 L -141.75 1140.9375 L -141.75 1123.2188 L -124.03125 1123.2188 L -124.03125 1140.9375 L -106.3125 1140.9375 L -106.3125 1123.2188 L -88.59375 1123.2188 L -88.59375 1140.9375 L -70.875 1140.9375 L -70.875 -347.25 L -88.59375 -347.25 L -88.59375 -329.53125 L -106.3125 -329.53125 L -106.3125 -347.25 L -124.03125 -347.25 L -124.03125 -329.53125 L -141.71875 -329.53125 L -141.71875 -347.25 L -159.4375 -347.25 L -159.4375 -329.53125 L -177.15625 -329.53125 L -177.15625 -347.25 L -194.875 -347.25 L -194.875 -329.53125 L -212.59375 -329.53125 L -212.59375 -347.25 L -230.3125 -347.25 L -230.3125 -329.53125 L -248.03125 -329.53125 L -248.03125 -347.25 L -265.75 -347.25 z "
       id="rect4046" />
  </g>
</svg>
