  0
SECTION
  2
HEADER
  9
$ACADVER
  1
AC1014
  9
$HANDSEED
  5
FFFF
  9
$MEASUREMENT
 70
     1
  0
ENDSEC
  0
SECTION
  2
TABLES
  0
TABLE
  2
VPORT
  5
8
330
0
100
AcDbSymbolTable
 70
     4
  0
VPORT
  5
2E
330
8
100
AcDbSymbolTableRecord
100
AcDbViewportTableRecord
  2
*ACTIVE
 70
     0
 10
0.0
 20
0.0
 11
1.0
 21
1.0
 12
210.0
 22
148.5
 13
0.0
 23
0.0
 14
10.0
 24
10.0
 15
10.0
 25
10.0
 16
0.0
 26
0.0
 36
1.0
 17
0.0
 27
0.0
 37
0.0
 40
341.0
 41
1.24
 42
50.0
 43
0.0
 44
0.0
 50
0.0
 51
0.0
 71
     0
 72
   100
 73
     1
 74
     3
 75
     0
 76
     0
 77
     0
 78
     0
  0
ENDTAB
  0
TABLE
  2
LTYPE
  5
5
330
0
100
AcDbSymbolTable
 70
     1
  0
LTYPE
  5
14
330
5
100
AcDbSymbolTableRecord
100
AcDbLinetypeTableRecord
  2
BYBLOCK
 70
     0
  3

 72
    65
 73
     0
 40
0.0
  0
LTYPE
  5
15
330
5
100
AcDbSymbolTableRecord
100
AcDbLinetypeTableRecord
  2
BYLAYER
 70
     0
  3

 72
    65
 73
     0
 40
0.0
  0
LTYPE
  5
16
330
5
100
AcDbSymbolTableRecord
100
AcDbLinetypeTableRecord
  2
CONTINUOUS
 70
     0
  3
Solid line
 72
    65
 73
     0
 40
0.0
  0
ENDTAB
  0
TABLE
  2
LAYER
  5
2
100
AcDbSymbolTable
 70
2
  0
LAYER
  5
50
100
AcDbSymbolTableRecord
100
AcDbLayerTableRecord
  2
0
 70
0
  6
CONTINUOUS
  0
LAYER
  5
51
100
AcDbSymbolTableRecord
100
AcDbLayerTableRecord
  2
Layer_1
 70
0
  6
CONTINUOUS
  0
ENDTAB
  0
TABLE
  2
STYLE
  5
3
330
0
100
AcDbSymbolTable
 70
     1
  0
STYLE
  5
11
330
3
100
AcDbSymbolTableRecord
100
AcDbTextStyleTableRecord
  2
STANDARD
 70
     0
 40
0.0
 41
1.0
 50
0.0
 71
     0
 42
2.5
  3
txt
  4

  0
ENDTAB
  0
TABLE
  2
VIEW
  5
6
330
0
100
AcDbSymbolTable
 70
     0
  0
ENDTAB
  0
TABLE
  2
UCS
  5
7
330
0
100
AcDbSymbolTable
 70
     0
  0
ENDTAB
  0
TABLE
  2
APPID
  5
9
330
0
100
AcDbSymbolTable
 70
     2
  0
APPID
  5
12
330
9
100
AcDbSymbolTableRecord
100
AcDbRegAppTableRecord
  2
ACAD
 70
     0
  0
ENDTAB
  0
TABLE
  2
DIMSTYLE
  5
A
330
0
100
AcDbSymbolTable
 70
     1
  0
DIMSTYLE
105
27
330
A
100
AcDbSymbolTableRecord
100
AcDbDimStyleTableRecord
  2
ISO-25
 70
     0
  3

  4

  5

  6

  7

 40
1.0
 41
2.5
 42
0.625
 43
3.75
 44
1.25
 45
0.0
 46
0.0
 47
0.0
 48
0.0
140
2.5
141
2.5
142
0.0
143
0.03937007874016
144
1.0
145
0.0
146
1.0
147
0.625
 71
     0
 72
     0
 73
     0
 74
     0
 75
     0
 76
     0
 77
     1
 78
     8
170
     0
171
     3
172
     1
173
     0
174
     0
175
     0
176
     0
177
     0
178
     0
270
     2
271
     2
272
     2
273
     2
274
     3
340
11
275
     0
280
     0
281
     0
282
     0
283
     0
284
     8
285
     0
286
     0
287
     3
288
     0
  0
ENDTAB
  0
TABLE
  2
BLOCK_RECORD
  5
1
330
0
100
AcDbSymbolTable
 70
     1
  0
BLOCK_RECORD
  5
1F
330
1
100
AcDbSymbolTableRecord
100
AcDbBlockTableRecord
  2
*MODEL_SPACE
  0
BLOCK_RECORD
  5
1B
330
1
100
AcDbSymbolTableRecord
100
AcDbBlockTableRecord
  2
*PAPER_SPACE
  0
ENDTAB
  0
ENDSEC
  0
SECTION
  2
BLOCKS
  0
BLOCK
  5
20
330
1F
100
AcDbEntity
  8
0
100
AcDbBlockBegin
  2
*MODEL_SPACE
 70
     0
 10
0.0
 20
0.0
 30
0.0
  3
*MODEL_SPACE
  1

  0
ENDBLK
  5
21
330
1F
100
AcDbEntity
  8
0
100
AcDbBlockEnd
  0
BLOCK
  5
1C
330
1B
100
AcDbEntity
 67
     1
  8
0
100
AcDbBlockBegin
  2
*PAPER_SPACE
  1

  0
ENDBLK
  5
1D
330
1B
100
AcDbEntity
 67
     1
  8
0
100
AcDbBlockEnd
  0
ENDSEC
  0
SECTION
  2
ENTITIES
  0
LWPOLYLINE
  5
100
100
AcDbEntity
  8
Layer_1
 62
7
100
AcDbPolyline
 90
172
 70
0
 10
0.000000
 20
459.997089
 30
0.0
 10
0.000000
 20
60.000006
 30
0.0
 10
5.000625
 20
60.000006
 30
0.0
 10
5.000625
 20
65.000631
 30
0.0
 10
10.001250
 20
65.000631
 30
0.0
 10
10.001250
 20
60.000006
 30
0.0
 10
15.001875
 20
60.000006
 30
0.0
 10
15.001875
 20
65.000631
 30
0.0
 10
20.002500
 20
65.000631
 30
0.0
 10
20.002500
 20
60.000006
 30
0.0
 10
25.003125
 20
60.000006
 30
0.0
 10
25.003125
 20
65.000631
 30
0.0
 10
30.003750
 20
65.000631
 30
0.0
 10
30.003750
 20
60.000006
 30
0.0
 10
35.004375
 20
60.000006
 30
0.0
 10
35.004375
 20
65.000631
 30
0.0
 10
39.996181
 20
65.000631
 30
0.0
 10
39.996181
 20
60.000006
 30
0.0
 10
44.996806
 20
60.000006
 30
0.0
 10
44.996806
 20
65.000631
 30
0.0
 10
49.997431
 20
65.000631
 30
0.0
 10
49.997431
 20
60.000006
 30
0.0
 10
54.998056
 20
60.000006
 30
0.0
 10
54.998056
 20
65.000631
 30
0.0
 10
59.998681
 20
65.000631
 30
0.0
 10
59.998681
 20
60.000006
 30
0.0
 10
64.999306
 20
60.000006
 30
0.0
 10
64.999306
 20
65.000631
 30
0.0
 10
69.999931
 20
65.000631
 30
0.0
 10
69.999931
 20
60.000006
 30
0.0
 10
75.000556
 20
60.000006
 30
0.0
 10
75.000556
 20
65.000631
 30
0.0
 10
80.001181
 20
65.000631
 30
0.0
 10
80.001181
 20
60.000006
 30
0.0
 10
85.001806
 20
60.000006
 30
0.0
 10
85.001806
 20
65.000631
 30
0.0
 10
90.002431
 20
65.000631
 30
0.0
 10
90.002431
 20
60.000006
 30
0.0
 10
95.003056
 20
60.000006
 30
0.0
 10
95.003056
 20
65.000631
 30
0.0
 10
100.003681
 20
65.000631
 30
0.0
 10
100.003681
 20
60.000006
 30
0.0
 10
105.004306
 20
60.000006
 30
0.0
 10
105.004306
 20
65.000631
 30
0.0
 10
109.996111
 20
65.000631
 30
0.0
 10
109.996111
 20
60.000006
 30
0.0
 10
114.996736
 20
60.000006
 30
0.0
 10
114.996736
 20
65.000631
 30
0.0
 10
119.997361
 20
65.000631
 30
0.0
 10
119.997361
 20
60.000006
 30
0.0
 10
124.997986
 20
60.000006
 30
0.0
 10
124.997986
 20
65.000631
 30
0.0
 10
129.998611
 20
65.000631
 30
0.0
 10
129.998611
 20
60.000006
 30
0.0
 10
134.999236
 20
60.000006
 30
0.0
 10
134.999236
 20
65.000631
 30
0.0
 10
139.999861
 20
65.000631
 30
0.0
 10
139.999861
 20
60.000006
 30
0.0
 10
145.000486
 20
60.000006
 30
0.0
 10
145.000486
 20
65.000631
 30
0.0
 10
150.001111
 20
65.000631
 30
0.0
 10
150.001111
 20
60.000006
 30
0.0
 10
155.001736
 20
60.000006
 30
0.0
 10
155.001736
 20
65.000631
 30
0.0
 10
160.002361
 20
65.000631
 30
0.0
 10
160.002361
 20
60.000006
 30
0.0
 10
165.002986
 20
60.000006
 30
0.0
 10
165.002986
 20
65.000631
 30
0.0
 10
170.003611
 20
65.000631
 30
0.0
 10
170.003611
 20
60.000006
 30
0.0
 10
175.004236
 20
60.000006
 30
0.0
 10
175.004236
 20
65.000631
 30
0.0
 10
179.996042
 20
65.000631
 30
0.0
 10
179.996042
 20
60.000006
 30
0.0
 10
184.996667
 20
60.000006
 30
0.0
 10
184.996667
 20
65.000631
 30
0.0
 10
189.997292
 20
65.000631
 30
0.0
 10
189.997292
 20
60.000006
 30
0.0
 10
194.997917
 20
60.000006
 30
0.0
 10
194.997917
 20
65.000631
 30
0.0
 10
199.998542
 20
65.000631
 30
0.0
 10
199.998542
 20
60.000006
 30
0.0
 10
204.999167
 20
60.000006
 30
0.0
 10
204.999167
 20
65.000631
 30
0.0
 10
209.999792
 20
65.000631
 30
0.0
 10
209.999792
 20
60.000006
 30
0.0
 10
215.000417
 20
60.000006
 30
0.0
 10
215.000417
 20
65.000631
 30
0.0
 10
220.001042
 20
65.000631
 30
0.0
 10
220.001042
 20
60.000006
 30
0.0
 10
225.001667
 20
60.000006
 30
0.0
 10
225.001667
 20
65.000631
 30
0.0
 10
230.002292
 20
65.000631
 30
0.0
 10
230.002292
 20
60.000006
 30
0.0
 10
235.002917
 20
60.000006
 30
0.0
 10
235.002917
 20
65.000631
 30
0.0
 10
240.003542
 20
65.000631
 30
0.0
 10
240.003542
 20
60.000006
 30
0.0
 10
245.004167
 20
60.000006
 30
0.0
 10
245.004167
 20
65.000631
 30
0.0
 10
249.995972
 20
65.000631
 30
0.0
 10
249.995972
 20
60.000006
 30
0.0
 10
254.996597
 20
60.000006
 30
0.0
 10
254.996597
 20
65.000631
 30
0.0
 10
259.997222
 20
65.000631
 30
0.0
 10
259.997222
 20
60.000006
 30
0.0
 10
264.997847
 20
60.000006
 30
0.0
 10
264.997847
 20
65.000631
 30
0.0
 10
269.998472
 20
65.000631
 30
0.0
 10
269.998472
 20
60.000006
 30
0.0
 10
274.999097
 20
60.000006
 30
0.0
 10
274.999097
 20
65.000631
 30
0.0
 10
279.999722
 20
65.000631
 30
0.0
 10
279.999722
 20
60.000006
 30
0.0
 10
285.000361
 20
60.000006
 30
0.0
 10
285.000361
 20
65.000631
 30
0.0
 10
290.000972
 20
65.000631
 30
0.0
 10
290.000972
 20
60.000006
 30
0.0
 10
295.001583
 20
60.000006
 30
0.0
 10
295.001583
 20
65.000631
 30
0.0
 10
300.002222
 20
65.000631
 30
0.0
 10
300.002222
 20
60.000006
 30
0.0
 10
305.002861
 20
60.000006
 30
0.0
 10
305.002861
 20
65.000631
 30
0.0
 10
310.003472
 20
65.000631
 30
0.0
 10
310.003472
 20
60.000006
 30
0.0
 10
315.004083
 20
60.000006
 30
0.0
 10
315.004083
 20
65.000631
 30
0.0
 10
319.995917
 20
65.000631
 30
0.0
 10
319.995917
 20
60.000006
 30
0.0
 10
324.996528
 20
60.000006
 30
0.0
 10
324.996528
 20
65.000631
 30
0.0
 10
329.997139
 20
65.000631
 30
0.0
 10
329.997139
 20
60.000006
 30
0.0
 10
334.997778
 20
60.000006
 30
0.0
 10
334.997778
 20
65.000631
 30
0.0
 10
339.998417
 20
65.000631
 30
0.0
 10
339.998417
 20
60.000006
 30
0.0
 10
344.999028
 20
60.000006
 30
0.0
 10
344.999028
 20
65.000631
 30
0.0
 10
349.999639
 20
65.000631
 30
0.0
 10
349.999639
 20
60.000006
 30
0.0
 10
355.000278
 20
60.000006
 30
0.0
 10
355.000278
 20
65.000631
 30
0.0
 10
360.000917
 20
65.000631
 30
0.0
 10
360.000917
 20
60.000006
 30
0.0
 10
365.001528
 20
60.000006
 30
0.0
 10
365.001528
 20
65.000631
 30
0.0
 10
370.002139
 20
65.000631
 30
0.0
 10
370.002139
 20
60.000006
 30
0.0
 10
375.002778
 20
60.000006
 30
0.0
 10
375.002778
 20
65.000631
 30
0.0
 10
380.003417
 20
65.000631
 30
0.0
 10
380.003417
 20
60.000006
 30
0.0
 10
385.004028
 20
60.000006
 30
0.0
 10
385.004028
 20
65.000631
 30
0.0
 10
389.995833
 20
65.000631
 30
0.0
 10
389.995833
 20
60.000006
 30
0.0
 10
394.996472
 20
60.000006
 30
0.0
 10
394.996472
 20
65.000631
 30
0.0
 10
399.997083
 20
65.000631
 30
0.0
 10
399.997083
 20
60.000006
 30
0.0
 10
404.997694
 20
60.000006
 30
0.0
 10
404.997694
 20
65.000631
 30
0.0
 10
409.998333
 20
65.000631
 30
0.0
 10
409.998333
 20
60.000006
 30
0.0
 10
414.998972
 20
60.000006
 30
0.0
 10
414.998972
 20
65.000631
 30
0.0
 10
419.999583
 20
65.000631
 30
0.0
 10
419.999583
 20
459.997089
 30
0.0
 10
-0.000000
 20
459.997089
 30
0.0
 10
0.000000
 20
459.997089
 30
0.0
  0
LWPOLYLINE
  5
101
100
AcDbEntity
  8
Layer_1
 62
7
100
AcDbPolyline
 90
177
 70
0
 10
5.000625
 20
60.003889
 30
0.0
 10
5.000625
 20
55.003264
 30
0.0
 10
0.000000
 20
55.003264
 30
0.0
 10
0.000000
 20
-5.004250
 30
0.0
 10
39.996181
 20
-5.004250
 30
0.0
 10
39.996181
 20
14.998264
 30
0.0
 10
380.003417
 20
14.998264
 30
0.0
 10
380.003417
 20
-5.004250
 30
0.0
 10
419.999583
 20
-5.004250
 30
0.0
 10
419.999583
 20
55.003264
 30
0.0
 10
419.999583
 20
60.003889
 30
0.0
 10
414.998972
 20
60.003889
 30
0.0
 10
414.998972
 20
55.003264
 30
0.0
 10
409.998333
 20
55.003264
 30
0.0
 10
409.998333
 20
60.003889
 30
0.0
 10
404.997694
 20
60.003889
 30
0.0
 10
404.997694
 20
55.003264
 30
0.0
 10
399.997083
 20
55.003264
 30
0.0
 10
399.997083
 20
60.003889
 30
0.0
 10
394.996472
 20
60.003889
 30
0.0
 10
394.996472
 20
55.003264
 30
0.0
 10
389.995833
 20
55.003264
 30
0.0
 10
389.995833
 20
60.003889
 30
0.0
 10
385.004028
 20
60.003889
 30
0.0
 10
385.004028
 20
55.003264
 30
0.0
 10
380.003417
 20
55.003264
 30
0.0
 10
380.003417
 20
60.003889
 30
0.0
 10
375.002778
 20
60.003889
 30
0.0
 10
375.002778
 20
55.003264
 30
0.0
 10
370.002139
 20
55.003264
 30
0.0
 10
370.002139
 20
60.003889
 30
0.0
 10
365.001528
 20
60.003889
 30
0.0
 10
365.001528
 20
55.003264
 30
0.0
 10
360.000917
 20
55.003264
 30
0.0
 10
360.000917
 20
60.003889
 30
0.0
 10
355.000278
 20
60.003889
 30
0.0
 10
355.000278
 20
55.003264
 30
0.0
 10
349.999639
 20
55.003264
 30
0.0
 10
349.999639
 20
60.003889
 30
0.0
 10
344.999028
 20
60.003889
 30
0.0
 10
344.999028
 20
55.003264
 30
0.0
 10
339.998417
 20
55.003264
 30
0.0
 10
339.998417
 20
60.003889
 30
0.0
 10
334.997778
 20
60.003889
 30
0.0
 10
334.997778
 20
55.003264
 30
0.0
 10
329.997139
 20
55.003264
 30
0.0
 10
329.997139
 20
60.003889
 30
0.0
 10
324.996528
 20
60.003889
 30
0.0
 10
324.996528
 20
55.003264
 30
0.0
 10
319.995917
 20
55.003264
 30
0.0
 10
319.995917
 20
60.003889
 30
0.0
 10
315.004083
 20
60.003889
 30
0.0
 10
315.004083
 20
55.003264
 30
0.0
 10
310.003472
 20
55.003264
 30
0.0
 10
310.003472
 20
60.003889
 30
0.0
 10
305.002861
 20
60.003889
 30
0.0
 10
305.002861
 20
55.003264
 30
0.0
 10
300.002222
 20
55.003264
 30
0.0
 10
300.002222
 20
60.003889
 30
0.0
 10
295.001583
 20
60.003889
 30
0.0
 10
295.001583
 20
55.003264
 30
0.0
 10
290.000972
 20
55.003264
 30
0.0
 10
290.000972
 20
60.003889
 30
0.0
 10
285.000361
 20
60.003889
 30
0.0
 10
285.000361
 20
55.003264
 30
0.0
 10
279.999722
 20
55.003264
 30
0.0
 10
279.999722
 20
60.003889
 30
0.0
 10
274.999097
 20
60.003889
 30
0.0
 10
274.999097
 20
55.003264
 30
0.0
 10
269.998472
 20
55.003264
 30
0.0
 10
269.998472
 20
60.003889
 30
0.0
 10
264.997847
 20
60.003889
 30
0.0
 10
264.997847
 20
55.003264
 30
0.0
 10
259.997222
 20
55.003264
 30
0.0
 10
259.997222
 20
60.003889
 30
0.0
 10
254.996597
 20
60.003889
 30
0.0
 10
254.996597
 20
55.003264
 30
0.0
 10
249.995972
 20
55.003264
 30
0.0
 10
249.995972
 20
60.003889
 30
0.0
 10
245.004167
 20
60.003889
 30
0.0
 10
245.004167
 20
55.003264
 30
0.0
 10
240.003542
 20
55.003264
 30
0.0
 10
240.003542
 20
60.003889
 30
0.0
 10
235.002917
 20
60.003889
 30
0.0
 10
235.002917
 20
55.003264
 30
0.0
 10
230.002292
 20
55.003264
 30
0.0
 10
230.002292
 20
60.003889
 30
0.0
 10
225.001667
 20
60.003889
 30
0.0
 10
225.001667
 20
55.003264
 30
0.0
 10
220.001042
 20
55.003264
 30
0.0
 10
220.001042
 20
60.003889
 30
0.0
 10
215.000417
 20
60.003889
 30
0.0
 10
215.000417
 20
55.003264
 30
0.0
 10
209.999792
 20
55.003264
 30
0.0
 10
209.999792
 20
60.003889
 30
0.0
 10
204.999167
 20
60.003889
 30
0.0
 10
204.999167
 20
55.003264
 30
0.0
 10
199.998542
 20
55.003264
 30
0.0
 10
199.998542
 20
60.003889
 30
0.0
 10
194.997917
 20
60.003889
 30
0.0
 10
194.997917
 20
55.003264
 30
0.0
 10
189.997292
 20
55.003264
 30
0.0
 10
189.997292
 20
60.003889
 30
0.0
 10
184.996667
 20
60.003889
 30
0.0
 10
184.996667
 20
55.003264
 30
0.0
 10
179.996042
 20
55.003264
 30
0.0
 10
179.996042
 20
60.003889
 30
0.0
 10
175.004236
 20
60.003889
 30
0.0
 10
175.004236
 20
55.003264
 30
0.0
 10
170.003611
 20
55.003264
 30
0.0
 10
170.003611
 20
60.003889
 30
0.0
 10
165.002986
 20
60.003889
 30
0.0
 10
165.002986
 20
55.003264
 30
0.0
 10
160.002361
 20
55.003264
 30
0.0
 10
160.002361
 20
60.003889
 30
0.0
 10
155.001736
 20
60.003889
 30
0.0
 10
155.001736
 20
55.003264
 30
0.0
 10
150.001111
 20
55.003264
 30
0.0
 10
150.001111
 20
60.003889
 30
0.0
 10
145.000486
 20
60.003889
 30
0.0
 10
145.000486
 20
55.003264
 30
0.0
 10
139.999861
 20
55.003264
 30
0.0
 10
139.999861
 20
60.003889
 30
0.0
 10
134.999236
 20
60.003889
 30
0.0
 10
134.999236
 20
55.003264
 30
0.0
 10
129.998611
 20
55.003264
 30
0.0
 10
129.998611
 20
60.003889
 30
0.0
 10
124.997986
 20
60.003889
 30
0.0
 10
124.997986
 20
55.003264
 30
0.0
 10
119.997361
 20
55.003264
 30
0.0
 10
119.997361
 20
60.003889
 30
0.0
 10
114.996736
 20
60.003889
 30
0.0
 10
114.996736
 20
55.003264
 30
0.0
 10
109.996111
 20
55.003264
 30
0.0
 10
109.996111
 20
60.003889
 30
0.0
 10
105.004306
 20
60.003889
 30
0.0
 10
105.004306
 20
55.003264
 30
0.0
 10
100.003681
 20
55.003264
 30
0.0
 10
100.003681
 20
60.003889
 30
0.0
 10
95.003056
 20
60.003889
 30
0.0
 10
95.003056
 20
55.003264
 30
0.0
 10
90.002431
 20
55.003264
 30
0.0
 10
90.002431
 20
60.003889
 30
0.0
 10
85.001806
 20
60.003889
 30
0.0
 10
85.001806
 20
55.003264
 30
0.0
 10
80.001181
 20
55.003264
 30
0.0
 10
80.001181
 20
60.003889
 30
0.0
 10
75.000556
 20
60.003889
 30
0.0
 10
75.000556
 20
55.003264
 30
0.0
 10
69.999931
 20
55.003264
 30
0.0
 10
69.999931
 20
60.003889
 30
0.0
 10
64.999306
 20
60.003889
 30
0.0
 10
64.999306
 20
55.003264
 30
0.0
 10
59.998681
 20
55.003264
 30
0.0
 10
59.998681
 20
60.003889
 30
0.0
 10
54.998056
 20
60.003889
 30
0.0
 10
54.998056
 20
55.003264
 30
0.0
 10
49.997431
 20
55.003264
 30
0.0
 10
49.997431
 20
60.003889
 30
0.0
 10
44.996806
 20
60.003889
 30
0.0
 10
44.996806
 20
55.003264
 30
0.0
 10
39.996181
 20
55.003264
 30
0.0
 10
39.996181
 20
60.003889
 30
0.0
 10
35.004375
 20
60.003889
 30
0.0
 10
35.004375
 20
55.003264
 30
0.0
 10
30.003750
 20
55.003264
 30
0.0
 10
30.003750
 20
60.003889
 30
0.0
 10
25.003125
 20
60.003889
 30
0.0
 10
25.003125
 20
55.003264
 30
0.0
 10
20.002500
 20
55.003264
 30
0.0
 10
20.002500
 20
60.003889
 30
0.0
 10
15.001875
 20
60.003889
 30
0.0
 10
15.001875
 20
55.003264
 30
0.0
 10
10.001250
 20
55.003264
 30
0.0
 10
10.001250
 20
60.003889
 30
0.0
 10
5.000625
 20
60.003889
 30
0.0
 10
5.000625
 20
60.003889
 30
0.0
  0
LWPOLYLINE
  5
102
100
AcDbEntity
  8
Layer_1
 62
7
100
AcDbPolyline
 90
141
 70
0
 10
39.996181
 20
-5.004250
 30
0.0
 10
39.996181
 20
-24.997917
 30
0.0
 10
39.996181
 20
-29.998528
 30
0.0
 10
44.996806
 20
-29.998528
 30
0.0
 10
44.996806
 20
-24.997917
 30
0.0
 10
49.997431
 20
-24.997917
 30
0.0
 10
49.997431
 20
-29.998528
 30
0.0
 10
54.998056
 20
-29.998528
 30
0.0
 10
54.998056
 20
-24.997917
 30
0.0
 10
59.998681
 20
-24.997917
 30
0.0
 10
59.998681
 20
-29.998528
 30
0.0
 10
64.999306
 20
-29.998528
 30
0.0
 10
64.999306
 20
-24.997917
 30
0.0
 10
69.999931
 20
-24.997917
 30
0.0
 10
69.999931
 20
-29.998528
 30
0.0
 10
75.000556
 20
-29.998528
 30
0.0
 10
75.000556
 20
-24.997917
 30
0.0
 10
80.001181
 20
-24.997917
 30
0.0
 10
80.001181
 20
-29.998528
 30
0.0
 10
85.001806
 20
-29.998528
 30
0.0
 10
85.001806
 20
-24.997917
 30
0.0
 10
90.002431
 20
-24.997917
 30
0.0
 10
90.002431
 20
-29.998528
 30
0.0
 10
95.003056
 20
-29.998528
 30
0.0
 10
95.003056
 20
-24.997917
 30
0.0
 10
100.003681
 20
-24.997917
 30
0.0
 10
100.003681
 20
-29.998528
 30
0.0
 10
105.004306
 20
-29.998528
 30
0.0
 10
105.004306
 20
-24.997917
 30
0.0
 10
109.996111
 20
-24.997917
 30
0.0
 10
109.996111
 20
-29.998528
 30
0.0
 10
114.996736
 20
-29.998528
 30
0.0
 10
114.996736
 20
-24.997917
 30
0.0
 10
119.997361
 20
-24.997917
 30
0.0
 10
119.997361
 20
-29.998528
 30
0.0
 10
124.997986
 20
-29.998528
 30
0.0
 10
124.997986
 20
-24.997917
 30
0.0
 10
129.998611
 20
-24.997917
 30
0.0
 10
129.998611
 20
-29.998528
 30
0.0
 10
134.999236
 20
-29.998528
 30
0.0
 10
134.999236
 20
-24.997917
 30
0.0
 10
139.999861
 20
-24.997917
 30
0.0
 10
139.999861
 20
-29.998528
 30
0.0
 10
145.000486
 20
-29.998528
 30
0.0
 10
145.000486
 20
-24.997917
 30
0.0
 10
150.001111
 20
-24.997917
 30
0.0
 10
150.001111
 20
-29.998528
 30
0.0
 10
155.001736
 20
-29.998528
 30
0.0
 10
155.001736
 20
-24.997917
 30
0.0
 10
160.002361
 20
-24.997917
 30
0.0
 10
160.002361
 20
-29.998528
 30
0.0
 10
165.002986
 20
-29.998528
 30
0.0
 10
165.002986
 20
-24.997917
 30
0.0
 10
170.003611
 20
-24.997917
 30
0.0
 10
170.003611
 20
-29.998528
 30
0.0
 10
175.004236
 20
-29.998528
 30
0.0
 10
175.004236
 20
-24.997917
 30
0.0
 10
179.996042
 20
-24.997917
 30
0.0
 10
179.996042
 20
-29.998528
 30
0.0
 10
184.996667
 20
-29.998528
 30
0.0
 10
184.996667
 20
-24.997917
 30
0.0
 10
189.997292
 20
-24.997917
 30
0.0
 10
189.997292
 20
-29.998528
 30
0.0
 10
194.997917
 20
-29.998528
 30
0.0
 10
194.997917
 20
-24.997917
 30
0.0
 10
199.998542
 20
-24.997917
 30
0.0
 10
199.998542
 20
-29.998528
 30
0.0
 10
204.999167
 20
-29.998528
 30
0.0
 10
204.999167
 20
-24.997917
 30
0.0
 10
209.999792
 20
-24.997917
 30
0.0
 10
209.999792
 20
-29.998528
 30
0.0
 10
215.000417
 20
-29.998528
 30
0.0
 10
215.000417
 20
-24.997917
 30
0.0
 10
220.001042
 20
-24.997917
 30
0.0
 10
220.001042
 20
-29.998528
 30
0.0
 10
225.001667
 20
-29.998528
 30
0.0
 10
225.001667
 20
-24.997917
 30
0.0
 10
230.002292
 20
-24.997917
 30
0.0
 10
230.002292
 20
-29.998528
 30
0.0
 10
235.002917
 20
-29.998528
 30
0.0
 10
235.002917
 20
-24.997917
 30
0.0
 10
240.003542
 20
-24.997917
 30
0.0
 10
240.003542
 20
-29.998528
 30
0.0
 10
245.004167
 20
-29.998528
 30
0.0
 10
245.004167
 20
-24.997917
 30
0.0
 10
249.995972
 20
-24.997917
 30
0.0
 10
249.995972
 20
-29.998528
 30
0.0
 10
254.996597
 20
-29.998528
 30
0.0
 10
254.996597
 20
-24.997917
 30
0.0
 10
259.997222
 20
-24.997917
 30
0.0
 10
259.997222
 20
-29.998528
 30
0.0
 10
264.997847
 20
-29.998528
 30
0.0
 10
264.997847
 20
-24.997917
 30
0.0
 10
269.998472
 20
-24.997917
 30
0.0
 10
269.998472
 20
-29.998528
 30
0.0
 10
274.999097
 20
-29.998528
 30
0.0
 10
274.999097
 20
-24.997917
 30
0.0
 10
279.999722
 20
-24.997917
 30
0.0
 10
279.999722
 20
-29.998528
 30
0.0
 10
285.000361
 20
-29.998528
 30
0.0
 10
285.000361
 20
-24.997917
 30
0.0
 10
290.000972
 20
-24.997917
 30
0.0
 10
290.000972
 20
-29.998528
 30
0.0
 10
295.001583
 20
-29.998528
 30
0.0
 10
295.001583
 20
-24.997917
 30
0.0
 10
300.002222
 20
-24.997917
 30
0.0
 10
300.002222
 20
-29.998528
 30
0.0
 10
305.002861
 20
-29.998528
 30
0.0
 10
305.002861
 20
-24.997917
 30
0.0
 10
310.003472
 20
-24.997917
 30
0.0
 10
310.003472
 20
-29.998528
 30
0.0
 10
315.004083
 20
-29.998528
 30
0.0
 10
315.004083
 20
-24.997917
 30
0.0
 10
319.995917
 20
-24.997917
 30
0.0
 10
319.995917
 20
-29.998528
 30
0.0
 10
324.996528
 20
-29.998528
 30
0.0
 10
324.996528
 20
-24.997917
 30
0.0
 10
329.997139
 20
-24.997917
 30
0.0
 10
329.997139
 20
-29.998528
 30
0.0
 10
334.997778
 20
-29.998528
 30
0.0
 10
334.997778
 20
-24.997917
 30
0.0
 10
339.998417
 20
-24.997917
 30
0.0
 10
339.998417
 20
-29.998528
 30
0.0
 10
344.999028
 20
-29.998528
 30
0.0
 10
344.999028
 20
-24.997917
 30
0.0
 10
349.999639
 20
-24.997917
 30
0.0
 10
349.999639
 20
-29.998528
 30
0.0
 10
355.000278
 20
-29.998528
 30
0.0
 10
355.000278
 20
-24.997917
 30
0.0
 10
360.000917
 20
-24.997917
 30
0.0
 10
360.000917
 20
-29.998528
 30
0.0
 10
365.001528
 20
-29.998528
 30
0.0
 10
365.001528
 20
-24.997917
 30
0.0
 10
370.002139
 20
-24.997917
 30
0.0
 10
370.002139
 20
-29.998528
 30
0.0
 10
375.002778
 20
-29.998528
 30
0.0
 10
375.002778
 20
-24.997917
 30
0.0
 10
380.003417
 20
-24.997917
 30
0.0
 10
380.003417
 20
-5.004250
 30
0.0
 10
39.996181
 20
-5.004250
 30
0.0
 10
39.996181
 20
-5.004250
 30
0.0
  0
LWPOLYLINE
  5
103
100
AcDbEntity
  8
Layer_1
 62
7
100
AcDbPolyline
 90
142
 70
0
 10
0.000000
 20
-30.002902
 30
0.0
 10
0.000000
 20
-429.999985
 30
0.0
 10
419.999583
 20
-429.999985
 30
0.0
 10
419.999583
 20
-30.002902
 30
0.0
 10
375.002778
 20
-30.002902
 30
0.0
 10
375.002778
 20
-35.003541
 30
0.0
 10
370.002139
 20
-35.003541
 30
0.0
 10
370.002139
 20
-30.002902
 30
0.0
 10
365.001528
 20
-30.002902
 30
0.0
 10
365.001528
 20
-35.003541
 30
0.0
 10
360.000917
 20
-35.003541
 30
0.0
 10
360.000917
 20
-30.002902
 30
0.0
 10
355.000278
 20
-30.002902
 30
0.0
 10
355.000278
 20
-35.003541
 30
0.0
 10
349.999639
 20
-35.003541
 30
0.0
 10
349.999639
 20
-30.002902
 30
0.0
 10
344.999028
 20
-30.002902
 30
0.0
 10
344.999028
 20
-35.003541
 30
0.0
 10
339.998417
 20
-35.003541
 30
0.0
 10
339.998417
 20
-30.002902
 30
0.0
 10
334.997778
 20
-30.002902
 30
0.0
 10
334.997778
 20
-35.003541
 30
0.0
 10
329.997139
 20
-35.003541
 30
0.0
 10
329.997139
 20
-30.002902
 30
0.0
 10
324.996528
 20
-30.002902
 30
0.0
 10
324.996528
 20
-35.003541
 30
0.0
 10
319.995917
 20
-35.003541
 30
0.0
 10
319.995917
 20
-30.002902
 30
0.0
 10
314.995278
 20
-30.002902
 30
0.0
 10
314.995278
 20
-35.003541
 30
0.0
 10
310.003472
 20
-35.003541
 30
0.0
 10
310.003472
 20
-30.002902
 30
0.0
 10
305.002861
 20
-30.002902
 30
0.0
 10
305.002861
 20
-35.003541
 30
0.0
 10
300.002222
 20
-35.003541
 30
0.0
 10
300.002222
 20
-30.002902
 30
0.0
 10
295.001583
 20
-30.002902
 30
0.0
 10
295.001583
 20
-35.003541
 30
0.0
 10
290.000972
 20
-35.003541
 30
0.0
 10
290.000972
 20
-30.002902
 30
0.0
 10
285.000361
 20
-30.002902
 30
0.0
 10
285.000361
 20
-35.003541
 30
0.0
 10
279.999722
 20
-35.003541
 30
0.0
 10
279.999722
 20
-30.002902
 30
0.0
 10
274.999097
 20
-30.002902
 30
0.0
 10
274.999097
 20
-35.003541
 30
0.0
 10
269.998472
 20
-35.003541
 30
0.0
 10
269.998472
 20
-30.002902
 30
0.0
 10
264.997847
 20
-30.002902
 30
0.0
 10
264.997847
 20
-35.003541
 30
0.0
 10
259.997222
 20
-35.003541
 30
0.0
 10
259.997222
 20
-30.002902
 30
0.0
 10
254.996597
 20
-30.002902
 30
0.0
 10
254.996597
 20
-35.003541
 30
0.0
 10
249.995972
 20
-35.003541
 30
0.0
 10
249.995972
 20
-30.002902
 30
0.0
 10
244.995347
 20
-30.002902
 30
0.0
 10
244.995347
 20
-35.003541
 30
0.0
 10
240.003542
 20
-35.003541
 30
0.0
 10
240.003542
 20
-30.002902
 30
0.0
 10
235.002917
 20
-30.002902
 30
0.0
 10
235.002917
 20
-35.003541
 30
0.0
 10
230.002292
 20
-35.003541
 30
0.0
 10
230.002292
 20
-30.002902
 30
0.0
 10
225.001667
 20
-30.002902
 30
0.0
 10
225.001667
 20
-35.003541
 30
0.0
 10
220.001042
 20
-35.003541
 30
0.0
 10
220.001042
 20
-30.002902
 30
0.0
 10
215.000417
 20
-30.002902
 30
0.0
 10
215.000417
 20
-35.003541
 30
0.0
 10
209.999792
 20
-35.003541
 30
0.0
 10
209.999792
 20
-30.002902
 30
0.0
 10
204.999167
 20
-30.002902
 30
0.0
 10
204.999167
 20
-35.003541
 30
0.0
 10
199.998542
 20
-35.003541
 30
0.0
 10
199.998542
 20
-30.002902
 30
0.0
 10
194.997917
 20
-30.002902
 30
0.0
 10
194.997917
 20
-35.003541
 30
0.0
 10
189.997292
 20
-35.003541
 30
0.0
 10
189.997292
 20
-30.002902
 30
0.0
 10
184.996667
 20
-30.002902
 30
0.0
 10
184.996667
 20
-35.003541
 30
0.0
 10
179.996042
 20
-35.003541
 30
0.0
 10
179.996042
 20
-30.002902
 30
0.0
 10
174.995417
 20
-30.002902
 30
0.0
 10
174.995417
 20
-35.003541
 30
0.0
 10
170.003611
 20
-35.003541
 30
0.0
 10
170.003611
 20
-30.002902
 30
0.0
 10
165.002986
 20
-30.002902
 30
0.0
 10
165.002986
 20
-35.003541
 30
0.0
 10
160.002361
 20
-35.003541
 30
0.0
 10
160.002361
 20
-30.002902
 30
0.0
 10
155.001736
 20
-30.002902
 30
0.0
 10
155.001736
 20
-35.003541
 30
0.0
 10
150.001111
 20
-35.003541
 30
0.0
 10
150.001111
 20
-30.002902
 30
0.0
 10
145.000486
 20
-30.002902
 30
0.0
 10
145.000486
 20
-35.003541
 30
0.0
 10
139.999861
 20
-35.003541
 30
0.0
 10
139.999861
 20
-30.002902
 30
0.0
 10
134.999236
 20
-30.002902
 30
0.0
 10
134.999236
 20
-35.003541
 30
0.0
 10
129.998611
 20
-35.003541
 30
0.0
 10
129.998611
 20
-30.002902
 30
0.0
 10
124.997986
 20
-30.002902
 30
0.0
 10
124.997986
 20
-35.003541
 30
0.0
 10
119.997361
 20
-35.003541
 30
0.0
 10
119.997361
 20
-30.002902
 30
0.0
 10
114.996736
 20
-30.002902
 30
0.0
 10
114.996736
 20
-35.003541
 30
0.0
 10
109.996111
 20
-35.003541
 30
0.0
 10
109.996111
 20
-30.002902
 30
0.0
 10
104.995486
 20
-30.002902
 30
0.0
 10
104.995486
 20
-35.003541
 30
0.0
 10
100.003681
 20
-35.003541
 30
0.0
 10
100.003681
 20
-30.002902
 30
0.0
 10
95.003056
 20
-30.002902
 30
0.0
 10
95.003056
 20
-35.003541
 30
0.0
 10
90.002431
 20
-35.003541
 30
0.0
 10
90.002431
 20
-30.002902
 30
0.0
 10
85.001806
 20
-30.002902
 30
0.0
 10
85.001806
 20
-35.003541
 30
0.0
 10
80.001181
 20
-35.003541
 30
0.0
 10
80.001181
 20
-30.002902
 30
0.0
 10
75.000556
 20
-30.002902
 30
0.0
 10
75.000556
 20
-35.003541
 30
0.0
 10
69.999931
 20
-35.003541
 30
0.0
 10
69.999931
 20
-30.002902
 30
0.0
 10
64.999306
 20
-30.002902
 30
0.0
 10
64.999306
 20
-35.003541
 30
0.0
 10
59.998681
 20
-35.003541
 30
0.0
 10
59.998681
 20
-30.002902
 30
0.0
 10
54.998056
 20
-30.002902
 30
0.0
 10
54.998056
 20
-35.003541
 30
0.0
 10
49.997431
 20
-35.003541
 30
0.0
 10
49.997431
 20
-30.002902
 30
0.0
 10
44.996806
 20
-30.002902
 30
0.0
 10
44.996806
 20
-35.003541
 30
0.0
 10
39.996181
 20
-35.003541
 30
0.0
 10
39.996181
 20
-30.002902
 30
0.0
 10
0.000000
 20
-30.002902
 30
0.0
 10
0.000000
 20
-30.002902
 30
0.0
  0
LWPOLYLINE
  5
104
100
AcDbEntity
  8
Layer_1
 62
7
100
AcDbPolyline
 90
3
 70
0
 10
-80.001181
 20
-29.998528
 30
0.0
 10
-80.001181
 20
-429.995639
 30
0.0
 10
-35.004375
 20
-429.995639
 30
0.0
  0
LWPOLYLINE
  5
105
100
AcDbEntity
  8
Layer_1
 62
7
100
AcDbPolyline
 90
26
 70
0
 10
-20.002500
 20
-415.002584
 30
0.0
 10
-20.002500
 20
-34.999167
 30
0.0
 10
-25.003125
 20
-34.999167
 30
0.0
 10
-25.003125
 20
-29.998528
 30
0.0
 10
-30.003750
 20
-29.998528
 30
0.0
 10
-30.003750
 20
-34.999167
 30
0.0
 10
-35.004375
 20
-34.999167
 30
0.0
 10
-35.004375
 20
-29.998528
 30
0.0
 10
-39.996181
 20
-29.998528
 30
0.0
 10
-39.996181
 20
-34.999167
 30
0.0
 10
-44.996806
 20
-34.999167
 30
0.0
 10
-44.996806
 20
-29.998528
 30
0.0
 10
-49.997431
 20
-29.998528
 30
0.0
 10
-49.997431
 20
-34.999167
 30
0.0
 10
-54.998056
 20
-34.999167
 30
0.0
 10
-54.998056
 20
-29.998528
 30
0.0
 10
-59.998681
 20
-29.998528
 30
0.0
 10
-59.998681
 20
-34.999167
 30
0.0
 10
-64.999306
 20
-34.999167
 30
0.0
 10
-64.999306
 20
-29.998528
 30
0.0
 10
-69.999931
 20
-29.998528
 30
0.0
 10
-69.999931
 20
-34.999167
 30
0.0
 10
-75.000556
 20
-34.999167
 30
0.0
 10
-75.000556
 20
-29.998528
 30
0.0
 10
-80.001181
 20
-29.998528
 30
0.0
 10
-80.001181
 20
-29.998528
 30
0.0
  0
SPLINE
  5
106
100
AcDbEntity
  8
Layer_1
 62
7
100
AcDbSpline
 70
0
 71
3
 72
10
 73
6
 74
4
 40
0.000000
 40
0.000000
 40
0.000000
 40
0.000000
 40
7.842886
 40
15.451431
 40
23.292705
 40
23.292705
 40
23.292705
 40
23.292705
 10
-35.004375
 20
-429.995639
 30
0.0
 10
-32.375995
 20
-429.583612
 30
0.0
 10
-27.197771
 20
-428.771868
 30
0.0
 10
-21.228162
 20
-422.808459
 30
0.0
 10
-20.415136
 20
-417.630541
 30
0.0
 10
-20.002500
 20
-415.002584
 30
0.0
 11
-35.004375
 21
-429.995639
 31
0.0
 11
-27.433102
 21
-427.949499
 31
0.0
 11
-22.050926
 21
-422.571568
 31
0.0
 11
-20.002500
 21
-415.002584
 31
0.0
  0
LWPOLYLINE
  5
107
100
AcDbEntity
  8
Layer_1
 62
7
100
AcDbPolyline
 90
3
 70
0
 10
-90.001319
 20
-29.998528
 30
0.0
 10
-90.001319
 20
-429.995639
 30
0.0
 10
-134.998124
 20
-429.995639
 30
0.0
  0
LWPOLYLINE
  5
108
100
AcDbEntity
  8
Layer_1
 62
7
100
AcDbPolyline
 90
26
 70
0
 10
-149.999999
 20
-415.002584
 30
0.0
 10
-149.999999
 20
-34.999167
 30
0.0
 10
-144.999374
 20
-34.999167
 30
0.0
 10
-144.999374
 20
-29.998528
 30
0.0
 10
-139.998749
 20
-29.998528
 30
0.0
 10
-139.998749
 20
-34.999167
 30
0.0
 10
-134.998124
 20
-34.999167
 30
0.0
 10
-134.998124
 20
-29.998528
 30
0.0
 10
-130.006319
 20
-29.998528
 30
0.0
 10
-130.006319
 20
-34.999167
 30
0.0
 10
-125.005694
 20
-34.999167
 30
0.0
 10
-125.005694
 20
-29.998528
 30
0.0
 10
-120.005069
 20
-29.998528
 30
0.0
 10
-120.005069
 20
-34.999167
 30
0.0
 10
-115.004444
 20
-34.999167
 30
0.0
 10
-115.004444
 20
-29.998528
 30
0.0
 10
-110.003819
 20
-29.998528
 30
0.0
 10
-110.003819
 20
-34.999167
 30
0.0
 10
-105.003194
 20
-34.999167
 30
0.0
 10
-105.003194
 20
-29.998528
 30
0.0
 10
-100.002569
 20
-29.998528
 30
0.0
 10
-100.002569
 20
-34.999167
 30
0.0
 10
-95.001944
 20
-34.999167
 30
0.0
 10
-95.001944
 20
-29.998528
 30
0.0
 10
-90.001319
 20
-29.998528
 30
0.0
 10
-90.001319
 20
-29.998528
 30
0.0
  0
SPLINE
  5
109
100
AcDbEntity
  8
Layer_1
 62
7
100
AcDbSpline
 70
0
 71
3
 72
10
 73
6
 74
4
 40
0.000000
 40
0.000000
 40
0.000000
 40
0.000000
 40
7.842887
 40
15.451432
 40
23.292706
 40
23.292706
 40
23.292706
 40
23.292706
 10
-134.998124
 20
-429.995639
 30
0.0
 10
-137.626504
 20
-429.583612
 30
0.0
 10
-142.804728
 20
-428.771868
 30
0.0
 10
-148.774337
 20
-422.808459
 30
0.0
 10
-149.587363
 20
-417.630541
 30
0.0
 10
-149.999999
 20
-415.002584
 30
0.0
 11
-134.998124
 21
-429.995639
 31
0.0
 11
-142.569398
 21
-427.949499
 31
0.0
 11
-147.951574
 21
-422.571568
 31
0.0
 11
-149.999999
 21
-415.002584
 31
0.0
  0
LWPOLYLINE
  5
10a
100
AcDbEntity
  8
Layer_1
 62
7
100
AcDbPolyline
 90
50
 70
0
 10
-75.000556
 20
395.001667
 30
0.0
 10
-75.000556
 20
390.001042
 30
0.0
 10
-80.001181
 20
390.001042
 30
0.0
 10
-80.001181
 20
-19.997306
 30
0.0
 10
-75.000556
 20
-19.997306
 30
0.0
 10
-75.000556
 20
-24.997917
 30
0.0
 10
-69.999931
 20
-24.997917
 30
0.0
 10
-69.999931
 20
-19.997306
 30
0.0
 10
-64.999306
 20
-19.997306
 30
0.0
 10
-64.999306
 20
-24.997917
 30
0.0
 10
-59.998681
 20
-24.997917
 30
0.0
 10
-59.998681
 20
-19.997306
 30
0.0
 10
-54.998056
 20
-19.997306
 30
0.0
 10
-54.998056
 20
-24.997917
 30
0.0
 10
-49.997431
 20
-24.997917
 30
0.0
 10
-49.997431
 20
-19.997306
 30
0.0
 10
-44.996806
 20
-19.997306
 30
0.0
 10
-44.996806
 20
-24.997917
 30
0.0
 10
-40.005000
 20
-24.997917
 30
0.0
 10
-40.005000
 20
-19.997306
 30
0.0
 10
-35.004375
 20
-19.997306
 30
0.0
 10
-35.004375
 20
-24.997917
 30
0.0
 10
-30.003750
 20
-24.997917
 30
0.0
 10
-30.003750
 20
-19.997306
 30
0.0
 10
-25.003125
 20
-19.997306
 30
0.0
 10
-25.003125
 20
-24.997917
 30
0.0
 10
-20.002500
 20
-24.997917
 30
0.0
 10
-20.002500
 20
395.001667
 30
0.0
 10
-25.003125
 20
395.001667
 30
0.0
 10
-25.003125
 20
390.001042
 30
0.0
 10
-30.003750
 20
390.001042
 30
0.0
 10
-30.003750
 20
395.001667
 30
0.0
 10
-35.004375
 20
395.001667
 30
0.0
 10
-35.004375
 20
390.001042
 30
0.0
 10
-39.996181
 20
390.001042
 30
0.0
 10
-39.996181
 20
395.001667
 30
0.0
 10
-44.996806
 20
395.001667
 30
0.0
 10
-44.996806
 20
390.001042
 30
0.0
 10
-49.997431
 20
390.001042
 30
0.0
 10
-49.997431
 20
395.001667
 30
0.0
 10
-54.998056
 20
395.001667
 30
0.0
 10
-54.998056
 20
390.001042
 30
0.0
 10
-59.998681
 20
390.001042
 30
0.0
 10
-59.998681
 20
395.001667
 30
0.0
 10
-64.999306
 20
395.001667
 30
0.0
 10
-64.999306
 20
390.001042
 30
0.0
 10
-69.999931
 20
390.001042
 30
0.0
 10
-69.999931
 20
395.001667
 30
0.0
 10
-75.000556
 20
395.001667
 30
0.0
 10
-75.000556
 20
395.001667
 30
0.0
  0
ENDSEC
  0
SECTION
  2
OBJECTS
  0
DICTIONARY
  5
C
330
0
100
AcDbDictionary
  3
ACAD_GROUP
350
D
  3
ACAD_MLINESTYLE
350
17
  0
DICTIONARY
  5
D
330
C
100
AcDbDictionary
  0
DICTIONARY
  5
1A
330
C
100
AcDbDictionary
  0
DICTIONARY
  5
17
330
C
100
AcDbDictionary
  3
STANDARD
350
18
  0
DICTIONARY
  5
19
330
C
100
AcDbDictionary
  0
ENDSEC
  0
EOF
