# Blender v2.76 (sub 0) OBJ File: 'PortaPrusaV3 - old.blend'
# www.blender.org
mtllib PortaPrusaV3 - oldlow.mtl
o PortaPRusaProxy_Cube.002
v 58.552673 5.414772 0.897568
v 58.552673 69.602928 0.897568
v 58.552673 5.414772 -43.198994
v 58.552673 69.602928 -43.198994
v 420.938110 5.414772 0.897568
v 420.938110 69.602928 0.897568
v 420.938110 5.414772 -43.198994
v 420.938110 69.602928 -43.198994
v 352.476105 69.602928 -43.198994
v 352.476105 5.414772 -43.198994
v 352.476105 69.602928 0.897568
v 352.476105 5.414772 0.897568
v 124.384262 5.414772 -43.198994
v 124.384262 69.602928 0.897568
v 124.384262 69.602928 -43.198994
v 124.384262 5.414772 0.897568
v 124.384262 5.414772 127.150879
v 352.476105 5.414772 127.150879
v 352.476105 69.602928 127.150879
v 124.384262 69.602928 127.150879
v 124.384262 69.602928 -244.884201
v 352.476105 69.602928 -244.884201
v 352.476105 5.414772 -244.884201
v 124.384262 5.414772 -244.884201
v 390.828247 69.602928 -43.198994
v 390.828247 5.414772 0.897568
v 390.828247 5.414772 -43.198994
v 390.828247 69.602928 0.897568
v 83.785263 5.414772 -43.198994
v 83.785263 69.602928 0.897568
v 83.785263 69.602928 -43.198994
v 83.785263 5.414772 0.897568
v 58.552673 371.878937 0.897568
v 58.552673 371.878937 -43.198994
v 390.828247 371.878937 -43.198994
v 420.938110 371.878937 -43.198994
v 420.938110 371.878937 0.897568
v 83.785263 371.878937 0.897568
v 390.828247 371.878937 0.897568
v 83.785263 371.878937 -43.198994
v 83.785263 286.270050 -43.198994
v 83.785263 286.270050 0.897568
v 58.552673 286.270050 0.897568
v 58.552673 286.270050 -43.198994
v 390.828247 286.270050 -43.198994
v 420.938110 286.270050 -43.198994
v 420.938110 286.270050 0.897568
v 390.828247 286.270050 0.897568
v 83.785263 338.768860 -43.198994
v 58.552673 338.768860 0.897568
v 83.785263 338.768860 0.897568
v 58.552673 338.768860 -43.198994
v 390.828247 338.768860 -43.198994
v 390.828247 338.768860 0.897568
v 420.938110 338.768860 -43.198994
v 420.938110 338.768860 0.897568
v 260.364563 338.768860 0.897568
v 260.364563 286.270050 0.897568
v 260.364563 286.270050 -43.198994
v 260.364563 286.270050 0.897568
v 260.364563 286.270050 -43.198994
v 260.364563 338.768860 -43.198994
v 260.364563 338.768860 -43.198994
v 260.364563 338.768860 0.897568
v 328.134949 338.768860 -43.198994
v 328.134949 338.768860 0.897568
v 328.134949 286.270050 0.897568
v 328.134949 286.270050 -43.198994
v 260.364563 267.165039 4.793789
v 260.364563 267.165039 -57.304665
v 260.364563 349.484863 -57.304665
v 260.364563 349.484863 4.793789
v 328.134949 349.484863 -57.304665
v 328.134949 267.165039 -57.304665
v 328.134949 349.484863 4.793789
v 328.134949 267.165039 4.793789
vn -1.000000 0.000000 0.000000
vn 0.000000 0.000000 -1.000000
vn 1.000000 0.000000 0.000000
vn 0.000000 0.000000 1.000000
vn 0.000000 -1.000000 0.000000
vn 0.000000 1.000000 0.000000
usemtl None
s off
f 2//1 4//1 3//1 1//1
f 25//2 8//2 7//2 27//2
f 8//3 6//3 5//3 7//3
f 30//4 2//4 1//4 32//4
f 26//5 27//5 7//5 5//5
f 56//3 55//3 36//3 37//3
f 28//6 25//6 9//6 11//6
f 16//5 13//5 10//5 12//5
f 28//4 11//4 12//4 26//4
f 13//1 15//1 21//1 24//1
f 31//2 15//2 13//2 29//2
f 32//5 29//5 13//5 16//5
f 11//6 9//6 15//6 14//6
f 16//5 12//5 18//5 17//5
f 19//4 20//4 17//4 18//4
f 12//3 11//3 19//3 18//3
f 14//1 16//1 17//1 20//1
f 11//6 14//6 20//6 19//6
f 21//2 22//2 23//2 24//2
f 10//5 13//5 24//5 23//5
f 15//6 9//6 22//6 21//6
f 9//3 10//3 23//3 22//3
f 6//4 28//4 26//4 5//4
f 55//2 53//2 35//2 36//2
f 12//5 10//5 27//5 26//5
f 9//2 25//2 27//2 10//2
f 1//5 3//5 29//5 32//5
f 4//2 31//2 29//2 3//2
f 14//6 15//6 31//6 30//6
f 14//4 30//4 32//4 16//4
f 38//6 40//6 34//6 33//6
f 37//6 36//6 35//6 39//6
f 53//1 54//1 39//1 35//1
f 51//3 49//3 40//3 38//3
f 54//4 56//4 37//4 39//4
f 52//1 50//1 33//1 34//1
f 49//2 52//2 34//2 40//2
f 50//4 51//4 38//4 33//4
f 2//4 30//4 42//4 43//4
f 31//2 4//2 44//2 41//2
f 4//1 2//1 43//1 44//1
f 30//3 31//3 41//3 42//3
f 28//4 6//4 47//4 48//4
f 25//1 28//1 48//1 45//1
f 8//2 25//2 45//2 46//2
f 6//3 8//3 46//3 47//3
f 43//4 42//4 51//4 50//4
f 41//2 44//2 52//2 49//2
f 44//1 43//1 50//1 52//1
f 42//5 41//5 59//5 58//5
f 48//4 47//4 56//4 54//4
f 68//3 67//3 76//3 74//3
f 46//2 45//2 53//2 55//2
f 47//3 46//3 55//3 56//3
f 58//3 59//3 62//3 57//3
f 61//1 60//1 64//1 63//1
f 41//2 49//2 62//2 59//2
f 67//3 66//3 75//3 76//3
f 49//6 51//6 57//6 62//6
f 51//4 42//4 58//4 57//4
f 60//1 61//1 70//1 69//1
f 64//1 60//1 69//1 72//1
f 45//5 48//5 67//5 68//5
f 53//2 45//2 68//2 65//2
f 48//4 54//4 66//4 67//4
f 54//6 53//6 65//6 66//6
f 75//6 73//6 71//6 72//6
f 76//4 75//4 72//4 69//4
f 73//2 74//2 70//2 71//2
f 74//5 76//5 69//5 70//5
f 63//1 64//1 72//1 71//1
f 61//1 63//1 71//1 70//1
f 66//3 65//3 73//3 75//3
f 65//3 68//3 74//3 73//3
