<?xml version="1.0" encoding="UTF-8" standalone="no"?>
<!-- Created with Inkscape (http://www.inkscape.org/) -->

<svg
   xmlns:dc="http://purl.org/dc/elements/1.1/"
   xmlns:cc="http://creativecommons.org/ns#"
   xmlns:rdf="http://www.w3.org/1999/02/22-rdf-syntax-ns#"
   xmlns:svg="http://www.w3.org/2000/svg"
   xmlns="http://www.w3.org/2000/svg"
   xmlns:sodipodi="http://sodipodi.sourceforge.net/DTD/sodipodi-0.dtd"
   xmlns:inkscape="http://www.inkscape.org/namespaces/inkscape"
   width="2160"
   height="2160"
   id="svg2"
   version="1.1"
   inkscape:version="0.48.4 r9939"
   sodipodi:docname="PortaPrusa_V3_Pacl.svg">
  <defs
     id="defs4">
    <symbol
       id="*PAPER_SPACE" />
    <symbol
       id="*MODEL_SPACE" />
    <pattern
       id="Hatch"
       x="0"
       y="0"
       patternUnits="userSpaceOnUse"
       width="8"
       height="8">
      <path
         id="path5708"
         d="M8 4 l-4,4"
         stroke-width="0.25"
         stroke="#000000"
         linecap="square" />
      <path
         id="path5710"
         d="M6 2 l-4,4"
         stroke-width="0.25"
         stroke="#000000"
         linecap="square" />
      <path
         id="path5712"
         d="M4 0 l-4,4"
         stroke-width="0.25"
         stroke="#000000"
         linecap="square" />
    </pattern>
    <marker
       orient="auto"
       id="DistanceX"
       style="overflow:visible"
       refX="0.0"
       refY="0.0">
      <path
         id="path5705"
         d="M 3,-3 L -3,3 M 0,-5 L  0,5"
         style="stroke:#000000; stroke-width:0.5" />
    </marker>
  </defs>
  <sodipodi:namedview
     id="base"
     pagecolor="#ffffff"
     bordercolor="#666666"
     borderopacity="1.0"
     inkscape:pageopacity="0.0"
     inkscape:pageshadow="2"
     inkscape:zoom="0.13524064"
     inkscape:cx="830.65324"
     inkscape:cy="542.30878"
     inkscape:document-units="px"
     inkscape:current-layer="layer1"
     showgrid="true"
     units="ft"
     inkscape:window-width="1280"
     inkscape:window-height="737"
     inkscape:window-x="1358"
     inkscape:window-y="-8"
     inkscape:window-maximized="1"
     showguides="true"
     inkscape:guide-bbox="true">
    <inkscape:grid
       type="xygrid"
       id="grid2985"
       empspacing="2"
       visible="true"
       enabled="true"
       snapvisiblegridlinesonly="true"
       units="mm"
       spacingx="5mm"
       spacingy="5mm" />
  </sodipodi:namedview>
  <metadata
     id="metadata7">
    <rdf:RDF>
      <cc:Work
         rdf:about="">
        <dc:format>image/svg+xml</dc:format>
        <dc:type
           rdf:resource="http://purl.org/dc/dcmitype/StillImage" />
        <dc:title></dc:title>
      </cc:Work>
    </rdf:RDF>
  </metadata>
  <g
     inkscape:label="Layer 1"
     inkscape:groupmode="layer"
     id="layer1"
     transform="translate(0,1107.675)">
    <path
       style="fill:#0000ff;fill-opacity:1;stroke:none"
       d="m 8.6729136,282.46017 0,17.71875 -17.7187,0 0,88.59375 106.3125004,0 0,-88.59375 0,-17.71875 -17.7188,0 0,17.71875 -17.7187,0 0,-17.71875 -17.7187,0 0,17.71875 -17.7188,0 0,-17.71875 -17.7188004,0 z m -5.0937,28.625 c 2.8629,0 5.1563,2.29334 5.1563,5.15625 l 0,63 c 0,2.86291 -2.2934,5.15625 -5.1563,5.15625 -2.86289996,0 -5.1563,-2.29334 -5.1563,-5.15625 l 0,-63 c 0,-2.86291 2.29340004,-5.15625 5.1563,-5.15625 z m 81.0625004,0 c 2.8629,0 5.1562,2.29334 5.1562,5.15625 l 0,63 c 0,2.86291 -2.2933,5.15625 -5.1562,5.15625 -2.8629,0 -5.1562,-2.29334 -5.1562,-5.15625 l 0,-63 c 0,-2.86291 2.2933,-5.15625 5.1562,-5.15625 z"
       id="rect7921"
       inkscape:connector-curvature="0" />
    <path
       style="fill:#0000ff;fill-opacity:1;stroke:none"
       d="m 581.96648,733.29577 -17.7188,0 0,17.71875 -17.7187,0 0,-17.71875 -17.7187,0 0,17.71875 -17.7188,0 0,-17.71875 -17.7188,0 0,17.71875 -17.7187,0 0,-17.71875 -17.7187,0 0,17.71875 -17.7188,0 0,-17.71875 -17.7188,0 0,17.71875 -17.7187,0 0,-17.71875 -17.7187,0 0,17.71875 -17.7188,0 0,-17.71875 -17.6875,0 0,17.71875 -17.7187,0 0,-17.71875 -17.7188,0 0,35.4375 17.7188,0 0,17.71875 -17.7188,0 0,17.6875 17.7188,0 0,17.71875 -17.7188,0 0,17.71875 17.7188,0 0,17.71875 -17.7188,0 0,17.71875 17.7188,0 0,17.71875 -17.7188,0 0,17.71875 17.7188,0 0,17.71875 -17.7188,0 0,17.71875 17.7188,0 0,17.71875 0,17.71875 0,159.43748 0,620.0938 -17.7188,0 0,17.7187 17.7188,0 0,17.6876 -17.7188,0 0,17.7187 17.7188,0 0,17.7187 -17.7188,0 0,17.7188 17.7188,0 0,17.7188 -17.7188,0 0,17.7187 17.7188,0 0,17.7187 -17.7188,0 0,17.7188 17.7188,0 0,17.7188 -17.7188,0 0,17.7187 17.7188,0 0,17.7187 -17.7188,0 0,17.7188 17.7188,0 0,17.7188 -17.7188,0 0,35.4062 17.7188,0 0,-17.6875 17.7187,0 0,17.6875 17.6875,0 0,-17.6875 17.7188,0 0,17.6875 17.7187,0 0,-17.6875 17.7187,0 0,17.6875 17.7188,0 0,-17.6875 17.7188,0 0,17.6875 17.7187,0 0,-17.6875 17.7187,0 0,17.6875 17.7188,0 0,-17.6875 17.7188,0 0,17.6875 17.7187,0 0,-17.6875 17.7187,0 0,17.6875 17.7188,0 0,-194.875 -17.7188,0 0,-17.7188 17.7188,0 0,-17.7187 0,-17.7187 0,-53.125 0,-761.81258 0,-35.4375 0,-17.71875 0,-35.4375 0,-159.4375 z m -35.4375,1098.40623 0,17.7188 -17.7187,0 0,-17.7188 17.7187,0 z m -35.4375,0 0,17.7188 -17.7188,0 0,-17.7188 17.7188,0 z m -35.4375,0 0,17.7188 -17.7187,0 0,-17.7188 17.7187,0 z m -35.4375,0 0,17.7188 -17.7188,0 0,-17.7188 17.7188,0 z m -35.4375,0 0,17.7188 -17.7187,0 0,-17.7188 17.7187,0 z m -35.4375,0 0,17.7188 -17.6875,0 0,-17.7188 17.6875,0 z"
       id="rect2987"
       inkscape:connector-curvature="0" />
    <path
       style="fill:#0000ff;fill-opacity:1;stroke:none"
       d="m 40.717311,747.30183 -17.71881,0 0,-17.7188 -17.71869,0 0,17.7188 -17.7187,0 0,-17.7188 -17.7188,0 0,17.7188 -17.71881,0 0,-17.7188 -17.71869,0 0,17.7188 -17.7187,0 0,-17.7188 -17.718801,0 0,17.7188 -17.71881,0 0,-17.7188 -17.71869,0 0,17.7188 -17.7187,0 0,-17.7188 -17.7188,0 0,17.7188 -17.6875,0 0,-17.7188 -17.7187,0 -17.7188,0 0,17.7188 17.7188,0 0,17.7187 -17.7188,0 0,17.7187 17.7188,0 0,17.7188 -17.7188,0 0,17.7188 17.7188,0 0,17.7187 -17.7188,0 0,17.6875 17.7188,0 0,17.7188 -17.7188,0 0,17.7187 17.7188,0 0,17.7187 -17.7188,0 0,17.71881 17.7188,0 0,17.7188 -17.7188,0 0,17.7187 17.7188,0 0,17.7187 -17.7188,0 0,17.7188 17.7188,0 0,17.71876 -17.7188,0 0,17.7187 17.7188,0 0,17.7188 -17.7188,0 0,17.7187 17.7188,0 0,17.7188 -17.7188,0 0,17.6875 17.7188,0 0,17.7187 -17.7188,0 0,17.7188 17.7188,0 0,17.7187 -17.7188,0 0,17.7188 17.7188,0 0,17.7187 -17.7188,0 0,17.7188 17.7188,0 0,17.7187 -17.7188,0 0,17.7188 17.7188,0 0,17.7187 -17.7188,0 0,17.7188 17.7188,0 0,17.7187 -17.7188,0 0,17.7188 17.7188,0 0,17.7187 -17.7188,0 0,17.6875 17.7188,0 0,17.7188 -17.7188,0 0,17.7187 17.7188,0 0,17.7188 -17.7188,0 0,17.7187 17.7188,0 0,17.7188 -17.7188,0 0,17.7187 17.7188,0 0,17.7188 -17.7188,0 0,17.7187 17.7188,0 0,17.7188 -17.7188,0 0,17.7187 17.7188,0 0,17.7188 -17.7188,0 0,17.7187 17.7188,0 0,17.7188 -17.7188,0 0,17.6875 17.7188,0 0,17.7187 -17.7188,0 0,17.7188 17.7188,0 0,17.7187 -17.7188,0 0,17.7188 17.7188,0 0,17.7187 -17.7188,0 0,17.7188 17.7188,0 0,17.7187 -17.7188,0 0,17.7188 17.7188,0 0,17.7187 -17.7188,0 0,17.7188 17.7188,0 0,17.7187 -17.7188,0 0,17.7188 17.7188,0 0,17.7188 -17.7188,0 0,17.6875 17.7188,0 0,17.7187 -17.7188,0 0,17.7188 17.7188,0 17.7187,0 0,17.7187 -17.7187,0 -17.7188,0 0,17.7188 17.7188,0 0,17.7187 -17.7188,0 0,17.7188 17.7188,0 0,17.7187 -17.7188,0 0,17.7188 17.7188,0 0,17.7187 -17.7188,0 0,17.7188 17.7188,0 0,17.7187 17.7187,0 0,-17.7187 17.6875,0 0,17.7187 17.7188,0 0,-17.7187 17.7187,0 0,17.7187 17.71869,0 0,-17.7187 17.71881,0 0,17.7187 17.718801,0 0,-17.7187 17.7187,0 0,17.7187 17.71869,0 0,-17.7187 17.71881,0 0,17.7187 17.7188,0 0,-17.7187 17.7187,0 0,17.7187 17.71869,0 0,-17.7187 17.71881,0 0,-35.4375 0,-1027.56256 -17.71881,0 0,-17.7187 17.71881,0 0,-17.7188 -17.71881,0 0,-17.71881 17.71881,0 0,-17.7187 -17.71881,0 0,-17.7187 17.71881,0 0,-17.7188 -17.71881,0 0,-17.6875 17.71881,0 0,-17.7187 -17.71881,0 0,-17.7188 17.71881,0 0,-17.7188 -17.71881,0 0,-17.7187 17.71881,0 0,-17.7187 z m -17.71881,1133.84377 0,17.7187 -17.71869,0 0,-17.7187 17.71869,0 z m -35.43739,0 0,17.7187 -17.7188,0 0,-17.7187 17.7188,0 z m -35.43761,0 0,17.7187 -17.71869,0 0,-17.7187 17.71869,0 z m -35.43739,0 0,17.7187 -17.718801,0 0,-17.7187 17.718801,0 z m -35.437611,0 0,17.7187 -17.71869,0 0,-17.7187 17.71869,0 z m -35.43739,0 0,17.7187 -17.7188,0 0,-17.7187 17.7188,0 z"
       id="rect2989"
       inkscape:connector-curvature="0" />
    <path
       style="fill:#0000ff;fill-opacity:1;stroke:none"
       d="m 1465.8618,2026.4362 17.7187,0 0,-17.7187 17.7188,0 0,17.7187 17.7188,0 0,-17.7187 17.7187,0 0,17.7187 17.7187,0 0,-17.7187 17.7188,0 0,17.7187 17.7188,0 0,-17.7187 17.7187,0 0,17.7187 17.7187,0 0,-17.7187 17.7188,0 0,17.7187 17.7188,0 0,-17.7187 17.7187,0 0,17.7187 17.6875,0 0,-17.7187 17.7188,0 0,-17.7188 17.7187,0 0,-17.7187 -17.7187,0 0,-17.6875 17.7187,0 0,-17.7188 -17.7187,0 0,-17.7187 17.7187,0 0,-17.7188 -17.7187,0 0,-17.7187 17.7187,0 0,-17.7188 -17.7187,0 0,-17.7187 17.7187,0 0,-17.7188 -17.7187,0 0,-17.7187 17.7187,0 0,-17.7188 -17.7187,0 -159.4688,0 0,-17.7187 0,-35.4375 0,-620.0625 0,-70.875 0,-35.4376 0,-17.7187 159.4688,0 0,-17.7187 17.7187,0 0,-17.6876 -17.7187,0 0,-17.7187 17.7187,0 0,-17.7187 -17.7187,0 0,-17.7188 17.7187,0 0,-17.7188 -17.7187,0 0,-17.7187 17.7187,0 0,-17.7187 -17.7187,0 0,-17.7188 17.7187,0 0,-17.7188 -17.7187,0 0,-17.7187 17.7187,0 0,-17.7187 -17.7187,0 0,-17.7188 17.7187,0 0,-17.7188 -17.7187,0 0,-17.75 -17.7188,0 0,-17.6874 -17.6875,0 0,17.6874 -17.7187,0 0,-17.6874 -17.7188,0 0,17.6874 -17.7188,0 0,-17.6874 -17.7187,0 0,17.6874 -17.7187,0 0,-17.6874 -17.7188,0 0,17.6874 -17.7188,0 0,-17.6874 -17.7187,0 0,17.6874 -17.7187,0 0,-17.6874 -17.7188,0 0,17.6874 -17.7188,0 0,-17.6874 -17.7187,0 0,70.875 17.7187,0 0,17.7187 -17.7187,0 0,17.7187 17.7187,0 0,17.7188 -17.7187,0 0,17.7188 17.7187,0 0,17.7187 -17.7187,0 0,17.7187 17.7187,0 0,17.7188 -17.7187,0 0,17.7188 17.7187,0 0,17.7187 -17.7187,0 0,17.7187 17.7187,0 0,17.6876 -17.7187,0 0,17.7187 17.7187,0 0,17.7187 -17.7187,0 0,17.7188 17.7187,0 0,17.7188 -17.7187,0 0,17.7187 17.7187,0 0,17.7187 -17.7187,0 0,17.7188 17.7187,0 0,17.7188 -17.7187,0 0,17.7187 17.7187,0 0,17.7188 -17.7187,0 0,17.7187 17.7187,0 0,17.7188 -17.7187,0 0,17.7187 17.7187,0 0,17.6875 -17.7187,0 0,17.7188 17.7187,0 0,17.7187 -17.7187,0 0,17.7188 17.7187,0 0,17.7187 -17.7187,0 0,17.7188 17.7187,0 0,17.7187 -17.7187,0 0,17.7188 17.7187,0 0,17.7187 -17.7187,0 0,17.7188 17.7187,0 0,17.7187 -17.7187,0 0,17.7188 17.7187,0 0,17.7187 -17.7187,0 0,17.7188 17.7187,0 0,17.6875 -17.7187,0 0,17.7187 17.7187,0 0,17.7188 -17.7187,0 0,17.7187 17.7187,0 0,17.7188 -17.7187,0 0,17.7187 17.7187,0 0,17.7188 -17.7187,0 0,17.7187 17.7187,0 0,17.7188 -17.7187,0 0,17.7187 17.7187,0 0,17.7188 -17.7187,0 0,17.7187 17.7187,0 0,17.7188 -17.7187,0 0,17.7187 17.7187,0 0,17.6875 -17.7187,0 0,17.7188 17.7187,0 0,17.7187 -17.7187,0 0,17.7188 17.7187,0 0,17.7187 -17.7187,0 0,17.7188 17.7187,0 0,17.7187 -17.7187,0 0,17.7188 17.7187,0 0,17.7187 -17.7187,0 0,17.7188 17.7187,0 0,17.7187 -17.7187,0 0,17.7188 17.7187,0 0,17.7187 -17.7187,0 0,17.7188 17.7187,0 0,17.6875 -17.7187,0 0,53.1562 z m 47.7187,-124.0312 c 0,-2.9354 2.3771,-5.3125 5.3126,-5.3125 2.9352,0 5.3124,2.3771 5.3124,5.3125 0,2.9353 -2.3772,5.3125 -5.3124,5.3125 -2.9355,0 -5.3126,-2.3772 -5.3126,-5.3125 z m 0,-70.875 c 0,-2.9354 2.3771,-5.3125 5.3126,-5.3125 2.9352,0 5.3124,2.3771 5.3124,5.3125 0,2.9353 -2.3772,5.3125 -5.3124,5.3125 -2.9355,0 -5.3126,-2.3772 -5.3126,-5.3125 z m 0,-868.0938 c 0,-2.9354 2.3771,-5.3125 5.3126,-5.3125 2.9352,0 5.3124,2.3771 5.3124,5.3125 0,2.9354 -2.3772,5.3125 -5.3124,5.3125 -2.9355,0 -5.3126,-2.3771 -5.3126,-5.3125 z m 0,-70.875 c 0,-2.9354 2.3771,-5.3125 5.3126,-5.3125 2.9352,0 5.3124,2.3771 5.3124,5.3125 0,2.9354 -2.3772,5.3125 -5.3124,5.3125 -2.9355,0 -5.3126,-2.3771 -5.3126,-5.3125 z m 11.25,1071.9375 c 0,-7.1973 5.834,-13.0312 13.0313,-13.0312 7.1973,0 13.0313,5.8339 13.0313,13.0312 0,7.1974 -5.834,13.0313 -13.0313,13.0313 -7.1973,0 -13.0313,-5.8339 -13.0313,-13.0313 z m 0,-1198.8437 c 0,-7.1975 5.834,-13.0313 13.0313,-13.0313 7.1973,0 13.0313,5.8338 13.0313,13.0313 0,7.1971 -5.834,13.0312 -13.0313,13.0312 -7.1973,0 -13.0313,-5.8341 -13.0313,-13.0312 z"
       id="path3828"
       inkscape:connector-curvature="0" />
    <path
       style="fill:#0000ff;fill-opacity:1;stroke:none"
       d="m 1442.1014,739.51064 -17.7187,0 0,-17.71875 -17.7188,0 0,17.71875 -17.7187,0 0,-17.71875 -17.7188,0 0,17.71875 -17.7187,0 0,-17.71875 -17.6876,0 0,17.71875 -17.7187,0 0,-17.71875 -17.7187,0 0,17.71875 -17.7188,0 0,-17.71875 -17.7188,0 0,17.71875 -17.7187,0 0,-17.71875 -17.7187,0 0,17.71875 -17.7188,0 0,35.4375 -17.7188,0 0,17.6875 17.7188,0 0,17.71875 -17.7188,0 0,17.71875 17.7188,0 0,17.71875 -17.7188,0 0,17.71875 17.7188,0 0,17.71875 -17.7188,0 0,17.71875 17.7188,0 0,17.71875 -17.7188,0 0,17.71875 17.7188,0 0,17.71875 -17.7188,0 0,17.71875 17.7188,0 0,17.71875 -17.7188,0 0,17.71871 17.7188,0 0,17.7188 -17.7188,0 0,17.6875 17.7188,0 0,17.7188 -17.7188,0 0,17.7187 17.7188,0 0,17.7188 -17.7188,0 0,17.7187 17.7188,0 0,17.7188 -17.7188,0 0,17.7187 17.7188,0 0,17.7188 -17.7188,0 0,17.7187 17.7188,0 0,17.7188 -17.7188,0 0,17.7187 17.7188,0 0,17.7188 -17.7188,0 0,17.7187 17.7188,0 0,17.7188 -17.7188,0 0,17.6875 17.7188,0 0,17.7187 -17.7188,0 0,17.7188 17.7188,0 0,17.7187 -17.7188,0 0,17.7188 17.7188,0 0,17.7187 -17.7188,0 0,17.7188 17.7188,0 0,17.7187 -17.7188,0 0,17.7188 17.7188,0 0,17.7187 -17.7188,0 0,17.7188 17.7188,0 0,17.7187 -17.7188,0 0,17.7188 17.7188,0 0,17.7187 -17.7188,0 0,17.6875 17.7188,0 0,17.7188 -17.7188,0 0,17.7187 17.7188,0 0,17.7188 -17.7188,0 0,17.7187 17.7188,0 0,17.7188 -17.7188,0 0,17.7187 17.7188,0 0,17.7188 -17.7188,0 0,17.7187 17.7188,0 0,17.7187 -17.7188,0 0,17.7188 17.7188,0 0,17.7188 -17.7188,0 0,17.7187 17.7188,0 0,17.7187 -17.7188,0 0,17.6876 17.7188,0 0,17.7187 -17.7188,0 0,17.7187 17.7188,0 0,17.7188 -17.7188,0 0,17.7188 17.7188,0 0,17.7187 -17.7188,0 0,17.7187 17.7188,0 0,17.7188 -17.7188,0 0,17.7188 17.7188,0 0,17.7187 -17.7188,0 0,17.7187 17.7188,0 0,53.1563 17.7188,0 0,17.6875 17.7187,0 0,-17.6875 17.7187,0 0,17.6875 17.7188,0 0,-17.6875 17.7188,0 0,17.6875 17.7187,0 0,-17.6875 17.7187,0 0,17.6875 17.6876,0 0,-17.6875 17.7187,0 0,17.6875 17.7188,0 0,-17.6875 17.7187,0 0,17.6875 17.7188,0 0,-17.6875 17.7187,0 0,-1275.59376 z"
       id="rect3833"
       inkscape:connector-curvature="0" />
    <path
       style="fill:#0000ff;fill-opacity:1;stroke:none"
       d="M 106.3125 1841.0938 L 106.3125 1858.8125 L 88.59375 1858.8125 L 88.59375 1876.5312 L 70.875 1876.5312 L 70.875 1894.25 L 88.59375 1894.25 L 88.59375 1911.9688 L 70.875 1911.9688 L 70.875 1929.6875 L 88.59375 1929.6875 L 88.59375 1947.4062 L 70.875 1947.4062 L 70.875 1965.125 L 88.59375 1965.125 L 88.59375 1982.8125 L 88.59375 1982.8438 L 70.875 1982.8438 L 70.875 2000.5312 L 88.59375 2000.5312 L 88.59375 2018.25 L 70.875 2018.25 L 70.875 2035.9688 L 88.59375 2035.9688 L 88.59375 2053.6875 L 70.875 2053.6875 L 70.875 2071.4062 L 88.59375 2071.4062 L 88.59375 2089.125 L 70.875 2089.125 L 70.875 2106.8438 L 88.59375 2106.8438 L 88.59375 2124.5625 L 70.875 2124.5625 L 70.875 2142.2812 L 88.59375 2142.2812 L 88.59375 2160 L 70.875 2160 L 70.875 2177.7188 L 88.59375 2177.7188 L 88.59375 2195.4375 L 70.875 2195.4375 L 70.875 2213.1562 L 88.59375 2213.1562 L 88.59375 2230.875 L 70.875 2230.875 L 70.875 2248.5938 L 88.59375 2248.5938 L 88.59375 2266.2812 L 70.875 2266.2812 L 70.875 2284 L 88.59375 2284 L 88.59375 2301.7188 L 70.875 2301.7188 L 70.875 2319.4375 L 88.59375 2319.4375 L 88.59375 2337.1562 L 70.875 2337.1562 L 70.875 2354.875 L 88.59375 2354.875 L 88.59375 2372.5938 L 70.875 2372.5938 L 70.875 2390.3125 L 88.59375 2390.3125 L 88.59375 2408.0312 L 70.875 2408.0312 L 70.875 2425.75 L 88.59375 2425.75 L 88.59375 2443.4688 L 70.875 2443.4688 L 70.875 2461.1875 L 88.59375 2461.1875 L 88.59375 2478.9062 L 70.875 2478.9062 L 70.875 2496.625 L 88.59375 2496.625 L 88.59375 2514.3125 L 70.875 2514.3125 L 70.875 2532.0312 L 88.59375 2532.0312 L 88.59375 2549.75 L 70.875 2549.75 L 70.875 2567.4688 L 88.59375 2567.4688 L 88.59375 2585.1875 L 70.875 2585.1875 L 70.875 2602.9062 L 88.59375 2602.9062 L 88.59375 2620.625 L 70.875 2620.625 L 70.875 2638.3438 L 88.59375 2638.3438 L 88.59375 2656.0625 L 70.875 2656.0625 L 70.875 2673.7812 L 88.59375 2673.7812 L 88.59375 2691.5 L 70.875 2691.5 L 70.875 2709.2188 L 88.59375 2709.2188 L 88.59375 2726.9375 L 70.875 2726.9375 L 70.875 2744.6562 L 88.59375 2744.6562 L 88.59375 2762.3438 L 70.875 2762.3438 L 70.875 2780.0625 L 88.59375 2780.0625 L 88.59375 2797.7812 L 70.875 2797.7812 L 70.875 2815.5 L 88.59375 2815.5 L 88.59375 2833.2188 L 70.875 2833.2188 L 70.875 2850.9375 L 88.59375 2850.9375 L 88.59375 2868.6562 L 70.875 2868.6562 L 70.875 2886.375 L 88.59375 2886.375 L 88.59375 2904.0938 L 70.875 2904.0938 L 70.875 2921.8125 L 88.59375 2921.8125 L 88.59375 2939.5312 L 70.875 2939.5312 L 70.875 2957.25 L 88.59375 2957.25 L 88.59375 2974.9688 L 70.875 2974.9688 L 70.875 2992.6875 L 88.59375 2992.6875 L 88.59375 3010.375 L 70.875 3010.375 L 70.875 3028.0938 L 88.59375 3028.0938 L 88.59375 3045.8125 L 70.875 3045.8125 L 70.875 3063.5312 L 88.59375 3063.5312 L 88.59375 3081.25 L 70.875 3081.25 L 70.875 3098.9688 L 88.59375 3098.9688 L 88.59375 3116.6875 L 70.875 3116.6875 L 70.875 3134.4062 L 88.59375 3134.4062 L 88.59375 3152.125 L 106.3125 3152.125 L 106.3125 3134.4062 L 124.03125 3134.4062 L 124.03125 3152.125 L 141.71875 3152.125 L 141.71875 3134.4062 L 159.4375 3134.4062 L 159.4375 3152.125 L 177.15625 3152.125 L 177.15625 3134.4062 L 194.875 3134.4062 L 194.875 3152.125 L 212.59375 3152.125 L 212.59375 3134.4062 L 230.3125 3134.4062 L 230.3125 3152.125 L 248.03125 3152.125 L 248.03125 3134.4062 L 265.75 3134.4062 L 265.75 3152.125 L 283.46875 3152.125 L 283.46875 3134.4062 L 301.1875 3134.4062 L 301.1875 1858.8125 L 301.1875 1841.0938 L 283.46875 1841.0938 L 283.46875 1858.8125 L 265.75 1858.8125 L 265.75 1841.0938 L 248.03125 1841.0938 L 248.03125 1858.8125 L 230.3125 1858.8125 L 230.3125 1841.0938 L 212.59375 1841.0938 L 212.59375 1858.8125 L 194.875 1858.8125 L 194.875 1841.0938 L 177.15625 1841.0938 L 177.15625 1858.8125 L 159.4375 1858.8125 L 159.4375 1841.0938 L 141.71875 1841.0938 L 141.71875 1858.8125 L 124.03125 1858.8125 L 124.03125 1841.0938 L 106.3125 1841.0938 z M 106.3125 1982.8438 L 124.03125 1982.8438 L 124.03125 2000.5625 L 106.3125 2000.5625 L 106.3125 1982.8438 z M 141.71875 1982.8438 L 159.4375 1982.8438 L 159.4375 2000.5625 L 141.71875 2000.5625 L 141.71875 1982.8438 z M 177.15625 1982.8438 L 194.875 1982.8438 L 194.875 2000.5625 L 177.15625 2000.5625 L 177.15625 1982.8438 z M 212.59375 1982.8438 L 230.3125 1982.8438 L 230.3125 2000.5625 L 212.59375 2000.5625 L 212.59375 1982.8438 z "
       transform="translate(0,-1107.675)"
       id="rect4031" />
    <path
       style="fill:#0000ff;fill-opacity:1;stroke:none"
       d="m 909.11784,722.32746 0,17.7187 -17.7187,0 0,1275.59374 0,17.7188 17.7187,0 0,-17.7188 17.6876,0 0,17.7188 17.7187,0 0,-17.7188 17.7187,0 0,17.7188 17.7188,0 0,-17.7188 17.7188,0 0,17.7188 17.71866,0 0,-17.7188 17.7187,0 0,17.7188 17.7188,0 0,-17.7188 17.7188,0 0,17.7188 17.7187,0 0,-17.7188 17.7187,0 0,17.7188 17.6876,0 0,-17.7188 17.7187,0 0,17.7188 17.7187,0 0,-17.7188 17.7188,0 0,-17.7187 -17.7188,0 0,-17.7187 17.7188,0 0,-17.7188 -17.7188,0 0,-17.7188 17.7188,0 0,-17.7187 -17.7188,0 0,-17.7187 17.7188,0 0,-17.7188 -17.7188,0 0,-17.6875 17.7188,0 0,-17.7187 -17.7188,0 0,-17.7188 17.7188,0 0,-17.7188 -17.7188,0 0,-17.7187 17.7188,0 0,-17.7187 -17.7188,0 0,-17.7188 17.7188,0 0,-17.7188 -17.7188,0 0,-17.7187 17.7188,0 0,-17.7187 -17.7188,0 0,-17.7188 17.7188,0 0,-17.7188 -17.7188,0 0,-17.7187 17.7188,0 0,-17.7187 -17.7188,0 0,-17.6876 17.7188,0 0,-17.7187 -17.7188,0 0,-17.7187 17.7188,0 0,-17.7188 -17.7188,0 0,-17.7188 17.7188,0 0,-17.7187 -17.7188,0 0,-17.7187 17.7188,0 0,-17.7188 -17.7188,0 0,-17.7188 17.7188,0 0,-17.7187 -17.7188,0 0,-17.7187 17.7188,0 0,-17.7188 -17.7188,0 0,-17.7188 17.7188,0 0,-17.7187 -17.7188,0 0,-17.6875 17.7188,0 0,-17.7188 -17.7188,0 0,-17.7187 17.7188,0 0,-17.7187 -17.7188,0 0,-17.7188 17.7188,0 0,-17.7188 -17.7188,0 0,-17.7187 17.7188,0 0,-17.7187 -17.7188,0 0,-17.7188 17.7188,0 0,-17.7188 -17.7188,0 0,-17.7187 17.7188,0 0,-17.7187 -17.7188,0 0,-17.7188 17.7188,0 0,-17.7188 -17.7188,0 0,-17.6874 17.7188,0 0,-17.7188 -17.7188,0 0,-17.7188 17.7188,0 0,-17.7187 -17.7188,0 0,-17.7187 17.7188,0 0,-17.7188 -17.7188,0 0,-17.7188 17.7188,0 0,-17.7187 -17.7188,0 0,-17.71874 17.7188,0 0,-17.7188 -17.7188,0 0,-17.7188 17.7188,0 0,-17.7187 -17.7188,0 0,-17.7187 17.7188,0 0,-17.7188 -17.7188,0 0,-17.7188 17.7188,0 0,-17.6874 -17.7188,0 0,-0.0313 0,-17.6875 17.7188,0 0,-17.7188 -17.7188,0 0,-17.7187 17.7188,0 0,-17.7187 -17.7188,0 0,-17.7188 17.7188,0 0,-17.7188 -17.7188,0 0,-17.7187 -17.7187,0 0,-17.7187 -17.7187,0 0,17.7187 -17.6876,0 0,-17.7187 -17.7187,0 0,17.7187 -17.7187,0 0,-17.7187 -17.7188,0 0,17.7187 -17.7188,0 0,-17.7187 -17.7187,0 0,17.7187 -17.71866,0 0,-17.7187 -17.7188,0 0,17.7187 -17.7188,0 0,-17.7187 -17.7187,0 0,17.7187 -17.7187,0 0,-17.7187 -17.6876,0 z m 53.125,35.4374 17.7188,0 0,17.7188 -17.7188,0 0,-17.7188 z m 0,35.4376 17.7188,0 0,17.7187 -17.7188,0 0,-17.7187 z m 35.4376,0 141.74996,0 0,53.1562 -141.74996,0 0,-53.1562 z m -35.4376,35.4374 17.7188,0 0,17.7188 -17.7188,0 0,-17.7188 z m 17.7188,35.4376 17.7188,0 0,17.7187 -17.7188,0 0,-17.7187 z m 35.43746,0 17.7187,0 0,17.7187 -17.7187,0 0,-17.7187 z m 35.4375,0 17.7188,0 0,17.7187 -17.7188,0 0,-17.7187 z m 35.4375,0 17.7187,0 0,17.7187 -17.7187,0 0,-17.7187 z m 35.4375,0 17.7188,0 0,17.7187 -17.7188,0 0,-17.7187 z"
       id="path4558"
       inkscape:connector-curvature="0" />
    <path
       style="fill:#0000ff;fill-opacity:1;stroke:none"
       d="m 875.50906,750.99887 -17.7188,0 0,-17.7187 -17.7187,0 0,17.7187 -17.7187,0 0,-17.7187 -17.7188,0 0,17.7187 -17.7188,0 0,-17.7187 -17.7187,0 0,17.7187 -17.7187,0 0,-17.7187 -17.7188,0 0,17.7187 -17.7188,0 0,-17.7187 -17.7187,0 0,17.7187 -17.7187,0 0,-17.7187 -17.7188,0 0,17.7187 -17.6875,0 0,-17.7187 -17.7187,0 0,17.7187 -17.7188,0 0,17.7187 17.7188,0 0,17.7188 -17.7188,0 0,17.7188 17.7188,0 0,17.7187 -17.7188,0 0,17.7187 17.7188,0 0,17.7188 -17.7188,0 0,17.7188 17.7188,0 17.7187,0 0,17.7187 -17.7187,0 -17.7188,0 0,17.7187 17.7188,0 0,17.7188 -17.7188,0 0,17.6875 17.7188,0 0,17.7187 -17.7188,0 0,17.7188 17.7188,0 0,17.7188 -17.7188,0 0,17.71873 17.7188,0 0,17.7187 -17.7188,0 0,17.7188 17.7188,0 0,17.7188 -17.7188,0 0,17.7187 17.7188,0 0,17.7187 -17.7188,0 0,17.7188 17.7188,0 0,17.7188 -17.7188,0 0,17.7187 17.7188,0 0,17.7187 -17.7188,0 0,17.6876 17.7188,0 0,17.7187 -17.7188,0 0,17.7187 17.7188,0 0,17.7188 -17.7188,0 0,17.7188 17.7188,0 0,17.7187 -17.7188,0 0,17.7187 17.7188,0 0,17.7188 -17.7188,0 0,17.7188 17.7188,0 0,17.7187 -17.7188,0 0,17.7187 17.7188,0 0,17.7188 -17.7188,0 0,17.7188 17.7188,0 0,17.7187 -17.7188,0 0,17.6875 17.7188,0 0,17.7188 -17.7188,0 0,17.7187 17.7188,0 0,17.7187 -17.7188,0 0,17.7188 17.7188,0 0,17.7188 -17.7188,0 0,17.7187 17.7188,0 0,17.7187 -17.7188,0 0,17.7188 17.7188,0 0,17.7188 -17.7188,0 0,17.7187 17.7188,0 0,17.7187 -17.7188,0 0,17.7188 17.7188,0 0,17.7188 -17.7188,0 0,17.6874 17.7188,0 0,17.7188 -17.7188,0 0,17.7188 17.7188,0 0,17.7187 -17.7188,0 0,17.7187 17.7188,0 0,17.7188 -17.7188,0 0,17.7188 17.7188,0 0,17.7187 -17.7188,0 0,17.7187 17.7188,0 0,17.7188 -17.7188,0 0,17.7188 17.7188,0 0,17.7187 -17.7188,0 0,17.7187 17.7188,0 0,17.7188 -17.7188,0 0,17.6875 17.7188,0 0,17.7187 -17.7188,0 0,17.7188 17.7188,0 0,17.7188 -17.7188,0 0,17.7187 17.7188,0 0,17.7187 -17.7188,0 0,17.7188 17.7188,0 17.7187,0 0,-17.7188 17.6875,0 0,17.7188 17.7188,0 0,-17.7188 17.7187,0 0,17.7188 17.7187,0 0,-17.7188 17.7188,0 0,17.7188 17.7188,0 0,-17.7188 17.7187,0 0,17.7188 17.7187,0 0,-17.7188 17.7188,0 0,17.7188 17.7188,0 0,-17.7188 17.7187,0 0,17.7188 17.7187,0 0,-17.7188 17.7188,0 0,-17.7187 -17.7188,0 0,-17.7187 17.7188,0 0,-17.7188 -17.7188,0 0,-17.7188 17.7188,0 0,-17.7187 -17.7188,0 0,-17.6875 17.7188,0 0,-17.7188 -17.7188,0 0,-17.7187 17.7188,0 0,-17.7187 -17.7188,0 0,-17.7188 17.7188,0 0,-17.7188 -17.7188,0 0,-17.7187 17.7188,0 0,-1027.56253 0,-35.4375 z m -17.7188,124.0313 0,17.7187 -17.7187,0 0,-17.7187 17.7187,0 z m -35.4374,0 0,17.7187 -17.7188,0 0,-17.7187 17.7188,0 z m -35.4376,0 0,17.7187 -17.7187,0 0,-17.7187 17.7187,0 z m -35.4374,0 0,17.7187 -17.7188,0 0,-17.7187 17.7188,0 z m -12.125,338.25003 0,63.125 c 0,2.8235 -2.2701,5.125 -5.0938,5.125 -2.8237,0 -5.0938,-2.3015 -5.0938,-5.125 l 0,-63.125 c 0,-2.8238 2.2701,-5.0938 5.0938,-5.0938 2.8237,0 5.0938,2.27 5.0938,5.0938 z m -23.3126,-338.25003 0,17.7187 -17.7187,0 0,-17.7187 17.7187,0 z m -35.4374,0 0,17.7187 -17.7188,0 0,-17.7187 17.7188,0 z m -22.3438,338.25003 0,63.125 c 0,2.8235 -2.27,5.125 -5.0938,5.125 -2.8235,0 -5.0937,-2.3015 -5.0937,-5.125 l 0,-63.125 c 0,-2.8238 2.2702,-5.0938 5.0937,-5.0938 2.8238,0 5.0938,2.27 5.0938,5.0938 z"
       id="path4560"
       inkscape:connector-curvature="0" />
    <path
       style="fill:#0000ff;fill-opacity:1;stroke:none"
       d="m 1579.4706,1004.1332 0,17.7188 -17.6875,0 0,17.7188 17.6875,0 0,17.7187 -17.6875,0 0,17.6875 17.6875,0 0,17.7188 -17.6875,0 0,17.7187 17.6875,0 0,17.7187 -17.6875,0 0,17.7188 17.6875,0 0,17.7188 -17.6875,0 0,17.7187 17.6875,0 0,17.7187 -17.6875,0 0,17.7188 17.6875,0 0,17.7188 -17.6875,0 0,17.7187 17.6875,0 17.7188,0 0,17.7187 17.7187,0 0,-17.7187 17.7188,0 0,17.7187 17.7187,0 0,-17.7187 17.7188,0 0,17.7187 17.7187,0 0,-17.7187 17.7188,0 0,17.7187 17.7187,0 0,-17.7187 17.7188,0 0,17.7187 0.031,0 0,-265.75 -159.5,0 z m 33.5625,15 c 2.806,0 5.0625,2.2878 5.0625,5.0938 0,2.806 -2.2565,5.0938 -5.0625,5.0938 -2.806,0 -5.0937,-2.2878 -5.0937,-5.0938 0,-2.806 2.2877,-5.0938 5.0937,-5.0938 z m 109.4375,0 c 2.806,0 5.0625,2.2878 5.0625,5.0938 0,2.806 -2.2565,5.0938 -5.0625,5.0938 -2.806,0 -5.0937,-2.2878 -5.0937,-5.0938 0,-2.806 2.2877,-5.0938 5.0937,-5.0938 z m -99.6875,42.0313 c 7.6621,0 13.875,6.2129 13.875,13.875 0,7.6621 -6.2129,13.875 -13.875,13.875 -7.662,0 -13.875,-6.2129 -13.875,-13.875 0,-7.6621 6.213,-13.875 13.875,-13.875 z m 44.8438,0 c 11.535,0 20.9062,9.3711 20.9062,20.9063 0,11.5349 -9.3712,20.875 -20.9062,20.875 -11.535,0 -20.875,-9.3401 -20.875,-20.875 0,-11.5352 9.34,-20.9063 20.875,-20.9063 z m -54.5938,67.6563 c 2.806,0 5.0625,2.2877 5.0625,5.0937 0,2.806 -2.2565,5.0625 -5.0625,5.0625 -2.806,0 -5.0937,-2.2565 -5.0937,-5.0625 0,-2.806 2.2877,-5.0937 5.0937,-5.0937 z m 109.4375,0 c 2.806,0 5.0625,2.2877 5.0625,5.0937 0,2.806 -2.2565,5.0625 -5.0625,5.0625 -2.806,0 -5.0937,-2.2565 -5.0937,-5.0625 0,-2.806 2.2877,-5.0937 5.0937,-5.0937 z"
       id="rect4603"
       inkscape:connector-curvature="0" />
    <path
       style="fill:#0000ff;fill-opacity:1;stroke:none"
       d="m 1590.1034,1278.2956 0,17.7188 17.7187,0 0,17.7188 -17.7187,0 0,17.7187 17.7187,0 0,17.6875 -17.7187,0 0,17.7188 17.7187,0 0,17.7187 -17.7187,0 0,17.7187 17.7187,0 0,17.7188 -17.7187,0 0,17.7188 17.7187,0 0,17.7187 -17.7187,0 0,17.7187 17.7187,0 0,17.7188 -17.7187,0 0,17.7188 17.7187,0 0,17.7187 17.7187,0 0,17.7187 17.7188,0 0,-17.7187 17.7188,0 0,17.7187 17.7187,0 0,-17.7187 17.7187,0 0,17.7187 17.7188,0 0,-17.7187 17.7188,0 0,-17.7187 17.7187,0 0,-17.7188 -17.7187,0 0,-17.6875 17.7187,0 0,-17.7187 -17.7187,0 0,-17.7188 17.7187,0 0,-17.7188 -17.7187,0 0,-17.7187 17.7187,0 0,-17.7187 -17.7187,0 0,-17.7188 17.7187,0 0,-17.7188 -17.7187,0 0,-17.7187 17.7187,0 0,-17.7187 -17.7187,0 0,-17.7188 17.7187,0 0,-17.7188 -17.7187,0 -141.75,0 z m 53.25,205.5626 c 3.9138,0 7.0937,3.1799 7.0937,7.0937 0,3.9138 -3.1799,7.0937 -7.0937,7.0937 -3.9139,0 -7.0626,-3.1799 -7.0626,-7.0937 0,-3.9138 3.1487,-7.0937 7.0626,-7.0937 z"
       id="path4786"
       inkscape:connector-curvature="0" />
    <path
       style="fill:#0000ff;fill-opacity:1;stroke:none"
       d="m 1833.1837,1574.9137 -17.7188,0 0,-17.6874 -17.7188,0 0,17.6874 -17.7187,0 0,-17.6874 -17.6875,0 0,17.6874 -17.7188,0 0,-17.6874 -17.7187,0 0,17.6874 -17.7187,0 0,-17.6874 -17.7188,0 0,17.6874 -17.7188,0 0,-17.6874 -17.7187,0 0,17.6874 -17.7187,0 0,-17.6874 -17.7188,0 0,17.6874 -17.7188,0 0,-17.6874 -17.7187,0 0,17.7187 -17.7187,0 0,17.7187 17.7187,0 0,17.7188 -17.7187,0 0,17.7188 17.7187,0 0,17.7187 -17.7187,0 0,17.7187 17.7187,0 0,17.7188 -17.7187,0 0,17.7188 17.7187,0 0,17.7187 -17.7187,0 0,17.7187 17.7187,0 0,17.7188 0,17.6875 17.7187,0 0,-17.7187 17.7188,0 0,17.7187 17.7188,0 0,-17.7187 17.7187,0 0,17.7187 17.7187,0 0,-17.7187 17.7188,0 0,17.7187 17.7188,0 0,-17.7187 17.7187,0 0,17.7187 17.7187,0 0,-17.7187 17.7188,0 0,17.7187 17.6875,0 0,-17.7187 17.7187,0 0,17.7187 17.7188,0 0,-17.7187 17.7188,0 0,-177.1876 z m -14.9376,24.6563 c 0,2.9354 -2.3773,5.3125 -5.3124,5.3125 -2.9356,0 -5.3126,-2.3771 -5.3126,-5.3125 0,-2.9353 2.377,-5.3125 5.3126,-5.3125 2.9351,0 5.3124,2.3772 5.3124,5.3125 z m 0,109.5 c 0,2.9354 -2.3773,5.3125 -5.3124,5.3125 -2.9356,0 -5.3126,-2.3771 -5.3126,-5.3125 0,-2.9353 2.377,-5.3125 5.3126,-5.3125 2.9351,0 5.3124,2.3772 5.3124,5.3125 z m -37.9374,-54.6875 c 0,11.8795 -9.6207,21.5312 -21.5,21.5312 -11.8796,0 -21.5313,-9.6517 -21.5313,-21.5312 0,-11.8795 9.6517,-21.5 21.5313,-21.5 11.8793,0 21.5,9.6205 21.5,21.5 z m -5.4688,66.3125 c 0,7.717 -6.2515,13.9687 -13.9688,13.9687 -7.7166,0 -13.9687,-6.2517 -13.9687,-13.9687 0,-7.717 6.2521,-14 13.9687,-14 7.7173,0 13.9688,6.283 13.9688,14 z m -66.0625,-121.125 c 0,2.9354 -2.3771,5.3125 -5.3125,5.3125 -2.9354,0 -5.3125,-2.3771 -5.3125,-5.3125 0,-2.9353 2.3771,-5.3125 5.3125,-5.3125 2.9354,0 5.3125,2.3772 5.3125,5.3125 z m 0,109.5 c 0,2.9354 -2.3771,5.3125 -5.3125,5.3125 -2.9354,0 -5.3125,-2.3771 -5.3125,-5.3125 0,-2.9353 2.3771,-5.3125 5.3125,-5.3125 2.9354,0 5.3125,2.3772 5.3125,5.3125 z"
       id="path4788"
       inkscape:connector-curvature="0" />
    <path
       style="fill:#0000ff;fill-opacity:1;stroke:none"
       d="m -47.089326,-403.69885 0,17.7187 17.71875,0 0,17.7188 -17.71875,0 0,17.7187 17.71875,0 0,17.7188 -17.71875,0 0,17.7187 17.71875,0 0,17.7188 -17.71875,0 0,17.7187 17.71875,0 0,17.7188 -17.71875,0 0,17.6875 17.71875,0 0,17.7187 -17.71875,0 0,17.7188 17.71875,0 0,17.71875 -17.71875,0 0,17.71875 17.71875,0 0,17.71875 -17.71875,0 0,17.71875 17.71875,0 0,17.71875 -17.71875,0 0,17.71875 17.71875,0 0,17.718752 -17.71875,0 0,17.71875 17.71875,0 0,17.71875 -17.71875,0 0,17.71875 35.4375,0 0,-17.71875 17.7187496,0 0,17.71875 17.6875004,0 0,-17.71875 17.71875,0 0,17.71875 17.71875,0 0,-17.71875 17.71875,0 0,17.71875 17.71875,0 0,-17.71875 17.718746,0 0,17.71875 17.71875,0 0,-17.71875 17.71875,0 0,17.71875 17.71875,0 0,-17.71875 17.71875,0 0,17.71875 17.71875,0 0,-17.71875 17.71875,0 0,17.71875 17.71875,0 0,-17.71875 17.71875,0 0,17.71875 17.6875,0 0,-17.71875 17.71875,0 0,17.71875 17.71875,0 0,-17.71875 17.71875,0 0,17.71875 17.71875,0 0,-17.71875 17.71875,0 0,17.71875 17.71875,0 0,-17.71875 17.71875,0 0,17.71875 17.71875,0 0,-17.71875 17.71875,0 0,17.71875 17.71875,0 0,-17.71875 17.71875,0 0,17.71875 17.71875,0 0,-17.71875 17.71875,0 0,17.71875 17.6875,0 0,-17.71875 17.71875,0 0,17.71875 17.71875,0 0,-17.71875 17.71875,0 0,17.71875 17.71875,0 0,-17.71875 17.71875,0 0,17.71875 17.71875,0 0,-17.71875 17.7188,0 0,17.71875 17.7187,0 0,-17.71875 17.7187,0 0,17.71875 17.7188,0 0,-17.71875 17.7188,0 0,17.71875 35.4374,0 0,-17.71875 -17.7187,0 0,-17.71875 17.7187,0 0,-17.71875 -17.7187,0 0,-17.718752 17.7187,0 0,-17.71875 -17.7187,0 0,-17.71875 17.7187,0 0,-17.71875 -17.7187,0 0,-17.71875 17.7187,0 0,-17.71875 -17.7187,0 0,-17.71875 17.7187,0 0,-17.7188 -17.7187,0 0,-17.7187 17.7187,0 0,-17.6875 -17.7187,0 0,-17.7188 17.7187,0 0,-17.7187 -17.7187,0 0,-17.7188 17.7187,0 0,-17.7187 -17.7187,0 0,-17.7188 17.7187,0 0,-17.7187 -17.7187,0 0,-17.7188 17.7187,0 0,-17.7187 -35.4374,0 -761.812546,0 z"
       id="rect4932"
       inkscape:connector-curvature="0" />
    <path
       style="fill:#0000ff;fill-opacity:1;stroke:none"
       d="m -29.370576,-1093.8792 0,17.7187 -17.71875,0 0,17.7188 17.71875,0 0,17.7187 -17.71875,0 0,17.6875 17.71875,0 0,17.7188 -17.71875,0 0,17.7187 17.71875,0 0,17.71875 -17.71875,0 0,17.71875 17.71875,0 0,17.71875 -17.71875,0 0,17.71875 17.71875,0 0,17.71875 -17.71875,0 0,17.71875 17.71875,0 0,17.71875 -17.71875,0 0,17.71875 17.71875,0 0,17.71875 -17.71875,0 0,17.71875 17.71875,0 0,17.71875 -17.71875,0 0,17.6875 17.71875,0 0,17.71875 -17.71875,0 0,17.71875 17.71875,0 0,17.71875 -17.71875,0 0,17.71875 17.71875,0 0,17.71875 -17.71875,0 0,17.71875 17.71875,0 0,17.71875 -17.71875,0 0,17.71875 17.71875,0 0,17.71875 -17.71875,0 0,17.71875 17.71875,0 0,17.71875 -17.71875,0 0,17.71875 17.71875,0 0,17.71875 -17.71875,0 0,17.6875 17.71875,0 0,17.71875 -17.71875,0 0,17.71875 17.71875,0 0,17.71875 -17.71875,0 0,17.71875 17.71875,0 0,17.71875 -17.71875,0 0,17.71875 744.093746,0 17.7188,0 17.7187,0 17.7187,0 0,-17.71875 -17.7187,0 0,-17.71875 17.7187,0 0,-17.71875 -17.7187,0 0,-17.71875 17.7187,0 0,-17.71875 -17.7187,0 0,-17.71875 17.7187,0 0,-17.6875 -17.7187,0 0,-17.71875 17.7187,0 0,-17.71875 -17.7187,0 0,-17.71875 17.7187,0 0,-17.71875 -17.7187,0 0,-17.71875 17.7187,0 0,-17.71875 -17.7187,0 0,-17.71875 17.7187,0 0,-17.71875 -17.7187,0 0,-17.71875 17.7187,0 0,-17.71875 -17.7187,0 0,-17.71875 17.7187,0 0,-17.71875 -17.7187,0 0,-17.71875 17.7187,0 0,-17.6875 -17.7187,0 0,-17.71875 17.7187,0 0,-17.71875 -17.7187,0 0,-17.71875 17.7187,0 0,-17.71875 -17.7187,0 0,-17.71875 17.7187,0 0,-17.71875 -17.7187,0 0,-17.71875 17.7187,0 0,-17.71875 -17.7187,0 0,-17.71875 17.7187,0 0,-17.71875 -17.7187,0 0,-17.71875 17.7187,0 0,-17.7187 -17.7187,0 0,-17.7188 17.7187,0 0,-17.6875 -17.7187,0 0,-17.7187 17.7187,0 0,-17.7188 -17.7187,0 0,-17.7187 -17.7187,0 0,17.7187 -17.7188,0 0,-17.7187 -17.7188,0 0,17.7187 -17.7187,0 0,-17.7187 -17.7187,0 0,17.7187 -17.7188,0 0,-17.7187 -17.71875,0 0,17.7187 -17.71875,0 0,-17.7187 -17.71875,0 0,17.7187 -17.71875,0 0,-17.7187 -17.71875,0 0,17.7187 -17.71875,0 0,-17.7187 -17.6875,0 0,17.7187 -17.71875,0 0,-17.7187 -17.71875,0 0,17.7187 -17.71875,0 0,-17.7187 -17.71875,0 0,17.7187 -17.71875,0 0,-17.7187 -17.71875,0 0,17.7187 -17.71875,0 0,-17.7187 -17.71875,0 0,17.7187 -17.71875,0 0,-17.7187 -17.71875,0 0,17.7187 -17.71875,0 0,-17.7187 -17.71875,0 0,17.7187 -17.71875,0 0,-17.7187 -17.6875,0 0,17.7187 -17.71875,0 0,-17.7187 -17.71875,0 0,17.7187 -17.71875,0 0,-17.7187 -17.71875,0 0,17.7187 -17.71875,0 0,-17.7187 -17.71875,0 0,17.7187 -17.71875,0 0,-17.7187 -17.71875,0 0,17.7187 -17.718746,0 0,-17.7187 -17.71875,0 0,17.7187 -17.71875,0 0,-17.7187 -17.71875,0 0,17.7187 -17.71875,0 0,-17.7187 -17.6875004,0 0,17.7187 -17.7187496,0 0,-17.7187 -17.71875,0 z m 17.71875,159.43745 17.7187496,0 0,17.71875 -17.7187496,0 0,-17.71875 z m 35.40625,0 17.71875,0 0,17.71875 -17.71875,0 0,-17.71875 z m 35.4375,0 17.71875,0 0,17.71875 -17.71875,0 0,-17.71875 z m 35.4375,0 17.718746,0 0,17.71875 -17.718746,0 0,-17.71875 z m 35.437496,0 17.71875,0 0,17.71875 -17.71875,0 0,-17.71875 z m 35.4375,0 17.71875,0 0,17.71875 -17.71875,0 0,-17.71875 z m 35.4375,0 17.71875,0 0,17.71875 -17.71875,0 0,-17.71875 z m 35.4375,0 17.71875,0 0,17.71875 -17.71875,0 0,-17.71875 z m 35.40625,0 17.71875,0 0,17.71875 -17.71875,0 0,-17.71875 z m 35.4375,0 17.71875,0 0,17.71875 -17.71875,0 0,-17.71875 z m 35.4375,0 17.71875,0 0,17.71875 -17.71875,0 0,-17.71875 z m 35.4375,0 17.71875,0 0,17.71875 -17.71875,0 0,-17.71875 z m 35.4375,0 17.71875,0 0,17.71875 -17.71875,0 0,-17.71875 z m 35.4375,0 17.71875,0 0,17.71875 -17.71875,0 0,-17.71875 z m 35.4375,0 17.71875,0 0,17.71875 -17.71875,0 0,-17.71875 z m 35.40625,0 17.71875,0 0,17.71875 -17.71875,0 0,-17.71875 z m 35.4375,0 17.71875,0 0,17.71875 -17.71875,0 0,-17.71875 z m 35.4375,0 17.71875,0 0,17.71875 -17.71875,0 0,-17.71875 z m 35.4375,0 17.7188,0 0,17.71875 -17.7188,0 0,-17.71875 z m 35.4375,0 17.7187,0 0,17.71875 -17.7187,0 0,-17.71875 z m 35.4375,0 17.7188,0 0,17.71875 -17.7188,0 0,-17.71875 z"
       id="rect4934"
       inkscape:connector-curvature="0" />
    <path
       style="fill:#0000ff;fill-opacity:1;stroke:none"
       d="m 803.25442,-1093.8792 0,17.7187 -17.7188,0 0,17.7188 -17.6874,0 0,17.7187 17.6874,0 0,17.6875 -17.6874,0 0,17.7188 17.6874,0 0,17.7187 -17.6874,0 0,17.71875 17.6874,0 0,17.71875 -17.6874,0 0,17.71875 17.6874,0 0,17.71875 -17.6874,0 0,17.71875 17.6874,0 0,17.71875 -17.6874,0 0,17.71875 17.6874,0 0,17.71875 -17.6874,0 0,17.71875 17.6874,0 0,17.71875 -17.6874,0 0,17.71875 17.6874,0 0,17.6875 -17.6874,0 0,17.71875 17.6874,0 0,17.71875 -17.6874,0 0,17.71875 17.6874,0 0,17.71875 -17.6874,0 0,17.71875 17.6874,0 0,17.71875 -17.6874,0 0,17.71875 17.6874,0 0,17.71875 -17.6874,0 0,17.71875 17.6874,0 0,17.71875 -17.6874,0 0,17.71875 17.6874,0 0,17.71875 -17.6874,0 0,17.71875 17.6874,0 0,17.6875 -17.6874,0 0,17.71875 17.6874,0 0,17.71875 -17.6874,0 0,17.71875 17.6874,0 0,17.71875 -17.6874,0 0,17.71875 17.6874,0 0,89.34375 c 0.5074,-0.0336 1.0185,-0.0625 1.5313,-0.0625 19.0862,0 34.5313,23.53191 34.5313,52.5625 0,29.03059 -15.4451,52.5625 -34.5313,52.5625 -0.5128,0 -1.0239,-0.0289 -1.5313,-0.0625 l 0,89.125 -17.6874,0 0,17.71875 17.6874,0 0,17.71875 -17.6874,0 0,17.71875 17.6874,0 0,17.718752 -17.6874,0 0,17.71875 17.6874,0 0,17.71875 -17.6874,0 0,17.71875 17.6874,0 0,17.6875 -17.6874,0 0,17.7187495 17.6874,0 0,17.7187505 -17.6874,0 0,17.71875 17.6874,0 0,17.71875 -17.6874,0 0,17.71875 17.6874,0 0,17.71875 -17.6874,0 0,17.718748 17.6874,0 0,17.71875 -17.6874,0 0,17.71875 17.6874,0 0,17.71875 -17.6874,0 0,17.71875 17.6874,0 17.7188,0 0,17.71875 17.7188,0 0,-17.71875 17.7187,0 0,17.71875 17.7187,0 0,-17.71875 17.7188,0 0,17.71875 17.7188,0 0,-17.71875 17.7187,0 0,17.71875 17.7187,0 0,-17.71875 17.7188,0 0,17.71875 17.7188,0 0,-17.71875 0,-1098.4375 -17.7188,0 0,-17.71875 17.7188,0 0,-141.71875 0,-17.7187 -17.7188,0 0,17.7187 -17.7188,0 0,-17.7187 -17.7187,0 0,17.7187 -17.7187,0 0,-17.7187 -17.7188,0 0,17.7187 -17.7188,0 0,-17.7187 -17.7187,0 0,17.7187 -17.7187,0 0,-17.7187 -17.7188,0 z m 0,159.43745 17.7188,0 0,17.71875 -17.7188,0 0,-17.71875 z m 35.4375,0 17.7187,0 0,17.71875 -17.7187,0 0,-17.71875 z m 35.4375,0 17.7188,0 0,17.71875 -17.7188,0 0,-17.71875 z m 35.4375,0 17.7187,0 0,17.71875 -17.7187,0 0,-17.71875 z m -20.7187,571.625 c 2.2313,0 4.0312,1.79971 4.0312,4.03125 0,2.23154 -1.7999,4.0625 -4.0312,4.0625 -2.2318,0 -4.0626,-1.83096 -4.0626,-4.0625 0,-2.23154 1.8308,-4.03125 4.0626,-4.03125 z m -0.6876,38.125 c 3.2328,0 5.8438,2.61119 5.8438,5.84375 0,3.23256 -2.611,5.84375 -5.8438,5.84375 -3.2323,0 -5.8437,-2.61119 -5.8437,-5.84375 0,-3.23256 2.6114,-5.84375 5.8437,-5.84375 z m -34.9374,21.4375 c 2.2313,0 4.0312,1.79971 4.0312,4.03125 0,2.23154 -1.7999,4.03125 -4.0312,4.03125 -2.2318,0 -4.0313,-1.79971 -4.0313,-4.03125 0,-2.23154 1.7995,-4.03125 4.0313,-4.03125 z m 69.4374,1.03125 c 2.2318,0 4.0313,1.83096 4.0313,4.0625 0,2.23154 -1.7995,4.03125 -4.0313,4.03125 -2.2313,0 -4.0312,-1.79971 -4.0312,-4.03125 0,-2.23154 1.7999,-4.0625 4.0312,-4.0625 z"
       id="rect4936"
       inkscape:connector-curvature="0" />
    <path
       style="fill:#0000ff;fill-opacity:1;stroke:none"
       d="m -259.68308,-1093.8792 0,17.7187 0,141.71875 17.71875,0 0,17.71875 -17.71875,0 0,1098.4375 0,17.71875 17.71875,0 0,-17.71875 17.6875,0 0,17.71875 17.71875,0 0,-17.71875 17.71875,0 0,17.71875 17.71875,0 0,-17.71875 17.71875,0 0,17.71875 17.71875,0 0,-17.71875 17.71875,0 0,17.71875 17.71875,0 0,-17.71875 17.750004,0 17.6875,0 0,-17.71875 -17.6875,0 0,-17.71875 17.6875,0 0,-17.71875 -17.6875,0 0,-17.71875 17.6875,0 0,-17.718748 -17.6875,0 0,-17.71875 17.6875,0 0,-17.71875 -17.6875,0 0,-17.71875 17.6875,0 0,-17.71875 -17.6875,0 0,-17.7187505 17.6875,0 0,-17.7187495 -17.6875,0 0,-17.6875 17.6875,0 0,-17.71875 -17.6875,0 0,-17.71875 17.6875,0 0,-17.71875 -17.6875,0 0,-17.718752 17.6875,0 0,-17.71875 -17.6875,0 0,-17.71875 17.6875,0 0,-17.71875 -17.6875,0 0,-89.0625 c -19.042914,-0.0771 -34.468754,-23.5796 -34.468754,-52.5625 0,-28.9829 15.42584,-52.48536 34.468754,-52.5625 l 0,-89.28125 17.6875,0 0,-17.71875 -17.6875,0 0,-17.71875 17.6875,0 0,-17.71875 -17.6875,0 0,-17.71875 17.6875,0 0,-17.71875 -17.6875,0 0,-17.6875 17.6875,0 0,-17.71875 -17.6875,0 0,-17.71875 17.6875,0 0,-17.71875 -17.6875,0 0,-17.71875 17.6875,0 0,-17.71875 -17.6875,0 0,-17.71875 17.6875,0 0,-17.71875 -17.6875,0 0,-17.71875 17.6875,0 0,-17.71875 -17.6875,0 0,-17.71875 17.6875,0 0,-17.71875 -17.6875,0 0,-17.71875 17.6875,0 0,-17.71875 -17.6875,0 0,-17.6875 17.6875,0 0,-17.71875 -17.6875,0 0,-17.71875 17.6875,0 0,-17.71875 -17.6875,0 0,-17.71875 17.6875,0 0,-17.71875 -17.6875,0 0,-17.71875 17.6875,0 0,-17.71875 -17.6875,0 0,-17.71875 17.6875,0 0,-17.71875 -17.6875,0 0,-17.71875 17.6875,0 0,-17.71875 -17.6875,0 0,-17.7187 17.6875,0 0,-17.7188 -17.6875,0 0,-17.6875 17.6875,0 0,-17.7187 -17.6875,0 0,-17.7188 -17.750004,0 0,-17.7187 -17.71875,0 0,17.7187 -17.71875,0 0,-17.7187 -17.71875,0 0,17.7187 -17.71875,0 0,-17.7187 -17.71875,0 0,17.7187 -17.71875,0 0,-17.7187 -17.71875,0 0,17.7187 -17.6875,0 0,-17.7187 -17.71875,0 z m 35.40625,159.43745 17.71875,0 0,17.71875 -17.71875,0 0,-17.71875 z m 35.4375,0 17.71875,0 0,17.71875 -17.71875,0 0,-17.71875 z m 35.4375,0 17.71875,0 0,17.71875 -17.71875,0 0,-17.71875 z m 35.4375,0 17.71875,0 0,17.71875 -17.71875,0 0,-17.71875 z m 0.0625,542.125 c 3.91383,0 7.0625,3.17992 7.0625,7.09375 0,3.91383 -3.14867,7.09375 -7.0625,7.09375 -3.91383,0 -7.09375,-3.17992 -7.09375,-7.09375 0,-3.91383 3.17992,-7.09375 7.09375,-7.09375 z m -67.9375,29.5 c 2.2316,0 4.0625,1.79975 4.0625,4.03125 0,2.2316 -1.8309,4.0625 -4.0625,4.0625 -2.2315,0 -4.03125,-1.8309 -4.03125,-4.0625 0,-2.2315 1.79975,-4.03125 4.03125,-4.03125 z m 0.6875,38.125 c 3.2325,0 5.84375,2.61125 5.84375,5.84375 0,3.2326 -2.61125,5.84375 -5.84375,5.84375 -3.2326,0 -5.84375,-2.61115 -5.84375,-5.84375 0,-3.2325 2.61115,-5.84375 5.84375,-5.84375 z m 34.9375,21.4375 c 2.2316,0 4.03125,1.79975 4.03125,4.03125 0,2.2316 -1.79965,4.03125 -4.03125,4.03125 -2.2315,0 -4.03125,-1.79965 -4.03125,-4.03125 0,-2.2315 1.79975,-4.03125 4.03125,-4.03125 z m -69.4375,1.03125 c 2.2315,0 4.03125,1.831 4.03125,4.0625 0,2.2316 -1.79975,4.03125 -4.03125,4.03125 -2.2316,0 -4.03125,-1.79965 -4.03125,-4.03125 0,-2.2315 1.79965,-4.0625 4.03125,-4.0625 z"
       id="path5104"
       inkscape:connector-curvature="0" />
    <path
       style="fill:#0000ff;fill-opacity:1;stroke:none"
       d="m -29.370576,-1306.473 0,17.7188 -17.71875,0 0,17.6875 17.71875,0 0,17.7187 -17.71875,0 0,17.7188 17.71875,0 0,17.7187 -17.71875,0 0,17.7188 17.71875,0 0,17.7187 -17.71875,0 0,17.7188 17.71875,0 0,17.7187 -17.71875,0 0,17.7188 0,17.7187 17.71875,0 0,-17.7187 17.71875,0 0,17.7187 17.7187496,0 0,-17.7187 17.6875004,0 0,17.7187 17.71875,0 0,-17.7187 17.71875,0 0,17.7187 17.71875,0 0,-17.7187 17.71875,0 0,17.7187 17.718746,0 0,-17.7187 17.71875,0 0,17.7187 17.71875,0 0,-17.7187 17.71875,0 0,17.7187 17.71875,0 0,-17.7187 17.71875,0 0,17.7187 17.71875,0 0,-17.7187 17.71875,0 0,17.7187 17.71875,0 0,-17.7187 17.6875,0 0,17.7187 17.71875,0 0,-17.7187 17.71875,0 0,17.7187 17.71875,0 0,-17.7187 17.71875,0 0,17.7187 17.71875,0 0,-17.7187 17.71875,0 0,17.7187 17.71875,0 0,-17.7187 17.71875,0 0,17.7187 17.71875,0 0,-17.7187 17.71875,0 0,17.7187 17.71875,0 0,-17.7187 17.71875,0 0,17.7187 17.71875,0 0,-17.7187 17.6875,0 0,17.7187 17.71875,0 0,-17.7187 17.71875,0 0,17.7187 17.71875,0 0,-17.7187 17.71875,0 0,17.7187 17.71875,0 0,-17.7187 17.71875,0 0,17.7187 17.7188,0 0,-17.7187 17.7187,0 0,17.7187 17.7187,0 0,-17.7187 17.7188,0 0,17.7187 17.7188,0 0,-17.7187 17.7187,0 0,17.7187 17.7187,0 0,-35.4375 -17.7187,0 0,-17.7187 17.7187,0 0,-17.7188 -17.7187,0 0,-17.7187 17.7187,0 0,-17.7188 -17.7187,0 0,-17.7187 17.7187,0 0,-17.7188 -17.7187,0 0,-17.7187 17.7187,0 0,-17.6875 -17.7187,0 0,-17.7188 -35.4375,0 -726.374996,0 z m 161.468746,79.7813 c 2.93537,0 5.3125,2.3771 5.3125,5.3125 0,2.9353 -2.37713,5.3125 -5.3125,5.3125 -2.93537,0 -5.3125,-2.3772 -5.3125,-5.3125 0,-2.9354 2.37713,-5.3125 5.3125,-5.3125 z m 431.625,0 c 2.93537,0 5.3125,2.3771 5.3125,5.3125 0,2.9353 -2.37713,5.3125 -5.3125,5.3125 -2.93537,0 -5.3125,-2.3772 -5.3125,-5.3125 0,-2.9354 2.37713,-5.3125 5.3125,-5.3125 z"
       id="rect5106"
       inkscape:connector-curvature="0" />
    <path
       style="fill:#0000ff;fill-opacity:1;stroke:none"
       d="m -11.651826,-4.6748185 0,17.7187505 -17.71875,0 0,-0.0312 -17.71875,0 0,0.0312 0,17.71875 17.71875,0 0,17.71875 -17.71875,0 0,17.71875 17.71875,0 0,17.71875 -17.71875,0 0,17.718748 17.71875,0 0,17.71875 -17.71875,0 0,17.71875 17.71875,0 0,17.71875 -17.71875,0 0,17.6875 17.71875,0 0,17.71875 655.499996,0 53.1562,0 17.7188,0 35.4375,0 0,-17.71875 17.7187,0 0,-17.71875 -17.7187,0 0,-17.71875 17.7187,0 0,-17.71875 -17.7187,0 0,-17.71875 17.7187,0 0,-17.718748 -17.7187,0 0,-17.71875 17.7187,0 0,-17.71875 -17.7187,0 0,-17.71875 17.7187,0 0,-17.71875 -17.7187,0 -17.7187,0 0,-17.6875005 -17.7188,0 0,17.6875005 0,0.0312 -17.7188,0 0,-17.7187505 -17.7187,0 0,17.7187505 -17.7187,0 0,-17.7187505 -17.7188,0 0,17.7187505 -17.71875,0 0,-17.7187505 -17.71875,0 0,17.7187505 -17.71875,0 0,-17.7187505 -17.71875,0 0,17.7187505 -17.71875,0 0,-17.7187505 -17.71875,0 0,17.7187505 -17.6875,0 0,-17.7187505 -17.71875,0 0,17.7187505 -17.71875,0 0,-17.7187505 -17.71875,0 0,17.7187505 -17.71875,0 0,-17.7187505 -17.71875,0 0,17.7187505 -17.71875,0 0,-17.7187505 -17.71875,0 0,17.7187505 -17.71875,0 0,-17.7187505 -17.71875,0 0,17.7187505 -17.71875,0 0,-17.7187505 -17.71875,0 0,17.7187505 -17.71875,0 0,-17.7187505 -17.71875,0 0,17.7187505 -17.6875,0 0,-17.7187505 -17.71875,0 0,17.7187505 -17.71875,0 0,-17.7187505 -17.71875,0 0,17.7187505 -17.71875,0 0,-17.7187505 -17.71875,0 0,17.7187505 -17.71875,0 0,-17.7187505 -17.71875,0 0,17.7187505 -17.71875,0 0,-17.7187505 -17.718746,0 0,17.7187505 -17.71875,0 0,-17.7187505 -17.71875,0 0,17.7187505 -17.71875,0 0,-17.7187505 -17.71875,0 0,17.7187505 -17.6875004,0 0,-17.7187505 -17.7187496,0 z m 566.906246,35.4062505 17.71875,0 0,17.71875 -17.71875,0 0,-17.71875 z m 0,35.4375 17.71875,0 0,17.71875 -17.71875,0 0,-17.71875 z m 0,35.437498 17.71875,0 0,17.71875 -17.71875,0 0,-17.71875 z m 0,35.4375 17.71875,0 0,17.71875 -17.71875,0 0,-17.71875 z M 32.848174,148.51268 c 7.82766,0 14.15625,6.35984 14.15625,14.1875 0,7.82766 -6.32859,14.15625 -14.15625,14.15625 -7.82766,0 -14.1875,-6.32859 -14.1875,-14.15625 0,-7.82766 6.35984,-14.1875 14.1875,-14.1875 z m 626.000046,0 c 7.8274,0 14.1562,6.35984 14.1562,14.1875 0,7.82766 -6.3288,14.15625 -14.1562,14.15625 -7.8279,0 -14.1876,-6.32859 -14.1876,-14.15625 0,-7.82766 6.3597,-14.1875 14.1876,-14.1875 z"
       id="path5290"
       inkscape:connector-curvature="0" />
    <path
       style="fill:#0000ff;fill-opacity:1;stroke:none"
       d="m 185.69055,206.94091 0,17.71875 -17.7188,0 0,17.71875 -17.6875,0 0,17.71875 17.6875,0 0,17.71875 -17.6875,0 0,17.6875 17.6875,0 0,17.71875 -17.6875,0 0,17.71875 17.6875,0 0,17.71875 -17.6875,0 0,17.71875 17.6875,0 0,17.71875 -17.6875,0 0,17.71875 17.6875,0 106.3125,0 0,-141.71875 389.74997,0 0,141.71875 194.9063,0 35.4374,0 17.6876,0 17.7187,0 17.7187,0 0,-17.71875 -17.7187,0 0,-17.71875 17.7187,0 0,-17.71875 -17.7187,0 0,-17.71875 17.7187,0 0,-17.71875 -17.7187,0 0,-17.71875 17.7187,0 0,-17.6875 -17.7187,0 0,-17.71875 17.7187,0 0,-17.71875 -17.7187,0 0,-17.71875 -17.7187,0 0,-17.71875 -17.6876,0 0,17.71875 -17.7187,0 0,-17.71875 -17.7187,0 0,17.71875 -17.7188,0 0,-17.71875 -17.7188,0 0,17.71875 -17.7187,0 0,-17.71875 -17.7187,0 0,17.71875 -17.7188,0 0,-17.71875 -17.7188,0 0,17.71875 -17.7187,0 0,-17.71875 -17.7187,0 0,17.71875 -17.7188,0 0,-17.71875 -17.7188,0 0,17.71875 -17.7187,0 0,-17.71875 -17.6875,0 0,17.71875 -17.71877,0 0,-17.71875 -17.7187,0 0,17.71875 -17.7187,0 0,-17.71875 -17.7188,0 0,17.71875 -17.7188,0 0,-17.71875 -17.7187,0 0,17.71875 -17.7187,0 0,-17.71875 -17.7188,0 0,17.71875 -17.7188,0 0,-17.71875 -17.7187,0 0,17.71875 -17.7187,0 0,-17.71875 -17.7188,0 0,17.71875 -17.7188,0 0,-17.71875 -17.6874,0 0,17.71875 -17.7188,0 0,-17.71875 -17.7188,0 0,17.71875 -17.7187,0 0,-17.71875 -17.7187,0 0,17.71875 -17.7188,0 0,-17.71875 -17.7188,0 0,17.71875 -17.7187,0 0,-17.71875 -17.7187,0 0,17.71875 -17.7188,0 0,-17.71875 -17.7188,0 0,17.71875 -17.7187,0 0,-17.71875 -17.7187,0 z m 513.78117,70.875 17.7188,0 0,17.6875 -17.7188,0 0,-17.6875 z m 53.1562,0 17.7188,0 0,17.6875 -17.7188,0 0,-17.6875 z m -53.1562,35.40625 17.7188,0 0,17.71875 -17.7188,0 0,-17.71875 z m 53.1562,0 17.7188,0 0,17.71875 -17.7188,0 0,-17.71875 z m -70.875,35.4375 17.7188,0 0,17.71875 -17.7188,0 0,-17.71875 z m 35.4376,0 17.7187,0 0,17.71875 -17.7187,0 0,-17.71875 z m 35.4374,0 17.7188,0 0,17.71875 -17.7188,0 0,-17.71875 z m -520.37497,13.28125 c 7.4283,0 13.4688,6.00977 13.4688,13.4375 0,7.42773 -6.0405,13.4375 -13.4688,13.4375 -7.4275,0 -13.4374,-6.00977 -13.4374,-13.4375 0,-7.42773 6.0099,-13.4375 13.4374,-13.4375 z m 621.12497,0 c 7.4278,0 13.4376,6.00977 13.4376,13.4375 0,7.42773 -6.0098,13.4375 -13.4376,13.4375 -7.4274,0 -13.4687,-6.00977 -13.4687,-13.4375 0,-7.42773 6.0413,-13.4375 13.4687,-13.4375 z"
       id="rect5345"
       inkscape:connector-curvature="0" />
    <rect
       style="fill:#0000ff;fill-opacity:1;stroke:none"
       id="rect5505"
       width="1311.0237"
       height="1311.0237"
       x="1258.0797"
       y="-999.71704"
       ry="1.0822374e-005" />
    <g
       id="Sat Jun 21 21:00:04 2014"
       transform="translate(0,-1107.675)">
      <g
         id="Frame.009">
        <!-- start Frame.009-->
      </g>
      <!-- end Frame.009-->
    </g>
    <g
       id="Sat Jun 21 21:02:01 2014"
       transform="translate(0,-1107.675)">
      <g
         id="Frame.009-1">
        <!-- start Frame.009-->
      </g>
      <!-- end Frame.009-->
    </g>
    <g
       id="Sat Jun 21 21:02:46 2014"
       transform="translate(0,-1107.675)">
      <g
         id="Frame.009-4">
        <!-- start Frame.009-->
      </g>
      <!-- end Frame.009-->
    </g>
    <path
       style="fill:#0000ff;fill-opacity:1;stroke:none"
       d="m -225.31636,210.52054 0,149.875 17.71875,0 0,17.7188 17.71875,0 0,-17.7188 17.71875,0 0,17.7188 17.71875,0 0,-17.7188 17.71875,0 0,17.7188 17.71875,0 0,-17.7188 17.71875,0 0,17.7188 17.718754,0 0,-17.7188 8.125,0 0,-32.9688 -116.906254,0 0,-116.9062 -32.96875,0 z m 24,15.0938 c 2.81311,0 5.09375,2.2806 5.09375,5.0937 0,2.8131 -2.28064,5.0937 -5.09375,5.0937 -2.81311,0 -5.09375,-2.2806 -5.09375,-5.0937 0,-2.8131 2.28064,-5.0937 5.09375,-5.0937 z m -0.53125,109.7812 c 0.17123,-0.0174 0.35543,0 0.53125,0 2.81311,0 5.09375,2.2807 5.09375,5.0938 0,2.8133 -2.28064,5.0937 -5.09375,5.0937 -2.81311,0 -5.09375,-2.2804 -5.09375,-5.0937 0,-2.6372 1.99403,-4.833 4.5625,-5.0938 z m 109.406254,0 c 0.17123,-0.0174 0.35543,0 0.53125,0 2.81311,0 5.09375,2.2807 5.09375,5.0938 0,2.8133 -2.28064,5.0937 -5.09375,5.0937 -2.81311,0 -5.09375,-2.2804 -5.09375,-5.0937 0,-2.6372 1.99403,-4.833 4.5625,-5.0938 z"
       id="rect6602"
       inkscape:connector-curvature="0" />
    <path
       style="fill:#0000ff;fill-opacity:1;stroke:none"
       d="m -48.185876,201.72536 0,17.71875 -17.71875,0 35.4375,53.15625 17.71875,0 35.4375,-53.15625 -17.7187504,0 0,-17.71875 -17.7187496,0 0,17.71875 -17.71875,0 0,-17.71875 -17.71875,0 z m 26.625,40.5625 c 5.08798,0 9.21875,4.13077 9.21875,9.21875 0,5.08798 -4.13077,9.21875 -9.21875,9.21875 -5.08798,0 -9.1875,-4.13077 -9.1875,-9.21875 0,-5.08798 4.09952,-9.21875 9.1875,-9.21875 z"
       id="path6703"
       inkscape:connector-curvature="0" />
    <path
       id="path6706"
       d="m -137.22546,203.03249 0,17.71875 -17.71875,0 35.4375,53.15625 17.71875,0 35.437504,-53.15625 -17.71875,0 0,-17.71875 -17.718754,0 0,17.71875 -17.71875,0 0,-17.71875 -17.71875,0 z m 26.625,40.5625 c 5.08798,0 9.21875,4.13077 9.21875,9.21875 0,5.08798 -4.13077,9.21875 -9.21875,9.21875 -5.08798,0 -9.1875,-4.13077 -9.1875,-9.21875 0,-5.08798 4.09952,-9.21875 9.1875,-9.21875 z"
       style="fill:#0000ff;fill-opacity:1;stroke:none"
       inkscape:connector-curvature="0" />
    <path
       style="fill:#0000ff;fill-opacity:1;stroke:none"
       d="m 2261.0223,758.26432 0,769.21868 769.2187,0 0,-769.21868 -769.2187,0 z m 13.75,10.2187 c 2.9085,0 5.25,2.3727 5.25,5.2813 0,2.9085 -2.3415,5.25 -5.25,5.25 -2.9085,0 -5.2813,-2.3415 -5.2813,-5.25 0,-2.9086 2.3728,-5.2813 5.2813,-5.2813 z m 740.5,0 c 2.9085,0 5.25,2.3727 5.25,5.2813 0,2.9085 -2.3415,5.25 -5.25,5.25 -2.9086,0 -5.2813,-2.3415 -5.2813,-5.25 0,-2.9086 2.3727,-5.2813 5.2813,-5.2813 z m -66.125,224.3125 c 2.9085,0 5.25,2.3415 5.25,5.25 0,2.90858 -2.3415,5.28128 -5.25,5.28128 -2.9086,0 -5.2813,-2.3727 -5.2813,-5.28128 0,-2.9085 2.3727,-5.25 5.2813,-5.25 z m -625.8437,0.125 c 2.9085,0 5.2812,2.3415 5.2812,5.25 0,2.90858 -2.3727,5.28128 -5.2812,5.28128 -2.9088,0 -5.25,-2.3727 -5.25,-5.28128 0,-2.9085 2.3412,-5.25 5.25,-5.25 z m 505.4687,86.68748 c 2.9085,0 5.2812,2.3415 5.2812,5.25 0,2.9086 -2.3727,5.2813 -5.2812,5.2813 -2.9086,0 -5.25,-2.3727 -5.25,-5.2813 0,-2.9085 2.3414,-5.25 5.25,-5.25 z m 64.6875,0 c 2.9085,0 5.25,2.3415 5.25,5.25 0,2.9086 -2.3415,5.2813 -5.25,5.2813 -2.9086,0 -5.2813,-2.3727 -5.2813,-5.2813 0,-2.9085 2.3727,-5.25 5.2813,-5.25 z m -64.6875,117.5937 c 2.9085,0 5.2812,2.3728 5.2812,5.2813 0,2.9085 -2.3727,5.25 -5.2812,5.25 -2.9086,0 -5.25,-2.3415 -5.25,-5.25 0,-2.9085 2.3414,-5.2813 5.25,-5.2813 z m 64.6875,0 c 2.9085,0 5.25,2.3728 5.25,5.2813 0,2.9085 -2.3415,5.25 -5.25,5.25 -2.9086,0 -5.2813,-2.3415 -5.2813,-5.25 0,-2.9085 2.3727,-5.2813 5.2813,-5.2813 z m -570.1562,84.7813 c 2.9085,0 5.2812,2.3725 5.2812,5.2813 0,2.9085 -2.3727,5.25 -5.2812,5.25 -2.9088,0 -5.25,-2.3415 -5.25,-5.25 0,-2.9088 2.3412,-5.2813 5.25,-5.2813 z m 625.8124,0 c 2.9085,0 5.25,2.3725 5.25,5.2813 0,2.9085 -2.3415,5.25 -5.25,5.25 -2.9085,0 -5.2812,-2.3415 -5.2812,-5.25 0,-2.9088 2.3727,-5.2813 5.2812,-5.2813 z m -674.3437,227.4687 c 2.9085,0 5.25,2.3728 5.25,5.2813 0,2.9085 -2.3415,5.25 -5.25,5.25 -2.9085,0 -5.2813,-2.3415 -5.2813,-5.25 0,-2.9085 2.3728,-5.2813 5.2813,-5.2813 z m 740.5,0 c 2.9085,0 5.25,2.3728 5.25,5.2813 0,2.9085 -2.3415,5.25 -5.25,5.25 -2.9086,0 -5.2813,-2.3415 -5.2813,-5.25 0,-2.9085 2.3727,-5.2813 5.2813,-5.2813 z"
       id="rect6718"
       inkscape:connector-curvature="0" />
    <path
       style="fill:#0000ff;fill-opacity:1;stroke:none"
       d="m 634.39592,270.0769 c -10.84931,0 -19.62501,8.807 -19.62501,19.6563 0,10.8493 8.7757,19.6563 19.62501,19.6563 10.8493,0 19.6563,-8.807 19.6563,-19.6563 0,-10.8493 -8.807,-19.6563 -19.6563,-19.6563 z m 0,5.625 c 7.748,0 14.0313,6.2833 14.0313,14.0313 0,7.748 -6.2833,14.0313 -14.0313,14.0313 -7.74801,0 -14.03131,-6.2833 -14.03131,-14.0313 0,-7.748 6.2833,-14.0313 14.03131,-14.0313 z"
       id="path7584"
       inkscape:connector-curvature="0" />
    <path
       inkscape:connector-curvature="0"
       id="path7587"
       d="m 590.89591,270.0769 c -10.8493,0 -19.625,8.807 -19.625,19.6563 0,10.8493 8.7757,19.6563 19.625,19.6563 10.8493,0 19.6563,-8.807 19.6563,-19.6563 0,-10.8493 -8.807,-19.6563 -19.6563,-19.6563 z m 0,5.625 c 7.748,0 14.0313,6.2833 14.0313,14.0313 0,7.748 -6.2833,14.0313 -14.0313,14.0313 -7.748,0 -14.0313,-6.2833 -14.0313,-14.0313 0,-7.748 6.2833,-14.0313 14.0313,-14.0313 z"
       style="fill:#0000ff;fill-opacity:1;stroke:none" />
    <path
       style="fill:#0000ff;fill-opacity:1;stroke:none"
       d="m 545.89591,270.0769 c -10.8493,0 -19.625,8.807 -19.625,19.6563 0,10.8493 8.7757,19.6563 19.625,19.6563 10.8493,0 19.6563,-8.807 19.6563,-19.6563 0,-10.8493 -8.807,-19.6563 -19.6563,-19.6563 z m 0,5.625 c 7.748,0 14.0313,6.2833 14.0313,14.0313 0,7.748 -6.2833,14.0313 -14.0313,14.0313 -7.748,0 -14.0313,-6.2833 -14.0313,-14.0313 0,-7.748 6.2833,-14.0313 14.0313,-14.0313 z"
       id="path7589"
       inkscape:connector-curvature="0" />
    <path
       inkscape:connector-curvature="0"
       id="path7591"
       d="m 503.89591,270.0769 c -10.8493,0 -19.625,8.807 -19.625,19.6563 0,10.8493 8.7757,19.6563 19.625,19.6563 10.8493,0 19.6563,-8.807 19.6563,-19.6563 0,-10.8493 -8.807,-19.6563 -19.6563,-19.6563 z m 0,5.625 c 7.748,0 14.0313,6.2833 14.0313,14.0313 0,7.748 -6.2833,14.0313 -14.0313,14.0313 -7.748,0 -14.0313,-6.2833 -14.0313,-14.0313 0,-7.748 6.2833,-14.0313 14.0313,-14.0313 z"
       style="fill:#0000ff;fill-opacity:1;stroke:none" />
    <path
       style="fill:#0000ff;fill-opacity:1;stroke:none"
       d="m 1089.2236,800.87313 0,35.4374 35.4375,0 0,-35.4374 -35.4375,0 z m 17.7187,10.625 c 3.9139,0 7.0938,3.1799 7.0938,7.0937 0,3.9138 -3.1799,7.0937 -7.0938,7.0937 -3.9138,0 -7.0937,-3.1799 -7.0937,-7.0937 0,-3.9138 3.1799,-7.0937 7.0937,-7.0937 z"
       id="rect7730"
       inkscape:connector-curvature="0" />
    <path
       inkscape:connector-curvature="0"
       id="path8219"
       d="m 634.39592,315.36654 c -10.84931,0 -19.62501,8.807 -19.62501,19.6563 0,10.8493 8.7757,19.6563 19.62501,19.6563 10.8493,0 19.6563,-8.807 19.6563,-19.6563 0,-10.8493 -8.807,-19.6563 -19.6563,-19.6563 z m 0,5.625 c 7.748,0 14.0313,6.2833 14.0313,14.0313 0,7.748 -6.2833,14.0313 -14.0313,14.0313 -7.74801,0 -14.03131,-6.2833 -14.03131,-14.0313 0,-7.748 6.2833,-14.0313 14.03131,-14.0313 z"
       style="fill:#0000ff;fill-opacity:1;stroke:none" />
    <path
       style="fill:#0000ff;fill-opacity:1;stroke:none"
       d="m 590.89591,315.36654 c -10.8493,0 -19.625,8.807 -19.625,19.6563 0,10.8493 8.7757,19.6563 19.625,19.6563 10.8493,0 19.6563,-8.807 19.6563,-19.6563 0,-10.8493 -8.807,-19.6563 -19.6563,-19.6563 z m 0,5.625 c 7.748,0 14.0313,6.2833 14.0313,14.0313 0,7.748 -6.2833,14.0313 -14.0313,14.0313 -7.748,0 -14.0313,-6.2833 -14.0313,-14.0313 0,-7.748 6.2833,-14.0313 14.0313,-14.0313 z"
       id="path8221"
       inkscape:connector-curvature="0" />
    <path
       inkscape:connector-curvature="0"
       id="path8223"
       d="m 545.89591,315.36654 c -10.8493,0 -19.625,8.807 -19.625,19.6563 0,10.8493 8.7757,19.6563 19.625,19.6563 10.8493,0 19.6563,-8.807 19.6563,-19.6563 0,-10.8493 -8.807,-19.6563 -19.6563,-19.6563 z m 0,5.625 c 7.748,0 14.0313,6.2833 14.0313,14.0313 0,7.748 -6.2833,14.0313 -14.0313,14.0313 -7.748,0 -14.0313,-6.2833 -14.0313,-14.0313 0,-7.748 6.2833,-14.0313 14.0313,-14.0313 z"
       style="fill:#0000ff;fill-opacity:1;stroke:none" />
    <path
       style="fill:#0000ff;fill-opacity:1;stroke:none"
       d="m 503.89591,315.36654 c -10.8493,0 -19.625,8.807 -19.625,19.6563 0,10.8493 8.7757,19.6563 19.625,19.6563 10.8493,0 19.6563,-8.807 19.6563,-19.6563 0,-10.8493 -8.807,-19.6563 -19.6563,-19.6563 z m 0,5.625 c 7.748,0 14.0313,6.2833 14.0313,14.0313 0,7.748 -6.2833,14.0313 -14.0313,14.0313 -7.748,0 -14.0313,-6.2833 -14.0313,-14.0313 0,-7.748 6.2833,-14.0313 14.0313,-14.0313 z"
       id="path8225"
       inkscape:connector-curvature="0" />
  </g>
</svg>
