  0
SECTION
  2
HEADER
  9
$ACADVER
  1
AC1009
  9
$INSBASE
 10
0.0
 20
0.0
 30
0.0
  9
$EXTMIN
 10
0.0
 20
0.0
 30
0.0
  9
$EXTMAX
 10
0.0
 20
0.0
 30
0.0
  0
ENDSEC
  0
SECTION
  2
TABLES
  0
TABLE
  2
VPORT
 70
1
  0
VPORT
  2
*ACTIVE
 70
0
 10
0.0
 20
0.0
 11
1.0
 21
1.0
 12
-5.0
 22
1.0
 13
0.0
 23
0.0
 14
0.1
 24
0.1
 15
0.1
 25
0.1
 16
0.0
 26
0.0
 36
1.0
 17
0.0
 27
0.0
 37
0.0
 40
10.0
 41
1.0
 42
50.0
 43
0.0
 44
0.0
 50
0.0
 51
0.0
 71
0
 72
100
 73
1
 74
1
 75
0
 76
0
 77
0
 78
0
  0
ENDTAB
  0
TABLE
  2
LTYPE
 70
8
  0
LTYPE
  2
CONTINUOUS
 70
0
  3
Solid line
 72
65
 73
0
 40
0.0
  0
LTYPE
  2
DOT
 70
0
  3
. . . . . . .
 72
65
 73
2
 40
0.25
 49
0.0
 49
-0.25
  0
LTYPE
  2
DASHED
 70
0
  3
__ __ __ __ __
 72
65
 73
2
 40
0.8
 49
0.5
 49
-0.3
  0
LTYPE
  2
DASHDOT
 70
0
  3
__ . __ . __ .
 72
65
 73
4
 40
1.0
 49
0.5
 49
-0.25
 49
0.0
 49
-0.25
  0
LTYPE
  2
DIVIDE
 70
0
  3
____ . . ____ . . 
 72
65
 73
6
 40
1.25
 49
0.5
 49
-0.25
 49
0.0
 49
-0.25
 49
0.0
 49
-0.25
  0
LTYPE
  2
BORDER
 70
0
  3
__ __ . __ __ . 
 72
65
 73
6
 40
1.75
 49
0.5
 49
-0.25
 49
0.5
 49
-0.25
 49
0.0
 49
-0.25
  0
LTYPE
  2
HIDDEN
 70
0
  3
__ __ __ __ __
 72
65
 73
2
 40
0.4
 49
0.25
 49
-0.25
  0
LTYPE
  2
CENTER
 70
0
  3
____ _ ____ _ __
 72
65
 73
4
 40
2.0
 49
1.25
 49
-0.25
 49
0.25
 49
-0.25
  0
ENDTAB
  0
TABLE
  2
LAYER
 70
1
  0
LAYER
  2
PYDXF
 70
64
 62
7
  6
continuous
  0
ENDTAB
  0
TABLE
  2
STYLE
 70
1
  0
STYLE
  2
STANDARD
 70
0
 40
0
 41
1.0
 50
0.0
 71
0
 42
1
 3
ARIAL.TTF
 4

  0
ENDTAB
  0
TABLE
  2
VIEW
 70
1
  0
VIEW
  2
BF_TOPVIEW
 70
0
 40
120.0
 10
0.0
 20
0.0
 41
200.0
 11
0.0
 21
0.0
 31
1.0
 12
0.0
 22
0.0
 32
0.0
 42
50.0
 43
0.0
 44
0.0
 50
0.0
 71
0
  0
ENDTAB
  0
ENDSEC
  0
SECTION
  2
BLOCKS
  0
ENDSEC
  0
SECTION
  2
ENTITIES
  0
POLYLINE
  8
0
 70
64
 66
1
 10
0.0
 20
0.0
 30
0.0
 71
180
 72
190
  0
VERTEX
  8
0
 10
383.179443359375
 20
29.522485733032227
 30
44.73917007446289
 70
192
  0
VERTEX
  8
0
 10
382.84564208984375
 20
29.522483825683594
 30
44.73917007446289
 70
192
  0
VERTEX
  8
0
 10
382.5118713378906
 20
29.522483825683594
 30
44.73917007446289
 70
192
  0
VERTEX
  8
0
 10
382.19482421875
 20
29.522483825683594
 30
44.739166259765625
 70
192
  0
VERTEX
  8
0
 10
381.9104309082031
 20
29.522483825683594
 30
44.739166259765625
 70
192
  0
VERTEX
  8
0
 10
381.67291259765625
 20
29.522483825683594
 30
44.739166259765625
 70
192
  0
VERTEX
  8
0
 10
381.49420166015625
 20
29.52248191833496
 30
44.739166259765625
 70
192
  0
VERTEX
  8
0
 10
381.3832702636719
 20
29.52248191833496
 30
44.739166259765625
 70
192
  0
VERTEX
  8
0
 10
381.34564208984375
 20
29.52248191833496
 30
44.739166259765625
 70
192
  0
VERTEX
  8
0
 10
381.3832702636719
 20
29.52248191833496
 30
44.73916244506836
 70
192
  0
VERTEX
  8
0
 10
381.49420166015625
 20
29.52248191833496
 30
44.73916244506836
 70
192
  0
VERTEX
  8
0
 10
381.67291259765625
 20
29.522483825683594
 30
44.73916244506836
 70
192
  0
VERTEX
  8
0
 10
381.9104309082031
 20
29.522483825683594
 30
44.73916244506836
 70
192
  0
VERTEX
  8
0
 10
382.19482421875
 20
29.522483825683594
 30
44.73916244506836
 70
192
  0
VERTEX
  8
0
 10
383.4964599609375
 20
29.522485733032227
 30
44.73916244506836
 70
192
  0
VERTEX
  8
0
 10
383.7808837890625
 20
29.522485733032227
 30
44.73916244506836
 70
192
  0
VERTEX
  8
0
 10
384.0184020996094
 20
29.522485733032227
 30
44.739166259765625
 70
192
  0
VERTEX
  8
0
 10
384.19708251953125
 20
29.522485733032227
 30
44.739166259765625
 70
192
  0
VERTEX
  8
0
 10
384.30804443359375
 20
29.522485733032227
 30
44.739166259765625
 70
192
  0
VERTEX
  8
0
 10
384.34564208984375
 20
29.522485733032227
 30
44.739166259765625
 70
192
  0
VERTEX
  8
0
 10
384.30804443359375
 20
29.522485733032227
 30
44.739166259765625
 70
192
  0
VERTEX
  8
0
 10
384.1971130371094
 20
29.522485733032227
 30
44.73917007446289
 70
192
  0
VERTEX
  8
0
 10
384.0184020996094
 20
29.522485733032227
 30
44.73917007446289
 70
192
  0
VERTEX
  8
0
 10
383.7808837890625
 20
29.522485733032227
 30
44.73917007446289
 70
192
  0
VERTEX
  8
0
 10
383.4964904785156
 20
29.522485733032227
 30
44.73917007446289
 70
192
  0
VERTEX
  8
0
 10
382.5118713378906
 20
29.522483825683594
 30
44.73916244506836
 70
192
  0
VERTEX
  8
0
 10
382.84564208984375
 20
29.522483825683594
 30
44.73916244506836
 70
192
  0
VERTEX
  8
0
 10
383.1794128417969
 20
29.522485733032227
 30
44.73916244506836
 70
192
  0
VERTEX
  8
0
 10
382.5118103027344
 20
29.522483825683594
 30
44.73910140991211
 70
192
  0
VERTEX
  8
0
 10
382.19476318359375
 20
29.522483825683594
 30
44.73910140991211
 70
192
  0
VERTEX
  8
0
 10
382.8455810546875
 20
29.522483825683594
 30
44.739097595214844
 70
192
  0
VERTEX
  8
0
 10
382.51177978515625
 20
29.522483825683594
 30
44.739097595214844
 70
192
  0
VERTEX
  8
0
 10
382.19476318359375
 20
29.522483825683594
 30
44.739097595214844
 70
192
  0
VERTEX
  8
0
 10
383.1793518066406
 20
29.522485733032227
 30
44.739097595214844
 70
192
  0
VERTEX
  8
0
 10
383.49639892578125
 20
29.522485733032227
 30
44.739097595214844
 70
192
  0
VERTEX
  8
0
 10
381.91033935546875
 20
29.522483825683594
 30
44.73910140991211
 70
192
  0
VERTEX
  8
0
 10
381.6728210449219
 20
29.522483825683594
 30
44.73910140991211
 70
192
  0
VERTEX
  8
0
 10
381.494140625
 20
29.52248191833496
 30
44.73910140991211
 70
192
  0
VERTEX
  8
0
 10
381.3831787109375
 20
29.52248191833496
 30
44.73910140991211
 70
192
  0
VERTEX
  8
0
 10
381.3455810546875
 20
29.52248191833496
 30
44.739097595214844
 70
192
  0
VERTEX
  8
0
 10
381.3831787109375
 20
29.52248191833496
 30
44.739097595214844
 70
192
  0
VERTEX
  8
0
 10
383.78082275390625
 20
29.522485733032227
 30
44.739097595214844
 70
192
  0
VERTEX
  8
0
 10
384.018310546875
 20
29.522485733032227
 30
44.739097595214844
 70
192
  0
VERTEX
  8
0
 10
384.197021484375
 20
29.522485733032227
 30
44.73910140991211
 70
192
  0
VERTEX
  8
0
 10
383.49639892578125
 20
29.522485733032227
 30
44.739105224609375
 70
192
  0
VERTEX
  8
0
 10
383.78082275390625
 20
29.522485733032227
 30
44.739105224609375
 70
192
  0
VERTEX
  8
0
 10
381.494140625
 20
29.52248191833496
 30
44.739097595214844
 70
192
  0
VERTEX
  8
0
 10
381.6728210449219
 20
29.522483825683594
 30
44.739097595214844
 70
192
  0
VERTEX
  8
0
 10
381.91033935546875
 20
29.522483825683594
 30
44.739097595214844
 70
192
  0
VERTEX
  8
0
 10
384.197021484375
 20
29.522485733032227
 30
44.73910140991211
 70
192
  0
VERTEX
  8
0
 10
384.3079528808594
 20
29.522485733032227
 30
44.73910140991211
 70
192
  0
VERTEX
  8
0
 10
382.8455810546875
 20
29.522483825683594
 30
44.739105224609375
 70
192
  0
VERTEX
  8
0
 10
383.1793518066406
 20
29.522485733032227
 30
44.739105224609375
 70
192
  0
VERTEX
  8
0
 10
384.3079528808594
 20
29.522485733032227
 30
44.73910140991211
 70
192
  0
VERTEX
  8
0
 10
384.3455810546875
 20
29.522485733032227
 30
44.73910140991211
 70
192
  0
VERTEX
  8
0
 10
384.0183410644531
 20
29.522485733032227
 30
44.73910140991211
 70
192
  0
VERTEX
  8
0
 10
415.3079528808594
 20
29.522523880004883
 30
44.73912811279297
 70
192
  0
VERTEX
  8
0
 10
415.197021484375
 20
29.522523880004883
 30
44.73912811279297
 70
192
  0
VERTEX
  8
0
 10
415.018310546875
 20
29.522523880004883
 30
44.73912811279297
 70
192
  0
VERTEX
  8
0
 10
414.7807922363281
 20
29.52252197265625
 30
44.73912811279297
 70
192
  0
VERTEX
  8
0
 10
412.3455810546875
 20
29.522520065307617
 30
44.7391242980957
 70
192
  0
VERTEX
  8
0
 10
412.3831787109375
 20
29.522520065307617
 30
44.7391242980957
 70
192
  0
VERTEX
  8
0
 10
413.8455810546875
 20
29.52252197265625
 30
44.73912811279297
 70
192
  0
VERTEX
  8
0
 10
414.1793518066406
 20
29.52252197265625
 30
44.73912811279297
 70
192
  0
VERTEX
  8
0
 10
414.49639892578125
 20
29.52252197265625
 30
44.73912811279297
 70
192
  0
VERTEX
  8
0
 10
413.51177978515625
 20
29.52252197265625
 30
44.73912811279297
 70
192
  0
VERTEX
  8
0
 10
413.1947326660156
 20
29.522520065307617
 30
44.73912811279297
 70
192
  0
VERTEX
  8
0
 10
412.91033935546875
 20
29.522520065307617
 30
44.73912811279297
 70
192
  0
VERTEX
  8
0
 10
414.1793518066406
 20
29.52252197265625
 30
44.7391242980957
 70
192
  0
VERTEX
  8
0
 10
414.49639892578125
 20
29.52252197265625
 30
44.7391242980957
 70
192
  0
VERTEX
  8
0
 10
414.7807922363281
 20
29.52252197265625
 30
44.7391242980957
 70
192
  0
VERTEX
  8
0
 10
415.018310546875
 20
29.522523880004883
 30
44.7391242980957
 70
192
  0
VERTEX
  8
0
 10
415.197021484375
 20
29.522523880004883
 30
44.7391242980957
 70
192
  0
VERTEX
  8
0
 10
415.3079528808594
 20
29.522523880004883
 30
44.73912811279297
 70
192
  0
VERTEX
  8
0
 10
415.3455810546875
 20
29.522523880004883
 30
44.73912811279297
 70
192
  0
VERTEX
  8
0
 10
412.6728210449219
 20
29.522520065307617
 30
44.73912811279297
 70
192
  0
VERTEX
  8
0
 10
412.4941101074219
 20
29.522520065307617
 30
44.73912811279297
 70
192
  0
VERTEX
  8
0
 10
412.3831787109375
 20
29.522520065307617
 30
44.7391242980957
 70
192
  0
VERTEX
  8
0
 10
412.4941101074219
 20
29.522520065307617
 30
44.7391242980957
 70
192
  0
VERTEX
  8
0
 10
412.6728210449219
 20
29.522520065307617
 30
44.7391242980957
 70
192
  0
VERTEX
  8
0
 10
412.91033935546875
 20
29.522520065307617
 30
44.7391242980957
 70
192
  0
VERTEX
  8
0
 10
413.1947326660156
 20
29.522520065307617
 30
44.7391242980957
 70
192
  0
VERTEX
  8
0
 10
413.51177978515625
 20
29.52252197265625
 30
44.7391242980957
 70
192
  0
VERTEX
  8
0
 10
413.8455810546875
 20
29.52252197265625
 30
44.7391242980957
 70
192
  0
VERTEX
  8
0
 10
413.19482421875
 20
29.522520065307617
 30
44.739192962646484
 70
192
  0
VERTEX
  8
0
 10
412.910400390625
 20
29.522520065307617
 30
44.739192962646484
 70
192
  0
VERTEX
  8
0
 10
412.6728820800781
 20
29.522520065307617
 30
44.739192962646484
 70
192
  0
VERTEX
  8
0
 10
414.4964904785156
 20
29.52252197265625
 30
44.73919677734375
 70
192
  0
VERTEX
  8
0
 10
414.1794128417969
 20
29.52252197265625
 30
44.73919677734375
 70
192
  0
VERTEX
  8
0
 10
413.84564208984375
 20
29.52252197265625
 30
44.739192962646484
 70
192
  0
VERTEX
  8
0
 10
413.5118713378906
 20
29.52252197265625
 30
44.739192962646484
 70
192
  0
VERTEX
  8
0
 10
415.30804443359375
 20
29.522523880004883
 30
44.739192962646484
 70
192
  0
VERTEX
  8
0
 10
415.19708251953125
 20
29.522523880004883
 30
44.739192962646484
 70
192
  0
VERTEX
  8
0
 10
415.0184020996094
 20
29.522523880004883
 30
44.739192962646484
 70
192
  0
VERTEX
  8
0
 10
414.7808837890625
 20
29.52252197265625
 30
44.739192962646484
 70
192
  0
VERTEX
  8
0
 10
412.38323974609375
 20
29.522520065307617
 30
44.73918914794922
 70
192
  0
VERTEX
  8
0
 10
412.49420166015625
 20
29.522520065307617
 30
44.73918914794922
 70
192
  0
VERTEX
  8
0
 10
415.0184020996094
 20
29.522523880004883
 30
44.73918914794922
 70
192
  0
VERTEX
  8
0
 10
414.7808837890625
 20
29.52252197265625
 30
44.73918914794922
 70
192
  0
VERTEX
  8
0
 10
414.4964599609375
 20
29.52252197265625
 30
44.73918914794922
 70
192
  0
VERTEX
  8
0
 10
412.49420166015625
 20
29.522520065307617
 30
44.739192962646484
 70
192
  0
VERTEX
  8
0
 10
412.38323974609375
 20
29.522520065307617
 30
44.73918914794922
 70
192
  0
VERTEX
  8
0
 10
412.34564208984375
 20
29.522520065307617
 30
44.73918914794922
 70
192
  0
VERTEX
  8
0
 10
412.6728820800781
 20
29.522520065307617
 30
44.73918914794922
 70
192
  0
VERTEX
  8
0
 10
412.910400390625
 20
29.522520065307617
 30
44.73918914794922
 70
192
  0
VERTEX
  8
0
 10
413.1947937011719
 20
29.522520065307617
 30
44.73918914794922
 70
192
  0
VERTEX
  8
0
 10
415.19708251953125
 20
29.522523880004883
 30
44.739192962646484
 70
192
  0
VERTEX
  8
0
 10
415.30804443359375
 20
29.522523880004883
 30
44.739192962646484
 70
192
  0
VERTEX
  8
0
 10
415.34564208984375
 20
29.522523880004883
 30
44.739192962646484
 70
192
  0
VERTEX
  8
0
 10
413.5118713378906
 20
29.52252197265625
 30
44.73918914794922
 70
192
  0
VERTEX
  8
0
 10
413.84564208984375
 20
29.52252197265625
 30
44.73918914794922
 70
192
  0
VERTEX
  8
0
 10
414.1794128417969
 20
29.52252197265625
 30
44.73918914794922
 70
192
  0
VERTEX
  8
0
 10
398.3692626953125
 20
29.522502899169922
 30
44.739097595214844
 70
192
  0
VERTEX
  8
0
 10
378.2406311035156
 20
29.522478103637695
 30
44.73917770385742
 70
192
  0
VERTEX
  8
0
 10
423.2405700683594
 20
29.522533416748047
 30
44.73905563354492
 70
192
  0
VERTEX
  8
0
 10
411.0563049316406
 20
29.522518157958984
 30
44.73906326293945
 70
192
  0
VERTEX
  8
0
 10
410.2759094238281
 20
29.522518157958984
 30
44.73906707763672
 70
192
  0
VERTEX
  8
0
 10
409.5255432128906
 20
29.52251625061035
 30
44.739070892333984
 70
192
  0
VERTEX
  8
0
 10
408.8340148925781
 20
29.52251625061035
 30
44.73906707763672
 70
192
  0
VERTEX
  8
0
 10
408.2278747558594
 20
29.52251434326172
 30
44.739070892333984
 70
192
  0
VERTEX
  8
0
 10
407.7303771972656
 20
29.52251434326172
 30
44.739078521728516
 70
192
  0
VERTEX
  8
0
 10
407.36083984375
 20
29.52251434326172
 30
44.739070892333984
 70
192
  0
VERTEX
  8
0
 10
407.1331787109375
 20
29.52251434326172
 30
44.73907470703125
 70
192
  0
VERTEX
  8
0
 10
407.05633544921875
 20
29.52251434326172
 30
44.73906707763672
 70
192
  0
VERTEX
  8
0
 10
407.1331787109375
 20
29.52251434326172
 30
44.73906707763672
 70
192
  0
VERTEX
  8
0
 10
407.36083984375
 20
29.52251434326172
 30
44.739070892333984
 70
192
  0
VERTEX
  8
0
 10
407.73046875
 20
29.52251434326172
 30
44.73906326293945
 70
192
  0
VERTEX
  8
0
 10
408.2279052734375
 20
29.52251434326172
 30
44.73906326293945
 70
192
  0
VERTEX
  8
0
 10
408.83404541015625
 20
29.52251625061035
 30
44.73905563354492
 70
192
  0
VERTEX
  8
0
 10
409.52557373046875
 20
29.52251625061035
 30
44.73905944824219
 70
192
  0
VERTEX
  8
0
 10
410.2760009765625
 20
29.522518157958984
 30
44.73905563354492
 70
192
  0
VERTEX
  8
0
 10
411.05633544921875
 20
29.522518157958984
 30
44.739051818847656
 70
192
  0
VERTEX
  8
0
 10
423.24066162109375
 20
29.522533416748047
 30
44.73894119262695
 70
192
  0
VERTEX
  8
0
 10
378.2408142089844
 20
29.522478103637695
 30
44.73906707763672
 70
192
  0
VERTEX
  8
0
 10
402.6258239746094
 20
29.52250862121582
 30
44.73906707763672
 70
192
  0
VERTEX
  8
0
 10
403.3744201660156
 20
29.52250862121582
 30
44.739070892333984
 70
192
  0
VERTEX
  8
0
 10
403.9306945800781
 20
29.522510528564453
 30
44.739070892333984
 70
192
  0
VERTEX
  8
0
 10
404.27325439453125
 20
29.522510528564453
 30
44.739070892333984
 70
192
  0
VERTEX
  8
0
 10
404.388916015625
 20
29.522510528564453
 30
44.73907470703125
 70
192
  0
VERTEX
  8
0
 10
404.27325439453125
 20
29.522510528564453
 30
44.739078521728516
 70
192
  0
VERTEX
  8
0
 10
403.9306945800781
 20
29.522510528564453
 30
44.739078521728516
 70
192
  0
VERTEX
  8
0
 10
403.3744201660156
 20
29.52250862121582
 30
44.73908233642578
 70
192
  0
VERTEX
  8
0
 10
402.62579345703125
 20
29.52250862121582
 30
44.73908615112305
 70
192
  0
VERTEX
  8
0
 10
401.7135925292969
 20
29.522506713867188
 30
44.73908996582031
 70
192
  0
VERTEX
  8
0
 10
400.6728820800781
 20
29.522506713867188
 30
44.73909378051758
 70
192
  0
VERTEX
  8
0
 10
399.54364013671875
 20
29.522504806518555
 30
44.739097595214844
 70
192
  0
VERTEX
  8
0
 10
393.3641662597656
 20
29.522497177124023
 30
44.73910903930664
 70
192
  0
VERTEX
  8
0
 10
392.8078918457031
 20
29.522497177124023
 30
44.73910903930664
 70
192
  0
VERTEX
  8
0
 10
392.46533203125
 20
29.52249526977539
 30
44.73910903930664
 70
192
  0
VERTEX
  8
0
 10
392.34967041015625
 20
29.52249526977539
 30
44.739105224609375
 70
192
  0
VERTEX
  8
0
 10
392.46533203125
 20
29.52249526977539
 30
44.73910140991211
 70
192
  0
VERTEX
  8
0
 10
392.8078918457031
 20
29.522497177124023
 30
44.73910140991211
 70
192
  0
VERTEX
  8
0
 10
393.3641662597656
 20
29.522497177124023
 30
44.739097595214844
 70
192
  0
VERTEX
  8
0
 10
394.11279296875
 20
29.522497177124023
 30
44.739097595214844
 70
192
  0
VERTEX
  8
0
 10
395.02496337890625
 20
29.522499084472656
 30
44.73909378051758
 70
192
  0
VERTEX
  8
0
 10
396.065673828125
 20
29.52250099182129
 30
44.73908996582031
 70
192
  0
VERTEX
  8
0
 10
397.1949157714844
 20
29.52250099182129
 30
44.73908233642578
 70
192
  0
VERTEX
  8
0
 10
398.3692932128906
 20
29.522502899169922
 30
44.73908233642578
 70
192
  0
VERTEX
  8
0
 10
399.5436706542969
 20
29.522504806518555
 30
44.739078521728516
 70
192
  0
VERTEX
  8
0
 10
400.67291259765625
 20
29.522506713867188
 30
44.739078521728516
 70
192
  0
VERTEX
  8
0
 10
401.713623046875
 20
29.522506713867188
 30
44.73907470703125
 70
192
  0
VERTEX
  8
0
 10
397.19488525390625
 20
29.52250099182129
 30
44.73910140991211
 70
192
  0
VERTEX
  8
0
 10
396.0656433105469
 20
29.52250099182129
 30
44.73910903930664
 70
192
  0
VERTEX
  8
0
 10
395.0249328613281
 20
29.522499084472656
 30
44.73910903930664
 70
192
  0
VERTEX
  8
0
 10
394.11273193359375
 20
29.522497177124023
 30
44.739112854003906
 70
192
  0
VERTEX
  8
0
 10
411.836669921875
 20
29.522520065307617
 30
44.73904800415039
 70
192
  0
VERTEX
  8
0
 10
412.58709716796875
 20
29.522520065307617
 30
44.73904800415039
 70
192
  0
VERTEX
  8
0
 10
413.27862548828125
 20
29.52252197265625
 30
44.739051818847656
 70
192
  0
VERTEX
  8
0
 10
413.884765625
 20
29.52252197265625
 30
44.73904800415039
 70
192
  0
VERTEX
  8
0
 10
414.3822021484375
 20
29.52252197265625
 30
44.739044189453125
 70
192
  0
VERTEX
  8
0
 10
414.7518310546875
 20
29.52252197265625
 30
44.739051818847656
 70
192
  0
VERTEX
  8
0
 10
414.9794921875
 20
29.522523880004883
 30
44.739044189453125
 70
192
  0
VERTEX
  8
0
 10
415.05633544921875
 20
29.522523880004883
 30
44.739051818847656
 70
192
  0
VERTEX
  8
0
 10
414.9794921875
 20
29.522523880004883
 30
44.73904800415039
 70
192
  0
VERTEX
  8
0
 10
414.7518310546875
 20
29.52252197265625
 30
44.73905944824219
 70
192
  0
VERTEX
  8
0
 10
414.3821716308594
 20
29.52252197265625
 30
44.73905944824219
 70
192
  0
VERTEX
  8
0
 10
413.8846740722656
 20
29.52252197265625
 30
44.73905563354492
 70
192
  0
VERTEX
  8
0
 10
413.2785339355469
 20
29.52252197265625
 30
44.73905944824219
 70
192
  0
VERTEX
  8
0
 10
412.5870056152344
 20
29.522520065307617
 30
44.73905944824219
 70
192
  0
VERTEX
  8
0
 10
411.8366394042969
 20
29.522520065307617
 30
44.73905944824219
 70
192
  0
VERTEX
  8
0
 10
0.0
 20
0.0
 30
0.0
 70
128
 71
151
 72
152
 73
45
  0
VERTEX
  8
0
 10
0.0
 20
0.0
 30
0.0
 70
128
 71
33
 72
32
 73
134
  0
VERTEX
  8
0
 10
0.0
 20
0.0
 30
0.0
 70
128
 71
114
 72
5
 73
6
  0
VERTEX
  8
0
 10
0.0
 20
0.0
 30
0.0
 70
128
 71
16
 72
17
 73
164
  0
VERTEX
  8
0
 10
0.0
 20
0.0
 30
0.0
 70
128
 71
151
 72
45
 73
150
  0
VERTEX
  8
0
 10
0.0
 20
0.0
 30
0.0
 70
128
 71
49
 72
33
 73
134
  0
VERTEX
  8
0
 10
0.0
 20
0.0
 30
0.0
 70
128
 71
114
 72
6
 73
7
  0
VERTEX
  8
0
 10
0.0
 20
0.0
 30
0.0
 70
128
 71
15
 72
16
 73
164
  0
VERTEX
  8
0
 10
0.0
 20
0.0
 30
0.0
 70
128
 71
45
 72
149
 73
150
  0
VERTEX
  8
0
 10
0.0
 20
0.0
 30
0.0
 70
128
 71
48
 72
49
 73
134
  0
VERTEX
  8
0
 10
0.0
 20
0.0
 30
0.0
 70
128
 71
114
 72
7
 73
8
  0
VERTEX
  8
0
 10
0.0
 20
0.0
 30
0.0
 70
128
 71
28
 72
15
 73
164
  0
VERTEX
  8
0
 10
0.0
 20
0.0
 30
0.0
 70
128
 71
45
 72
148
 73
149
  0
VERTEX
  8
0
 10
0.0
 20
0.0
 30
0.0
 70
128
 71
47
 72
48
 73
134
  0
VERTEX
  8
0
 10
0.0
 20
0.0
 30
0.0
 70
128
 71
114
 72
8
 73
9
  0
VERTEX
  8
0
 10
0.0
 20
0.0
 30
0.0
 70
128
 71
27
 72
28
 73
164
  0
VERTEX
  8
0
 10
0.0
 20
0.0
 30
0.0
 70
128
 71
45
 72
147
 73
148
  0
VERTEX
  8
0
 10
0.0
 20
0.0
 30
0.0
 70
128
 71
41
 72
47
 73
134
  0
VERTEX
  8
0
 10
0.0
 20
0.0
 30
0.0
 70
128
 71
134
 72
114
 73
9
  0
VERTEX
  8
0
 10
0.0
 20
0.0
 30
0.0
 70
128
 71
26
 72
27
 73
164
  0
VERTEX
  8
0
 10
0.0
 20
0.0
 30
0.0
 70
128
 71
45
 72
53
 73
147
  0
VERTEX
  8
0
 10
0.0
 20
0.0
 30
0.0
 70
128
 71
40
 72
41
 73
134
  0
VERTEX
  8
0
 10
0.0
 20
0.0
 30
0.0
 70
128
 71
134
 72
9
 73
10
  0
VERTEX
  8
0
 10
0.0
 20
0.0
 30
0.0
 70
128
 71
14
 72
26
 73
164
  0
VERTEX
  8
0
 10
0.0
 20
0.0
 30
0.0
 70
128
 71
53
 72
52
 73
147
  0
VERTEX
  8
0
 10
0.0
 20
0.0
 30
0.0
 70
128
 71
40
 72
134
 73
10
  0
VERTEX
  8
0
 10
0.0
 20
0.0
 30
0.0
 70
128
 71
13
 72
14
 73
164
  0
VERTEX
  8
0
 10
0.0
 20
0.0
 30
0.0
 70
128
 71
52
 72
29
 73
147
  0
VERTEX
  8
0
 10
0.0
 20
0.0
 30
0.0
 70
128
 71
39
 72
40
 73
10
  0
VERTEX
  8
0
 10
0.0
 20
0.0
 30
0.0
 70
128
 71
13
 72
164
 73
165
  0
VERTEX
  8
0
 10
0.0
 20
0.0
 30
0.0
 70
128
 71
29
 72
30
 73
147
  0
VERTEX
  8
0
 10
0.0
 20
0.0
 30
0.0
 70
128
 71
38
 72
39
 73
10
  0
VERTEX
  8
0
 10
0.0
 20
0.0
 30
0.0
 70
128
 71
13
 72
165
 73
147
  0
VERTEX
  8
0
 10
0.0
 20
0.0
 30
0.0
 70
128
 71
30
 72
36
 73
147
  0
VERTEX
  8
0
 10
0.0
 20
0.0
 30
0.0
 70
128
 71
37
 72
38
 73
10
  0
VERTEX
  8
0
 10
0.0
 20
0.0
 30
0.0
 70
128
 71
12
 72
13
 73
147
  0
VERTEX
  8
0
 10
0.0
 20
0.0
 30
0.0
 70
128
 71
36
 72
37
 73
147
  0
VERTEX
  8
0
 10
0.0
 20
0.0
 30
0.0
 70
128
 71
37
 72
10
 73
11
  0
VERTEX
  8
0
 10
0.0
 20
0.0
 30
0.0
 70
128
 71
37
 72
12
 73
147
  0
VERTEX
  8
0
 10
0.0
 20
0.0
 30
0.0
 70
128
 71
37
 72
11
 73
12
  0
VERTEX
  8
0
 10
0.0
 20
0.0
 30
0.0
 70
128
 71
78
 72
61
 73
135
  0
VERTEX
  8
0
 10
0.0
 20
0.0
 30
0.0
 70
128
 71
137
 72
138
 73
126
  0
VERTEX
  8
0
 10
0.0
 20
0.0
 30
0.0
 70
128
 71
166
 72
167
 73
63
  0
VERTEX
  8
0
 10
0.0
 20
0.0
 30
0.0
 70
128
 71
77
 72
78
 73
135
  0
VERTEX
  8
0
 10
0.0
 20
0.0
 30
0.0
 70
128
 71
136
 72
137
 73
126
  0
VERTEX
  8
0
 10
0.0
 20
0.0
 30
0.0
 70
128
 71
132
 72
166
 73
63
  0
VERTEX
  8
0
 10
0.0
 20
0.0
 30
0.0
 70
128
 71
76
 72
77
 73
135
  0
VERTEX
  8
0
 10
0.0
 20
0.0
 30
0.0
 70
128
 71
135
 72
136
 73
126
  0
VERTEX
  8
0
 10
0.0
 20
0.0
 30
0.0
 70
128
 71
131
 72
132
 73
63
  0
VERTEX
  8
0
 10
0.0
 20
0.0
 30
0.0
 70
128
 71
68
 72
76
 73
135
  0
VERTEX
  8
0
 10
0.0
 20
0.0
 30
0.0
 70
128
 71
135
 72
126
 73
127
  0
VERTEX
  8
0
 10
0.0
 20
0.0
 30
0.0
 70
128
 71
130
 72
131
 73
63
  0
VERTEX
  8
0
 10
0.0
 20
0.0
 30
0.0
 70
128
 71
68
 72
135
 73
67
  0
VERTEX
  8
0
 10
0.0
 20
0.0
 30
0.0
 70
128
 71
135
 72
127
 73
128
  0
VERTEX
  8
0
 10
0.0
 20
0.0
 30
0.0
 70
128
 71
129
 72
130
 73
63
  0
VERTEX
  8
0
 10
0.0
 20
0.0
 30
0.0
 70
128
 71
135
 72
66
 73
67
  0
VERTEX
  8
0
 10
0.0
 20
0.0
 30
0.0
 70
128
 71
135
 72
128
 73
129
  0
VERTEX
  8
0
 10
0.0
 20
0.0
 30
0.0
 70
128
 71
129
 72
63
 73
66
  0
VERTEX
  8
0
 10
0.0
 20
0.0
 30
0.0
 70
128
 71
135
 72
129
 73
66
  0
VERTEX
  8
0
 10
0.0
 20
0.0
 30
0.0
 70
128
 71
64
 72
63
 73
167
  0
VERTEX
  8
0
 10
0.0
 20
0.0
 30
0.0
 70
128
 71
180
 72
116
 73
115
  0
VERTEX
  8
0
 10
0.0
 20
0.0
 30
0.0
 70
128
 71
133
 72
70
 73
71
  0
VERTEX
  8
0
 10
0.0
 20
0.0
 30
0.0
 70
128
 71
65
 72
64
 73
167
  0
VERTEX
  8
0
 10
0.0
 20
0.0
 30
0.0
 70
128
 71
179
 72
180
 73
115
  0
VERTEX
  8
0
 10
0.0
 20
0.0
 30
0.0
 70
128
 71
133
 72
71
 73
72
  0
VERTEX
  8
0
 10
0.0
 20
0.0
 30
0.0
 70
128
 71
65
 72
167
 73
60
  0
VERTEX
  8
0
 10
0.0
 20
0.0
 30
0.0
 70
128
 71
178
 72
179
 73
115
  0
VERTEX
  8
0
 10
0.0
 20
0.0
 30
0.0
 70
128
 71
133
 72
72
 73
73
  0
VERTEX
  8
0
 10
0.0
 20
0.0
 30
0.0
 70
128
 71
167
 72
59
 73
60
  0
VERTEX
  8
0
 10
0.0
 20
0.0
 30
0.0
 70
128
 71
177
 72
178
 73
115
  0
VERTEX
  8
0
 10
0.0
 20
0.0
 30
0.0
 70
128
 71
133
 72
73
 73
74
  0
VERTEX
  8
0
 10
0.0
 20
0.0
 30
0.0
 70
128
 71
167
 72
58
 73
59
  0
VERTEX
  8
0
 10
0.0
 20
0.0
 30
0.0
 70
128
 71
176
 72
177
 73
115
  0
VERTEX
  8
0
 10
0.0
 20
0.0
 30
0.0
 70
128
 71
115
 72
133
 73
74
  0
VERTEX
  8
0
 10
0.0
 20
0.0
 30
0.0
 70
128
 71
167
 72
57
 73
58
  0
VERTEX
  8
0
 10
0.0
 20
0.0
 30
0.0
 70
128
 71
175
 72
176
 73
115
  0
VERTEX
  8
0
 10
0.0
 20
0.0
 30
0.0
 70
128
 71
115
 72
74
 73
75
  0
VERTEX
  8
0
 10
0.0
 20
0.0
 30
0.0
 70
128
 71
167
 72
168
 73
57
  0
VERTEX
  8
0
 10
0.0
 20
0.0
 30
0.0
 70
128
 71
174
 72
175
 73
115
  0
VERTEX
  8
0
 10
0.0
 20
0.0
 30
0.0
 70
128
 71
115
 72
75
 73
57
  0
VERTEX
  8
0
 10
0.0
 20
0.0
 30
0.0
 70
128
 71
168
 72
169
 73
57
  0
VERTEX
  8
0
 10
0.0
 20
0.0
 30
0.0
 70
128
 71
173
 72
174
 73
115
  0
VERTEX
  8
0
 10
0.0
 20
0.0
 30
0.0
 70
128
 71
169
 72
170
 73
57
  0
VERTEX
  8
0
 10
0.0
 20
0.0
 30
0.0
 70
128
 71
172
 72
173
 73
115
  0
VERTEX
  8
0
 10
0.0
 20
0.0
 30
0.0
 70
128
 71
170
 72
171
 73
57
  0
VERTEX
  8
0
 10
0.0
 20
0.0
 30
0.0
 70
128
 71
171
 72
172
 73
115
  0
VERTEX
  8
0
 10
0.0
 20
0.0
 30
0.0
 70
128
 71
171
 72
115
 73
57
  0
VERTEX
  8
0
 10
0.0
 20
0.0
 30
0.0
 70
128
 71
4
 72
5
 73
114
  0
VERTEX
  8
0
 10
0.0
 20
0.0
 30
0.0
 70
128
 71
163
 72
164
 73
17
  0
VERTEX
  8
0
 10
0.0
 20
0.0
 30
0.0
 70
128
 71
3
 72
4
 73
114
  0
VERTEX
  8
0
 10
0.0
 20
0.0
 30
0.0
 70
128
 71
162
 72
163
 73
17
  0
VERTEX
  8
0
 10
0.0
 20
0.0
 30
0.0
 70
128
 71
2
 72
3
 73
114
  0
VERTEX
  8
0
 10
0.0
 20
0.0
 30
0.0
 70
128
 71
113
 72
162
 73
17
  0
VERTEX
  8
0
 10
0.0
 20
0.0
 30
0.0
 70
128
 71
1
 72
2
 73
114
  0
VERTEX
  8
0
 10
0.0
 20
0.0
 30
0.0
 70
128
 71
113
 72
17
 73
18
  0
VERTEX
  8
0
 10
0.0
 20
0.0
 30
0.0
 70
128
 71
1
 72
114
 73
25
  0
VERTEX
  8
0
 10
0.0
 20
0.0
 30
0.0
 70
128
 71
113
 72
18
 73
19
  0
VERTEX
  8
0
 10
0.0
 20
0.0
 30
0.0
 70
128
 71
114
 72
24
 73
25
  0
VERTEX
  8
0
 10
0.0
 20
0.0
 30
0.0
 70
128
 71
113
 72
19
 73
20
  0
VERTEX
  8
0
 10
0.0
 20
0.0
 30
0.0
 70
128
 71
114
 72
113
 73
24
  0
VERTEX
  8
0
 10
0.0
 20
0.0
 30
0.0
 70
128
 71
113
 72
20
 73
21
  0
VERTEX
  8
0
 10
0.0
 20
0.0
 30
0.0
 70
128
 71
113
 72
23
 73
24
  0
VERTEX
  8
0
 10
0.0
 20
0.0
 30
0.0
 70
128
 71
113
 72
21
 73
22
  0
VERTEX
  8
0
 10
0.0
 20
0.0
 30
0.0
 70
128
 71
113
 72
22
 73
23
  0
VERTEX
  8
0
 10
0.0
 20
0.0
 30
0.0
 70
128
 71
94
 72
95
 73
115
  0
VERTEX
  8
0
 10
0.0
 20
0.0
 30
0.0
 70
128
 71
115
 72
116
 73
117
  0
VERTEX
  8
0
 10
0.0
 20
0.0
 30
0.0
 70
128
 71
117
 72
105
 73
106
  0
VERTEX
  8
0
 10
0.0
 20
0.0
 30
0.0
 70
128
 71
93
 72
94
 73
115
  0
VERTEX
  8
0
 10
0.0
 20
0.0
 30
0.0
 70
128
 71
117
 72
106
 73
110
  0
VERTEX
  8
0
 10
0.0
 20
0.0
 30
0.0
 70
128
 71
92
 72
93
 73
115
  0
VERTEX
  8
0
 10
0.0
 20
0.0
 30
0.0
 70
128
 71
117
 72
110
 73
111
  0
VERTEX
  8
0
 10
0.0
 20
0.0
 30
0.0
 70
128
 71
109
 72
92
 73
115
  0
VERTEX
  8
0
 10
0.0
 20
0.0
 30
0.0
 70
128
 71
117
 72
111
 73
112
  0
VERTEX
  8
0
 10
0.0
 20
0.0
 30
0.0
 70
128
 71
109
 72
115
 73
108
  0
VERTEX
  8
0
 10
0.0
 20
0.0
 30
0.0
 70
128
 71
117
 72
112
 73
100
  0
VERTEX
  8
0
 10
0.0
 20
0.0
 30
0.0
 70
128
 71
115
 72
107
 73
108
  0
VERTEX
  8
0
 10
0.0
 20
0.0
 30
0.0
 70
128
 71
117
 72
100
 73
99
  0
VERTEX
  8
0
 10
0.0
 20
0.0
 30
0.0
 70
128
 71
115
 72
98
 73
107
  0
VERTEX
  8
0
 10
0.0
 20
0.0
 30
0.0
 70
128
 71
115
 72
117
 73
99
  0
VERTEX
  8
0
 10
0.0
 20
0.0
 30
0.0
 70
128
 71
115
 72
99
 73
98
  0
VERTEX
  8
0
 10
0.0
 20
0.0
 30
0.0
 70
128
 71
46
 72
45
 73
152
  0
VERTEX
  8
0
 10
0.0
 20
0.0
 30
0.0
 70
128
 71
161
 72
135
 73
134
  0
VERTEX
  8
0
 10
0.0
 20
0.0
 30
0.0
 70
128
 71
134
 72
32
 73
31
  0
VERTEX
  8
0
 10
0.0
 20
0.0
 30
0.0
 70
128
 71
56
 72
46
 73
152
  0
VERTEX
  8
0
 10
0.0
 20
0.0
 30
0.0
 70
128
 71
160
 72
161
 73
134
  0
VERTEX
  8
0
 10
0.0
 20
0.0
 30
0.0
 70
128
 71
134
 72
31
 73
34
  0
VERTEX
  8
0
 10
0.0
 20
0.0
 30
0.0
 70
128
 71
50
 72
56
 73
152
  0
VERTEX
  8
0
 10
0.0
 20
0.0
 30
0.0
 70
128
 71
159
 72
160
 73
134
  0
VERTEX
  8
0
 10
0.0
 20
0.0
 30
0.0
 70
128
 71
134
 72
34
 73
35
  0
VERTEX
  8
0
 10
0.0
 20
0.0
 30
0.0
 70
128
 71
51
 72
50
 73
152
  0
VERTEX
  8
0
 10
0.0
 20
0.0
 30
0.0
 70
128
 71
158
 72
159
 73
134
  0
VERTEX
  8
0
 10
0.0
 20
0.0
 30
0.0
 70
128
 71
134
 72
35
 73
42
  0
VERTEX
  8
0
 10
0.0
 20
0.0
 30
0.0
 70
128
 71
55
 72
51
 73
152
  0
VERTEX
  8
0
 10
0.0
 20
0.0
 30
0.0
 70
128
 71
157
 72
158
 73
134
  0
VERTEX
  8
0
 10
0.0
 20
0.0
 30
0.0
 70
128
 71
134
 72
42
 73
43
  0
VERTEX
  8
0
 10
0.0
 20
0.0
 30
0.0
 70
128
 71
55
 72
152
 73
54
  0
VERTEX
  8
0
 10
0.0
 20
0.0
 30
0.0
 70
128
 71
156
 72
157
 73
134
  0
VERTEX
  8
0
 10
0.0
 20
0.0
 30
0.0
 70
128
 71
134
 72
43
 73
44
  0
VERTEX
  8
0
 10
0.0
 20
0.0
 30
0.0
 70
128
 71
152
 72
44
 73
54
  0
VERTEX
  8
0
 10
0.0
 20
0.0
 30
0.0
 70
128
 71
155
 72
156
 73
134
  0
VERTEX
  8
0
 10
0.0
 20
0.0
 30
0.0
 70
128
 71
152
 72
134
 73
44
  0
VERTEX
  8
0
 10
0.0
 20
0.0
 30
0.0
 70
128
 71
154
 72
155
 73
134
  0
VERTEX
  8
0
 10
0.0
 20
0.0
 30
0.0
 70
128
 71
152
 72
153
 73
134
  0
VERTEX
  8
0
 10
0.0
 20
0.0
 30
0.0
 70
128
 71
153
 72
154
 73
134
  0
VERTEX
  8
0
 10
0.0
 20
0.0
 30
0.0
 70
128
 71
117
 72
118
 73
105
  0
VERTEX
  8
0
 10
0.0
 20
0.0
 30
0.0
 70
128
 71
125
 72
126
 73
138
  0
VERTEX
  8
0
 10
0.0
 20
0.0
 30
0.0
 70
128
 71
146
 72
113
 73
114
  0
VERTEX
  8
0
 10
0.0
 20
0.0
 30
0.0
 70
128
 71
115
 72
95
 73
88
  0
VERTEX
  8
0
 10
0.0
 20
0.0
 30
0.0
 70
128
 71
118
 72
104
 73
105
  0
VERTEX
  8
0
 10
0.0
 20
0.0
 30
0.0
 70
128
 71
124
 72
125
 73
138
  0
VERTEX
  8
0
 10
0.0
 20
0.0
 30
0.0
 70
128
 71
145
 72
146
 73
114
  0
VERTEX
  8
0
 10
0.0
 20
0.0
 30
0.0
 70
128
 71
115
 72
88
 73
89
  0
VERTEX
  8
0
 10
0.0
 20
0.0
 30
0.0
 70
128
 71
118
 72
97
 73
104
  0
VERTEX
  8
0
 10
0.0
 20
0.0
 30
0.0
 70
128
 71
123
 72
124
 73
138
  0
VERTEX
  8
0
 10
0.0
 20
0.0
 30
0.0
 70
128
 71
144
 72
145
 73
114
  0
VERTEX
  8
0
 10
0.0
 20
0.0
 30
0.0
 70
128
 71
114
 72
115
 73
89
  0
VERTEX
  8
0
 10
0.0
 20
0.0
 30
0.0
 70
128
 71
118
 72
96
 73
97
  0
VERTEX
  8
0
 10
0.0
 20
0.0
 30
0.0
 70
128
 71
122
 72
123
 73
138
  0
VERTEX
  8
0
 10
0.0
 20
0.0
 30
0.0
 70
128
 71
114
 72
89
 73
90
  0
VERTEX
  8
0
 10
0.0
 20
0.0
 30
0.0
 70
128
 71
118
 72
103
 73
96
  0
VERTEX
  8
0
 10
0.0
 20
0.0
 30
0.0
 70
128
 71
121
 72
122
 73
138
  0
VERTEX
  8
0
 10
0.0
 20
0.0
 30
0.0
 70
128
 71
114
 72
90
 73
91
  0
VERTEX
  8
0
 10
0.0
 20
0.0
 30
0.0
 70
128
 71
118
 72
102
 73
103
  0
VERTEX
  8
0
 10
0.0
 20
0.0
 30
0.0
 70
128
 71
121
 72
138
 73
139
  0
VERTEX
  8
0
 10
0.0
 20
0.0
 30
0.0
 70
128
 71
114
 72
91
 73
85
  0
VERTEX
  8
0
 10
0.0
 20
0.0
 30
0.0
 70
128
 71
118
 72
119
 73
102
  0
VERTEX
  8
0
 10
0.0
 20
0.0
 30
0.0
 70
128
 71
121
 72
139
 73
140
  0
VERTEX
  8
0
 10
0.0
 20
0.0
 30
0.0
 70
128
 71
114
 72
85
 73
86
  0
VERTEX
  8
0
 10
0.0
 20
0.0
 30
0.0
 70
128
 71
119
 72
120
 73
102
  0
VERTEX
  8
0
 10
0.0
 20
0.0
 30
0.0
 70
128
 71
120
 72
121
 73
140
  0
VERTEX
  8
0
 10
0.0
 20
0.0
 30
0.0
 70
128
 71
114
 72
86
 73
87
  0
VERTEX
  8
0
 10
0.0
 20
0.0
 30
0.0
 70
128
 71
120
 72
101
 73
102
  0
VERTEX
  8
0
 10
0.0
 20
0.0
 30
0.0
 70
128
 71
120
 72
140
 73
141
  0
VERTEX
  8
0
 10
0.0
 20
0.0
 30
0.0
 70
128
 71
144
 72
114
 73
87
  0
VERTEX
  8
0
 10
0.0
 20
0.0
 30
0.0
 70
128
 71
120
 72
141
 73
101
  0
VERTEX
  8
0
 10
0.0
 20
0.0
 30
0.0
 70
128
 71
143
 72
144
 73
87
  0
VERTEX
  8
0
 10
0.0
 20
0.0
 30
0.0
 70
128
 71
141
 72
142
 73
101
  0
VERTEX
  8
0
 10
0.0
 20
0.0
 30
0.0
 70
128
 71
142
 72
143
 73
87
  0
VERTEX
  8
0
 10
0.0
 20
0.0
 30
0.0
 70
128
 71
142
 72
87
 73
101
  0
VERTEX
  8
0
 10
0.0
 20
0.0
 30
0.0
 70
128
 71
69
 72
70
 73
133
  0
VERTEX
  8
0
 10
0.0
 20
0.0
 30
0.0
 70
128
 71
133
 72
134
 73
135
  0
VERTEX
  8
0
 10
0.0
 20
0.0
 30
0.0
 70
128
 71
135
 72
61
 73
62
  0
VERTEX
  8
0
 10
0.0
 20
0.0
 30
0.0
 70
128
 71
84
 72
69
 73
133
  0
VERTEX
  8
0
 10
0.0
 20
0.0
 30
0.0
 70
128
 71
133
 72
135
 73
62
  0
VERTEX
  8
0
 10
0.0
 20
0.0
 30
0.0
 70
128
 71
84
 72
133
 73
83
  0
VERTEX
  8
0
 10
0.0
 20
0.0
 30
0.0
 70
128
 71
133
 72
62
 73
79
  0
VERTEX
  8
0
 10
0.0
 20
0.0
 30
0.0
 70
128
 71
133
 72
82
 73
83
  0
VERTEX
  8
0
 10
0.0
 20
0.0
 30
0.0
 70
128
 71
133
 72
79
 73
80
  0
VERTEX
  8
0
 10
0.0
 20
0.0
 30
0.0
 70
128
 71
133
 72
81
 73
82
  0
VERTEX
  8
0
 10
0.0
 20
0.0
 30
0.0
 70
128
 71
133
 72
80
 73
81
  0
SEQEND
  8
0
  0
ENDSEC
  0
EOF
